<svg width="172" height="168" viewBox="0 0 172 168" fill="none" xmlns="http://www.w3.org/2000/svg">
<path d="M34.2476 133.89C39.5098 133.89 42.8986 129.895 42.8986 124.633C42.8986 119.37 39.5098 115.375 34.2476 115.375C28.9854 115.375 25.5967 119.37 25.5967 124.633C25.5967 129.895 28.9854 133.89 34.2476 133.89ZM34.2476 119.481C37.2507 119.481 38.7935 121.63 38.7935 124.633C38.7935 127.636 37.2507 129.785 34.2476 129.785C31.2446 129.785 29.7018 127.636 29.7018 124.633C29.7018 121.63 31.2446 119.481 34.2476 119.481Z" fill="#FFF167"/>
<path d="M142.439 128.131L132.273 132.071V111.573H127.948V133.752V137.581V143.752H132.273V139.262L142.439 143.201V138.353L134.863 135.653L142.439 132.98V128.131Z" fill="#FFF167"/>
<path d="M20.3345 111.766V107.468H7V121.96H16.0091V128.131H7V132.457H20.3345V117.662H11.3254V111.766H20.3345Z" fill="#FFF167"/>
<path d="M164.508 130.529V109.342H160.182V112.759C158.722 111.491 156.821 110.72 154.562 110.72C149.3 110.72 145.911 114.715 145.911 119.977C145.911 125.239 149.3 129.234 154.562 129.234C156.849 129.234 158.722 128.463 160.182 127.195V130.556H164.508V130.529ZM154.562 125.101C151.559 125.101 150.016 122.952 150.016 119.949C150.016 116.946 151.559 114.797 154.562 114.797C157.565 114.797 159.108 116.946 159.108 119.949C159.108 122.952 157.565 125.101 154.562 125.101Z" fill="#FFF167"/>
<path d="M78.1911 40.8507C78.1911 43.9089 80.1472 44.8731 82.8747 43.1374C83.9767 42.4487 84.4176 40.9334 83.9216 39.6109C82.737 36.5252 78.1911 37.5171 78.1911 40.8507Z" fill="#FFF167"/>
<path d="M96.1267 40.8507C96.1267 43.9089 98.0827 44.8731 100.81 43.1374C101.912 42.4487 102.353 40.9334 101.857 39.6109C100.673 36.5252 96.1267 37.5171 96.1267 40.8507Z" fill="#FFF167"/>
<path d="M93.5585 57.2707C93.2363 57.0771 92.8912 57.0287 92.546 57.0045C91.4184 56.9562 90.2907 57.2949 89.2552 57.9725L88.7029 58.6258C87.6903 59.0371 87 60.5857 87 62.1343C87 63.6587 87.6444 65.1106 88.5188 65.9575C89.3933 66.8044 90.4979 67.0947 91.5334 66.9738C92.2468 66.9012 92.9602 66.635 93.5585 66.0543C94.8932 64.7234 95.2844 61.9408 94.8011 59.6904C94.594 58.6983 94.2028 57.6821 93.5355 57.2707H93.5585Z" fill="#FFF167"/>
<path d="M126.405 37.1866C123.815 34.4591 122.603 33.7978 120.206 33.7978C117.644 33.7978 117.093 33.4397 116.349 31.2907C116.073 30.5193 115.715 29.7754 115.329 29.0316C115.247 28.2326 115.082 27.3234 114.668 26.304C111.886 19.3062 106.238 14.7327 99.1297 13.6858C87.9441 12.0328 75.2156 13.4654 69.733 16.9368C64.2504 20.4082 60.9994 26.6897 62.7351 30.4918C62.7902 30.6295 62.8729 30.7122 62.928 30.8224C62.1841 32.8887 61.4953 33.4397 59.2913 33.6601C57.776 33.7978 55.627 34.5142 54.5525 35.2029C51.8526 36.9662 49.2077 41.4845 49.2077 44.2947C49.2077 47.1048 52.8995 53.6619 54.8556 54.1854C55.6546 54.4058 57.4454 54.8466 58.823 55.1497C58.9607 55.1772 59.0434 55.2323 59.1811 55.2599C58.7403 55.8385 58.4097 56.3895 58.4097 56.8027C58.4097 57.3537 57.9413 57.7945 57.3903 57.7945C56.0127 57.7945 52.9271 65.5638 53.4505 67.7128C53.6985 68.6495 55.021 70.6607 56.4261 72.2036C59.1536 75.2066 61.9637 75.8678 63.6168 73.8566C64.1402 73.223 65.1045 72.8924 65.7657 73.0852C67.7494 73.6913 69.8433 70.9087 70.532 68.1812C72.0198 69.6138 73.5626 70.9363 74.9402 71.873C75.0228 71.9281 75.0779 71.9556 75.1605 72.0107C74.6646 72.3965 74.1687 72.8097 73.6728 73.3607C68.8514 78.4851 65.876 86.2545 65.3801 95.0156C65.1321 99.286 64.6637 102.812 64.3331 102.812C63.3413 102.812 61.6883 107.055 61.6883 109.618C61.6883 113.061 64.8015 117.607 67.8872 118.682C72.2126 120.197 69.2647 121.988 61.027 122.814C52.7893 123.641 49.0975 125.735 48.0506 130.088C45.6261 140.364 55.324 147.224 64.9117 142.072C66.7025 141.108 69.3474 140.337 70.8076 140.309C76.2351 140.309 86.2359 134.386 90.3961 128.793L92.793 125.542L95.0798 130.529C96.3471 133.284 98.3858 138.766 99.6256 142.706C101.554 148.877 102.326 150.2 105.108 152.073C113.732 157.914 124.173 151.412 122.327 141.328C121.997 139.565 119.352 133.201 116.459 127.222C112.547 119.123 111.472 116.588 110.866 111.904C113.428 111.959 116.046 110.692 117.644 108.681C118.801 107.221 119.572 105.457 119.958 103.639C120.371 101.6 120.509 99.4788 119.655 97.5503C118.856 95.7595 117.203 94.3819 115.44 93.5554C114.172 92.9768 112.795 92.536 111.39 92.4258C110.756 91.8748 109.847 91.7922 109.048 92.1779C108.8 92.2881 108.607 92.4809 108.359 92.6187C106.871 85.18 104.943 76.8872 104.419 75.8954C104.006 75.1239 103.455 73.8015 103.207 72.9475C103.152 72.8097 103.069 72.672 102.959 72.5617C108.249 68.8699 113.181 63.9108 115.302 59.5578C116.9 56.2517 117.644 55.618 120.261 55.1221C121.969 54.8191 123.98 54.2405 124.724 53.8548C127.149 52.615 129.628 47.6559 129.628 44.0467C129.628 41.209 129.077 40.0243 126.405 37.2417V37.1866ZM58.4648 51.3752C56.123 51.3752 53.3679 47.4355 53.3679 44.1018C53.3679 42.0906 54.0291 40.6304 55.5995 39.1978C59.4566 35.6162 60.0903 36.3325 60.0903 44.2671C60.0903 50.7415 59.9525 51.4028 58.4648 51.4028V51.3752ZM67.8596 112.676C66.8678 111.408 66.0412 109.673 66.0412 108.791C66.0412 105.32 73.3146 103.116 76.5931 105.623C79.238 107.634 79.4033 110.389 77.034 112.758C74.0585 115.734 70.2289 115.679 67.832 112.648L67.8596 112.676ZM62.928 137.361C61.0821 139.207 60.1454 139.51 57.5557 139.097C53.7536 138.491 53.1475 137.94 52.4587 134.413C52.0179 132.182 52.3485 131.245 54.1393 129.426C56.8393 126.727 59.7872 126.561 62.8729 128.986C65.8209 131.3 65.8484 134.441 62.928 137.361ZM108.828 149.015C105.714 147.72 103.979 143.588 105.494 141.163C107.891 137.306 112.767 136.755 116.156 139.896C121.446 144.8 115.743 151.908 108.8 149.015H108.828ZM111.252 96.3656C111.61 96.4207 111.968 96.5309 112.326 96.6135C112.492 96.6686 112.685 96.7237 112.85 96.7788C112.85 96.7788 113.401 96.9993 113.208 96.9166C113.759 97.137 114.31 97.4401 114.806 97.7982C115.026 97.936 115.605 98.5145 115.715 98.6798C116.349 99.589 116.349 100.884 116.184 101.958C115.991 103.253 115.633 104.383 114.999 105.43C114.448 106.339 113.594 107.165 112.795 107.524C111.913 107.909 111.169 107.937 110.453 107.772C110.04 103.281 109.516 98.5146 109.268 97.1095C109.268 97.0268 109.241 96.9441 109.213 96.8615C109.351 96.7513 109.489 96.6136 109.627 96.5034C110.178 96.3381 110.673 96.2829 111.252 96.3656ZM114.035 133.063C114.035 133.063 112.767 133.311 111.197 133.311C109.626 133.311 107.064 134.11 105.494 135.047C102.133 137.086 101.802 137.141 101.802 135.708C101.802 135.102 101.168 133.449 100.425 131.989C99.6532 130.556 98.2756 127.305 97.3114 124.798C95.6583 120.417 92.7103 117.194 91.2226 118.103C90.8369 118.351 89.79 120.197 88.8808 122.208C85.988 128.738 80.4503 132.953 71.3585 135.515C69.5126 136.039 69.3473 135.873 69.8157 134C70.1187 132.843 69.7606 130.804 69.0718 129.454C67.3637 126.148 67.3912 125.983 70.3942 124.853C71.8269 124.302 73.7003 122.649 74.5268 121.189C75.3809 119.701 76.5656 118.489 77.1993 118.489C77.8329 118.489 79.2931 117.525 80.4778 116.34C82.3788 114.439 83.5084 114.163 90.2584 113.915C94.4461 113.75 99.0746 113.557 100.562 113.447C102.023 113.337 103.896 113.75 104.723 114.356C105.852 115.183 114.035 131.658 114.035 133.091V133.063ZM104.585 96.2003C104.86 97.8809 105.163 99.7268 105.466 101.683C106.017 105.154 106.293 108.185 106.1 108.378C106.045 108.433 105.659 108.488 105.053 108.571C103.207 108.791 99.1297 109.094 94.5011 109.314L83.2605 109.893L83.9216 102.62C85.0788 89.781 85.0513 89.23 83.1227 89.23C81.1942 89.23 80.2299 92.3156 79.9268 98.5972C79.734 102.206 79.734 102.234 77.5024 101.022C76.6483 100.553 74.4993 100.085 72.7636 99.9747C69.7331 99.7819 69.5953 99.6166 69.5953 96.6411C69.5953 89.3401 73.5902 79.477 78.1911 75.3444C78.5217 75.0413 78.7973 74.7107 79.0728 74.325C83.9493 77.025 88.3298 78.2648 91.6083 77.7688C93.7573 77.4382 96.292 76.4464 98.8818 75.0138C99.1297 75.5097 99.4052 76.0331 99.7358 76.5566C101.361 79.0913 102.656 84.1055 104.612 96.1452L104.585 96.2003ZM115.164 46.7743C114.586 54.8742 109.902 63.1669 103.235 67.823C93.6471 74.5178 89.0186 75.3719 82.2962 71.6801C72.8463 66.5281 70.0361 63.718 65.9035 55.1221C65.6556 54.4058 65.38 53.7997 65.1045 53.414C63.5892 50.0252 63.3413 48.3722 63.6443 44.4049C64.1678 37.2417 65.8759 31.9795 69.0167 27.9846C70.0361 27.9571 71.0555 27.8193 71.7167 27.7091C73.783 27.4061 75.7666 26.6898 77.5574 25.6153C78.6595 24.9541 81.2217 23.3286 81.9105 21.8684C81.9656 21.8684 81.9931 21.8684 82.0482 21.8684C81.8829 24.3479 83.6186 26.7724 85.9605 27.6816C88.44 28.6459 91.3329 28.0948 93.6196 26.7173C95.6859 25.45 97.2838 23.549 98.6062 21.5102C98.7715 21.5102 98.9644 21.5653 99.1297 21.5929C99.4328 23.3286 100.094 25.0092 101.306 26.2765C102.656 27.7091 104.695 28.5632 106.651 28.205C107.588 28.0122 108.469 27.5163 109.131 26.8C113.511 31.6764 115.77 38.5641 115.192 46.7743H115.164ZM124.036 48.7303C122.906 50.1905 121.28 51.3752 120.454 51.3752C119.104 51.3752 118.911 50.5487 118.856 44.2396C118.801 36.3876 119.242 35.8366 123.154 39.0049C126.377 41.5947 126.708 45.2865 124.036 48.7028V48.7303Z" fill="#FFF167"/>
</svg>
