<svg width="422" height="76" viewBox="0 0 422 76" fill="none" xmlns="http://www.w3.org/2000/svg">
<path d="M285.6 58.6344V24.0056H277.911V28.5249C275.329 26.2359 271.924 24.886 267.874 24.886C258.484 24.886 252.438 31.9878 252.438 41.3787C252.438 50.7696 258.484 57.8714 267.874 57.8714C271.924 57.8714 275.329 56.4628 277.911 54.2324V58.7518H285.6V58.6344ZM267.874 50.4761C262.533 50.4761 259.775 46.6611 259.775 41.32C259.775 35.979 262.533 32.164 267.874 32.164C273.216 32.164 275.974 35.979 275.974 41.32C275.974 46.6611 273.216 50.4761 267.874 50.4761Z" fill="black"/>
<path d="M227.024 31.6888H247.625V24H219.394V59.3331H227.024V31.6888Z" fill="black"/>
<path d="M411.496 31.6944V24.0056H388.019V58.6344H411.496V51.0043H395.707V31.6944H411.496Z" fill="black"/>
<path d="M361.842 58.6342V24H338.071V2.99339H330.383V26.94V41.5546V58.6342H338.071V41.5546V31.6888H354.153V58.6342H361.842Z" fill="black"/>
<path d="M303.207 58.6288H321.402V24H295.519V75.0041H303.207V58.6874V58.6288ZM303.207 31.63H313.713V50.94H303.207V36.3842V31.63Z" fill="black"/>
<path d="M191.925 66.5523V74.1238H210.062V24H184.648V59.1571H202.49V66.6111H191.925V66.5523ZM192.219 51.5856V31.5127H202.549V37.3233V51.5856H192.219Z" fill="black"/>
<path d="M48.2478 57.1085C57.8147 57.1085 63.9774 49.8305 63.9774 40.2636C63.9774 30.6966 57.8147 23.4188 48.2478 23.4188C38.6809 23.4188 32.5181 30.6966 32.5181 40.2636C32.5181 49.8305 38.6809 57.1085 48.2478 57.1085ZM48.2478 30.8728C53.7062 30.8728 56.5235 34.8051 56.5235 40.2636C56.5235 45.722 53.7062 49.6545 48.2478 49.6545C42.7894 49.6545 39.9721 45.722 39.9721 40.2636C39.9721 34.8051 42.7894 30.8728 48.2478 30.8728Z" fill="black"/>
<path d="M85.4002 57.1085C94.9671 57.1085 101.13 49.8305 101.13 40.2636C101.13 30.6966 94.9671 23.4188 85.4002 23.4188C75.8332 23.4188 69.6704 30.6966 69.6704 40.2636C69.6704 49.8305 75.8332 57.1085 85.4002 57.1085ZM85.4002 30.8728C90.8586 30.8728 93.6759 34.8051 93.6759 40.2636C93.6759 45.722 90.8586 49.6545 85.4002 49.6545C79.9417 49.6545 77.1244 45.722 77.1244 40.2636C77.1244 34.8051 79.9417 30.8728 85.4002 30.8728Z" fill="black"/>
<path d="M134.818 31.225L116.329 38.3856V1.11554H108.464V41.4375V48.422V58.6346H116.329V51.4741L134.818 58.6346V49.8307L121.083 44.9591L134.818 40.029V31.225Z" fill="black"/>
<path d="M25.2402 31.0487V23.2425H1V44.6067H17.434V50.8282H1V58.6343H25.2402V36.7419H8.86483V31.0487H25.2402Z" fill="black"/>
<path d="M175.785 58.6343V23.2425H167.92V27.8206C165.279 25.5315 161.816 24.0642 157.707 24.0642C148.14 24.0642 141.978 31.3421 141.978 40.9091C141.978 50.476 148.14 57.7539 157.707 57.7539C161.875 57.7539 165.279 56.3453 167.92 53.9975V58.5757H175.785V58.6343ZM157.707 50.3C152.249 50.3 149.432 46.3675 149.432 40.9091C149.432 35.4506 152.249 31.5182 157.707 31.5182C163.166 31.5182 165.983 35.4506 165.983 40.9091C165.983 46.3675 163.166 50.3 157.707 50.3Z" fill="black"/>
<path d="M375.165 0C372.465 0 370.235 2.23031 370.235 4.93018C370.235 7.63005 372.465 9.86045 375.165 9.86045C377.865 9.86045 380.095 7.63005 380.095 4.93018C380.095 2.23031 377.865 0 375.165 0Z" fill="black"/>
<path d="M379.097 16.0822H371.233V58.6345H379.097V16.0822Z" fill="black"/>
</svg>
