<svg width="34" height="36" viewBox="0 0 34 36" fill="none" xmlns="http://www.w3.org/2000/svg">
<path d="M33.8071 35.3918V0H25.9422V4.57804C23.3011 2.28902 19.8382 0.821697 15.7297 0.821697C6.16271 0.821697 0 8.09959 0 17.6665C0 27.2335 6.16271 34.5114 15.7297 34.5114C19.8968 34.5114 23.3011 33.1027 25.9422 30.755V35.3331H33.8071V35.3918ZM15.7297 27.0574C10.2712 27.0574 7.45402 23.125 7.45402 17.6665C7.45402 12.2081 10.2712 8.27572 15.7297 8.27572C21.1881 8.27572 24.0054 12.2081 24.0054 17.6665C24.0054 23.125 21.1881 27.0574 15.7297 27.0574Z" fill="black"/>
</svg>
