<svg width="344" height="366" viewBox="0 0 344 366" fill="none" xmlns="http://www.w3.org/2000/svg">
<g clip-path="url(#clip0_708_373)">
<rect width="344" height="366" fill="#FF7F41"/>
<g clip-path="url(#clip1_708_373)">
<rect width="562.97" height="1223.97" transform="translate(-113.977 -612.045)" fill="#FF7F41"/>
<path d="M45.6729 294.73L42.1719 282.126L45.6729 273.024L50.5744 263.221L55.4759 256.218L52.6751 246.416V235.912L56.8763 228.21L63.1782 226.109L71.5808 229.61L77.1825 238.013H81.3837L87.6856 229.61L91.8869 226.109H100.289L107.292 233.111V246.416L103.09 256.218L108.692 263.221L116.394 277.225L114.994 292.63L119.195 303.833V312.936L112.193 322.739L103.09 324.839L97.4886 329.041H89.7863L81.3837 326.94L74.3816 331.141L65.9791 329.041L60.3774 324.839L52.6751 322.739L48.4738 318.537V309.435L52.6751 303.833L45.6729 294.73Z" fill="#C0A392"/>
<path d="M131.802 254.818L128.301 242.214L131.802 233.111L136.703 223.308L141.605 216.306L138.804 206.503V196L143.005 188.298L149.307 186.197L157.71 189.698L163.311 198.101H167.513L173.815 189.698L178.016 186.197H186.418L193.42 193.199V206.503L189.219 216.306L194.821 223.308L202.523 237.313L201.123 252.717L205.324 263.921V273.024L198.322 282.827L189.219 284.927L183.618 289.128H175.915L167.513 287.028L160.511 291.229L152.108 289.128L146.506 284.927L138.804 282.827L134.603 278.625V269.522L138.804 263.921L131.802 254.818Z" fill="#C0A392"/>
<path d="M228.431 305.233L224.93 292.629L228.431 283.527L233.332 273.724L238.234 266.721L235.433 256.918V246.415L239.634 238.713L245.936 236.612L254.339 240.113L259.94 248.516H264.142L270.443 240.113L274.645 236.612H283.047L290.049 243.614V256.918L285.848 266.721L291.45 273.724L299.152 287.728L297.752 303.132L301.953 314.336V323.439L294.951 333.242L285.848 335.342L280.246 339.543H272.544L264.142 337.443L257.139 341.644L248.737 339.543L243.135 335.342L235.433 333.242L231.232 329.04V319.938L235.433 314.336L228.431 305.233Z" fill="white"/>
<path d="M81.0474 142.989L87.7699 151.78C88.1785 152.314 88.6802 152.77 89.2507 153.127L92.022 154.859C93.2818 155.646 94.8029 155.901 96.2505 155.567L101.968 154.248C102.703 154.078 103.375 153.705 103.909 153.172C104.294 152.786 104.754 152.483 105.26 152.281L108.397 151.026C110.301 150.264 112.471 150.624 114.028 151.958C115.497 153.218 117.52 153.614 119.355 153.002L120.598 152.588L125.02 150.819C126.645 150.169 128.481 150.316 129.982 151.216L132.896 152.965C134 153.627 135.297 153.889 136.571 153.707L143.547 152.71C144.115 152.629 144.693 152.636 145.26 152.73L151.952 153.846C152.519 153.94 153.097 153.947 153.665 153.866L160.878 152.835C162.006 152.674 163.156 152.861 164.175 153.37L167.107 154.836C168.684 155.625 170.541 155.625 172.118 154.836L175.432 153.179C176.21 152.79 177.067 152.588 177.937 152.588H182.362C182.731 152.588 183.099 152.624 183.46 152.697L188.87 153.778C189.563 153.917 190.276 153.923 190.971 153.797L196.619 152.77C197.282 152.649 197.96 152.649 198.623 152.77L204.321 153.806C204.984 153.926 205.663 153.926 206.325 153.806L211.614 152.844C212.54 152.676 213.494 152.744 214.387 153.042L216.365 153.701C216.936 153.891 217.534 153.988 218.136 153.988H224.229H231.942C232.4 153.988 232.856 154.044 233.301 154.155L240.365 155.922C240.809 156.033 241.266 156.089 241.724 156.089H251.638C252.931 156.089 254.185 155.641 255.186 154.823L260.481 150.49C261.048 150.026 261.519 149.455 261.866 148.81L265.572 141.928C266.012 141.111 266.242 140.199 266.242 139.272V129.481V126.525C266.242 124.464 265.11 122.57 263.296 121.593L260.048 119.844C258.256 118.879 257.139 117.008 257.139 114.974C257.139 114.379 257.235 113.789 257.423 113.225L259.652 106.536C259.843 105.965 259.94 105.367 259.94 104.765V96.9361C259.94 95.7868 259.586 94.6653 258.927 93.7238L255.415 88.7063C255.165 88.3488 254.874 88.0218 254.547 87.7319L249.537 83.2782C249.008 82.808 248.395 82.4423 247.73 82.2005L241.954 80.1001C241.345 79.8789 240.703 79.7657 240.056 79.7657C238.063 79.7657 236.223 78.6978 235.234 76.9675L234.307 75.3458C234.124 75.0255 233.973 74.688 233.857 74.338L231.072 65.9856C230.719 64.9267 230.058 63.9975 229.174 63.317L222.938 58.5206C221.959 57.7673 220.758 57.3589 219.523 57.3589H217.163C214.704 57.3589 212.532 55.755 211.809 53.4046L210.527 49.2375C210.327 48.5887 210.011 47.9816 209.594 47.4457L206.314 43.2281C205.667 42.3958 204.798 41.7631 203.807 41.4028L198.548 39.4907C197.935 39.2676 197.287 39.1534 196.634 39.1534H187.496C186.784 39.1534 186.078 39.2894 185.416 39.5541L181.751 41.02C180.265 41.6143 178.597 41.5449 177.165 40.8293L173.814 39.1534L166.594 35.5435C165.816 35.1546 164.958 34.9521 164.089 34.9521H159.031C158.162 34.9521 157.304 35.1546 156.526 35.5435L150.576 38.5185C149.743 38.9352 149.027 39.5532 148.492 40.3165L146.464 43.2143C145.209 45.0069 143.025 45.9047 140.873 45.5133L137.492 44.8987C136.969 44.8035 136.434 44.7834 135.904 44.8392L125.66 45.9175C124.21 46.0701 122.876 46.7822 121.943 47.9023L117.695 53.0001C116.856 54.0068 116.396 55.2757 116.396 56.5862V58.7594C116.396 61.8531 113.888 64.361 110.795 64.361H109.814C109.075 64.361 108.343 64.5075 107.66 64.7919L101.456 67.3767C100.689 67.6963 100.003 68.1825 99.4473 68.8002L94.8164 73.9456C94.2718 74.5507 93.8656 75.2673 93.6261 76.0455L91.8058 81.9617C91.4079 83.2547 91.4914 84.648 92.0408 85.8842L92.6057 87.1552C93.4559 89.068 93.1686 91.2951 91.861 92.9296L91.1888 93.7699L85.8316 100.318C85.2126 101.074 84.8023 101.98 84.6416 102.944L83.1312 112.006C82.9087 113.341 83.1768 114.711 83.8859 115.863L86.2059 119.633C87.5013 121.738 87.264 124.443 85.622 126.291L83.5868 128.58C83.0591 129.174 82.6637 129.873 82.4268 130.631L80.1505 137.915C79.6078 139.652 79.9423 141.543 81.0474 142.989Z" fill="#75CA64"/>
<path d="M128.613 99.148L130.985 95.3517C131.062 95.2299 131.147 95.114 131.24 95.005C132.836 93.1433 131.513 90.2673 129.061 90.2673H127.695C125.925 90.2673 124.676 88.5334 125.235 86.8543C125.406 86.3416 125.733 85.8951 126.17 85.5773L132.519 80.9598C132.971 80.6313 133.371 80.2372 133.706 79.7905L137.402 74.8626L140.85 69.1158C141.344 68.2928 142.041 67.6104 142.874 67.1342L150.329 62.8745C151.038 62.469 151.828 62.2236 152.643 62.1558L167.423 60.9241C167.946 60.8805 168.472 60.9106 168.987 61.0135L173.751 61.9664C174.695 62.1553 175.543 62.671 176.144 63.423C177.258 64.8147 177.343 66.767 176.354 68.2499L176.033 68.7309C175.498 69.5331 175.213 70.4756 175.213 71.4397V73.7677C175.213 74.9352 175.578 76.0736 176.257 77.0236L176.649 77.5734C177.91 79.3382 180.076 80.2168 182.21 79.8288L185.92 79.1543C186.25 79.0941 186.586 79.0639 186.922 79.0639H192.653C194.047 79.0639 195.39 79.5833 196.422 80.5207L202.258 85.827C202.433 85.9856 202.628 86.1195 202.839 86.225L204.355 86.983C205.79 87.7003 205.681 89.7828 204.179 90.346C203.254 90.6929 202.769 91.7095 203.081 92.6468L204.952 98.2584C205.196 98.9916 205.286 99.7674 205.216 100.537L204.774 105.395C204.675 106.489 204.256 107.53 203.57 108.387L202.45 109.787C202.034 110.307 201.529 110.749 200.958 111.091L196.15 113.976C195.279 114.499 194.567 115.248 194.089 116.144L189.784 124.216C189.41 124.916 189.19 125.687 189.137 126.479L188.706 132.951C188.587 134.73 187.628 136.347 186.124 137.304L183.795 138.786C181.974 139.945 179.649 139.954 177.819 138.81L176.156 137.771C175.534 137.382 174.993 136.874 174.567 136.277L173.388 134.626C172.336 133.154 170.638 132.28 168.829 132.28H166.11H161.004C158.97 132.28 157.095 133.383 156.107 135.161L155.387 136.457C154.634 137.813 153.353 138.795 151.849 139.171L147.298 140.309C146.32 140.554 145.295 140.53 144.33 140.24L141.587 139.417C139.841 138.894 138.459 137.553 137.883 135.823L137.103 133.485C136.839 132.692 136.755 131.849 136.859 131.019L137.248 127.905C137.349 127.097 137.625 126.321 138.057 125.63L139.152 123.878C140.232 122.15 140.288 119.971 139.298 118.189L138.179 116.174C137.671 115.259 136.917 114.505 136.003 113.997L132.064 111.809C131.427 111.456 130.866 110.981 130.411 110.412L129.334 109.066C128.658 108.222 128.242 107.2 128.134 106.124L127.789 102.674C127.666 101.44 127.955 100.2 128.613 99.148Z" fill="white"/>
<path d="M173.811 61.5586L177.312 63.6592L178.012 65.7599L175.211 73.4622L177.312 79.0639H185.714L193.417 77.6635L195.517 80.4643L204.62 85.3658L208.121 90.2673H199.719L185.714 88.8669L164.008 86.7662L142.301 88.8669L127.597 90.2673L122.695 88.8669L132.498 81.1645L137.4 73.4622L141.601 67.1603L150.004 63.6592L161.907 60.8584L173.811 61.5586Z" fill="#FF7F41"/>
<path fill-rule="evenodd" clip-rule="evenodd" d="M156.32 32.7361C152.841 33.729 148.712 36.6021 144.834 40.7286C142.364 43.3563 142.106 43.4265 137.896 42.606C130.918 41.2477 124.838 42.1269 121.329 45.0026C117.808 47.889 114.145 54.6725 113.943 58.6834C113.815 61.2436 113.537 61.488 110.659 61.5707C105.778 61.7111 98.735 64.3895 96.2229 67.0599C91.3123 72.2789 88.4122 82.2448 90.067 88.2061C90.9073 91.2311 90.8242 91.4338 88.3979 92.2748C81.1531 94.786 78.6232 113.922 84.6244 120.822C85.8671 122.251 85.6668 122.672 82.2625 125.797C80.2171 127.674 78.4926 129.772 78.4292 130.458C78.0707 134.386 77.8409 135.568 77.2563 136.508C76.8996 137.083 77.1168 139.528 77.739 141.943C79.1479 147.407 85.8581 155.498 88.642 155.088C91.6556 154.645 91.3105 153.143 87.1419 148.564C81.9514 142.864 80.7651 139.008 82.6022 133.822C84.1059 129.579 87.681 125.928 90.3325 125.928C92.8348 125.928 93.4677 123.244 91.3641 121.55C88.0475 118.88 86.3883 115.322 86.0486 110.15C85.5792 103.007 87.3457 98.3987 91.4482 96.0607C96.3829 93.249 96.9122 92.5219 95.7419 90.1662C93.743 86.1428 93.7511 82.86 95.7732 77.1281C96.8827 73.9839 98.5589 71.0042 99.5226 70.461C100.481 69.9223 101.813 68.9809 102.483 68.3711C104.309 66.7061 107.731 66.0847 111.927 66.6563C113.993 66.9381 116.124 66.8883 116.662 66.547C117.199 66.2048 117.821 63.7246 118.044 61.0355C118.479 55.7766 122.074 48.8988 124.845 48.0232C125.685 47.7574 127.231 47.1325 128.283 46.6347C130.58 45.5466 138.748 46.4951 142.195 48.2499C145.609 49.9887 146.486 49.7913 146.486 47.2881C146.486 44.583 153.728 37.3977 157.114 36.7425C160.101 36.1647 167.164 37.4777 170.614 39.252C172.085 40.0085 173.942 41.6184 174.741 42.8309C176.557 45.5875 180.051 45.7235 182.811 43.1456C188.042 38.26 202.58 39.6121 205.608 45.2657C206.195 46.3609 207.151 47.657 207.733 48.1459C208.315 48.6348 209.28 51.3159 209.876 54.1036C211.066 59.6613 212.437 60.7226 217.111 59.7021C219.259 59.2328 220.672 59.7617 224.653 62.5245C230.669 66.6999 232.613 70.4814 232.174 77.1574L232.037 79.2407C231.944 80.6555 233.13 81.8227 234.543 81.7079C243.467 80.9834 245.921 81.7977 251.872 87.4584C255.996 91.3831 257.084 93.7628 257.802 100.437C258.418 106.155 257.192 110.537 253.614 115.409C252.192 117.346 253.785 119.374 257.338 120.15C263.716 121.543 267.191 132.698 263.493 139.909C262.567 141.716 261.809 143.527 261.809 143.932C261.809 144.338 261.005 145.529 260.021 146.578C257.905 148.837 257.832 149.38 259.461 150.725C261.544 152.445 263.416 150.884 266.276 145.046C272.116 133.126 270.516 122.822 261.895 116.838L261.552 116.6C260.492 115.864 260.071 114.499 260.534 113.295L261.344 111.184C263.329 106.017 262.842 93.8677 260.549 91.3476C259.767 90.4888 259.127 89.4817 259.127 89.1092C259.127 87.9207 254.337 83.2396 250.34 80.5221C247.996 78.9282 244.647 77.6303 241.848 77.2312L239.326 76.8713C238.083 76.6941 237.11 75.712 236.945 74.468L236.694 72.5811C235.912 66.7079 234.635 64.2677 230.816 61.3467C224.615 56.6042 222.15 55.4201 218.306 55.3383C214.613 55.2592 214.495 55.1641 213.924 51.8092C211.929 40.0672 198.648 32.7565 186.318 36.6128C183.598 37.4635 180.938 38.6795 180.408 39.316C179.642 40.2334 178.505 39.7658 174.893 37.0483C169.343 32.8712 161.9 31.1431 156.32 32.7361ZM187.609 51.2999C182.503 52.6137 181.416 53.38 179.468 57.03C177.639 60.4577 177.203 60.7751 175.307 60.0586C172.104 58.847 158.249 59.119 153.191 60.4924C150.732 61.16 146.978 62.6472 144.846 63.7975C140.72 66.0261 135.386 72.4371 134.396 76.3609C133.848 78.5299 128.842 83.2627 127.102 83.2564C125.195 83.2502 118.782 87.4211 117.968 89.1963C116.88 91.5716 117.752 92.3476 121.252 92.1191C125.317 91.8542 131.843 92.3272 130.154 92.7645C126.52 93.7059 124.669 104.046 127.248 109.004C128.833 112.053 132.728 115.261 134.844 115.261C135.856 115.261 136.74 116.49 137.469 118.913C138.473 122.245 138.404 122.741 136.674 124.573C135.055 126.287 134.816 127.468 135.044 132.66C135.307 138.644 135.368 138.78 138.887 141.194C145.16 145.499 152.387 143.73 156.767 136.819C158.458 134.15 158.856 133.995 164.119 133.963C169.378 133.931 169.758 134.071 171.033 136.524C173.979 142.188 183.187 143.796 187.594 139.414C190.352 136.672 192.201 131.474 191.444 128.595C190.856 126.359 192.784 119.19 194.314 117.928C195.18 117.212 195.682 118.561 196.539 123.911C197.147 127.71 197.625 131.509 197.601 132.355C197.565 133.6 198.184 133.829 200.852 133.561C205.879 133.054 208.172 132.091 208.155 130.491C208.147 129.693 206.337 125.699 204.132 121.616C201.928 117.534 200.125 114.044 200.125 113.861C200.125 113.679 201.273 112.938 202.678 112.215C207.037 109.974 208.802 100.327 205.881 94.7104C204.391 91.8445 204.936 91.1938 208.274 91.8578C211.261 92.4516 213.675 90.8791 212.891 88.8488C212.596 88.0834 208.949 85.893 204.789 83.9818L201.212 82.3389C199.351 81.4843 199.007 78.9874 200.566 77.6606L200.909 77.369C203.953 74.7777 204.595 73.6772 204.595 71.0504C204.595 67.4208 200.935 61.9263 198.515 61.9218C197.388 61.9201 196.979 61.1155 196.929 58.8114C196.887 56.8771 196.098 54.8947 194.84 53.564C192.478 51.0643 190.694 50.5051 187.609 51.2999ZM191.601 56.0139C193.084 57.0922 193.145 57.6407 192.194 61.3929C190.888 66.5514 191.4 67.4652 195.201 66.7567C199.11 66.0269 200.863 68.6102 199.022 72.3864C197.963 74.5599 197.361 74.8141 193.278 74.8141C190.193 74.8141 188.153 75.3182 186.974 76.3698C186.015 77.2267 183.825 77.9254 182.095 77.9254C179.599 77.9254 178.743 77.4614 177.919 75.6613C176.389 72.3233 176.622 71.1251 179.275 68.6787C180.875 67.2039 181.755 65.3825 181.929 63.1877C182.203 59.7217 184.189 56.8637 187.162 55.653C189.628 54.6494 189.737 54.6583 191.601 56.0139ZM172.782 64.2403C172.95 64.2747 173.121 64.2833 173.292 64.2643C174.76 64.1007 175.648 65.8421 174.654 66.9345L173.811 67.8612C172.468 69.2915 172.417 70.0939 172.157 71.4388C171.601 74.3332 174.291 80.1024 176.826 81.4519C179.473 82.8599 185.696 82.5444 188.572 80.8545C191.09 79.3753 191.211 79.3949 193.627 81.6519C194.988 82.9231 198.208 84.8521 200.783 85.9383C205.265 87.8282 206.765 90.2586 202.442 88.6238C201.292 88.1891 196.781 87.5936 192.416 87.3011C188.052 87.0078 182.289 85.3285 180.408 85.0485C174.384 84.1489 159.068 84.2751 153.069 85.0485C149.873 85.4601 142.071 86.4727 137.4 86.7669C132.729 87.0612 129.042 87.9714 127.936 88.2034C124.487 88.9288 125.792 87.3571 130.556 85.0485C134.517 83.1284 136.227 83.0055 138.44 78.3644C140.466 74.1177 142.192 71.7102 143.392 70.3708C143.865 69.8427 144.549 69.4942 145.17 69.1523C145.744 68.8364 146.478 68.374 147.203 67.8612C152.511 64.102 164.112 62.4703 172.782 64.2403ZM176.242 89.2195L180.958 89.6065C181.81 89.6765 182.584 90.1318 183.058 90.8429L185.535 94.5531C187.31 97.2119 189.749 100.031 190.954 100.817C193.033 102.17 193.114 102.546 192.525 108.021C191.872 114.083 188.886 121.484 187.093 121.484C186.514 121.484 185.546 120.892 184.942 120.169C184.266 119.357 182.768 118.979 181.034 119.18C179.487 119.36 177.75 119.552 177.174 119.606C174.86 119.826 170.801 124.262 170.252 127.171C169.518 131.066 169.324 131.133 160.578 130.488C159.724 130.425 158.472 129.073 157.796 127.484C155.771 122.726 150.646 119.706 144.596 119.706C141.573 119.706 140.516 118.026 139.248 111.207C138.252 105.847 139.578 94.2615 141.484 91.6685C142.155 90.7573 144.606 90.1209 148.738 89.7839C152.17 89.5048 155.124 89.1448 155.301 88.9847C155.815 88.5189 169.602 88.6736 176.242 89.2195ZM200.134 93.9264C203.238 93.9264 204.844 101.487 202.85 106.704C201.989 108.957 198.617 111.391 197.667 110.447C197.004 109.787 196.01 97.6831 196.397 94.97C196.598 93.5522 197.114 93.0623 198.034 93.4144C198.773 93.6962 199.718 93.9264 200.134 93.9264ZM136.327 98.0511C136.014 100.319 135.758 104.319 135.758 106.941C135.758 112.258 134.957 112.767 131.695 109.523C127.101 104.955 130.083 94.4437 136.103 93.9868C136.539 93.953 136.64 95.7825 136.327 98.0511ZM148.944 95.7754C146.006 97.4777 147.378 98.1373 153.637 98.0315C157.641 97.9648 159.895 97.5639 159.895 96.9195C159.897 94.922 151.866 94.0829 148.944 95.7754ZM171.741 95.4038C171.127 95.6509 170.623 96.3194 170.624 96.8892C170.624 97.5737 172.816 97.9639 177.062 98.036C183.488 98.1444 183.496 98.1417 181.433 96.4803C179.48 94.9078 174.387 94.3424 171.741 95.4038ZM153.069 102.365C152.76 103.168 152.935 104.251 153.459 104.771C154.821 106.126 157.401 104.888 157.046 103.051C156.65 101.005 153.785 100.511 153.069 102.365ZM173.305 103.767C173.305 105.164 173.787 105.538 175.308 105.323C178.279 104.9 178.54 101.927 175.606 101.927C173.876 101.927 173.305 102.383 173.305 103.767ZM163.503 108.091C162.055 110.782 162.395 112.594 164.349 112.594C165.481 112.594 166.317 111.811 166.668 110.422C167.625 106.63 165.236 104.871 163.503 108.091ZM184.22 125.172C186.731 126.95 186.888 127.385 186.492 131.489C186.256 133.913 185.507 136.247 184.826 136.676C182.394 138.208 178.147 137.549 176.034 135.312C174.27 133.445 174.067 132.57 174.59 129.101C175.207 125.014 175.393 124.852 181.213 123.341C181.383 123.298 182.736 124.121 184.22 125.172ZM149.444 125.47C153.198 127.03 153.733 127.741 153.834 131.306C153.942 135.051 149.796 139.262 146.002 139.262C142.461 139.262 138.44 135.762 138.44 132.68C138.44 129.495 140.127 126.256 142.342 125.19C144.973 123.923 145.799 123.956 149.444 125.47ZM106.604 148.134C104.09 149.144 100.05 154.362 100.627 155.855C101.383 157.815 103.337 157.204 105.363 154.374C107.896 150.836 111.29 150.851 114.261 154.412C116.879 157.551 118.401 157.699 121.198 155.086C122.529 153.842 124.427 153.13 126.41 153.13C128.61 153.13 129.935 153.706 130.906 155.086C132.6 157.49 133.548 157.517 137.953 155.284C142.278 153.091 145.265 153.67 148.387 157.304L148.717 157.69C149.795 158.945 151.722 158.989 152.856 157.786C157.516 152.841 163.312 151.949 165.842 155.788C167.097 157.693 167.823 157.998 170.049 157.555C171.53 157.261 173.371 156.456 174.14 155.766C174.91 155.077 176.686 154.229 178.087 153.881C180.157 153.367 181.043 153.686 182.816 155.59C185.515 158.483 186.247 158.496 189.923 155.708C193.773 152.788 196.46 152.903 200.59 156.167C203.739 158.656 204.119 158.751 205.854 157.488C206.882 156.739 209.067 155.441 210.709 154.604L211.687 154.105C212.859 153.507 214.29 153.805 215.125 154.823L216.22 156.157C218.666 159.137 218.8 159.184 220.504 157.65C221.471 156.779 223.774 155.652 225.622 155.145C228.534 154.345 229.328 154.478 231.6 156.148C234.572 158.334 236.778 157.963 236.778 155.278C236.778 151.212 227.587 148.508 222.488 151.074C220.617 152.014 219.772 151.941 217.151 150.612C213.444 148.733 208.697 149.268 205.799 151.892C204.215 153.325 203.739 153.414 203.117 152.397C200.968 148.882 192.684 148.33 187.989 151.388C186.114 152.61 185.869 152.569 184.959 150.879C184.262 149.584 183.088 149.041 180.982 149.041C177.78 149.041 171.997 151.106 171.084 152.574C170.747 153.117 169.567 152.762 168.088 151.675C164.246 148.851 159.966 148.559 155.047 150.788C151.16 152.549 150.648 152.596 149.236 151.324C147.426 149.696 139.862 149.435 136.067 150.871C134.083 151.621 133.374 151.538 132.583 150.461C130.919 148.199 125.029 147.816 121.505 149.739C118.434 151.416 118.42 151.415 115.346 149.341C112.135 147.175 109.795 146.852 106.604 148.134ZM141.822 186.605C140.397 187.95 138.58 190.759 137.785 192.846C135.972 197.61 135.897 208.055 137.648 212.22C139.225 215.972 138.522 218.229 134.642 221.885C133.117 223.32 131.87 224.889 131.87 225.37C131.87 225.852 131.326 226.877 130.662 227.649C129.004 229.577 126.409 237.958 125.95 242.866C125.444 248.286 128.321 257.022 132.175 261.766L133.947 263.946C134.701 264.875 134.783 266.181 134.149 267.196L133.544 268.166C131.461 271.504 131.308 278.973 133.266 281.751C134.921 284.102 139.079 286.389 141.697 286.389C142.725 286.389 144.455 287.226 145.541 288.248C151.004 293.39 158.399 294.531 164.203 291.125C166.882 289.555 167.635 289.453 169.49 290.416C174.114 292.817 182.789 292.396 185.611 289.633C186.836 288.433 189.386 287.29 191.606 286.946C199.592 285.71 206.022 278.984 208.154 269.635C208.707 267.211 206.36 259.088 204.463 256.859C203.398 255.609 203.345 254.61 204.169 251.355C206.881 240.645 203.783 229.528 195.629 220.699C192.28 217.074 192.122 216.124 194.002 210.829C196.931 202.573 194.772 191.291 189.298 186.246C187.453 184.546 186.057 184.161 181.733 184.161C176.767 184.161 176.211 184.379 173.028 187.576C171.158 189.455 169.364 191.819 169.041 192.83C168.718 193.84 167.813 195.196 167.031 195.841C165.818 196.843 165.394 196.709 164.16 194.935C163.364 193.79 160.948 190.897 158.79 188.507C154.945 184.245 154.768 184.161 149.641 184.161C145.163 184.161 144.042 184.511 141.822 186.605ZM155.464 190.642C160.246 195.381 162.501 199.995 162.609 205.257L162.664 207.961C162.692 209.341 161.711 210.535 160.352 210.776L159.136 210.992C148.96 212.794 144.936 213.603 144.345 213.965C142.295 215.225 139.684 204.368 140.599 198.384C142.008 189.166 149.852 185.081 155.464 190.642ZM186.601 189.191C188.319 190.195 190.873 198.137 190.873 202.479C190.873 208.499 188.565 214.61 186.519 214.009C185.717 213.773 183.855 213.339 182.38 213.043C180.905 212.748 178.089 212.152 176.122 211.718C174.155 211.284 171.527 210.721 170.281 210.466C167.808 209.961 167.495 208.064 168.86 201.859C169.698 198.053 175.284 190.418 178.386 188.842C180.319 187.858 184.633 188.042 186.601 189.191ZM179.356 216.316C186.172 218.13 192.995 222.949 196.32 228.297C198.159 231.256 200.424 238.154 200.8 241.942C201.539 249.383 198.018 257.834 192.214 262.55C188.143 265.858 184.775 266.772 177.94 266.425C172.415 266.144 171.425 266.35 169.164 268.24C166.699 270.304 166.524 270.325 163.771 268.9C161.983 267.976 158.259 267.338 153.76 267.187C146.436 266.94 144.378 266.263 139.188 262.398C135.671 259.779 133.409 256.341 131.475 250.672C126.867 237.178 137.771 219.042 151.985 216.559C153.951 216.216 156.164 215.584 156.901 215.156C158.87 214.011 173.54 214.77 179.356 216.316ZM149.949 227.325C146.047 230.043 148.375 232.699 152.444 230.172C153.857 229.294 154.582 229.294 155.995 230.172C158.464 231.705 159.583 231.549 159.583 229.675C159.583 225.983 153.874 224.591 149.949 227.325ZM172.527 227.74C170.24 230.253 171.994 232.107 175.098 230.455C176.7 229.603 177.703 229.562 179.08 230.295C183.376 232.581 185.64 230.046 181.733 227.325C178.932 225.373 174.499 225.573 172.527 227.74ZM238.372 236.654C236.947 237.999 235.13 240.807 234.335 242.895C232.521 247.659 232.447 258.103 234.198 262.269C235.775 266.021 235.072 268.278 231.192 271.934C229.667 273.369 228.42 274.938 228.42 275.419C228.42 275.901 227.876 276.926 227.212 277.698C225.554 279.626 222.958 288.007 222.5 292.915C221.994 298.335 224.871 307.071 228.725 311.815L230.496 313.995C231.251 314.924 231.332 316.23 230.699 317.245L230.093 318.215C228.01 321.553 227.857 329.021 229.815 331.8C231.471 334.151 235.629 336.438 238.246 336.438C239.274 336.438 241.004 337.274 242.09 338.297C247.554 343.439 254.949 344.58 260.753 341.174C263.432 339.603 264.185 339.502 266.039 340.465C270.664 342.866 279.339 342.444 282.16 339.682C283.386 338.482 285.936 337.338 288.155 336.994C296.142 335.759 302.572 329.033 304.704 319.684C305.257 317.26 302.91 309.137 301.013 306.908C299.948 305.657 299.894 304.659 300.718 301.404C303.431 290.694 300.333 279.577 292.178 270.748C288.829 267.123 288.672 266.172 290.551 260.878C293.481 252.621 291.322 241.34 285.848 236.295C284.003 234.594 282.606 234.21 278.282 234.21C273.317 234.21 272.761 234.427 269.578 237.625C267.707 239.504 265.913 241.868 265.59 242.879C265.268 243.889 264.363 245.245 263.581 245.89C262.368 246.892 261.944 246.758 260.709 244.984C259.914 243.839 257.497 240.946 255.34 238.556C251.494 234.294 251.317 234.21 246.191 234.21C241.712 234.21 240.592 234.56 238.372 236.654ZM252.014 240.691C256.796 245.43 259.051 250.044 259.158 255.306L259.213 258.01C259.241 259.39 258.26 260.584 256.902 260.825L255.686 261.04C245.51 262.842 241.485 263.651 240.895 264.014C238.844 265.274 236.234 254.417 237.149 248.433C238.557 239.215 246.402 235.13 252.014 240.691ZM283.151 239.24C284.869 240.244 287.422 248.185 287.422 252.528C287.422 258.548 285.115 264.659 283.069 264.058C282.267 263.822 280.405 263.387 278.93 263.092C277.454 262.797 274.638 262.201 272.672 261.767C270.705 261.333 268.077 260.769 266.83 260.515C264.358 260.009 264.045 258.112 265.41 251.907C266.248 248.102 271.834 240.467 274.935 238.891C276.869 237.907 281.182 238.091 283.151 239.24ZM153.922 235.423C152.632 236.706 153.363 239.275 155.018 239.275C157.061 239.275 158.042 237.209 156.653 235.828C155.505 234.686 154.772 234.578 153.922 235.423ZM174.252 236.055C173.529 237.93 174.544 239.275 176.684 239.275C178.034 239.275 178.411 238.78 178.196 237.284C177.863 234.96 175.017 234.074 174.252 236.055ZM163.786 240.726C163.442 241.069 163.159 242.082 163.159 242.979C163.159 244.137 163.825 244.609 165.457 244.609C167.324 244.609 167.7 244.237 167.468 242.618C167.185 240.647 164.996 239.522 163.786 240.726ZM159.286 251.424C157.122 253.575 161.515 257.943 165.841 257.943C168.26 257.943 172.993 254.702 172.993 253.046C172.993 250.838 171.286 250.719 168.542 252.736L167.5 253.502C166.513 254.227 165.169 254.227 164.182 253.502L163.195 252.776C160.265 250.622 160.137 250.578 159.286 251.424ZM55.9998 226.156C54.5748 227.501 52.7583 230.31 51.9635 232.397C50.1496 237.162 50.0754 247.606 51.8259 251.771C53.4028 255.524 52.7002 257.781 48.8203 261.436C47.2952 262.872 46.0481 264.44 46.0481 264.921C46.0481 265.403 45.5045 266.428 44.8403 267.2C43.182 269.128 40.5867 277.509 40.1281 282.418C39.6221 287.837 42.499 296.573 46.3529 301.317L48.1246 303.498C48.8793 304.426 48.9606 305.732 48.327 306.747L47.7216 307.717C45.6386 311.055 45.4858 318.524 47.4436 321.303C49.0992 323.653 53.2571 325.94 55.8747 325.94C56.9028 325.94 58.6326 326.777 59.7188 327.799C65.1819 332.941 72.5769 334.082 78.3815 330.676C81.0598 329.106 81.8135 329.004 83.6676 329.967C88.2921 332.368 96.9673 331.947 99.7887 329.184C101.014 327.984 103.564 326.841 105.784 326.497C113.771 325.261 120.2 318.535 122.332 309.186C122.886 306.762 120.538 298.639 118.641 296.41C117.576 295.16 117.523 294.161 118.347 290.906C121.059 280.196 117.962 269.079 109.807 260.25C106.458 256.625 106.3 255.675 108.18 250.38C111.109 242.124 108.95 230.842 103.476 225.797C101.631 224.097 100.235 223.712 95.9106 223.712C90.9455 223.712 90.3894 223.93 87.206 227.127C85.3357 229.006 83.5415 231.37 83.2188 232.381C82.8961 233.392 81.9914 234.747 81.2091 235.393C79.996 236.394 79.5723 236.26 78.3377 234.486C77.542 233.341 75.1256 230.448 72.9684 228.058C69.1226 223.796 68.9455 223.712 63.8195 223.712C59.3406 223.712 58.2205 224.062 55.9998 226.156ZM69.6419 230.193C74.4238 234.932 76.6793 239.547 76.7866 244.808L76.8416 247.512C76.8697 248.892 75.8888 250.086 74.5302 250.327L73.3144 250.543C63.1383 252.345 59.1135 253.154 58.5235 253.516C56.4727 254.776 53.8623 243.919 54.7769 237.935C56.1858 228.718 64.0304 224.632 69.6419 230.193ZM100.779 228.742C102.497 229.746 105.051 237.688 105.051 242.03C105.051 248.05 102.743 254.161 100.697 253.56C99.8951 253.324 98.0329 252.89 96.5579 252.595C95.0828 252.299 92.2668 251.703 90.3 251.269C88.3333 250.835 85.705 250.272 84.4588 250.017C81.986 249.512 81.6731 247.615 83.0382 241.41C83.8759 237.604 89.4624 229.969 92.5636 228.393C94.4973 227.409 98.8107 227.593 100.779 228.742ZM275.906 266.365C282.722 268.179 289.545 272.998 292.869 278.346C294.708 281.305 296.974 288.203 297.35 291.991C298.088 299.432 294.568 307.883 288.763 312.599C284.693 315.907 281.325 316.821 274.49 316.474C268.964 316.193 267.975 316.398 265.714 318.289C263.248 320.352 263.074 320.374 260.32 318.949C258.533 318.024 254.809 317.387 250.31 317.236C242.985 316.989 240.927 316.312 235.738 312.447C232.221 309.827 229.959 306.39 228.025 300.721C223.417 287.227 234.321 269.091 248.534 266.608C250.501 266.265 252.714 265.633 253.451 265.204C255.42 264.059 270.09 264.818 275.906 266.365ZM202.86 264.169C204.451 269.497 203.598 272.242 198.53 278.098C195.766 281.293 190.711 283.857 189.517 282.671C189.333 282.488 189.538 280.776 189.972 278.866C190.622 275.996 190.447 274.958 188.963 272.885C187.247 270.488 187.239 270.349 188.797 269.716C191.956 268.433 197.953 263.962 199.342 261.854C200.115 260.681 200.924 259.721 201.139 259.721C201.355 259.721 202.129 261.723 202.86 264.169ZM142.162 269.625C144.955 270.629 144.971 270.669 143.83 273.847C143.195 275.612 142.659 278.155 142.637 279.5C142.591 282.368 141 282.658 138.105 280.326C135.81 278.479 135.282 272.282 137.221 269.959C138.569 268.344 138.595 268.342 142.162 269.625ZM183.276 273.058C184.647 274.338 185.509 276.124 185.509 277.683C185.509 280.688 183.467 285.891 181.912 286.846C179.937 288.06 173.879 287.554 170.828 285.92C168.095 284.456 167.905 284.089 168.608 281.651C169.031 280.184 169.162 278.133 168.9 277.093C168.587 275.852 169.155 274.414 170.554 272.914C173.411 269.849 179.92 269.922 183.276 273.058ZM246.499 277.374C242.596 280.091 244.924 282.748 248.994 280.22C250.407 279.343 251.131 279.343 252.545 280.22C255.014 281.754 256.133 281.598 256.133 279.723C256.133 276.032 250.424 274.64 246.499 277.374ZM269.077 277.789C266.789 280.302 268.544 282.156 271.648 280.504C273.25 279.651 274.253 279.61 275.63 280.344C279.925 282.629 282.19 280.095 278.283 277.374C275.481 275.422 271.049 275.622 269.077 277.789ZM157.979 272.202C162.882 273.555 164.717 276.35 164.105 281.534C163.725 284.753 163.033 286.186 161.205 287.54C159.028 289.152 158.427 289.214 154.786 288.2C149.136 286.627 147.068 284.449 147.068 280.073C147.068 275.756 148.304 273.222 150.925 272.172C153.528 271.13 154.107 271.132 157.979 272.202ZM250.472 285.472C249.181 286.755 249.913 289.324 251.568 289.324C253.611 289.324 254.592 287.258 253.203 285.877C252.055 284.735 251.322 284.627 250.472 285.472ZM270.801 286.104C270.078 287.979 271.094 289.324 273.234 289.324C274.584 289.324 274.96 288.829 274.746 287.333C274.412 285.009 271.567 284.123 270.801 286.104ZM93.5344 255.868C100.35 257.681 107.173 262.5 110.498 267.848C112.337 270.807 114.602 277.705 114.978 281.493C115.717 288.934 112.196 297.386 106.392 302.101C102.321 305.409 98.9528 306.323 92.1184 305.976C86.5927 305.695 85.6031 305.901 83.3422 307.792C80.8766 309.855 80.7022 309.876 77.9488 308.451C76.1608 307.527 72.4374 306.889 67.938 306.738C60.6137 306.491 58.5557 305.815 53.3662 301.949C49.8493 299.33 47.5875 295.892 45.6529 290.223C41.0454 276.729 51.9492 258.593 66.1626 256.11C68.1293 255.767 70.3419 255.135 71.0795 254.707C73.048 253.562 87.7182 254.321 93.5344 255.868ZM260.336 290.775C259.991 291.118 259.709 292.131 259.709 293.028C259.709 294.186 260.375 294.658 262.007 294.658C263.874 294.658 264.25 294.286 264.018 292.666C263.735 290.696 261.546 289.571 260.336 290.775ZM64.127 266.876C60.2248 269.594 62.5527 272.25 66.6221 269.723C68.0355 268.845 68.7596 268.845 70.173 269.723C72.6421 271.256 73.7614 271.1 73.7614 269.226C73.7614 265.534 68.0524 264.142 64.127 266.876ZM86.7053 267.291C84.4176 269.804 86.1725 271.658 89.2764 270.006C90.8784 269.154 91.8814 269.113 93.2582 269.846C97.5537 272.132 99.8182 269.597 95.9115 266.876C93.1098 264.924 88.6774 265.124 86.7053 267.291ZM255.835 301.473C253.672 303.623 258.065 307.992 262.391 307.992C264.81 307.992 269.543 304.751 269.543 303.095C269.543 300.886 267.836 300.767 265.092 302.784L264.05 303.55C263.063 304.276 261.719 304.276 260.732 303.551L259.745 302.825C256.815 300.671 256.686 300.627 255.835 301.473ZM68.0998 274.974C66.8098 276.257 67.5411 278.826 69.1959 278.826C71.2395 278.826 72.2202 276.76 70.8309 275.379C69.6831 274.238 68.95 274.129 68.0998 274.974ZM88.4298 275.607C87.7066 277.481 88.7221 278.826 90.8623 278.826C92.2122 278.826 92.5886 278.331 92.374 276.835C92.0406 274.511 89.195 273.625 88.4298 275.607ZM299.41 314.218C301.001 319.546 300.147 322.29 295.08 328.147C292.316 331.342 287.261 333.906 286.067 332.719C285.883 332.537 286.088 330.825 286.521 328.915C287.172 326.044 286.997 325.007 285.513 322.934C283.796 320.536 283.788 320.398 285.346 319.765C288.506 318.482 294.503 314.011 295.892 311.903C296.665 310.73 297.473 309.77 297.689 309.77C297.904 309.77 298.678 311.772 299.41 314.218ZM77.964 280.277C77.6198 280.62 77.3373 281.634 77.3373 282.53C77.3373 283.688 78.0033 284.16 79.6348 284.16C81.5024 284.16 81.8778 283.788 81.6463 282.169C81.3629 280.198 79.1744 279.073 77.964 280.277ZM238.712 319.673C241.505 320.678 241.521 320.718 240.379 323.896C239.745 325.66 239.208 328.204 239.187 329.549C239.14 332.417 237.55 332.707 234.654 330.375C232.359 328.528 231.832 322.331 233.771 320.008C235.119 318.392 235.144 318.391 238.712 319.673ZM258.35 323.31C260.894 327.016 261.104 327.777 260.65 331.627C260.275 334.801 259.577 336.24 257.755 337.589C255.578 339.201 254.976 339.263 251.336 338.249C245.494 336.623 243.617 334.536 243.617 329.668C243.617 326.427 244.114 325.14 246.141 323.125C248.653 320.626 248.684 320.621 253.425 321.844C256.045 322.519 258.261 323.179 258.35 323.31ZM279.826 323.106C281.197 324.386 282.058 326.172 282.058 327.732C282.058 330.737 280.017 335.94 278.462 336.895C276.486 338.109 270.429 337.602 267.378 335.968C264.645 334.505 264.454 334.138 265.158 331.7C265.581 330.233 265.712 328.181 265.449 327.141C265.136 325.9 265.705 324.463 267.104 322.962C269.96 319.897 276.47 319.971 279.826 323.106ZM73.4637 290.975C71.3003 293.126 75.6933 297.494 80.0193 297.494C82.4384 297.494 87.1711 294.253 87.1711 292.597C87.1711 290.389 85.4645 290.27 82.72 292.287L81.6781 293.053C80.6912 293.778 79.3472 293.779 78.3601 293.053L77.3731 292.328C74.4435 290.174 74.3148 290.129 73.4637 290.975ZM117.038 303.72C118.629 309.049 117.776 311.793 112.708 317.649C109.944 320.844 104.889 323.408 103.695 322.222C103.511 322.04 103.716 320.327 104.15 318.417C104.8 315.547 104.625 314.509 103.141 312.436C101.425 310.039 101.417 309.9 102.975 309.267C106.134 307.984 112.131 303.513 113.52 301.405C114.294 300.232 115.102 299.272 115.317 299.272C115.533 299.272 116.307 301.274 117.038 303.72ZM56.3404 309.176C59.1332 310.18 59.1493 310.22 58.0077 313.398C57.373 315.163 56.8366 317.706 56.8151 319.051C56.7687 321.919 55.1783 322.209 52.2827 319.878C49.9878 318.03 49.4604 311.834 51.3994 309.51C52.7475 307.895 52.7726 307.893 56.3404 309.176ZM97.4545 312.609C98.825 313.889 99.6868 315.675 99.6868 317.234C99.6868 320.239 97.6449 325.442 96.0903 326.397C94.1146 327.611 88.057 327.105 85.0059 325.471C82.273 324.008 82.0826 323.64 82.7861 321.202C83.209 319.735 83.3404 317.684 83.0775 316.644C82.7647 315.403 83.3332 313.965 84.7323 312.465C87.5886 309.4 94.0985 309.473 97.4545 312.609ZM75.0407 312.261C77.2247 313.094 78.7543 317.433 78.2653 321.407C77.9112 324.287 77.1514 325.786 75.3831 327.094C73.2071 328.703 72.6037 328.764 68.9643 327.751C63.1329 326.128 61.2457 324.036 61.2457 319.198C61.2457 316.085 61.7562 314.684 63.5334 312.917C65.5627 310.899 66.2833 310.711 69.9057 311.251C72.1523 311.586 74.4623 312.041 75.0407 312.261Z" fill="black"/>
</g>
</g>
<defs>
<clipPath id="clip0_708_373">
<rect width="344" height="366" fill="white"/>
</clipPath>
<clipPath id="clip1_708_373">
<rect width="323.2" height="404" fill="white" transform="translate(10.3984 -24)"/>
</clipPath>
</defs>
</svg>
