<svg width="344" height="366" viewBox="0 0 344 366" fill="none" xmlns="http://www.w3.org/2000/svg">
<g clip-path="url(#clip0_708_257)">
<rect width="344" height="366" fill="#FDBBEB"/>
<path d="M344 0H0V366H344V0Z" fill="#FDBBEB"/>
<rect width="344" height="430" transform="translate(-1 -32)" fill="#FDBBEB"/>
<path d="M40.9076 237.25C41.3244 237.812 41.756 239.1 41.894 239.719L42.1067 241.964C42.6965 242.16 43.3206 242.439 44.4777 242.527C47.2619 242.74 48.5406 242.863 49.4589 243.049C50.3176 243.223 51.0841 243.415 52.0578 243.615C52.6101 243.728 53.0867 243.789 54.313 244.185C54.979 244.399 55.6257 244.561 55.9265 244.988C56.059 245.176 56.4201 246.137 56.5947 247.498C56.7172 248.452 56.3782 248.359 56.5349 250.083C56.572 250.491 56.4125 250.687 56.1552 252.793C55.9756 254.263 55.8114 255.18 55.4638 255.555C55.3166 255.714 55.1457 255.77 55.0024 255.766C54.4895 255.753 53.9237 255.857 53.1519 255.87C52.4454 255.882 51.9346 255.885 51.3638 255.924C50.5386 255.98 49.0079 255.942 47.7581 255.745C47.0429 255.633 45.9351 255.308 44.4906 254.98C43.0001 254.642 41.9436 254.514 41.4339 254.449C40.6071 254.342 41.1411 254.429 40.7245 254.953C40.6534 255.043 40.6145 255.164 40.5615 255.281C40.3416 255.767 38.793 259.586 38.2325 260.467C37.8287 261.102 37.4854 261.595 37.1718 262.066C36.8447 262.558 36.1358 263.445 35.5006 263.948C34.9894 264.354 34.4945 264.746 34.0036 265.064C33.448 265.425 33.0433 266.005 30.541 266.199C29.4192 266.286 28.4722 266.414 27.7967 266.101C26.5149 265.508 24.7166 264.158 24.309 263.007C23.9664 262.038 23.5814 260.587 23.5461 259.335C23.5145 258.216 23.5713 256.933 24.1075 255.717C24.7463 254.268 25.3385 253.216 25.6066 252.68C25.7194 252.454 25.7902 252.258 25.3009 251.924C22.8611 250.256 22.429 249.876 21.9022 249.215C21.4476 248.645 21.0375 248.341 20.7514 247.726C20.1593 246.452 19.8848 245.194 19.9479 244.525C20.0021 243.949 20.1709 243.501 20.297 242.829C20.3969 242.297 20.5655 241.565 20.9699 241.115C21.3781 240.661 21.7488 240.4 22.3913 240.144C23.2265 239.812 24.4637 239.662 24.3465 239.143C24.3035 238.953 24.1296 238.784 23.9517 238.521C23.461 237.794 23.1313 237.33 22.8069 236.977C22.3756 236.509 21.9253 235.413 22.0018 234.666C22.0476 234.219 22.1135 233.675 22.338 233.154C22.5895 232.571 22.7103 232.05 23.0663 231.611C23.4088 231.188 23.6311 230.672 24.0684 230.15C24.6877 229.41 25.1871 228.537 26.2609 228.298C28.1259 227.883 28.6964 227.855 29.2385 227.816C29.9563 227.765 30.6679 227.633 31.1433 227.718C31.5984 227.799 32.3059 228.099 32.9421 228.609C33.3859 228.965 33.8362 229.288 34.3 229.724C34.6914 230.092 35.0304 230.713 35.4136 231.13C35.7747 231.523 36.2571 232.154 36.7223 232.674C37.0611 233.054 37.4673 233.456 37.863 233.875C38.3902 234.433 39.0358 235.173 39.6156 235.775C40.2057 236.388 40.5662 236.79 40.9076 237.25Z" fill="white"/>
<path d="M39.5945 237.106C39.3109 237.191 38.2714 237.621 37.7521 238.807C37.6927 238.929 37.6495 239.052 37.6066 239.182C37.5828 239.265 37.517 239.339 37.499 239.429L37.211 240.875L37.958 241.705C38.5038 242.554 39.3955 243.144 40.4788 243.128L40.5316 243.126C40.8353 243.214 41.2502 243.328 41.7802 243.495C43.5791 244.061 45.5097 244.34 47.5456 244.362C49.7962 244.387 52.7181 243.795 56.1207 242.788L56.1189 242.735C57.4231 242.384 58.3848 241.26 58.3639 239.847C58.3373 238.181 56.9713 236.866 55.3041 236.89L55.2193 236.883L54.786 236.876L54.3997 237.006C51.1445 237.97 48.9397 238.341 47.6221 238.328C46.094 238.311 44.7525 238.112 43.5988 237.749C42.8515 237.514 42.2312 237.317 41.7947 237.199C41.5928 237.145 41.3461 237.093 41.1242 237.053C41.0312 237.037 40.7979 236.982 40.5196 236.979C40.4038 236.978 40.0341 236.975 39.5945 237.106Z" fill="black"/>
<path d="M53.8052 250.968L53.7972 250.99L53.783 250.96C50.7619 250.655 48.2222 250.57 46.3273 250.818C45.7055 250.9 45.2731 250.92 45.0186 250.896C44.9585 250.89 44.9154 250.853 44.8854 250.848C44.5741 250.656 44.2681 250.487 44.0097 250.354C43.8911 250.294 43.6284 250.177 43.3298 250.083C43.2172 250.047 42.8338 249.917 42.3334 249.923C41.9598 249.928 40.6433 250.102 39.8624 251.337C39.7652 251.475 39.678 251.616 39.6047 251.771C39.581 251.826 39.5175 251.873 39.496 251.932L38.9812 253.352L39.6214 254.287C39.9943 255.096 40.6795 255.669 41.5731 255.899C41.6387 255.938 41.7059 256 41.7931 256.054C43.4119 257.061 45.4456 257.047 47.1118 256.827C48.2967 256.671 50.2651 256.669 53.164 256.962L53.2305 256.986L53.3354 256.974C54.9942 257.104 56.4378 255.865 56.5734 254.206C56.7032 252.547 55.4649 251.103 53.8052 250.968Z" fill="black"/>
<path d="M24.822 225.199C22.3011 225.851 20.3183 227.367 19.0402 229.634C17.7493 231.929 17.4993 234.45 18.3049 236.957C18.3984 237.248 18.5419 237.527 18.6667 237.82C17.7623 238.532 16.9912 239.449 16.4266 240.569C15.3093 242.792 15.0266 245.179 15.6244 247.592C16.2034 249.923 17.4483 251.895 19.3501 253.339C19.9755 253.814 20.6568 254.187 21.3355 254.541C20.4123 256.266 20.1184 258.196 20.4527 260.228C20.8044 262.358 21.4609 264.366 22.4376 266.194C23.6948 268.539 25.7581 270.001 28.3713 270.456C30.7425 270.867 33.0829 270.52 35.2907 269.492C37.253 268.577 38.9972 267.401 40.5 265.958C41.1009 265.382 41.5395 264.97 41.8429 264.715C41.8883 264.677 41.9327 264.642 41.9657 264.615C43.1446 264.262 44.045 263.232 44.1239 261.933C44.2226 260.267 42.9497 258.844 41.284 258.745L41.1816 258.72L40.5236 258.698L39.5869 259.052L39.615 259.07C39.1605 259.24 38.8124 259.454 38.681 259.544C38.444 259.708 38.2059 259.899 37.98 260.088C37.5224 260.471 36.9519 260.981 36.3097 261.597C35.3214 262.545 34.1437 263.36 32.7379 264.015C31.5745 264.557 30.4891 264.679 29.41 264.492C28.582 264.348 28.1092 264.012 27.7499 263.339C27.1109 262.143 26.6575 260.789 26.4043 259.262C26.2431 258.286 26.4619 257.542 27.0676 256.816C27.4282 256.383 27.763 255.906 28.0365 255.415C28.2888 254.96 28.6342 254.236 28.6669 253.363C28.7052 252.318 28.2939 251.21 27.3378 250.443C26.5473 249.81 25.653 249.64 25.1147 249.585L24.3362 249.348C23.9822 249.187 23.5304 248.942 22.9938 248.535C22.2675 247.984 21.7618 247.227 21.4911 246.138C21.2452 245.143 21.3442 244.233 21.8212 243.283C22.1811 242.568 22.5963 242.291 23.2974 242.203C23.7543 242.147 24.1794 242.09 24.5159 242.028C24.6796 241.998 24.8649 241.958 25.0457 241.91C25.1688 241.877 25.5331 241.783 25.9133 241.571C26.068 241.484 26.6082 241.179 27.0158 240.551C27.2475 240.193 27.468 239.666 27.4956 239.017C27.5219 238.349 27.3307 237.76 27.069 237.322C26.6173 236.569 25.9649 236.243 25.7928 236.156C25.5465 236.032 25.3323 235.959 25.2089 235.924C24.9323 235.845 24.6272 235.8 24.3766 235.771C24.3652 235.752 24.3285 235.737 24.3151 235.712C24.2437 235.579 24.1463 235.374 24.0559 235.093C23.7685 234.191 23.8455 233.436 24.3019 232.619C24.7767 231.775 25.4051 231.295 26.3229 231.056C27.8339 230.665 29.3765 230.419 30.9333 230.365C30.9468 230.365 30.9855 230.378 31.0639 230.408C31.1635 230.447 31.3487 230.527 31.5942 230.725C32.1091 231.141 32.7703 231.937 33.5578 233.237L34.7733 235.215L36.9949 234.55L37.0871 234.53C38.6884 234.06 39.6215 232.381 39.1521 230.779C38.9987 230.256 38.675 229.845 38.3085 229.492C36.5067 226.715 34.0627 224.228 30.7251 224.341C28.7294 224.411 26.7571 224.699 24.822 225.199Z" fill="black"/>
<path d="M303.352 236.28C303.07 236.92 302.933 238.272 302.935 238.905L303.223 241.142C302.691 241.463 302.144 241.873 301.034 242.214C298.366 243.037 297.146 243.439 296.291 243.823C295.492 244.182 294.787 244.538 293.881 244.948C293.367 245.18 292.916 245.345 291.807 246.001C291.205 246.358 290.61 246.658 290.411 247.141C290.323 247.354 290.183 248.37 290.313 249.736C290.404 250.694 290.714 250.528 290.942 252.245C290.995 252.651 291.194 252.806 291.91 254.804C292.409 256.199 292.772 257.057 293.194 257.346C293.372 257.468 293.551 257.484 293.69 257.449C294.188 257.323 294.762 257.3 295.518 257.142C296.21 256.998 296.709 256.888 297.274 256.8C298.091 256.673 299.576 256.298 300.751 255.831C301.424 255.563 302.433 255.002 303.77 254.364C305.149 253.705 306.151 253.347 306.634 253.171C307.417 252.884 306.915 253.087 307.437 253.507C307.526 253.578 307.591 253.688 307.668 253.79C307.99 254.216 310.343 257.599 311.084 258.334C311.618 258.864 312.062 259.27 312.472 259.66C312.899 260.068 313.786 260.776 314.517 261.127C315.105 261.41 315.674 261.683 316.223 261.885C316.845 262.114 317.367 262.591 319.851 262.228C320.964 262.065 321.916 261.981 322.506 261.527C323.625 260.666 325.081 258.952 325.225 257.739C325.345 256.719 325.401 255.219 325.159 253.99C324.943 252.891 324.604 251.653 323.813 250.585C322.87 249.312 322.06 248.417 321.681 247.953C321.521 247.758 321.409 247.583 321.812 247.148C323.824 244.983 324.161 244.518 324.529 243.757C324.847 243.1 325.18 242.713 325.323 242.05C325.619 240.677 325.61 239.39 325.4 238.751C325.221 238.201 324.957 237.801 324.686 237.174C324.471 236.676 324.145 236 323.651 235.651C323.153 235.298 322.734 235.125 322.051 235.017C321.163 234.878 319.923 235.004 319.923 234.472C319.923 234.278 320.055 234.074 320.171 233.778C320.489 232.961 320.708 232.435 320.947 232.02C321.264 231.468 321.461 230.299 321.222 229.588C321.079 229.162 320.894 228.646 320.561 228.188C320.186 227.674 319.954 227.193 319.509 226.843C319.082 226.506 318.752 226.052 318.21 225.639C317.443 225.054 316.763 224.313 315.663 224.317C313.752 224.323 313.19 224.422 312.652 224.504C311.941 224.612 311.218 224.641 310.773 224.829C310.347 225.008 309.723 225.456 309.215 226.094C308.86 226.539 308.493 226.954 308.136 227.481C307.836 227.926 307.642 228.607 307.36 229.098C307.095 229.562 306.764 230.283 306.425 230.894C306.178 231.338 305.871 231.82 305.577 232.316C305.186 232.977 304.72 233.841 304.287 234.557C303.847 235.284 303.584 235.755 303.352 236.28Z" fill="white"/>
<path d="M304.605 235.853C304.9 235.873 306.009 236.063 306.777 237.106C306.862 237.211 306.931 237.322 307.002 237.439C307.044 237.515 307.124 237.572 307.161 237.656L307.761 239.003L307.216 239.977C306.871 240.926 306.131 241.698 305.071 241.922L305.019 241.932C304.742 242.084 304.363 242.287 303.883 242.567C302.253 243.516 300.432 244.214 298.451 244.685C296.261 245.206 293.281 245.273 289.74 245.041L289.73 244.989C288.38 244.935 287.194 244.05 286.903 242.668C286.561 241.037 287.603 239.453 289.235 239.109L289.316 239.083L289.737 238.981L290.143 239.022C293.53 239.244 295.763 239.12 297.045 238.817C298.532 238.463 299.796 237.972 300.841 237.364C301.518 236.97 302.08 236.64 302.48 236.429C302.665 236.332 302.894 236.227 303.101 236.139C303.188 236.102 303.404 235.997 303.675 235.933C303.787 235.907 304.147 235.822 304.605 235.853Z" fill="black"/>
<path d="M293.804 252.509L293.816 252.528L293.823 252.496C296.703 251.532 299.161 250.889 301.064 250.713C301.689 250.655 302.115 250.58 302.358 250.5C302.415 250.481 302.449 250.435 302.477 250.423C302.738 250.168 303 249.936 303.222 249.749C303.325 249.664 303.555 249.492 303.826 249.334C303.928 249.275 304.273 249.063 304.762 248.958C305.128 248.881 306.45 248.76 307.484 249.792C307.61 249.906 307.726 250.024 307.831 250.158C307.867 250.208 307.939 250.239 307.973 250.292L308.788 251.564L308.37 252.617C308.185 253.488 307.643 254.198 306.822 254.619C306.767 254.672 306.715 254.747 306.642 254.819C305.285 256.158 303.298 256.593 301.625 256.746C300.435 256.856 298.515 257.289 295.752 258.213L295.692 258.252L295.587 258.263C293.998 258.756 292.317 257.866 291.818 256.277C291.325 254.688 292.215 253.007 293.804 252.509Z" fill="black"/>
<path d="M316.386 220.978C318.989 221.058 321.257 222.099 323.004 224.028C324.769 225.982 325.569 228.386 325.337 231.008C325.31 231.312 325.231 231.617 325.174 231.929C326.213 232.424 327.168 233.149 327.966 234.117C329.546 236.039 330.348 238.304 330.298 240.79C330.247 243.19 329.468 245.389 327.932 247.217C327.427 247.818 326.845 248.332 326.261 248.827C327.542 250.306 328.254 252.123 328.377 254.179C328.504 256.335 328.306 258.438 327.757 260.436C327.048 263.001 325.358 264.882 322.91 265.903C320.688 266.826 318.329 267.004 315.948 266.489C313.833 266.03 311.872 265.267 310.088 264.192C309.374 263.762 308.856 263.457 308.504 263.276C308.451 263.249 308.4 263.224 308.362 263.206C307.134 263.121 306.029 262.315 305.665 261.065C305.201 259.462 306.129 257.794 307.732 257.33L307.826 257.282L308.463 257.115L309.454 257.254L309.431 257.278C309.912 257.344 310.299 257.475 310.447 257.535C310.714 257.642 310.988 257.775 311.25 257.91C311.781 258.183 312.45 258.554 313.213 259.014C314.386 259.72 315.714 260.256 317.23 260.584C318.484 260.856 319.57 260.735 320.581 260.315C321.357 259.992 321.744 259.559 321.946 258.824C322.305 257.516 322.449 256.096 322.358 254.55C322.3 253.563 321.923 252.886 321.172 252.311C320.725 251.969 320.293 251.577 319.918 251.158C319.571 250.77 319.075 250.14 318.85 249.296C318.582 248.286 318.739 247.114 319.502 246.155C320.133 245.363 320.968 245 321.481 244.828L322.188 244.424C322.498 244.19 322.885 243.851 323.318 243.335C323.905 242.637 324.231 241.788 324.255 240.666C324.275 239.641 323.978 238.775 323.303 237.954C322.794 237.337 322.328 237.158 321.625 237.227C321.167 237.272 320.74 237.311 320.398 237.325C320.231 237.331 320.042 237.333 319.855 237.326C319.728 237.321 319.352 237.31 318.934 237.187C318.764 237.136 318.17 236.959 317.634 236.435C317.328 236.137 316.997 235.672 316.827 235.045C316.654 234.4 316.711 233.783 316.869 233.298C317.144 232.464 317.708 232.002 317.857 231.879C318.07 231.704 318.262 231.585 318.375 231.524C318.627 231.386 318.915 231.275 319.153 231.191C319.16 231.17 319.192 231.147 319.2 231.12C319.24 230.974 319.29 230.753 319.316 230.459C319.397 229.516 319.156 228.796 318.531 228.101C317.881 227.382 317.162 227.052 316.214 227.021C314.654 226.974 313.096 227.074 311.565 227.365C311.552 227.368 311.517 227.39 311.447 227.436C311.359 227.496 311.196 227.615 311 227.862C310.59 228.381 310.12 229.303 309.639 230.746L308.89 232.943L306.576 232.784L306.482 232.785C304.816 232.68 303.536 231.248 303.64 229.582C303.675 229.039 303.899 228.566 304.179 228.141C305.324 225.034 307.159 222.069 310.439 221.443C312.401 221.071 314.388 220.917 316.386 220.978Z" fill="black"/>
<path d="M219.568 258.489L224.345 250.526H236.29L249.031 252.119L254.605 256.897L264.16 260.082L274.512 257.693L272.919 275.212L262.568 283.971H251.419L234.697 276.804L229.919 281.582L218.771 282.378L206.827 281.582L199.66 271.23V260.082L203.642 258.489L209.216 262.471L219.568 258.489Z" fill="#96A1C0"/>
<path d="M183.75 168.896L203.389 122.82L223.028 116.778L263.061 109.979L282.7 148.502L289.498 172.673L275.146 190.801L261.55 199.865L271.37 217.993L275.146 253.494V267.09L269.859 246.569L260.039 250.345L247.199 248.835L234.358 242.792L218.496 250.345L207.166 248.835L200.367 267.09V257.271L203.389 246.696L197.346 232.345L200.367 214.972L203.389 199.865L191.303 194.578L185.261 184.758L183.75 168.896Z" fill="white"/>
<path d="M200.366 212.713L204.898 202.139L223.026 202.894L232.09 214.979H238.133L241.91 206.671L245.687 202.894H263.059L273.634 219.512V240.661V255.304L257.909 260.082L247.953 251.236L226.048 249.725L222.076 260.082L210.941 260.878L203.388 256.1V244.438L198.855 236.129V225.554L200.366 212.713Z" fill="white"/>
<path d="M202.629 140.956L206.406 128.116L208.672 122.828L213.204 119.807L220.002 118.296L229.821 122.828L235.864 121.317L244.928 118.296H253.237L260.79 125.094V134.914V158.329L270.61 165.127L279.674 174.191L286.472 184.766L297.047 169.659L292.515 153.797L282.695 125.094L269.099 107.721L254.748 100.923L239.641 98.6572L217.736 100.923L201.118 107.721L184.501 131.137L171.66 171.925L174.682 179.479L179.214 184.766L184.501 182.5V175.702L192.054 165.883L199.608 158.329L202.629 140.956Z" fill="black"/>
<path d="M217.275 167.207C214.095 167.207 215.394 160.418 218.993 155.365C222.312 150.704 225.736 149.114 225.736 152.809C225.736 156.598 219.501 167.207 217.275 167.207Z" fill="#FFD3E8"/>
<path d="M228.38 166.795C226.305 166.064 226.271 161.795 227.762 158.281C228.656 156.173 229.989 154.236 231.516 152.53C233.094 150.766 234.547 150.469 235.471 151.964C236.855 154.203 230.481 167.533 228.38 166.795Z" fill="#FFD3E8"/>
<path d="M238.524 167.207C235.342 167.207 235.779 161.3 239.397 155.365C241.87 151.309 242.89 150.665 244.598 152.082C246.165 153.383 245.653 155.322 244.598 158.097C241.982 164.978 240.758 167.207 238.524 167.207Z" fill="#FFD3E8"/>
<path d="M264.571 131.133L267.592 128.867L275.146 136.421V150.017L273.635 158.325L266.082 161.347L260.039 158.325V146.24L261.55 135.665L264.571 131.133Z" fill="black"/>
<path d="M264.375 129.701L206.925 129.51L206.515 118.187L223.013 114.568L254.716 113.421L264.375 129.701Z" fill="black"/>
<path fill-rule="evenodd" clip-rule="evenodd" d="M218.62 97.8587C208.514 99.7856 198.214 105.671 191.28 113.481C184.072 121.599 182.447 125.193 176.932 145.194C174.391 154.414 170.937 165.106 169.257 168.957C166.115 176.157 166.491 181.634 170.128 181.634C171.261 181.634 172.405 183.439 172.668 185.643C173.08 189.101 173.816 189.65 178.049 189.636C182.086 189.625 183.358 190.445 185.236 194.267C186.828 197.507 189.221 199.437 193.159 200.651C196.261 201.609 199.292 202.822 199.894 203.347C200.494 203.87 199.222 208.521 197.064 213.681C193.75 221.604 193.278 224.483 194.025 232.211C194.622 238.39 196.009 242.797 198.294 245.782C201.665 250.187 201.667 250.219 198.789 254.909C194.589 261.756 194.896 272.894 199.444 278.839C207.29 289.088 221.663 290.396 232.133 281.812C235.162 279.33 235.44 279.349 239.342 282.315C241.597 284.028 247.644 286.1 252.936 286.976C262.249 288.517 262.611 288.454 268.631 284.289C272.022 281.942 275.861 277.868 277.167 275.235C279.461 270.603 280.439 258.785 278.668 257.075C278.19 256.613 277.582 249.124 277.319 240.434C276.77 222.339 275.06 214.869 269.725 207.278C265.355 201.057 265.237 200.583 268.047 200.583C269.197 200.583 272.606 198.124 275.623 195.117C279.065 191.687 283.454 189.09 287.409 188.142C292.842 186.842 293.895 185.94 295.057 181.583C295.8 178.805 297.75 175.318 299.393 173.833C301.252 172.153 301.996 170.227 301.364 168.732C300.806 167.411 298.335 160.098 295.875 152.482C289.597 133.045 279.168 113.003 272.143 106.872C260.755 96.936 240.948 93.5996 218.62 97.8587ZM253.296 104.096C260.892 106.399 264.929 108.77 269.555 113.642C275.899 120.326 284.77 139.58 290.756 159.664C293.037 167.31 293.011 167.669 289.97 170.405C288.105 172.083 287.127 174.351 287.568 175.977C288.807 180.553 285.757 179.043 283.538 173.982C282.397 171.377 280.045 168.025 278.311 166.533C275.481 164.098 275.379 163.497 277.309 160.652C280.644 155.737 280.321 144.1 276.587 134.627C273.604 127.057 272.855 126.245 268.865 126.245C266.067 126.245 264.446 125.49 264.446 124.189C264.446 120.841 255.559 114.585 250.805 114.585C248.411 114.585 242.724 115.931 238.171 117.576C230.512 120.344 229.554 120.399 225.362 118.304C215.254 113.257 206.286 117.014 202.239 127.996C200.968 131.442 198.81 140.165 197.443 147.381C196.074 154.596 194.192 160.75 193.26 161.057C192.326 161.363 189.555 163.468 187.101 165.732C183.769 168.809 182.346 171.803 181.476 177.565C180.837 181.806 180.227 183.507 180.124 181.343C180.02 179.178 178.805 176.795 177.423 176.047C175.134 174.811 175.327 173.467 179.566 161.035C182.127 153.524 184.544 145.413 184.94 143.008C186.559 133.146 192.532 121.29 199.061 114.984C207.368 106.96 213.831 104.293 228.228 102.943C240.892 101.756 246.418 102.01 253.296 104.096ZM256.37 124.142C259.644 127.305 260.075 128.687 259.207 133.252C257.025 144.751 256.646 158.772 258.43 161.993C259.417 163.774 262.921 166.09 266.217 167.141C273.308 169.402 278.029 174.629 278.029 180.222C278.029 183.998 276.234 185.987 264.797 194.885C261.294 197.611 242.736 200.532 228.763 200.558C213.44 200.586 197.381 196.766 192.95 192.037C191.536 190.527 189.842 186.013 189.185 182.006C187.804 173.565 189.395 170.51 196.971 167.057C201.448 165.015 201.896 164.156 202.855 155.776C204.198 144.032 208.103 129.394 211.055 125.044C213.74 121.086 218.631 121.514 225.526 126.314C230.386 129.697 233.627 129.951 234.785 127.038C235.473 125.305 246.595 120.915 251.31 120.517C251.971 120.46 254.248 122.093 256.37 124.142ZM271.787 140.674C275.146 150.382 272.532 160.263 266.814 159.473C264.216 159.114 263.612 157.83 263.22 151.831C262.919 147.241 263.696 142.587 265.358 139.027C268.206 132.929 269.193 133.182 271.787 140.674ZM241.81 142.036C241.81 145.739 243.418 146.929 245.821 145.003C248.836 142.585 248.269 139.364 244.828 139.364C242.907 139.364 241.81 140.336 241.81 142.036ZM217.161 141.794C215.083 143.799 216.265 146.652 219.173 146.652C221.184 146.652 222.191 145.68 222.191 143.737C222.191 140.928 219.238 139.787 217.161 141.794ZM230.743 172.403C230.189 172.937 229.737 174.824 229.737 176.597C229.737 181.675 226.361 183.176 214.161 183.52C201.699 183.873 198.772 185.157 203.241 188.313C206.875 190.88 219.55 190.903 226.93 188.357C231.443 186.798 233.057 186.801 235.984 188.368C244.461 192.909 262.937 189.647 262.937 183.609C262.937 181.789 261.756 181.574 256.524 182.442C241.878 184.869 235.773 182.864 235.773 175.626C235.773 171.682 233.199 170.032 230.743 172.403ZM226.208 214.023C229.207 217.968 232.708 220.989 234.282 220.989C237.143 220.989 246.337 211.429 246.337 208.453C246.337 205.757 260.088 206.109 263.265 208.885C266.749 211.932 270.483 224.043 270.483 232.302C270.483 238.578 270.394 238.693 266.218 237.807C263.871 237.31 260.136 237.57 257.918 238.384C254.157 239.765 253.881 239.596 253.861 235.893C253.827 229.148 252.176 225.362 249.268 225.362C246.821 225.362 246.578 226.438 247.092 234.994C247.408 240.291 248.048 244.992 248.512 245.441C250.922 247.767 248.42 248.684 239.653 248.684C227.141 248.684 224.856 246.719 225.498 236.514C225.879 230.438 225.493 229.006 223.358 228.588C221.341 228.193 220.528 229.422 219.769 234.007C218.879 239.383 218.371 239.938 214.353 239.938C211.915 239.938 208.677 240.581 207.159 241.365C203.021 243.505 201.157 240.279 200.789 230.341C200.555 223.999 201.392 219.704 203.953 214.104L207.436 206.491L214.176 206.773C220.345 207.033 221.361 207.645 226.208 214.023ZM237.829 210.057C237.35 211.26 236.304 212.244 235.505 212.244C234.703 212.244 233.03 211.26 231.785 210.057C229.773 208.114 230.031 207.871 234.109 207.871C237.567 207.871 238.482 208.409 237.829 210.057ZM269.279 246.289C272.629 248.748 271.244 253.975 266.949 255.088C257.23 257.606 251.841 254.097 256.003 247.962C258.76 243.898 264.957 243.117 269.279 246.289ZM220.068 249.432C221.243 253.956 218.504 257.429 213.76 257.429C208.823 257.429 206.593 252.946 209.52 248.91C212.759 244.444 218.85 244.745 220.068 249.432ZM251.654 258.913C256.382 262.543 258.402 263.196 263.189 262.637C266.383 262.266 269.669 261.559 270.493 261.068C271.393 260.53 271.992 262.581 271.992 266.201C271.992 274.305 265.672 280.751 257.723 280.751C250.285 280.751 242.951 277.549 239.819 272.932C236.395 267.883 233.377 268.074 230.458 273.526C226.127 281.614 213.829 283.334 206.806 276.834C203.433 273.714 202.572 271.623 202.572 266.548C202.572 260.257 202.613 260.208 205.927 262.448C207.771 263.696 210.554 264.717 212.112 264.717C216.813 264.717 224.859 260.334 225.673 257.332C226.328 254.914 227.817 254.514 236.179 254.514C244.746 254.514 246.615 255.045 251.654 258.913Z" fill="black"/>
<path d="M81.7228 210.45L86.2549 203.652L88.5209 200.631L111.181 202.142H133.086L145.171 200.631L151.214 218.004L149.703 230.844L144.416 236.887L145.171 250.483H115.713L77.9461 252.749L76.4354 245.951V237.643L73.4141 227.068L76.4354 218.004L81.7228 210.45Z" fill="white"/>
<path d="M75.6043 269.647L74.0117 260.092L77.1969 253.721L84.3636 252.129L101.086 253.721L126.567 252.129L147.271 253.721L148.864 261.684L147.271 275.221L139.308 282.388H121.789L112.234 275.221L105.864 280.796L89.1413 282.388L79.5858 276.814L75.6043 269.647Z" fill="#96A1C0"/>
<path d="M59.8203 168.906L79.4592 122.83L99.098 116.787L139.131 109.989L158.77 148.512L169.345 178.725L154.238 196.098L143.663 202.896L148.195 218.003L152.727 230.088L145.174 240.663V244.165L145.929 249.764L136.11 253.54L123.269 252.03L110.428 252.357L94.566 253.54L83.2359 252.03L78.7915 248.147L79.4592 246.706L73.4164 232.354L76.4378 214.982L87.0126 199.875L73.4164 186.279L61.331 184.768L59.8203 168.906Z" fill="white"/>
<path d="M53.7734 162.864L58.3055 148.513L65.8589 130.384L71.9016 117.544L77.9443 109.99L85.4977 103.947L96.8279 98.6601L112.69 97.1494L129.307 98.6601L144.414 103.947L159.521 117.544L169.341 146.247L176.139 175.705L172.362 182.503H167.075L159.521 177.971L148.191 185.524L137.616 180.237L123.265 185.524L109.669 177.971L93.0511 185.524L81.721 180.237L71.9016 182.503H62.0822L56.0395 172.683L53.7734 162.864Z" fill="black"/>
<path fill-rule="evenodd" clip-rule="evenodd" d="M90.9507 99.1014C85.6869 101.022 79.0669 104.769 76.2403 107.426C69.8038 113.476 59.2641 134.262 53.423 152.423C50.9723 160.043 48.511 167.359 47.9547 168.68C47.3247 170.177 48.066 172.103 49.9183 173.785C51.5556 175.271 53.4982 178.759 54.2379 181.539C55.3956 185.898 56.4451 186.8 61.8577 188.101C65.7984 189.049 70.1706 191.648 73.6002 195.079C76.6057 198.088 80.0021 200.548 81.1478 200.548C84.0811 200.548 83.9383 200.898 77.2026 210.226C67.9319 223.062 66.0179 235.748 72.6574 240.341C75.8088 242.521 75.5246 250.158 72.1027 255.223C69.04 259.757 69.0219 269.074 72.0621 275.239C73.3626 277.872 77.1875 281.949 80.5659 284.296C86.5635 288.464 86.9243 288.527 96.2025 286.986C101.475 286.109 107.5 284.035 109.746 282.322C113.634 279.354 113.911 279.335 116.928 281.819C122.767 286.624 126.751 288.041 132.443 287.337C140.69 286.316 145.552 284.018 148.985 279.515C154.013 272.917 154.414 267.421 150.867 253.689L147.618 241.113L150.881 237.745C156.038 232.42 156.357 224.433 151.843 213.595C149.707 208.464 148.45 203.837 149.048 203.313C149.648 202.788 152.667 201.575 155.758 200.617C159.681 199.402 162.065 197.471 163.652 194.229C165.522 190.405 166.789 189.584 170.811 189.596C175.029 189.609 175.762 189.061 176.173 185.6C176.435 183.395 177.574 181.59 178.703 181.59C182.327 181.59 182.701 176.109 179.571 168.906C177.897 165.054 174.468 154.355 171.95 145.131C169.433 135.907 166.568 126.72 165.585 124.714C162.229 117.873 153.375 108.288 146.512 104.066C137.575 98.5677 131.675 97.1312 114.607 96.297C102.344 95.6976 99.2832 96.0608 90.9507 99.1014ZM133.894 105.142C148.239 109.014 161.029 125.101 163.946 142.944C164.34 145.35 166.749 153.466 169.3 160.98C173.524 173.419 173.716 174.763 171.435 176C170.058 176.748 168.932 178.434 168.932 179.748C168.932 181.596 167.979 181.248 164.715 178.217C159.285 173.171 156.364 173.274 151.39 178.688L147.358 183.079L144.141 180.146C140.134 176.496 134.72 176.445 129.934 180.013C126.013 182.936 123.878 182.663 117.581 178.435C113.376 175.613 107.362 174.919 104.957 176.981C104.173 177.655 101.116 179.602 98.1676 181.31L92.8075 184.412L87.4926 180.909C82.2769 177.471 82.0273 177.449 74.1279 179.695C68.3544 181.337 65.9157 181.515 65.5082 180.328C65.1955 179.418 64.0438 178.673 62.9493 178.673C61.7419 178.673 61.2518 177.594 61.6998 175.93C62.1389 174.302 61.1646 172.033 59.3062 170.355C56.2767 167.617 56.2511 167.259 58.5229 159.608C67.9289 127.924 78.4881 110.334 90.7492 105.919C93.6435 104.878 97.3647 103.51 99.0186 102.881C103.283 101.258 124.631 102.641 133.894 105.142ZM124.805 188.881C126.614 188.881 130.135 187.744 132.633 186.354C137.041 183.9 137.274 183.922 140.744 187.083C145.667 191.569 149.91 191.162 154.599 185.755C157.771 182.099 158.94 181.546 160.371 183.02C161.765 184.457 161.745 185.021 160.287 185.539C159.254 185.906 158.407 187.035 158.407 188.047C158.407 194.522 139.973 200.558 120.31 200.523C106.232 200.497 87.8054 197.559 84.3864 194.796C83.3369 193.949 80.7885 191.989 78.7211 190.443C75.6344 188.133 75.3112 187.286 76.9109 185.71C78.5197 184.124 79.8803 184.359 84.7262 187.064C92.2828 191.283 93.8134 191.2 103.072 186.071L110.778 181.803L116.148 185.342C119.101 187.289 122.997 188.881 124.805 188.881ZM144.674 213.659C149.159 223.956 149.573 226.132 147.874 230.468C146.393 234.245 146.149 234.342 144.304 231.895C143.126 230.332 141.57 229.722 140.458 230.389C138.686 231.45 138.934 235.493 141.373 245.354C142.172 248.586 142.105 248.596 121.678 248.576C110.406 248.566 100.515 248.956 99.6982 249.446C98.8817 249.935 94.4313 249.877 89.8065 249.317L81.3974 248.297L82.304 243.746C82.8032 241.242 83.6331 237.389 84.1488 235.184C84.863 232.129 84.5247 231.173 82.7295 231.173C81.4335 231.173 79.7089 232.321 78.897 233.725C77.4973 236.145 77.3665 236.142 76.3802 233.661C74.5414 229.03 76.8357 221.487 82.3521 214.041L87.7317 206.777L114.769 206.93L141.809 207.082L144.674 213.659ZM144.617 256.54C145.602 257.13 146.379 260.973 146.379 265.258C146.379 271.749 145.734 273.518 142.162 276.839C135.165 283.341 122.912 281.62 118.597 273.528C115.69 268.074 112.682 267.883 109.271 272.935C106.151 277.553 98.8442 280.757 91.4333 280.757C87.3904 280.757 84.8404 279.624 81.4274 276.315C77.2492 272.262 76.9124 271.227 77.58 264.494C77.9814 260.434 79.0293 256.681 79.9074 256.156C82.077 254.855 142.404 255.213 144.617 256.54Z" fill="black"/>
</g>
<defs>
<clipPath id="clip0_708_257">
<rect width="344" height="366" fill="white"/>
</clipPath>
</defs>
</svg>
