<svg width="344" height="366" viewBox="0 0 344 366" fill="none" xmlns="http://www.w3.org/2000/svg">
<g clip-path="url(#clip0_707_47)">
<rect width="344" height="366" fill="white"/>
<path d="M344 0H0V366H344V0Z" fill="white"/>
<rect width="402" height="502.5" transform="translate(-29 -51.25)" fill="#F5F8DB"/>
<path d="M125.75 97.1182L128.27 91.4475L137.722 87.667L190.018 81.3662H220.892L225.933 90.8174L222.152 102.159L212.071 109.09L210.811 97.1182L205.77 92.7076L193.168 99.6385L183.717 93.9678L173.636 98.3783L166.705 93.9678L155.364 101.529L144.022 93.9678L134.571 107.199L128.27 104.679L125.75 97.1182Z" fill="#DDE1E4"/>
<path d="M156.617 182.176L150.316 172.725L168.589 171.464L181.19 170.204L194.422 169.574V176.505L188.751 182.176L183.081 181.546L172.369 174.615L162.918 181.546L156.617 182.176Z" fill="#FEC1E7"/>
<path d="M43.8383 156.326L47.6188 147.505L60.2203 153.176L69.6715 161.997V190.35L62.7407 189.72L51.3992 184.049L45.0984 177.119L42.5781 167.667L43.8383 156.326Z" fill="white"/>
<path d="M300.912 155.054L297.131 146.232L284.53 151.903L273.188 160.724L275.078 189.078L282.009 188.448L293.351 182.777L299.652 175.846L302.172 166.395L300.912 155.054Z" fill="white"/>
<path d="M113.781 92.7079L111.891 88.9274L113.781 84.5168L125.752 78.2161L134.573 71.2852L142.764 58.0535L166.707 51.1227L200.102 49.2324L219.004 53.643L223.415 67.5047L217.744 81.3664L166.077 85.1469L113.781 92.7079Z" fill="#FFF7B4"/>
<path d="M82.9063 154.443L80.386 156.963L77.2356 160.114L70.3047 162.634V259.666L71.3618 292.527L113.15 294.786H261.219L270.235 292.527L273.82 256.516V194.138L271.93 163.894L265.629 156.963L249.877 152.553L214.593 154.443L202.621 160.744L195.69 174.605L187.499 182.797L174.898 175.866L168.597 177.126L155.995 182.797L147.804 166.414L135.203 156.963L113.78 153.183H92.3575L82.9063 154.443Z" fill="#FFF7B4"/>
<path d="M72.1957 159.496L48.8828 142.484L58.334 127.992L70.9356 119.171L87.9477 114.76L118.192 113.5H133.313L134.574 127.992L137.724 156.975L108.11 152.565H86.6876L72.1957 159.496Z" fill="#FEC1E7"/>
<path d="M274.452 159.496L295.875 143.114L288.314 127.992L275.712 119.171L258.7 114.76L228.457 113.5H213.335L212.075 127.992L208.924 156.975L238.538 152.565H259.961L274.452 159.496Z" fill="#FEC1E7"/>
<path d="M134.574 126.697V109.055L141.505 95.823L145.916 94.5629L150.956 99.6035L155.367 101.494L161.038 99.6035L163.558 95.823H167.968L172.379 97.0832H178.68L181.83 93.9328L184.981 94.5629L190.651 98.3434H196.322L200.102 95.823L205.773 93.3027L210.814 93.9328L213.334 107.795L210.814 151.9L201.363 165.132L188.761 168.912L169.859 170.802L149.696 168.912L141.505 161.351L137.095 148.12L134.574 126.697Z" fill="white"/>
<path d="M123.861 113.47L126.381 107.799L128.901 105.909L133.942 110.95V129.222H126.381L123.23 120.401L123.861 113.47Z" fill="white"/>
<path d="M221.518 114.105L218.998 108.434L216.478 106.544L211.437 111.585V129.857H218.998L222.148 121.036L221.518 114.105Z" fill="white"/>
<path fill-rule="evenodd" clip-rule="evenodd" d="M177.426 47.2563C167.448 48.1422 152.853 51.0745 144.173 53.9364C139.699 55.4107 138.614 56.6293 134.531 64.7712C130.19 73.4247 129.574 74.0649 123.659 76.0673C112.493 79.8477 106.376 85.5978 107.216 91.5256C107.597 94.2085 108.238 94.4341 115.492 94.4341C122.138 94.4341 123.256 94.7466 122.711 96.4566C122.356 97.5693 122.571 99.8376 123.19 101.497C124.078 103.885 123.675 105.276 121.258 108.158C118.291 111.698 117.897 111.795 107.486 111.544C94.277 111.227 79.5987 113.33 70.5319 116.84C61.6578 120.275 48.5396 132.798 47.1421 139.17C46.609 141.595 44.5487 146.461 42.5614 149.983C37.8383 158.356 37.5321 169.691 41.7977 178.178C45.6702 185.88 54.0263 192.096 60.5098 192.096C63.3603 192.096 65.7294 192.77 66.047 193.672C66.3519 194.538 66.759 225.101 66.9518 261.589C66.9518 285.747 67.4218 291.902 69.6901 294.408C72.073 297.04 72.2129 297.044 172.114 297.045H269.035C270.912 297.045 272.594 295.885 273.261 294.13L273.319 293.977C273.962 292.289 275.079 288.007 275.406 255.915C275.732 223.823 275.715 206.364 275.766 201.468L275.859 192.568L281.724 192.264C291.628 191.751 298.881 186.529 303.378 176.673C307.428 167.799 307.023 159.158 302.156 150.511C300.01 146.699 296.802 140.849 295.026 137.511C291.115 130.158 281.054 120.803 273.339 117.344C265.923 114.018 250.217 111.503 236.675 111.471C227.689 111.45 225.478 111.042 223.696 109.073C221.661 106.824 221.722 106.446 224.876 101.827C228.965 95.8379 228.658 87.8447 224.154 83.0511C221.334 80.0481 221.326 79.9536 223.495 74.274C225.373 69.3582 225.472 67.6318 224.187 62.2736C222.01 53.2029 218.094 50.3928 205.081 48.5643C189.706 46.4044 187.955 46.3212 177.426 47.2563ZM203.326 53.6289C215.253 55.4032 219.152 58.4654 219.152 66.0603C219.152 68.8881 218.358 73.1008 217.389 75.4221C215.919 78.9417 215.103 79.5415 212.476 79.0387C207.996 78.1831 166.936 80.9579 150.474 83.2287C142.85 84.281 132.394 86.2405 127.239 87.5826C116.858 90.2856 113.299 90.6095 113.299 88.849C113.299 86.7269 120.156 82.7373 127.442 80.6202C132.718 79.0853 134.813 77.8138 135.417 75.7749C135.87 74.2551 137.692 70.0828 139.47 66.5027C142.539 60.3216 143.085 59.8856 150.368 57.8239C167.874 52.8665 187.661 51.2988 203.326 53.6289ZM222.343 91.4651C222.971 94.3244 222.4 96.1554 219.829 99.5251C215.527 105.167 214.112 105.029 214.112 98.9719C214.112 94.5072 213.645 93.8153 209.011 91.3996C205.086 89.3544 203.34 89.0444 201.45 90.0563C200.096 90.7796 198.99 91.9062 198.99 92.5589C198.99 93.2117 197.544 94.6937 195.776 95.8517C192.646 97.902 192.455 97.8516 188.341 93.8657C183.935 89.5938 180.697 89.4022 177.527 93.223C175.586 95.5619 171.347 95.5216 168.19 93.1336C164.874 90.6259 164.725 90.67 159.562 95.6829C154.496 100.603 152.864 100.503 149.214 95.0541C145.33 89.2561 140.725 90.4507 135.876 98.5132C134.307 101.122 132.853 103.478 132.644 103.75C131.455 105.293 128.421 100.442 128.421 96.9997C128.421 93.3944 128.946 92.7908 133.147 91.5798C140.195 89.5472 172.878 86.2531 196.47 85.1984C219.396 84.1739 220.817 84.5179 222.343 91.4651ZM208.13 101.173C208.476 103.758 208.34 116.148 207.826 128.708L206.894 151.543L200.883 158.504C197.577 162.334 193.388 166.041 191.575 166.743C188.62 167.886 169.023 168.796 157.342 168.331C151.276 168.09 142.61 162.301 141.097 157.48C140.438 155.379 139.546 150.543 139.113 146.731C138.681 142.919 137.81 136.114 137.179 131.609C135.094 116.717 135.632 109.116 139.204 103.018L142.426 97.5202L147.052 101.332C152.838 106.102 156.187 106.137 161.484 101.487C165.277 98.1566 165.875 97.994 168.144 99.6751C171.071 101.844 176.948 101.055 180.273 98.0469C182.347 96.1693 182.802 96.2638 186.437 99.3222C191.511 103.592 195.453 103.498 200.501 98.9883C205.486 94.5336 207.309 95.0566 208.13 101.173ZM152.679 107.705C150.972 108.392 149.844 109.923 149.844 111.552C149.844 113.777 150.349 114.105 152.679 113.392C156.221 112.307 157.328 112.307 160.87 113.392C165.175 114.71 164.799 109.28 160.473 107.634C156.7 106.2 156.417 106.203 152.679 107.705ZM182.293 107.704C179.84 109.202 179.382 112.122 181.403 113.37C182.126 113.818 183.462 113.566 184.373 112.81C185.283 112.055 187.742 111.78 189.836 112.199C193.827 112.997 196.483 110.956 194.298 108.771C192.424 106.897 184.731 106.213 182.293 107.704ZM130.132 113.651C131.308 120.761 131.098 127.828 129.71 127.828C125.446 127.828 122.702 114.67 126.111 110.562C128.325 107.895 129.306 108.649 130.132 113.651ZM218.399 111.831C221.378 114.008 221.532 121.521 218.687 125.862C216.152 129.731 213.439 129.548 213.571 125.518C214.131 108.574 214.093 108.681 218.399 111.831ZM155.015 117.64C152.634 119.147 154.295 123.086 157.086 122.548C158.301 122.315 159.295 121.044 159.295 119.725C159.295 116.929 157.513 116.061 155.015 117.64ZM184.708 117.327C182.765 119.269 183.973 121.688 186.691 121.301C190.258 120.792 191.385 116.487 187.951 116.487C186.629 116.487 185.17 116.865 184.708 117.327ZM119.431 122.72C121.006 127.978 125.984 132.869 129.761 132.869C131.579 132.869 132.176 134.285 132.819 140.115C133.259 144.099 133.912 148.92 134.271 150.826C135.038 154.909 135.138 154.884 128.89 152.177C125.03 150.504 119.796 150.042 103.848 149.972C83.0389 149.878 82.1568 150.051 74.0401 155.8C72.3188 157.02 70.4071 156.228 63.0806 151.268C50.9692 143.069 50.7247 142.696 53.9948 137.403C57.1742 132.259 63.8203 126.199 69.525 123.24C76.6877 119.526 85.7911 118.029 102.074 117.887L117.94 117.747L119.431 122.72ZM262.027 119.502C273.891 122.34 283.051 128.526 288.538 137.403C291.808 142.696 291.564 143.069 279.452 151.268C272.126 156.228 270.214 157.02 268.493 155.8C260.424 150.085 259.411 149.88 239.315 149.913C227.225 149.931 218.163 150.527 215.532 151.475L211.281 153.009L212.067 149.082C212.499 146.922 212.852 143.019 212.852 140.408C212.852 136.392 213.338 135.54 216.013 134.869C219.842 133.909 226.713 124.814 226.713 120.708C226.713 117.772 226.837 117.747 240.89 117.792C248.688 117.816 258.2 118.586 262.027 119.502ZM169.645 122.491C168.537 123.714 167.095 127.1 166.441 130.016C165.046 136.221 166.585 138.328 172.038 137.685C176.275 137.186 177.541 134.216 173.919 133.268C170.782 132.448 170.626 130.976 173.158 126.122C175.991 120.689 173.555 118.17 169.645 122.491ZM181.396 141.375C181.462 144.493 189.52 153.581 191.263 152.505C193.565 151.081 192.939 148.867 188.817 143.868C184.698 138.871 181.317 137.736 181.396 141.375ZM158.18 144.796C155.635 148.68 155.541 153.031 158.002 153.031C159.982 153.031 163.705 146.901 163.705 143.643C163.705 140.645 160.454 141.323 158.18 144.796ZM58.6057 155.237L66.5586 161.222L66.6153 174.139L66.6733 187.056H63.4599C53.6911 187.056 43.9463 175.051 44.0257 163.113C44.0471 159.672 48.3758 149.251 49.7808 149.251C50.261 149.251 54.233 151.945 58.6057 155.237ZM297.595 154.295C300.555 160.216 300.416 169.57 297.278 175.722C294.023 182.101 286.788 187.056 280.725 187.056H276.095L275.193 175.029C274.698 168.413 274.502 162.796 274.761 162.546C279.108 158.324 292.087 149.342 293.502 149.576C294.541 149.747 296.384 151.872 297.595 154.295ZM173.576 154.336C172.422 155.009 170.176 155.416 168.587 155.24C164.29 154.767 163.935 158.916 168.111 160.819C170.849 162.067 172.031 161.972 174.816 160.282C180.079 157.089 178.864 151.257 173.576 154.336ZM126.708 157.497C134.718 159.754 143.291 167.494 148.222 176.921C150.154 180.614 152.634 184.203 153.734 184.895C156.626 186.715 164.401 184.9 168.384 181.473L171.813 178.524L175.904 181.643C178.153 183.358 182.284 185.07 185.084 185.445C189.573 186.048 190.509 185.706 193.007 182.557C196.022 178.756 199.336 171.934 198.168 171.934C197.784 171.934 199.228 169.929 201.379 167.479C203.53 165.029 205.291 162.557 205.291 161.986C205.291 161.414 208.91 159.759 213.332 158.308C219.751 156.199 224.943 155.622 239.063 155.443C255.411 155.237 257.1 155.433 261.33 158.048C270.303 163.594 269.794 157.984 269.373 246.84L269.033 286.302C269.011 288.78 266.999 290.778 264.522 290.783L226.746 290.854C164.724 290.97 73.7352 290.696 73.4315 290.391C73.2866 290.247 72.9879 290.07 72.7699 245.804L72.382 167.401C72.3755 166.081 72.9469 164.823 73.9461 163.96L77.3241 161.04C80.0473 158.686 83.8593 156.346 85.7949 155.84C91.4492 154.365 119.643 155.505 126.708 157.497ZM166.226 174.849C168.246 175.137 160.046 180.755 157.604 180.755C156.836 180.755 155.402 179.196 154.417 177.289L152.625 173.824L158.48 174.201C161.701 174.407 165.186 174.699 166.226 174.849ZM191.429 174.889C191.429 175.821 190.339 177.57 189.007 178.775C186.721 180.844 186.333 180.847 182.076 178.827C176.481 176.172 176.357 174.764 181.663 174.105C189.895 173.084 191.429 173.207 191.429 174.889Z" fill="black"/>
<path d="M212.546 267.519L213.919 312.79L209.384 321.86L200.037 320.685L186.589 315.056H172.516H161.882L150.432 323.371L141.867 319.434L136.863 313.179L138.74 283.782V262.907L141.867 246.253L162.508 242.5V254.384L173.767 256.261L189.404 254.384V244.376L202.539 242.5L210.67 248.129L212.546 267.519Z" fill="#FFF167"/>
<path d="M165.018 256.261L162.516 244.376L170.021 242.5L190.662 244.376L188.16 256.261H165.018Z" fill="#FFFBDE"/>
<path fill-rule="evenodd" clip-rule="evenodd" d="M153.703 239.267C144.397 240.023 138.689 241.848 136.858 244.657C135.332 246.993 134.16 266.207 133.949 292.323L133.788 312.295C133.758 315.925 135.068 319.439 137.466 322.164C140.687 325.825 142.005 326.395 147.247 326.395C152.298 326.395 153.918 325.756 157.001 322.545C160.676 318.716 160.781 318.694 175.059 318.694C189.261 318.694 189.464 318.737 193.458 322.545C196.805 325.737 198.56 326.395 203.715 326.395C210.113 326.395 213.348 324.285 216.506 318.053C218.623 313.875 219.009 288.777 217.404 259.672C216.57 244.572 215.522 242.476 207.765 240.39C202.086 238.866 167.511 238.147 153.703 239.267ZM159.866 250.581C159.866 253.278 160.156 255.26 160.649 256.055C161.226 256.988 166.85 257.466 176.347 257.466C192.64 257.466 191.733 258.907 192.665 248.746C192.859 246.628 192.395 245.039 192.925 245.216C193.455 245.393 197.441 245.537 200.489 245.537C210.004 245.537 211.139 246.312 212.044 267.38C212.859 286.347 212.683 290.996 212.346 297.164C212.175 300.291 211.346 300.54 208.624 299.508C205.813 298.441 199.809 299.215 194.806 301.288C192.819 302.111 190.846 305.254 189.315 310.031C188.693 311.974 186.848 314 175.652 314C164.447 314 162.616 311.975 162.012 310.031C159.826 302.967 154.879 299.338 147.023 299.036C141.627 298.826 140.461 298.004 139.789 294.651C139.385 292.634 139.449 287.701 139.789 284.07C140.128 280.439 140.051 270.873 140.393 262.813C140.735 254.753 142.079 248.523 142.812 247.791C144.21 246.396 155.971 244.449 158.434 245.225C159.221 245.474 159.866 247.883 159.866 250.581ZM187.368 245.453C187.37 245.608 187.403 245.866 187.459 246.195C187.811 248.281 188.701 251.225 186.642 251.708C185.144 252.059 182.199 251.954 176.446 251.954H166.613C165.922 251.954 165.362 251.394 165.362 250.703V248.104V244.254H175.652C181.312 244.254 187.358 244.924 187.368 245.453ZM157.323 264.892C154.848 266.33 154.19 269.869 156.309 271.175C157.047 271.631 158.487 271.311 159.508 270.466C160.563 269.593 162.772 269.282 164.625 269.745C166.923 270.322 168.215 270.688 168.75 269.297C170.522 264.686 162.8 261.709 157.323 264.892ZM184.67 265.414C182.149 268.446 183.976 270.257 187.808 269.297C189.661 268.833 191.87 269.144 192.925 270.017C195.036 271.765 197.519 271.916 197.519 269.297C197.519 264.308 187.986 261.426 184.67 265.414ZM160.649 275.784C160.223 276.891 160.534 278.454 161.341 279.259C163.152 281.066 167.441 277.375 166.081 275.18C164.797 273.107 161.539 273.47 160.649 275.784ZM186.431 275.637C185.535 277.966 186.837 280.191 189.097 280.191C191.065 280.191 192.258 277.733 191.434 275.378C190.666 273.179 187.31 273.354 186.431 275.637ZM167.934 296.077C167.934 300.115 171.058 302.523 176.295 302.523C181.533 302.523 184.656 300.115 184.656 296.077C184.656 292.621 181.942 292.028 179.511 294.95C178.63 296.009 177.183 296.876 176.295 296.876C175.408 296.876 173.961 296.009 173.08 294.95C170.649 292.028 167.934 292.621 167.934 296.077ZM153.266 306.842C158.083 310.064 155.108 318.853 148.675 320.404C142.426 321.911 136.661 311.909 141.18 307.4C142.87 305.713 151.016 305.337 153.266 306.842ZM210.337 308.342C212.425 312.236 211.917 315.447 208.74 318.425C205.537 321.427 201.221 321.146 197.198 317.673C194.625 315.452 194.432 313.797 196.201 309.152C197.29 306.292 198.215 305.86 203.23 305.86C207.623 305.86 209.324 306.454 210.337 308.342Z" fill="black"/>
<path d="M138.671 252.761L140.044 298.032L135.509 307.102L126.162 305.927L112.714 300.298H98.6406H88.0075L76.5566 308.613L67.9921 304.676L62.9883 298.421L64.8647 269.024V248.149L67.9921 231.495L88.6329 227.742V239.626L99.8916 241.503L115.529 239.626V229.619L128.664 227.742L136.795 233.372L138.671 252.761Z" fill="#FFF7AA"/>
<path d="M91.1308 241.503L88.6289 229.619L96.1347 227.742L116.775 229.619L114.274 241.503H91.1308Z" fill="#FFFBDE"/>
<path fill-rule="evenodd" clip-rule="evenodd" d="M79.8162 224.509C70.5098 225.265 64.8026 227.09 62.9709 229.898C61.4453 232.234 60.2735 251.448 60.0626 277.564L59.9011 297.537C59.8717 301.166 61.1812 304.68 63.5793 307.405C66.8002 311.066 68.1186 311.636 73.3603 311.636C78.4115 311.636 80.031 310.997 83.1142 307.786C86.7892 303.957 86.8947 303.936 101.173 303.936C115.374 303.936 115.578 303.978 119.572 307.786C122.919 310.978 124.673 311.636 129.829 311.636C136.227 311.636 139.462 309.526 142.619 303.294C144.737 299.116 145.123 274.018 143.517 244.913C142.684 229.813 141.635 227.717 133.878 225.632C128.199 224.107 93.6245 223.388 79.8162 224.509ZM85.9788 235.822C85.9788 238.519 86.2695 240.502 86.7622 241.296C87.3397 242.229 92.9634 242.707 102.46 242.707C118.754 242.707 117.847 244.148 118.778 233.987C118.972 231.869 118.509 230.28 119.039 230.457C119.568 230.635 123.554 230.778 126.603 230.778C136.117 230.778 137.253 231.554 138.157 252.622C138.972 271.588 138.796 276.237 138.459 282.406C138.288 285.532 137.459 285.781 134.737 284.749C131.926 283.683 125.922 284.456 120.92 286.529C118.932 287.352 116.959 290.495 115.429 295.272C114.806 297.215 112.961 299.241 101.765 299.241C90.5606 299.241 88.7289 297.217 88.1256 295.272C85.9389 288.208 80.9918 284.58 73.1364 284.277C67.7404 284.068 66.5746 283.245 65.9019 279.892C65.498 277.875 65.5623 272.942 65.9019 269.311C66.2415 265.68 66.1644 256.115 66.5066 248.055C66.8487 239.994 68.1919 233.764 68.9251 233.033C70.3233 231.637 82.0839 229.69 84.5472 230.466C85.3344 230.715 85.9788 233.124 85.9788 235.822ZM113.481 230.694C113.484 230.849 113.516 231.108 113.572 231.436C113.925 233.522 114.814 236.467 112.755 236.949C111.257 237.3 108.312 237.196 102.559 237.196H92.7261C92.0352 237.196 91.4751 236.636 91.4751 235.945V233.345V229.495H101.765C107.425 229.495 113.471 230.165 113.481 230.694ZM83.4358 250.133C80.961 251.572 80.3036 255.11 82.4221 256.416C83.1604 256.872 84.5998 256.553 85.6211 255.707C86.6759 254.834 88.8857 254.523 90.738 254.987C93.0366 255.563 94.3281 255.929 94.8632 254.538C96.6358 249.928 88.9128 246.95 83.4358 250.133ZM110.784 250.655C108.263 253.687 110.09 255.498 113.922 254.538C115.774 254.074 117.984 254.385 119.039 255.258C121.149 257.006 123.632 257.157 123.632 254.538C123.632 249.549 114.1 246.668 110.784 250.655ZM86.7622 261.026C86.3364 262.132 86.6477 263.695 87.4542 264.5C89.2653 266.307 93.5538 262.616 92.1942 260.421C90.9105 258.348 87.6523 258.712 86.7622 261.026ZM112.545 260.878C111.648 263.208 112.95 265.432 115.21 265.432C117.178 265.432 118.372 262.974 117.547 260.619C116.779 258.42 113.423 258.595 112.545 260.878ZM94.0477 281.318C94.0477 285.356 97.1709 287.764 102.409 287.764C107.646 287.764 110.77 285.356 110.77 281.318C110.77 277.862 108.055 277.269 105.624 280.192C104.743 281.25 103.296 282.117 102.409 282.117C101.521 282.117 100.074 281.25 99.1929 280.192C96.7618 277.269 94.0477 277.862 94.0477 281.318ZM79.3788 292.083C84.196 295.306 81.2208 304.095 74.7881 305.645C68.5392 307.152 62.7741 297.15 67.2928 292.641C68.983 290.955 77.1291 290.579 79.3788 292.083ZM136.45 293.583C138.538 297.477 138.03 300.688 134.853 303.666C131.65 306.668 127.334 306.387 123.311 302.914C120.738 300.694 120.545 299.038 122.314 294.393C123.404 291.533 124.328 291.101 129.344 291.101C133.736 291.101 135.437 291.695 136.45 293.583Z" fill="black"/>
<path d="M289.507 252.761L290.88 298.032L286.345 307.102L276.998 305.927L263.55 300.298H249.477H238.843L227.393 308.613L218.828 304.676L213.824 298.421L215.701 269.024V248.149L218.828 231.495L239.469 227.742V239.626L250.728 241.503L266.364 239.626V229.619L279.5 227.742L287.631 233.372L289.507 252.761Z" fill="#FFF7AA"/>
<path d="M241.975 241.503L239.473 229.619L246.978 227.742L267.619 229.619L265.117 241.503H241.975Z" fill="#FFFBDE"/>
<path fill-rule="evenodd" clip-rule="evenodd" d="M230.66 224.509C221.354 225.265 215.646 227.09 213.815 229.898C212.289 232.234 211.117 251.448 210.906 277.564L210.745 297.537C210.715 301.166 212.025 304.68 214.423 307.405C217.644 311.066 218.962 311.636 224.204 311.636C229.255 311.636 230.875 310.997 233.958 307.786C237.633 303.957 237.738 303.936 252.016 303.936C266.218 303.936 266.421 303.978 270.415 307.786C273.762 310.978 275.517 311.636 280.672 311.636C287.07 311.636 290.305 309.526 293.463 303.294C295.58 299.116 295.966 274.018 294.361 244.913C293.528 229.813 292.479 227.717 284.722 225.632C279.043 224.107 244.468 223.388 230.66 224.509ZM236.823 235.822C236.823 238.519 237.113 240.502 237.606 241.296C238.183 242.229 243.807 242.707 253.304 242.707C269.597 242.707 268.69 244.148 269.622 233.987C269.816 231.869 269.352 230.28 269.882 230.457C270.412 230.635 274.398 230.778 277.446 230.778C286.961 230.778 288.096 231.554 289.001 252.622C289.816 271.588 289.64 276.237 289.303 282.406C289.132 285.532 288.303 285.781 285.581 284.749C282.77 283.683 276.766 284.456 271.763 286.529C269.776 287.352 267.803 290.495 266.272 295.272C265.65 297.215 263.805 299.241 252.609 299.241C241.404 299.241 239.573 297.217 238.969 295.272C236.783 288.208 231.836 284.58 223.98 284.277C218.584 284.068 217.418 283.245 216.746 279.892C216.342 277.875 216.406 272.942 216.746 269.311C217.085 265.68 217.008 256.115 217.35 248.055C217.692 239.994 219.036 233.764 219.769 233.033C221.167 231.637 232.928 229.69 235.391 230.466C236.178 230.715 236.823 233.124 236.823 235.822ZM264.325 230.694C264.327 230.849 264.36 231.108 264.416 231.436C264.768 233.522 265.658 236.467 263.599 236.949C262.101 237.3 259.156 237.196 253.403 237.196H243.57C242.879 237.196 242.319 236.636 242.319 235.945V233.345V229.495H252.609C258.269 229.495 264.315 230.165 264.325 230.694ZM234.28 250.133C231.805 251.572 231.147 255.11 233.266 256.416C234.004 256.872 235.444 256.553 236.465 255.707C237.52 254.834 239.729 254.523 241.582 254.987C243.88 255.563 245.172 255.929 245.707 254.538C247.48 249.928 239.757 246.95 234.28 250.133ZM261.627 250.655C259.106 253.687 260.934 255.498 264.765 254.538C266.618 254.074 268.828 254.385 269.882 255.258C271.993 257.006 274.476 257.157 274.476 254.538C274.476 249.549 264.944 246.668 261.627 250.655ZM237.606 261.026C237.18 262.132 237.491 263.695 238.298 264.5C240.109 266.307 244.398 262.616 243.038 260.421C241.754 258.348 238.496 258.712 237.606 261.026ZM263.388 260.878C262.492 263.208 263.794 265.432 266.054 265.432C268.022 265.432 269.215 262.974 268.391 260.619C267.623 258.42 264.267 258.595 263.388 260.878ZM244.891 281.318C244.891 285.356 248.015 287.764 253.252 287.764C258.49 287.764 261.613 285.356 261.613 281.318C261.613 277.862 258.899 277.269 256.468 280.192C255.587 281.25 254.14 282.117 253.252 282.117C252.365 282.117 250.918 281.25 250.037 280.192C247.606 277.269 244.891 277.862 244.891 281.318ZM230.223 292.083C235.04 295.306 232.065 304.095 225.632 305.645C219.383 307.152 213.618 297.15 218.137 292.641C219.827 290.955 227.973 290.579 230.223 292.083ZM287.294 293.583C289.382 297.477 288.874 300.688 285.697 303.666C282.494 306.668 278.178 306.387 274.155 302.914C271.582 300.694 271.389 299.038 273.158 294.393C274.247 291.533 275.172 291.101 280.187 291.101C284.58 291.101 286.281 291.695 287.294 293.583Z" fill="black"/>
<path d="M280.277 178.248L281.65 223.518L277.115 232.588L267.767 231.413L254.319 225.784H240.246H229.613L218.162 234.1L209.598 230.163L204.594 223.908L206.47 194.51V173.635L209.598 156.981L230.238 153.229V165.113L241.497 166.989L257.134 165.113V155.105L270.269 153.229L278.4 158.858L280.277 178.248Z" fill="#FFF7AA"/>
<path d="M232.744 166.989L230.242 155.105L237.748 153.229L258.389 155.105L255.887 166.989H232.744Z" fill="#FFFBDE"/>
<path fill-rule="evenodd" clip-rule="evenodd" d="M221.433 149.993C212.127 150.749 206.42 152.574 204.588 155.382C203.063 157.718 201.891 176.933 201.68 203.049L201.518 223.021C201.489 226.651 202.798 230.164 205.196 232.889C208.417 236.551 209.736 237.121 214.977 237.121C220.029 237.121 221.648 236.482 224.731 233.27C228.406 229.442 228.512 229.42 242.79 229.42C256.992 229.42 257.195 229.462 261.189 233.27C264.536 236.462 266.29 237.121 271.446 237.121C277.844 237.121 281.079 235.011 284.237 228.778C286.354 224.601 286.74 199.502 285.134 170.397C284.301 155.298 283.253 153.202 275.495 151.116C269.816 149.591 235.242 148.873 221.433 149.993ZM227.596 161.307C227.596 164.003 227.887 165.986 228.379 166.78C228.957 167.714 234.581 168.191 244.077 168.191C260.371 168.191 259.464 169.632 260.395 159.471C260.589 157.354 260.126 155.765 260.656 155.942C261.186 156.119 265.171 156.263 268.22 156.263C277.734 156.263 278.87 157.038 279.774 178.106C280.59 197.073 280.413 201.722 280.076 207.89C279.905 211.016 279.076 211.265 276.354 210.233C273.544 209.167 267.539 209.941 262.537 212.014C260.55 212.836 258.576 215.98 257.046 220.757C256.423 222.7 254.579 224.725 243.383 224.725C232.178 224.725 230.346 222.701 229.743 220.757C227.556 213.692 222.609 210.064 214.754 209.761C209.358 209.552 208.192 208.729 207.519 205.377C207.115 203.359 207.18 198.426 207.519 194.796C207.859 191.165 207.782 181.599 208.124 173.539C208.466 165.479 209.809 159.249 210.542 158.517C211.941 157.122 223.701 155.174 226.164 155.951C226.952 156.2 227.596 158.609 227.596 161.307ZM255.098 156.178C255.101 156.333 255.134 156.592 255.189 156.92C255.542 159.006 256.432 161.951 254.372 162.433C252.875 162.784 249.93 162.68 244.176 162.68H234.343C233.652 162.68 233.092 162.12 233.092 161.429V158.83V154.979H243.383C249.042 154.979 255.088 155.649 255.098 156.178ZM225.053 175.617C222.578 177.056 221.921 180.594 224.039 181.901C224.778 182.356 226.217 182.037 227.238 181.191C228.293 180.318 230.503 180.008 232.355 180.471C234.654 181.047 235.945 181.413 236.48 180.022C238.253 175.412 230.53 172.434 225.053 175.617ZM252.401 176.14C249.88 179.171 251.707 180.982 255.539 180.022C257.391 179.559 259.601 179.869 260.656 180.742C262.767 182.49 265.25 182.642 265.25 180.022C265.25 175.033 255.717 172.152 252.401 176.14ZM228.379 186.51C227.954 187.616 228.265 189.18 229.071 189.984C230.882 191.791 235.171 188.1 233.811 185.905C232.528 183.833 229.269 184.196 228.379 186.51ZM254.162 186.362C253.265 188.692 254.567 190.916 256.827 190.916C258.795 190.916 259.989 188.458 259.164 186.103C258.396 183.905 255.04 184.079 254.162 186.362ZM235.665 206.803C235.665 210.841 238.788 213.248 244.026 213.248C249.264 213.248 252.387 210.841 252.387 206.803C252.387 203.346 249.673 202.753 247.242 205.676C246.36 206.735 244.913 207.601 244.026 207.601C243.138 207.601 241.691 206.735 240.81 205.676C238.379 202.753 235.665 203.346 235.665 206.803ZM220.996 217.567C225.813 220.79 222.838 229.579 216.405 231.129C210.156 232.636 204.391 222.634 208.91 218.125C210.6 216.439 218.746 216.063 220.996 217.567ZM278.068 219.068C280.155 222.962 279.647 226.173 276.47 229.15C273.267 232.152 268.952 231.871 264.928 228.398C262.356 226.178 262.163 224.522 263.931 219.877C265.021 217.018 265.946 216.585 270.961 216.585C275.354 216.585 277.054 217.18 278.068 219.068Z" fill="black"/>
<path d="M211.007 190.559L212.38 235.83L207.845 244.9L198.498 243.725L185.05 238.096H170.977H160.343L148.893 246.411L140.328 242.474L135.324 236.219L137.201 206.822V185.947L140.328 169.293L160.969 165.54V177.424L172.228 179.301L187.864 177.424V167.416L201 165.54L209.131 171.169L211.007 190.559Z" fill="#FFF167"/>
<path d="M163.475 179.301L160.973 167.416L168.478 165.54L189.119 167.416L186.617 179.301H163.475Z" fill="#FFFBDE"/>
<path fill-rule="evenodd" clip-rule="evenodd" d="M152.164 162.307C142.857 163.063 137.15 164.888 135.319 167.697C133.793 170.033 132.621 189.247 132.41 215.363L132.249 235.335C132.219 238.965 133.529 242.479 135.927 245.204C139.148 248.865 140.466 249.435 145.708 249.435C150.759 249.435 152.379 248.796 155.462 245.585C159.137 241.756 159.242 241.734 173.52 241.734C187.722 241.734 187.925 241.777 191.919 245.585C195.266 248.777 197.021 249.435 202.176 249.435C208.574 249.435 211.809 247.325 214.967 241.093C217.084 236.915 217.47 211.817 215.865 182.712C215.031 167.612 213.983 165.516 206.225 163.43C200.546 161.906 165.972 161.187 152.164 162.307ZM158.326 173.621C158.326 176.318 158.617 178.3 159.11 179.095C159.687 180.028 165.311 180.506 174.808 180.506C191.101 180.506 190.194 181.947 191.126 171.786C191.32 169.668 190.856 168.079 191.386 168.256C191.916 168.433 195.902 168.577 198.95 168.577C208.465 168.577 209.6 169.352 210.505 190.42C211.32 209.387 211.144 214.036 210.807 220.204C210.636 223.331 209.807 223.58 207.085 222.548C204.274 221.481 198.27 222.255 193.267 224.328C191.28 225.151 189.307 228.294 187.776 233.071C187.154 235.014 185.309 237.04 174.113 237.04C162.908 237.04 161.077 235.015 160.473 233.071C158.287 226.007 153.339 222.379 145.484 222.076C140.088 221.866 138.922 221.044 138.25 217.691C137.846 215.674 137.91 210.741 138.25 207.11C138.589 203.479 138.512 193.914 138.854 185.853C139.196 177.793 140.54 171.563 141.273 170.831C142.671 169.436 154.432 167.489 156.895 168.265C157.682 168.514 158.326 170.923 158.326 173.621ZM185.829 168.493C185.831 168.648 185.864 168.907 185.92 169.235C186.272 171.321 187.162 174.266 185.103 174.748C183.605 175.099 180.66 174.994 174.907 174.994H165.074C164.383 174.994 163.823 174.434 163.823 173.743V171.144V167.294H174.113C179.773 167.294 185.818 167.964 185.829 168.493ZM155.783 187.932C153.309 189.37 152.651 192.909 154.77 194.215C155.508 194.671 156.947 194.351 157.969 193.506C159.024 192.633 161.233 192.322 163.086 192.786C165.384 193.362 166.676 193.728 167.211 192.337C168.983 187.726 161.261 184.749 155.783 187.932ZM183.131 188.454C180.61 191.486 182.437 193.297 186.269 192.337C188.122 191.873 190.331 192.184 191.386 193.057C193.497 194.805 195.98 194.956 195.98 192.337C195.98 187.348 186.447 184.466 183.131 188.454ZM159.11 198.824C158.684 199.931 158.995 201.494 159.802 202.299C161.613 204.106 165.901 200.415 164.542 198.22C163.258 196.147 160 196.51 159.11 198.824ZM184.892 198.677C183.996 201.006 185.297 203.231 187.557 203.231C189.526 203.231 190.719 200.773 189.895 198.418C189.127 196.219 185.771 196.394 184.892 198.677ZM166.395 219.117C166.395 223.155 169.519 225.563 174.756 225.563C179.994 225.563 183.117 223.155 183.117 219.117C183.117 215.661 180.403 215.068 177.972 217.99C177.091 219.049 175.644 219.916 174.756 219.916C173.869 219.916 172.422 219.049 171.541 217.99C169.109 215.068 166.395 215.661 166.395 219.117ZM151.726 229.882C156.544 233.104 153.568 241.894 147.136 243.444C140.887 244.951 135.122 234.949 139.64 230.44C141.331 228.753 149.477 228.377 151.726 229.882ZM208.798 231.382C210.886 235.276 210.378 238.487 207.2 241.465C203.998 244.467 199.682 244.186 195.659 240.713C193.086 238.492 192.893 236.837 194.662 232.192C195.751 229.332 196.676 228.9 201.691 228.9C206.084 228.9 207.784 229.494 208.798 231.382Z" fill="black"/>
<path d="M137.128 178.248L138.501 223.518L133.966 232.588L124.619 231.413L111.171 225.784H97.0976H86.4645L75.0136 234.1L66.4491 230.163L61.4453 223.908L63.3218 194.51V173.635L66.4491 156.981L87.09 153.229V165.113L98.3486 166.989L113.986 165.113V155.105L127.121 153.229L135.252 158.858L137.128 178.248Z" fill="white"/>
<path d="M89.5918 166.989L87.0898 155.105L94.5956 153.229L115.236 155.105L112.735 166.989H89.5918Z" fill="#FFFBDE"/>
<path fill-rule="evenodd" clip-rule="evenodd" d="M78.2771 149.993C68.9708 150.749 63.2635 152.574 61.4318 155.382C59.9063 157.718 58.7345 176.933 58.5235 203.049L58.362 223.021C58.3326 226.651 59.6422 230.164 62.0402 232.889C65.2611 236.551 66.5796 237.121 71.8212 237.121C76.8725 237.121 78.4919 236.482 81.5752 233.27C85.2501 229.442 85.3556 229.42 99.6335 229.42C113.835 229.42 114.039 229.462 118.033 233.27C121.38 236.462 123.134 237.121 128.29 237.121C134.688 237.121 137.923 235.011 141.08 228.778C143.198 224.601 143.584 199.502 141.978 170.397C141.145 155.298 140.096 153.202 132.339 151.116C126.66 149.591 92.0855 148.873 78.2771 149.993ZM84.4397 161.307C84.4397 164.003 84.7304 165.986 85.2231 166.78C85.8006 167.714 91.4243 168.191 100.921 168.191C117.215 168.191 116.308 169.632 117.239 159.471C117.433 157.354 116.97 155.765 117.499 155.942C118.029 156.119 122.015 156.263 125.063 156.263C134.578 156.263 135.714 157.038 136.618 178.106C137.433 197.073 137.257 201.722 136.92 207.89C136.749 211.016 135.92 211.265 133.198 210.233C130.387 209.167 124.383 209.941 119.381 212.014C117.393 212.836 115.42 215.98 113.889 220.757C113.267 222.7 111.422 224.725 100.226 224.725C89.0215 224.725 87.1898 222.701 86.5866 220.757C84.3999 213.692 79.4528 210.064 71.5974 209.761C66.2014 209.552 65.0356 208.729 64.3628 205.377C63.959 203.359 64.0233 198.426 64.3628 194.796C64.7024 191.165 64.6253 181.599 64.9675 173.539C65.3096 165.479 66.6529 159.249 67.3861 158.517C68.7843 157.122 80.5448 155.174 83.0081 155.951C83.7953 156.2 84.4397 158.609 84.4397 161.307ZM111.942 156.178C111.945 156.333 111.977 156.592 112.033 156.92C112.386 159.006 113.275 161.951 111.216 162.433C109.718 162.784 106.773 162.68 101.02 162.68H91.187C90.4962 162.68 89.9361 162.12 89.9361 161.429V158.83V154.979H100.226C105.886 154.979 111.932 155.649 111.942 156.178ZM81.8967 175.617C79.4219 177.056 78.7645 180.594 80.8831 181.901C81.6214 182.356 83.0607 182.037 84.0821 181.191C85.1368 180.318 87.3467 180.008 89.1989 180.471C91.4976 181.047 92.7891 181.413 93.3242 180.022C95.0967 175.412 87.3738 172.434 81.8967 175.617ZM109.245 176.14C106.723 179.171 108.551 180.982 112.383 180.022C114.235 179.559 116.445 179.869 117.499 180.742C119.61 182.49 122.093 182.642 122.093 180.022C122.093 175.033 112.561 172.152 109.245 176.14ZM85.2231 186.51C84.7973 187.616 85.1086 189.18 85.9151 189.984C87.7262 191.791 92.0147 188.1 90.6551 185.905C89.3714 183.833 86.1132 184.196 85.2231 186.51ZM111.006 186.362C110.109 188.692 111.411 190.916 113.671 190.916C115.639 190.916 116.832 188.458 116.008 186.103C115.24 183.905 111.884 184.079 111.006 186.362ZM92.5087 206.803C92.5087 210.841 95.6318 213.248 100.87 213.248C106.107 213.248 109.23 210.841 109.23 206.803C109.23 203.346 106.516 202.753 104.085 205.676C103.204 206.735 101.757 207.601 100.87 207.601C99.982 207.601 98.535 206.735 97.6538 205.676C95.2227 202.753 92.5087 203.346 92.5087 206.803ZM77.8398 217.567C82.6569 220.79 79.6817 229.579 73.249 231.129C67.0002 232.636 61.235 222.634 65.7538 218.125C67.4439 216.439 75.59 216.063 77.8398 217.567ZM134.911 219.068C136.999 222.962 136.491 226.173 133.314 229.15C130.111 232.152 125.795 231.871 121.772 228.398C119.199 226.178 119.006 224.522 120.775 219.877C121.864 217.018 122.789 216.585 127.805 216.585C132.197 216.585 133.898 217.18 134.911 219.068Z" fill="black"/>
</g>
<defs>
<clipPath id="clip0_707_47">
<rect width="344" height="366" fill="white"/>
</clipPath>
</defs>
</svg>
