<svg width="344" height="366" viewBox="0 0 344 366" fill="none" xmlns="http://www.w3.org/2000/svg">
<rect width="344" height="366" fill="#F8F7F1"/>
<g clip-path="url(#clip0_711_2612)">
<path d="M253.072 179.976H250.211V186.112H272.06V179.976H269.199V164.594H272.06V158.458H250.211V164.594H253.072V179.976ZM259.208 164.594H263.105V179.976H259.208V164.594Z" fill="#00A7D9"/>
<path d="M266.797 203.483H279.608V225H285.744V197.347H266.797V203.483Z" fill="#00A7D9"/>
<path d="M100.748 185.696C108.501 185.696 113.476 179.808 113.476 172.097C113.476 164.385 108.501 158.498 100.748 158.498C92.9947 158.498 88.0195 164.385 88.0195 172.097C88.0195 179.808 92.9947 185.696 100.748 185.696ZM100.748 164.51C105.184 164.51 107.464 167.661 107.464 172.097C107.464 176.533 105.184 179.684 100.748 179.684C96.3115 179.684 94.0312 176.533 94.0312 172.097C94.0312 167.661 96.3115 164.51 100.748 164.51Z" fill="#00A7D9"/>
<path d="M97.6874 188.144V197.348H89.3125V203.484H112.24V197.348H103.823V188.144H97.6874Z" fill="#00A7D9"/>
<path d="M68.7864 175.374L72.6007 186.112H79.483L68.7864 158.458L58.0898 186.112H64.9722L68.7864 175.374Z" fill="#00A7D9"/>
<path d="M80.271 197.348H71.8546V188.144H65.7186V197.348H57.3438V203.484H80.271V197.348Z" fill="#00A7D9"/>
<path d="M284.464 141.21H278.328V186.111H284.464V141.21Z" fill="#00A7D9"/>
<path d="M134.136 170.067H121.905V176.203H134.136V186.112H140.272V158.458H121.656V164.594H134.136V170.067Z" fill="#00A7D9"/>
<path d="M152.991 186.069V157.048H161.242V150.912H152.991V141.21H146.855V186.069H152.991Z" fill="#00A7D9"/>
<path d="M234.663 186.069V157.048H242.872V150.912H234.663V141.21H228.527V186.069H234.663Z" fill="#00A7D9"/>
<path d="M187.031 186.112H193.167V158.458H174.469V164.594H187.031V186.112Z" fill="#00A7D9"/>
<path d="M195.275 197.347H172.348V203.483H195.275V197.347Z" fill="#00A7D9"/>
<path d="M222.234 180.017H209.423V175.166H222.234V158.458H203.328V164.594H216.139V169.03H203.328V186.112H222.234V180.017Z" fill="#00A7D9"/>
</g>
<defs>
<clipPath id="clip0_711_2612">
<rect width="228.401" height="83.79" fill="white" transform="translate(57.3438 141.21)"/>
</clipPath>
</defs>
</svg>
