<svg width="344" height="366" viewBox="0 0 344 366" fill="none" xmlns="http://www.w3.org/2000/svg">
<g clip-path="url(#clip0_708_565)">
<rect width="344" height="366" fill="#FDBBEB"/>
<path d="M344 0H0V366H344V0Z" fill="#FDBBEB"/>
<g clip-path="url(#clip1_708_565)">
<rect width="344" height="430" transform="translate(0 -32)" fill="#A5E5FF"/>
<path d="M166.884 -4.60463L147.226 -12.8817L145.156 -16.503L157.055 -18.5723L173.609 -12.8817L190.163 1.60321L198.44 20.2267V34.1944L192.75 35.7463L181.369 9.36301L166.884 -4.60463Z" fill="#D5ECAB"/>
<path d="M79.9729 22.817V51.7869L54.6243 76.6183L45.3125 93.1725L67.5573 112.313L92.3886 139.214L79.9729 149.043L72.2131 166.115L82.5595 173.357L95.4925 166.115L100.666 153.182L116.703 139.214L140.499 101.45L143.603 76.6183L165.848 71.9624L177.746 76.6183L187.058 74.549L193.783 65.7545L190.162 57.4774L193.783 40.4059L187.058 17.6438L173.091 2.1242L157.054 -9.25684L143.603 -13.3954L158.62 -21.4886L165.848 -33.5709V-45.4692L159.64 -54.2637H143.603L135.326 -45.4692L128.084 -33.5709L98.5965 -5.11828L79.9729 22.817Z" fill="white"/>
<path d="M25.6513 149.041L11.6836 130.417L-2.28399 141.281L-24.5287 158.87L-31.2539 168.699L-28.6673 181.114L-22.4595 187.322H-10.0438L-6.93987 179.562L-0.21471 170.251L25.6513 149.041Z" fill="white"/>
<path d="M54.6223 178.529L39.1027 163.526V165.078L16.858 182.667L10.1328 192.496L12.7194 204.912L18.9272 211.12H31.3429L34.4468 203.36L41.172 194.048L54.6223 178.529Z" fill="white"/>
<path d="M27.2033 147.491L8.0625 124.729L11.1664 121.625L41.171 90.5859L56.6906 101.45L80.4873 124.729L92.903 136.627L80.4873 152.147L60.3118 176.461L48.4135 171.288L37.5497 158.355L45.8269 140.766L27.2033 147.491Z" fill="#D5ECAB"/>
<path fill-rule="evenodd" clip-rule="evenodd" d="M160.045 -57.0572C157.876 -58.2279 152.759 -59.0393 148.676 -58.8591C140.548 -58.503 134.766 -54.2722 131.504 -46.2956C130.419 -43.6434 122.441 -34.609 109.943 -21.8833C91.5017 -3.10727 87.8358 1.11696 81.7601 10.5793C78.2565 16.0365 75.4041 27.641 74.8077 38.8567L74.2693 48.9882L57.5933 66.4966C48.4197 76.1254 39.8129 86.1821 38.4663 88.8417C36.8204 92.0956 30.9164 98.3367 20.4352 107.908C8.71897 118.606 4.43669 123.234 3.17329 126.562C1.89935 129.92 -2.73386 134.891 -16.038 147.175C-30.2167 160.264 -33.9383 164.321 -35.4957 168.378C-37.9066 174.658 -35.9646 180.988 -29.7087 187.243C-25.4538 191.498 -23.9323 192.053 -17.2802 191.769C-8.18563 191.382 -1.38287 185.846 -0.454548 178.077C-0.144758 175.487 0.649685 173.369 1.31247 173.368C1.97525 173.369 7.59364 168.701 13.7968 162.995C20.0021 157.29 25.786 152.789 26.65 152.994C27.5141 153.198 30.5783 152.433 33.4602 151.296C36.4506 150.114 37.91 150.052 36.8594 151.149C35.8468 152.206 34.5865 155.147 34.0575 157.687C33.2852 161.397 30.436 165.034 19.5375 176.228L5.97928 190.153L6.31443 196.119C6.75278 203.91 12.3449 211.949 18.1698 213.163C27.2117 215.045 30.7216 213.203 38.8805 202.285C48.1785 189.845 56.529 181.438 59.0094 182.023C60.2665 182.319 62.6332 180.307 65.9113 176.156C70.5181 170.323 71.0671 170.004 73.0702 172.007C76.6307 175.567 84.5335 177.338 88.8158 175.534C94.2107 173.26 101.329 165.516 102.395 160.76C103.003 158.044 107.819 152.016 118.538 140.554C138.832 118.851 146.368 104.021 146.662 85.2053C146.781 77.6301 146.949 77.2751 149.988 78.1961C151.748 78.7293 156.604 78.0453 160.782 76.6787C167.075 74.6176 169.33 74.7061 173.948 77.1939C182.763 81.945 192.514 77.3951 195.826 66.9866C196.797 63.9382 196.477 60.9142 194.94 58.6087C193.091 55.8342 193.131 54.1082 195.117 51.1294C199.608 44.3919 203.413 30.2585 202.567 23.4568C200.349 5.65224 186.601 -11.145 168.221 -18.5031C166.229 -19.3008 166.173 -20.3555 167.975 -23.1942C169.254 -25.2089 170.907 -27.9158 171.648 -29.2108C172.391 -30.5058 172.486 -35.3908 171.858 -40.065C170.678 -48.8709 167.948 -52.796 160.045 -57.0572ZM164.026 -38.1789C164.368 -32.9314 163.649 -30.3604 161.15 -27.8842C159.317 -26.0708 156.964 -24.428 155.921 -24.2362C152.928 -23.6873 137.674 -40.0768 138.357 -43.1115C139.896 -49.949 148.75 -53.1922 156.835 -49.8804C162.094 -47.7256 163.563 -45.3357 164.026 -38.1789ZM192.745 12.9397C195.745 19.851 197.323 28.0225 196.159 30.6336C195.728 31.5998 194.23 28.5335 192.828 23.8182C190.782 16.9364 188.56 13.2706 181.562 5.23392C172.848 -4.77212 170.393 -6.43905 154.086 -13.4125C148.605 -15.757 156.361 -15.4725 163.715 -13.0605C177.462 -8.54958 187.202 0.1719 192.745 12.9397ZM145.561 -21.8296C146.487 -19.7527 146.218 -19.4366 143.38 -19.269C136.48 -18.8644 125.957 -11.6138 116.585 -0.811163C108.85 8.10639 107.356 10.7089 105.335 18.7761C104.055 23.894 102.927 31.3206 102.831 35.2815C102.441 51.3189 116.872 70.8158 133.005 76.0496L139.248 78.0737L139.249 84.4297C139.249 100.075 126.328 123.697 108.961 139.809C100.607 147.558 100.355 147.675 97.2728 145.231C93.7344 142.426 92.9884 143.749 111.181 120.552C119.496 109.951 120.248 108.48 118.526 106.185C117.471 104.78 115.766 104.023 114.738 104.504C113.709 104.985 108.684 110.957 103.57 117.773C98.4562 124.59 93.8504 130.167 93.3341 130.167C90.5987 130.167 49.4924 91.6656 49.4934 89.104C49.4945 86.8691 61.8038 72.6503 72.6697 62.3345L82.778 52.7362L82.2522 44.2507C81.5093 32.2669 86.8095 17.0028 95.9905 4.69226C103.79 -5.76898 130.178 -31.8494 132.898 -31.7873C135.907 -31.7177 143.988 -25.3648 145.561 -21.8296ZM185.096 25.5643C187.77 33.7316 188.028 39.5469 185.715 39.548C184.966 39.5469 184.281 37.2729 184.195 34.4932C183.982 27.6589 178.383 21.4747 170.332 19.1766L164.057 17.3842L162.412 11.2906C160.281 3.39512 154.076 -2.21473 147.24 -2.42758C143.812 -2.534 142.15 -3.28106 142.15 -4.71621C142.15 -7.78883 148.347 -7.12411 158.119 -2.99989C169.558 1.82822 181.446 14.416 185.096 25.5643ZM176.832 30.2247C175.194 31.8632 166.896 28.6336 166.305 26.1269C165.595 23.1248 167.557 22.3305 172.145 23.7635C176.877 25.2419 178.954 28.1026 176.832 30.2247ZM154.209 8.03366C153.216 10.002 143.655 7.30875 143.087 4.90102C142.468 2.27306 145.361 0.245709 148.567 1.06234C152.234 1.99592 155.328 5.81876 154.209 8.03366ZM159.041 24.834C158.315 25.56 157.65 28.1595 157.564 30.6083C157.329 37.2435 165.778 45.3465 172.738 45.1621C175.609 45.0873 179.05 46.2274 180.619 47.7753C182.894 50.0208 182.922 51.2452 180.769 54.4749C171.086 68.9982 150.795 75.2813 134.211 68.8906C125.866 65.6757 115.762 55.8563 112.865 48.1473C111.709 45.0716 110.671 38.1076 110.558 32.6715C110.317 21.0164 115.67 9.31806 124.679 1.80932C129.802 -2.4582 130.326 -2.55407 133.146 0.266718C134.949 2.06962 136.154 5.38348 136.154 8.54251C136.154 18.8899 151.232 28.4281 157.569 22.0911C158.662 20.9984 159.737 20.8721 159.958 21.8099C160.179 22.7477 159.766 24.109 159.041 24.834ZM189.831 62.7782C190.962 68.2827 181.085 75.5975 177.437 71.9559C176.065 70.586 176.875 69.2995 181.92 64.8476C188.086 59.4041 189.083 59.1429 189.831 62.7782ZM134.803 43.431C133.295 42.4141 130.872 41.6933 129.418 41.8292C126.412 42.1085 120.665 47.0905 119.975 50.0145C119.411 52.4012 125.286 58.4758 130.359 60.755C135.051 62.8613 139.996 58.4736 140.224 51.9986C140.381 47.5551 139.982 46.9219 134.803 43.431ZM133.649 53.2758C133.209 55.1451 130.05 53.8426 128.878 51.3095C128.421 50.319 128.469 49.084 128.986 48.5667C130.223 47.3296 134.123 51.2674 133.649 53.2758ZM64.2127 -5.04404C59.1275 -3.6405 41.0005 14.3642 40.9963 18.0142C40.9921 22.9772 45.5515 20.9721 55.4259 11.6646C60.6691 6.72272 66.2854 1.66285 67.907 0.422628C71.8911 -2.62576 69.3064 -6.4518 64.2127 -5.04404ZM65.8069 12.4823C58.5795 15.7098 39.1027 34.468 33.5349 43.5637C27.8522 52.8458 25.9408 59.5474 28.3011 61.9077C30.7457 64.3523 33.8637 62.1701 35.9617 56.5443C40.4968 44.3866 51.0487 31.7779 65.0736 21.7593C73.6961 15.6003 74.2398 8.71739 65.8069 12.4823ZM91.9938 35.4026C88.0002 35.4026 86.8738 37.5049 87.427 43.9251C88.0751 51.456 89.998 53.3938 94.7228 51.2716C99.9598 48.9197 100.045 48.7311 98.4878 43.0559C96.843 37.0676 95.431 35.4026 91.9938 35.4026ZM113.54 83.9913C112.469 84.2442 111.593 85.4434 111.593 86.6551C111.593 89.4875 116.129 91.5539 117.284 89.2463C118.459 86.8997 115.978 83.416 113.54 83.9913ZM92.3573 65.0509C89.4417 65.739 89.9242 72.2826 92.8915 72.2826C94.2128 72.2826 95.7513 71.2542 96.3108 69.9971C97.4815 67.3681 95.1107 64.4008 92.3573 65.0509ZM85.7979 135.484C87.4512 138.349 87.033 138.993 76.871 149.184C70.044 156.03 65.121 162.127 63.1853 166.13C61.1369 170.368 59.4699 172.385 58.02 172.385C56.842 172.385 52.6462 169.23 48.6969 165.376L41.5179 158.368L45.2069 151.73C49.2879 144.387 50.2068 137.494 47.2743 136.192C46.227 135.726 42.4209 137.023 38.8204 139.072C35.2177 141.122 31.4981 143.212 30.554 143.716C28.7036 144.704 19.4289 136.217 14.8431 129.339L12.2436 125.439L21.5479 117.604C26.6647 113.294 33.8206 106.811 37.4495 103.196L44.0479 96.6253L50.5102 102.808C57.3456 109.348 82.189 131.511 83.3671 132.12C83.7495 132.317 84.8433 133.832 85.7979 135.484ZM94.6449 157.028C95.0432 165.009 82.7189 171.492 78.6221 165.458C76.2418 161.952 77.1701 159.559 82.8949 154.435C89.6176 148.416 94.2666 149.443 94.6449 157.028ZM12.8148 153.373C8.61888 157.002 3.55596 161.547 1.56128 163.472C-2.02449 166.935 -2.1026 166.923 -5.61778 162.318C-8.15617 158.993 -10.1371 157.664 -12.5543 157.664C-15.6586 157.664 -15.2371 156.964 -7.41223 149.139C-2.72427 144.451 2.88886 139.43 5.06266 137.981C8.90554 135.42 9.17109 135.504 14.7284 141.061L20.4415 146.775L12.8148 153.373ZM43.1069 185.024L36.3684 191.763L31.9577 188.271C29.5331 186.35 26.8028 184.431 25.8934 184.009C23.9209 183.09 23.8145 183.243 32.4591 174.598L39.3083 167.749L44.5768 173.017L49.8454 178.286L43.1069 185.024ZM29.3149 199.177C29.5688 204.265 26.454 206.853 21.354 205.791C18.1708 205.128 16.5533 203.903 15.1456 201.085C11.0909 192.978 16.7471 187.652 24.2812 192.485C26.3233 193.795 28.2517 195.011 28.5636 195.186C28.8765 195.362 29.2137 197.158 29.3149 199.177ZM-8.10875 175.125C-8.10875 180.766 -11.939 184.274 -17.8956 184.088C-24.4687 183.883 -29.2325 178.137 -28.2663 171.582C-27.6056 167.094 -27.2367 166.675 -22.6699 165.221C-15.5195 162.945 -8.10875 167.985 -8.10875 175.125ZM-48.4112 140.076C-55.7049 137.202 -63.6783 137.968 -67.6339 141.923C-70.9257 145.215 -71.8793 151.395 -69.4674 153.807C-68.6897 154.585 -69.7782 155.446 -72.7044 156.366C-75.13 157.128 -77.8728 158.505 -78.8011 159.425C-81.565 162.168 -80.3839 168.18 -76.2733 172.29L-72.4252 176.138L-77.5209 180.006C-85.5934 186.131 -84.1097 192.773 -73.7254 197.012C-71.8603 197.773 -71.5936 198.569 -72.7991 199.774C-75.4502 202.425 -74.7865 209.603 -71.5948 212.795C-68.7098 215.68 -59.8671 215.815 -53.8461 213.067C-51.7524 212.111 -51.0622 212.506 -50.274 215.109C-48.7714 220.074 -42.8716 222.912 -35.0879 222.413C-31.2029 222.163 -25.9165 223.037 -23.3391 224.354C-19.6311 226.25 -17.4856 226.159 -13.0537 223.919C-8.25935 221.495 -7.19513 220.362 -5.65671 216.037C-4.49236 212.763 -4.61991 210.225 -6.01713 208.828C-8.73781 206.107 -12.0116 207.495 -13.3582 211.939C-13.9272 213.821 -15.6186 215.997 -17.117 216.773C-19.2844 217.897 -20.0262 217.568 -20.7533 215.164C-22.258 210.196 -24.5414 208.954 -28.1725 211.127C-32.5053 213.721 -39.6358 215.25 -41.0067 213.879C-41.5809 213.305 -41.798 210.717 -41.4893 208.128C-41.1795 205.54 -41.5652 202.783 -42.3449 202.004C-43.9434 200.405 -54.4205 202.47 -56.8039 204.853C-58.689 206.738 -65.7109 206.595 -65.7119 204.672C-65.7119 203.917 -64.3168 202.465 -62.6119 201.445C-58.4508 198.953 -55.2317 193.332 -56.9703 191.593C-57.7427 190.821 -61.2854 190.123 -64.8437 190.042C-75.8487 189.793 -75.5779 186.713 -64.2041 182.749C-60.6457 181.509 -56.9861 179.746 -56.0704 178.831C-53.6353 176.395 -55.6596 173.16 -60.2622 172.129C-65.8332 170.88 -72.8729 166.129 -71.3724 164.629C-70.7244 163.981 -66.2863 163.574 -61.5129 163.726C-53.4763 163.982 -52.8652 163.758 -53.2783 160.717C-53.5681 158.579 -55.5573 155.97 -58.9766 153.244C-65.1956 148.286 -64.1936 145.893 -56.0052 146.149C-52.3836 146.261 -49.4901 147.602 -46.2868 150.649C-42.7811 153.982 -41.1931 154.626 -39.4282 153.432C-34.9288 150.385 -39.4999 143.588 -48.4112 140.076Z" fill="black"/>
<path d="M148.447 279.386L158.607 266.018L169.3 253.185L182.133 243.025L179.994 236.609L176.786 231.262L176.786 220.033L176.786 209.338L173.578 199.179L176.786 189.019L183.737 185.811L195.501 185.811L224.376 169.769L240.417 154.798L240.417 142.499L248.438 129.131L255.924 125.923L267.687 116.833L277.312 106.139L282.659 95.9791L282.659 87.9584L289.611 81.0071L300.84 77.7988L313.672 87.9584L313.672 99.1873L321.158 95.9791L336.13 100.257L342.012 113.09L338.804 123.784L328.644 128.062L315.276 151.055L306.187 177.79L295.492 182.068L281.589 200.248L273.569 232.331L274.639 239.817L277.312 251.581L273.569 263.344L262.875 266.018L253.785 269.226L245.229 266.018L237.743 271.365L232.396 297.031L217.959 325.906L214.751 337.135L205.126 346.225L194.432 345.155L186.411 337.135L184.272 322.697L176.786 318.42L165.023 309.33L145.238 311.468L135.613 303.982L135.613 293.288L148.447 279.386Z" fill="white"/>
<path d="M167.973 301.067L170.153 290.166L186.141 273.452L197.042 267.638L205.036 278.539L200.675 301.067L192.681 317.782L183.961 321.416L173.786 316.328L167.973 311.241V301.067Z" fill="#A5E5FF"/>
<path d="M279.618 62.6788C280.197 64.4291 280.665 66.9839 280.895 68.024L280.656 69.669C281.243 70.025 281.712 68.3765 281.946 68.7272C282.41 69.4235 283.342 70.0029 284.27 71.289C284.385 72.3343 284.617 73.2531 284.677 74.2591C284.853 77.224 285.13 78.9102 285.783 80.5362C286.368 81.9916 286.179 84.3625 295.051 91.4848C298.59 94.3258 300.756 96.4211 304.757 98.8613C307.427 100.489 313.305 103.425 317.383 105.318C321.507 107.232 325.116 108.901 328.311 110.142C330.113 110.841 331.557 111.437 333.195 112.353C334.651 113.166 336.303 113.814 338.141 114.796C339.886 115.728 341.187 116.622 342.676 117.179C344.074 117.703 345.512 118.31 346.864 119.041C348.262 119.797 349.849 120.461 351.693 120.727C354.098 121.074 357.812 121.027 362.343 120.666C365.978 120.376 371.106 120.294 373.22 119.617C375.953 118.743 377.817 118.442 378.974 117.464C380.49 116.181 382.527 114.947 382.693 112.862C382.808 111.41 382.837 110.151 382.338 109.552C381.174 108.154 380.037 106.956 378.496 106.004C376.519 104.782 372.618 103.904 373.735 102.981C374.086 102.692 374.844 102.567 375.484 102.166C376.882 101.292 378.646 100.291 380.372 98.6728C381.3 97.802 382.243 95.6139 381.642 93.024C381.293 91.5197 380.891 90.6487 380.302 90.0068C379.663 89.3105 379.008 88.4469 377.731 88.3821C375.465 88.2669 373.363 88.5806 372.156 88.4397C371.632 88.3786 371.157 88.0968 371.351 87.7957C371.877 86.9825 373.047 86.2177 373.33 85.1781C374.082 82.4174 374.24 78.3734 373.555 76.8017C373.377 76.3934 373.054 75.8873 372.384 75.8751C369.42 75.821 367.112 76.1932 365.233 76.3428C363.019 76.519 360.024 78.2043 358.375 76.9204C358.146 76.7424 358.261 76.3969 358.497 76.0461C358.733 75.6953 359.086 75.3564 359.37 74.9991C360.478 73.6012 362.149 72.2112 364.434 69.2368C366.181 66.963 368.06 64.8821 369.493 63.0732C370.83 61.3857 372.834 60.1728 372.92 57.7053C373.035 54.3914 372.913 51.8469 372.274 51.3253C371.636 50.8035 370.743 49.2364 368.538 49.2923C363.717 49.4144 361.801 49.9906 359.284 51.4003C353.483 54.6497 349.342 57.0411 350.409 55.9812C350.702 55.6897 351.789 54.546 352.796 52.6603C353.728 50.9152 355.672 49.3821 354.419 43.8668C353.721 40.7937 353.325 39.2035 352.323 38.0033C351.742 37.307 349.593 36.6604 346.847 37.0208C344.639 37.3105 342.65 37.2554 340.627 38.3611C338.706 39.4116 337.239 40.7321 335.977 41.7936C334.518 43.0204 333.112 45.2469 329.637 47.3744C329.178 47.6554 329.293 47.1947 329.41 46.7863C329.527 46.378 329.648 46.034 329.759 45.6224C330.344 43.4602 331.596 37.4881 330.454 33.6389C329.988 32.0683 330.258 29.4027 327.363 28.5816C326.145 28.2361 324.851 28.4236 323.292 28.9952C320.906 29.8695 318.992 30.2445 316.65 32.6756C311.951 37.5548 310.415 43.318 309.57 41.7867C309.281 41.2614 308.996 40.0762 308.466 38.7014C307.881 37.1849 307.29 35.0937 305.67 34.2828C304.272 33.583 301.866 32.4557 300.435 33.5324C298.8 34.7627 297.162 36.6048 296.248 38.0731C295.198 39.7606 293.952 41.0989 293.107 42.551C292.294 43.9488 291.619 47.9954 290.14 50.4021C289.962 50.6918 289.595 50.8834 289.266 50.7459C288.57 50.4545 287.904 49.9182 287.172 49.5819C285.774 48.9398 284.199 47.3567 282.401 48.1894C281.007 48.8351 279.332 50.324 279.148 52.0338C278.801 55.2639 278.878 60.4457 279.618 62.6788Z" fill="white"/>
<ellipse cx="317.074" cy="6.76945" rx="6.62104" ry="10.4833" fill="white"/>
<path fill-rule="evenodd" clip-rule="evenodd" d="M256.459 146.271C254.503 147.652 252.558 149.293 252.137 149.917C250.532 152.301 252.874 158.075 256.414 160.46C259.257 162.375 261.072 162.309 264.294 160.173C271.051 155.696 271.358 151.403 265.221 147.268C260.843 144.319 259.449 144.16 256.459 146.271ZM281.655 167.185C279.483 167.61 277.145 169.605 275.708 172.263C273.541 176.269 273.758 176.98 278.261 180.578C283.465 184.736 288.138 184.482 291.245 179.871C295.05 174.223 288.695 165.814 281.655 167.185ZM259.113 165.132C257.491 165.607 254.715 167.826 252.945 170.061C250.398 173.277 249.01 173.778 246.285 172.466C244.392 171.554 241.547 170.929 239.961 171.074C237.514 171.3 237.629 171.047 240.728 169.402C249.306 164.845 249.481 155.288 241.029 153.073C237.149 152.056 235.862 152.657 232.35 157.129C228.533 161.991 228.461 162.627 231.368 165.683C233.095 167.501 234.978 169.5 235.553 170.126C236.126 170.751 232.909 170.737 228.402 170.094C223.897 169.449 219.829 169.486 219.365 170.175C218.9 170.864 216.463 171.905 213.948 172.489C208.462 173.762 200.2 180.609 198.93 184.939C197.544 189.66 206.693 195.394 212.031 193.151C214.216 192.233 220.364 191.876 225.694 192.359C233.625 193.078 236.936 194.283 243.934 198.998C253.813 205.654 261.195 213.997 262.323 219.783C263.304 224.816 266.966 233.68 270.41 234.473C275.633 235.676 277.361 224.314 281.557 219.474C279.507 218.093 279.264 212.05 281.141 209.153C282.109 207.657 281.605 206.082 279.736 204.76L276.823 202.697L281.174 202.627C286.229 202.544 289.908 197.996 288.939 193.027C287.527 185.789 279.025 185.156 275.722 192.042L273.616 196.435L270.886 191.008C269.384 188.025 266.708 184.608 264.94 183.417C262.1 181.503 262.11 180.867 265.027 177.98C267.622 175.408 267.983 173.81 266.715 170.512C264.715 165.305 262.901 164.021 259.113 165.132Z" fill="#F3A9CA"/>
<path fill-rule="evenodd" clip-rule="evenodd" d="M162.806 308.978C159.175 311.546 155.111 312.167 152.674 310.524C151.537 309.759 150.181 309.765 149.661 310.537C149.14 311.311 143.207 310.735 142.079 307.728C137.272 294.925 131.161 298.921 115.459 321.79C109.78 330.061 103.081 339.105 100.57 341.889C96.7873 346.082 95.7472 348.906 94.4977 358.357C93.6688 364.632 93.7606 370.284 94.7011 370.918C95.6416 371.551 96.2034 372.821 95.9482 373.739C94.9923 377.176 103.703 386.378 115.542 394.437C126.237 401.717 128.616 402.745 136.276 403.402C150.411 404.613 151.207 404.53 155.463 401.375C168.023 392.062 196.681 358.634 198.464 351.216C199.269 347.87 198.638 346.93 193.816 344.311C190.747 342.643 188.547 340.819 188.926 340.257C189.304 339.695 188.67 338.601 187.517 337.823C186.364 337.047 185.889 335.076 186.46 333.444C187.789 329.655 183.28 322.807 177.696 320.13C175.319 318.99 173.546 317.443 173.754 316.694C173.962 315.943 172.169 313.486 169.77 311.233C166.188 307.872 164.94 307.468 162.806 308.978Z" fill="#FFEC8C"/>
<path fill-rule="evenodd" clip-rule="evenodd" d="M316.511 -10.3002C310.819 -8.46833 308.542 -5.52669 306.49 2.64357C304.8 9.36739 306.406 14.1712 310.101 13.4509C311.985 13.0835 313.058 11.0541 314.384 5.34164C316.481 -3.69196 318.564 -4.78374 320.177 2.3041C321.488 8.06588 324.38 9.04678 327.281 4.71275C329.161 1.90555 326.268 -8.76631 323.04 -10.9411C322.232 -11.4852 319.293 -11.1969 316.511 -10.3002ZM400.737 64.2067C393.319 63.8702 391.364 64.7965 389.683 69.447C388.109 73.7976 391.185 76.6808 394.717 74.164C397.875 71.9156 402.811 71.6263 405.731 73.5172C409.583 76.0113 406.05 78.6759 397.954 79.3822C390.887 79.999 390.384 80.312 391.009 83.6821C391.837 88.1359 395.921 88.8925 405.052 86.2829C412.693 84.0984 418.041 77.1289 415.608 72.5274C413.116 67.8175 407.186 64.4989 400.737 64.2067ZM343.66 32.6654L336.979 34.9267L335.931 30.3271C333.784 20.8924 322.819 18.6971 315.624 26.2622C311.761 30.3245 310.841 30.5655 307.577 28.3668C299.823 23.1425 291.651 27.8459 287.295 40.043C286.12 43.338 285.317 43.9697 283.702 42.8814C281.192 41.1905 276.251 43.5742 273.355 47.8718C270.021 52.8205 272.448 67.8122 277.089 70.9388C282.081 74.302 285.709 69.8845 282.126 64.8081C279.594 61.2201 278.936 51.8264 281.185 51.3868C281.916 51.2443 283.781 53.0426 285.332 55.3821C289.517 61.6976 295.631 60.387 293.641 53.6C292.627 50.1435 296.774 37.4478 299.554 35.4979C301.245 34.3136 301.986 35.3655 303.312 40.8331C304.22 44.5776 305.349 47.9032 305.823 48.2222C308.16 49.797 312.783 46.6881 314.609 42.3146C317.578 35.2019 323.818 29.424 326.091 31.6822C327.702 33.2821 327.584 36.9707 325.506 50.008C325.279 51.4327 326.509 53.5525 328.239 54.7178C331.12 56.6587 331.658 56.3538 334.635 51.0862C338.199 44.7797 346.993 38.9025 349.018 41.4752C349.693 42.3333 348.698 47.3105 346.806 52.5368C344.915 57.7617 344.227 63.0975 344.5 64.5C345.29 68.5511 349.526 67.2784 356.219 61.1367C363.799 54.1797 368.365 53.4176 366.174 59.4747C365.318 61.8435 362.461 67.0944 359.826 71.1446C355.648 77.5651 355.368 78.7327 357.648 80.2685C359.2 81.3142 361.952 81.0359 364.431 79.5791C370.582 75.9678 371.623 78.0137 367.074 84.7658C361.891 92.4598 363.759 95.7191 372.208 93.7268C378.219 92.3105 378.245 92.3203 376.655 95.6022C375.776 97.4157 373.782 99.276 372.225 99.7317C370.666 100.189 369.11 101.783 368.767 103.274C368.271 105.424 369.344 106.543 373.947 108.678C379.42 111.217 379.623 111.559 377.525 114.674C375.227 118.085 371 119.451 362.803 119.431C358.368 119.419 358.115 119.653 358.743 123.173C359.378 126.729 359.765 126.969 366.045 127.689C374.094 128.612 382.718 124.453 386.434 117.855C388.53 114.134 388.595 111.757 386.717 107.528C385.374 104.505 384.772 101.248 385.378 100.289C385.982 99.3305 386.763 96.0965 387.111 93.1046C387.674 88.2516 387.204 87.4165 382.761 85.3678C379.261 83.7543 378.116 82.5698 378.915 81.3846C380.563 78.9378 378.593 72.3859 375.605 70.3724C373.699 69.0882 373.609 66.8248 375.255 61.6088C376.476 57.7404 377.119 53.3656 376.687 51.8845C375.644 48.3328 368.083 45.4225 363.098 46.656C359.271 47.6008 359.152 47.4687 358.519 41.5496C357.59 32.8761 352.331 29.7306 343.66 32.6654ZM299.821 74.2237C290.52 72.9586 280.085 81.2993 280.54 89.6331C280.987 97.7847 261.919 119.093 249.699 124.099C242.982 126.851 237.768 135.186 237.239 144.019C236.7 153.006 230.447 159.911 214.334 169.307C207.606 173.231 200.418 178.108 198.363 180.143C195.559 182.92 193.244 183.568 189.087 182.739C182.462 181.416 178.239 183.377 173.922 189.785C169.568 196.248 169.076 203.084 172.503 209.509C175.551 215.224 173.766 225.087 168.586 231.158C166.529 233.569 166.594 234.728 168.906 236.815C170.696 238.43 173.081 238.981 175.113 238.246C178.159 237.147 178.245 237.3 176.219 240.244C175.013 241.998 171.846 245.409 169.185 247.824C166.522 250.237 159.484 258.77 153.544 266.785C147.604 274.801 141.562 281.705 140.118 282.128C138.536 282.592 135.733 286.079 133.062 290.907C130.626 295.311 124.673 303.053 119.834 308.108C114.996 313.164 106.026 323.903 99.8996 331.972C90.0688 344.923 88.6896 347.379 88.1388 352.923C86.1254 373.174 89.47 381.813 104.323 394.712C123.898 411.713 137.035 416.012 151.361 410.103C169.019 402.821 176.237 395.991 192.245 371.416C201.202 357.663 206.844 350.337 211.935 345.84C218.364 340.163 219.104 339.048 219.392 334.607C219.567 331.895 222.6 324.546 226.132 318.277C233.615 304.993 238.537 291.85 239.656 282.162C240.092 278.384 240.9 275.206 241.45 275.099C242.003 274.991 242.016 276.394 241.48 278.217C239.139 286.191 250.729 283.931 256.933 275.202C259.125 272.118 262.267 269.797 265.222 269.076C275.755 266.511 280.993 261.198 282.061 251.992C282.463 248.537 281.508 245.518 279.311 243.3C277.408 241.379 276.513 239.059 277.251 237.963C277.97 236.896 280.147 228.556 282.089 219.428C286.389 199.218 290.833 191.693 302.221 185.339C309.923 181.042 312.466 177.517 313.797 169.3C314.105 167.404 317.865 158.331 322.156 149.14L329.955 132.428L336.049 129.981C340.819 128.067 342.651 126.386 344.482 122.248C347.482 115.468 346.976 105.006 343.456 101.089C339.519 96.7058 331.483 93.3648 325.267 93.5264L319.903 93.6649L318.358 88.0343C316.497 81.2396 308.698 75.4308 299.821 74.2237ZM310.285 90.1728C311.858 94.7934 310.051 101.274 306.721 102.957C302.794 104.939 292.152 97.4845 290.084 91.3046C288.699 87.1605 288.955 86.3895 292.424 84.2609C298.528 80.5148 308.072 83.675 310.285 90.1728ZM338.407 110.446C339.041 113.698 338.279 116.229 335.706 119.424C332.434 123.485 331.536 123.685 325.392 121.738C318.41 119.524 313.797 115.687 313.791 112.09C313.787 107.401 318.797 102.608 324.471 101.873C331.568 100.954 337.236 104.44 338.407 110.446ZM295.499 115.376C292.436 122.075 286.295 131.38 283.772 133.149C282.479 134.055 280.155 133.057 276.172 129.887C272.33 126.829 269.689 125.657 268.178 126.338C264.922 127.81 265.862 132.225 270.032 135.035C272.003 136.362 273.876 139.267 274.195 141.49C274.747 145.341 274.618 145.487 271.473 144.564C269.656 144.032 263.347 144.146 257.451 144.819C248.85 145.802 246.57 145.49 245.909 143.24C245.364 141.378 246.367 139.014 248.895 136.201C252.818 131.841 270.151 118.671 272.597 118.194C273.353 118.047 275.608 115.514 277.609 112.567C284.305 102.699 286.142 101.9 292.414 106.126C297.856 109.792 297.939 110.043 295.499 115.376ZM314.538 125.761L321.711 130.645L315.922 143.001C312.739 149.798 308.966 158.95 307.536 163.338C304.342 173.149 301.532 177.467 297.361 178.974C294.44 180.028 293.97 179.287 291.902 170.383C290.658 165.024 288.079 158.735 286.172 156.408C284.264 154.082 282.946 151.35 283.243 150.337C283.999 147.756 294.178 149.389 299.446 152.939C302.957 155.304 304.203 155.377 305.604 153.298C308.325 149.258 300.405 142.179 291.28 140.494C289.119 140.094 289.951 138.209 296.724 128.155C303.53 118.053 304.916 116.628 306.042 118.582C306.77 119.844 310.593 123.074 314.538 125.761ZM278.048 159.114C286.24 172.516 287.752 185.473 282.104 193.856C278.967 198.513 278.956 198.515 276.576 194.255C269.749 182.036 254.263 170.668 240.774 167.976C237.456 167.313 234.724 166.533 234.704 166.242C234.685 165.952 236.419 163.708 238.557 161.255C241.412 157.98 245.543 156.078 254.104 154.098C260.516 152.614 267.629 151.825 269.909 152.344C272.189 152.863 274.163 153.305 274.297 153.328C274.428 153.352 276.117 155.954 278.048 159.114ZM268.706 194.945C274.976 204.199 276.354 210.874 274.18 221.449C273.084 226.787 271.728 231.863 271.169 232.729C270.609 233.597 268.538 230.328 266.564 225.465C257.307 202.659 232.234 186.249 209.344 188.016C205.255 188.331 201.607 188.386 201.24 188.139C200.872 187.89 203.189 185.546 206.388 182.93C213.165 177.388 228.257 172.402 234.413 173.674C250.762 177.048 260.797 183.273 268.706 194.945ZM254.97 218.075C260.452 225.536 260.599 232.32 255.417 238.603L252.198 242.505L251.401 237.397C250.358 230.708 243.193 225.043 235.064 224.484C227.719 223.978 225.053 222.335 223.881 217.596C222.584 212.352 216.467 207.286 210.486 206.504C205.428 205.843 205.316 205.691 206.002 200.439C206.667 195.356 206.947 195.043 210.957 194.867C224.789 194.259 245.491 205.177 254.97 218.075ZM184.489 199.451C182.923 201.883 181.478 205.49 181.277 207.463C180.922 210.959 180.862 210.934 178.992 206.483C175.558 198.315 178.198 190.847 184.988 189.523C188.493 188.84 188.676 188.984 188.027 191.911C187.646 193.624 186.054 197.017 184.489 199.451ZM193.971 209.333C189.194 217.961 187.842 219.464 183.79 220.643C178.501 222.184 178.554 221.153 183.936 217.85C186.762 216.116 188.032 214.006 189.508 208.604C190.878 203.587 192.49 200.787 195.193 198.718C200.65 194.545 200.253 197.987 193.971 209.333ZM275.005 248.879C277.073 253.619 269.011 264.396 265.279 261.882C263.563 260.726 266.799 250.704 269.716 248.137C272.668 245.539 273.604 245.671 275.005 248.879ZM262.898 244.039C261.745 244.847 260.393 247.595 259.896 250.144C258.885 255.323 253.001 265.204 252.104 263.226C251.785 262.526 252.795 260.062 254.345 257.75C255.896 255.439 257.19 251.074 257.22 248.051C257.28 242.124 259.853 239.102 263.024 241.237C264.242 242.058 264.195 243.13 262.898 244.039ZM243.08 234.748C241.637 236.89 233.625 235.452 231.698 232.702C229.641 229.769 231.773 228.182 236.997 228.76C242.379 229.356 244.985 231.921 243.08 234.748ZM215.349 215.118C215.259 217.387 206.852 218.581 204 216.731C203.062 216.122 202.56 214.47 202.884 213.061C204.001 208.219 215.544 210.124 215.349 215.118ZM223.245 232.963C220.234 237.433 222.98 244.86 229.191 249.044C234.058 252.323 236.242 252.727 242.499 251.507C246.616 250.705 249.973 250.168 249.957 250.316C249.943 250.465 247.933 253.897 245.491 257.945C241.422 264.689 240.377 265.47 232.99 267.303C225.738 269.102 212.403 268.334 208.804 265.909C207.041 264.722 209.361 261.159 211.834 261.257C215.388 261.397 216.192 257.581 213.602 252.849C211.133 248.338 210.694 248.113 205.14 248.533C199.047 248.993 196.48 250.802 197.793 253.71C198.969 256.311 197.141 258.052 194.854 256.511C191.501 254.252 187.362 245.739 185.538 237.356L183.824 229.481L189.894 226.186C194.991 223.418 196.211 223.358 197.512 225.818C198.363 227.428 201.424 230.337 204.314 232.284C208.42 235.051 210.67 235.468 214.627 234.193C217.411 233.297 220.233 231.756 220.899 230.768C221.564 229.78 222.7 229.371 223.424 229.859C224.147 230.346 224.068 231.742 223.245 232.963ZM209.896 258.455C209.227 259.449 207.153 259.06 204.854 257.511C201.947 255.552 201.476 254.512 203.009 253.436C205.503 251.687 211.508 256.063 209.896 258.455ZM229.351 291.227C228.504 294.338 225.971 300.377 223.723 304.648C221.475 308.919 218.7 314.364 217.556 316.749L215.476 321.085L208.152 316.451L200.827 311.818L203.245 306.452C207.661 296.647 210.571 286.159 210.425 280.567L210.283 275.041L220.829 275.644L231.377 276.248L231.134 280.91C231 283.474 230.198 288.116 229.351 291.227ZM182.633 251.841C182.6 252.725 184.744 256.003 187.4 259.126C190.057 262.249 191.959 265.208 191.627 265.701C191.295 266.194 188.163 268.265 184.668 270.304C181.173 272.342 176.173 276.405 173.556 279.335C169.278 284.124 168.327 284.465 164.137 282.719C161.573 281.65 158.134 280.337 156.494 279.802C153.671 278.879 153.96 278.266 161.817 268.472C174.6 252.535 182.866 245.931 182.633 251.841ZM200.495 289.831C194.503 307.602 191.197 314.189 187.449 315.824C183.053 317.741 178.174 315.891 173.401 310.496C171.113 307.911 170.417 305.7 171.422 304.208C172.274 302.942 172.936 299.88 172.89 297.404C172.742 289.216 191.236 271.814 198.237 273.555C201.613 274.392 202.804 282.985 200.495 289.831ZM163.803 296.131C165.148 301.572 160.68 307.327 154.115 308.607C149.454 309.516 147.947 309.035 144.276 305.468C138.665 300.014 137.877 297.215 140.76 292.987C143.868 288.433 146.947 287.23 152.817 288.277C159.595 289.487 162.711 291.714 163.803 296.131ZM210.811 332.179C211.292 335.527 210.843 336.202 206.02 339.376C200.75 342.847 200.634 342.831 194.13 337.88C188.22 333.38 187.68 332.422 188.755 328.323C190.297 322.438 193.873 320.84 201.085 322.821C207.53 324.589 210.073 327.035 210.811 332.179ZM176.267 323.237C179.656 324.592 180.26 325.659 179.664 329.232C179.006 333.176 183.124 342.779 186.037 344.093C186.688 344.387 189.139 346.021 191.482 347.726L195.744 350.823L181.341 371.295C167.197 391.401 166.757 391.872 156.797 397.575C144.383 404.683 136.325 405.414 126.48 400.323C118.505 396.201 104.364 384.187 100.176 377.976C96.7109 372.84 95.3265 354.819 98.0454 350.255C102.33 343.061 109.59 333.403 120.93 319.811L132.535 305.9L138.181 310.898C145.306 317.208 153.547 319.025 160.308 315.774C164.895 313.569 165.57 313.706 168.719 317.483C170.602 319.74 173.999 322.329 176.267 323.237ZM150.162 385.298C146.997 386.728 133.378 383.396 128.354 379.963C121.372 375.19 113.725 366.579 112.666 362.298C112.014 359.66 111.066 358.717 109.393 359.043C102.695 360.349 105.347 369.73 115.395 380.273C121.612 386.797 130.627 391.447 140.559 393.252C147.309 394.478 155.434 392.101 155.561 388.86C155.661 386.322 152.504 384.24 150.162 385.298Z" fill="black"/>
</g>
</g>
<defs>
<clipPath id="clip0_708_565">
<rect width="344" height="366" fill="white"/>
</clipPath>
<clipPath id="clip1_708_565">
<rect width="344" height="430" fill="white" transform="translate(0 -32)"/>
</clipPath>
</defs>
</svg>
