<svg width="344" height="366" viewBox="0 0 344 366" fill="none" xmlns="http://www.w3.org/2000/svg">
<rect width="344" height="366" fill="#95CFFF"/>
<path d="M44.6139 79.4774L37.147 74.2359L35.1367 67.8909V61.546L38.8701 51.3388L44.6139 42.7869L50.6448 39.2006L59.2604 37.8213L67.0144 39.2006L75.9172 46.0973L80.5121 54.3734L83.0968 64.3046L80.5121 74.2359L73.9068 79.4774L56.6757 80.5809L44.6139 79.4774Z" fill="white"/>
<path fill-rule="evenodd" clip-rule="evenodd" d="M53.6059 36.9747C41.9469 39.3212 33.0234 52.4357 33.4147 66.6485C33.53 70.8333 33.7744 71.8995 35.1249 74.11C37.0223 77.2164 41.4875 80.2132 45.566 81.1174C49.2882 81.9431 68.3122 81.9436 72.0794 81.118C75.8703 80.2873 80.728 77.0521 82.4347 74.2206C85.4203 69.2682 84.6358 58.5423 80.7464 51.1383C77.3556 44.6834 74.4022 41.5925 69.1975 39.0535C65.1179 37.0632 64.0718 36.79 60.1201 36.6833C57.6636 36.6169 54.7321 36.748 53.6059 36.9747ZM67.7018 40.727C75.6876 44.8111 81.4715 55.2324 81.4513 65.501C81.4415 70.5208 80.6398 72.9249 78.2219 75.1856C75.9129 77.3441 72.0512 79.1674 71.5232 78.3479C71.3422 78.0669 71.2996 76.358 71.4281 74.5508C71.7382 70.2028 71.0644 66.9322 69.5364 65.3716C67.7116 63.5084 60.0913 62.5528 53.9402 63.4155C50.2099 63.9387 49.1424 64.3236 47.8605 65.6077C46.404 67.0666 46.2951 67.5273 46.1452 72.879C46.057 76.0218 45.9556 78.6586 45.9199 78.7383C45.8836 78.8185 44.8818 78.495 43.6927 78.0193C40.9624 76.9266 37.884 74.1437 36.8517 71.8359C35.8494 69.5951 35.8563 63.0743 36.8655 58.5622C38.4506 51.4729 44.1729 43.4944 49.5655 40.8536C53.3108 39.0193 54.8785 38.725 60.0792 38.8804C63.5853 38.985 64.934 39.3118 67.7018 40.727ZM47.5833 51.3805C46.7804 51.7704 46.1423 52.5629 46.1423 53.1701C46.1423 54.3586 46.3885 54.3724 49.1539 53.3394C50.6577 52.7775 51.4122 52.7836 53.1021 53.3698C55.9005 54.3409 56.8711 53.4417 54.7511 51.8423C52.9822 50.5068 49.8047 50.3021 47.5833 51.3805ZM62.9657 51.552C62.0746 52.016 61.4521 52.6901 61.583 53.0507C61.8268 53.7221 62.6026 53.7326 65.8845 53.1082C67.1877 52.8599 68.216 53.0385 69.2604 53.695C70.9192 54.738 72.2033 54.1518 71.5941 52.6293C70.8206 50.6948 65.8159 50.0699 62.9657 51.552ZM50.4652 57.5778C50.4652 59.0676 51.9851 59.4929 53.1869 58.3398C54.1609 57.4052 53.4036 56.1952 51.8445 56.1952C50.7574 56.1952 50.4652 56.4883 50.4652 57.5778ZM64.0147 56.741C63.47 57.5866 64.7842 58.9603 66.1381 58.9603C66.9721 58.9603 67.2131 58.6407 67.0764 57.716C66.877 56.3711 64.7 55.6776 64.0147 56.741Z" fill="#2B2B2B"/>
<path d="M226.22 52.1066L232.331 59.6318L233.72 61.7818L232.331 65.5444L230.664 72.5321L236.219 70.6508L241.219 69.5758L245.385 78.4448L247.607 80.3261L250.107 75.4884L251.773 73.6071L257.051 75.4884L262.606 77.3697V74.1447L258.717 64.4694L265.939 59.9005L267.05 57.213L261.773 55.3317L262.606 51.3003L263.717 45.9252H261.217L254.551 48.8815L251.218 49.6878L250.385 46.7315L248.163 40.8188L246.218 38.9375L243.996 44.0439L241.219 49.6878H237.608L228.442 48.344H225.109L226.22 52.1066Z" fill="#FFF9DB"/>
<path fill-rule="evenodd" clip-rule="evenodd" d="M245.261 36.5302C244.278 39.2686 240.503 48.1159 240.183 48.4303C239.978 48.6318 238.439 48.4674 236.763 48.0649C235.086 47.6625 231.366 46.9651 228.495 46.5149C223.201 45.685 221.801 45.8987 221.801 47.5357C221.801 48.4123 227.666 55.9312 230.591 58.8053C232.411 60.5929 232.778 61.2547 232.357 61.987C230.794 64.7068 229.436 68.5344 229.161 70.9986C228.878 73.5244 228.952 73.7826 229.953 73.7826C231.612 73.7826 234.588 72.7003 236.753 71.3099C238.911 69.9238 240.642 69.6968 240.642 70.7998C240.642 72.1022 245.494 81.5741 246.316 81.8758C246.755 82.037 247.354 82.0121 247.647 81.8201C248.59 81.2045 250.485 77.8128 250.876 76.0422C251.085 75.0977 251.429 74.2222 251.643 74.096C251.856 73.9698 254.476 75.041 257.465 76.4765C263.273 79.2647 264.011 79.4572 264.911 78.42C265.504 77.7364 263.837 73.3605 260.853 67.7682C260.099 66.3555 259.482 65.0282 259.482 64.8177C259.482 64.6071 261.61 63.3764 264.211 62.0825C266.812 60.7886 269.61 59.2216 270.429 58.5996C272.528 57.0055 271.522 56.0961 266.693 55.2238C264.556 54.8383 262.807 54.2666 262.807 53.9543C262.807 53.6414 263.462 51.5431 264.261 49.2904C266.63 42.6205 265.482 42.1003 257.503 46.228C251.607 49.2793 251.88 49.3753 250.646 43.8216C249.758 39.8265 248.493 36.5185 247.656 36.0095C246.571 35.3487 245.61 35.5577 245.261 36.5302ZM247.807 44.117C249.745 52.4758 250.337 52.7898 257.197 49.0979C259.714 47.7425 261.916 46.7689 262.088 46.9339C262.431 47.2626 260.151 53.5889 259.396 54.4008C258.977 54.852 258.72 56.7611 259.067 56.8486C259.143 56.8677 260.698 57.0039 262.523 57.1508C264.348 57.2982 265.954 57.5268 266.091 57.6588C266.416 57.9691 264.293 59.3976 261.145 60.9869C258.059 62.5449 256.712 63.6479 256.712 64.6172C256.712 65.0271 257.709 67.3906 258.928 69.8691C261.072 74.2275 261.472 75.3735 260.849 75.3735C260.313 75.3735 254.802 72.6059 253.245 71.5554C250.854 69.9413 249.967 70.4689 248.644 74.2891C247.594 77.3186 246.183 79.164 246.183 77.5058C246.183 77.1722 245.577 75.6609 244.837 74.1475C244.097 72.6346 243.322 70.5103 243.116 69.4269C242.543 66.408 241.724 66.0681 238.599 67.5497C237.132 68.2454 235.137 69.2715 234.166 69.8304C233.196 70.3888 232.267 70.7181 232.104 70.5617C231.797 70.2684 234.155 63.3742 234.76 62.7952C235.724 61.873 234.895 59.737 232.686 57.4536C229.703 54.3684 226.234 50.0074 226.234 49.3429C226.234 48.7432 229.184 49.1006 236.091 50.5366C241.863 51.7372 242.212 51.6385 243.328 48.495C244.8 44.3461 246.324 40.9051 246.687 40.9051C246.894 40.9051 247.398 42.3506 247.807 44.117Z" fill="#2B2B2B"/>
<path d="M283.91 201.104L276.551 195.726L274.57 189.217V182.707L278.25 172.235L283.91 163.462L289.854 159.782L298.344 158.367L305.986 159.782L314.76 166.858L319.288 175.349L321.835 185.537L319.288 195.726L312.779 201.104L295.797 202.236L283.91 201.104Z" fill="white"/>
<path fill-rule="evenodd" clip-rule="evenodd" d="M292.716 157.549C281.266 159.951 272.503 173.374 272.887 187.922C273 192.205 273.24 193.296 274.567 195.559C276.43 198.738 280.815 201.806 284.821 202.731C288.476 203.576 307.159 203.577 310.859 202.732C314.582 201.882 319.352 198.57 321.028 195.672C323.961 190.603 323.19 179.625 319.37 172.046C316.04 165.44 313.14 162.276 308.029 159.677C304.022 157.64 302.995 157.36 299.114 157.251C296.701 157.183 293.822 157.317 292.716 157.549ZM306.56 161.39C314.402 165.57 320.083 176.237 320.063 186.747C320.053 191.885 319.266 194.346 316.891 196.66C314.624 198.869 310.831 200.735 310.313 199.897C310.135 199.609 310.093 197.86 310.219 196.01C310.524 191.56 309.862 188.212 308.361 186.615C306.569 184.708 299.086 183.73 293.045 184.613C289.381 185.148 288.333 185.542 287.074 186.857C285.644 188.35 285.537 188.821 285.389 194.299C285.303 197.516 285.203 200.215 285.168 200.296C285.132 200.378 284.149 200.047 282.981 199.56C280.3 198.442 277.276 195.593 276.263 193.231C275.278 190.938 275.285 184.263 276.276 179.645C277.833 172.389 283.452 164.223 288.748 161.52C292.427 159.642 293.966 159.341 299.074 159.5C302.517 159.607 303.842 159.941 306.56 161.39ZM286.802 172.294C286.013 172.693 285.387 173.505 285.387 174.126C285.387 175.343 285.628 175.357 288.344 174.299C289.821 173.724 290.562 173.73 292.222 174.33C294.97 175.324 295.923 174.404 293.841 172.767C292.104 171.4 288.983 171.191 286.802 172.294ZM301.908 172.47C301.033 172.945 300.422 173.635 300.551 174.004C300.79 174.691 301.552 174.702 304.775 174.063C306.055 173.809 307.065 173.991 308.09 174.663C309.719 175.731 310.981 175.131 310.382 173.572C309.623 171.592 304.708 170.953 301.908 172.47ZM289.632 178.637C289.632 180.162 291.125 180.598 292.305 179.417C293.262 178.461 292.518 177.222 290.987 177.222C289.919 177.222 289.632 177.522 289.632 178.637ZM302.939 177.781C302.404 178.647 303.694 180.053 305.024 180.053C305.843 180.053 306.08 179.725 305.946 178.779C305.75 177.402 303.612 176.693 302.939 177.781Z" fill="#2B2B2B"/>
<path d="M301.174 165.443L297.778 166.009L293.25 164.028L292.684 161.198L293.25 157.802L296.08 156.104L299.476 156.387L302.872 157.802V161.198L301.174 165.443Z" fill="#FFB8B5"/>
<path fill-rule="evenodd" clip-rule="evenodd" d="M292.977 155.924C291.915 156.851 289.556 158.311 287.734 159.168C278.988 163.286 272.567 175.628 272.886 187.706C273.052 193.943 274.58 196.971 279.051 199.923C283.188 202.653 286.187 203.171 297.839 203.167C309.62 203.162 312.56 202.641 316.688 199.822C322.349 195.957 323.981 190.28 322.201 180.652C320.437 171.112 315.321 163.317 308.311 159.49C305.976 158.216 303.375 156.626 302.532 155.959C301.545 155.177 299.915 154.655 297.953 154.492C295.203 154.264 294.72 154.403 292.977 155.924ZM301.022 158.107C303.391 160.251 301.415 164.554 298.063 164.554C294.35 164.554 292.344 161.857 293.866 158.912C294.326 158.024 295.026 157.155 295.421 156.982C296.649 156.444 299.908 157.099 301.022 158.107ZM307.978 161.969C312.809 164.846 317.987 172.93 319.422 179.837C320.209 183.625 320.249 189.351 319.508 192.27C319.195 193.501 318.072 195.293 316.89 196.444C314.623 198.653 310.83 200.52 310.312 199.681C310.134 199.393 310.092 197.644 310.218 195.794C310.523 191.344 309.861 187.996 308.361 186.399C306.569 184.492 299.085 183.514 293.044 184.397C289.38 184.932 288.332 185.326 287.073 186.641C285.643 188.134 285.536 188.606 285.389 194.083C285.302 197.3 285.202 199.999 285.167 200.08C285.132 200.163 284.148 199.831 282.98 199.345C280.299 198.226 277.276 195.378 276.262 193.016C275.277 190.722 275.284 184.048 276.275 179.429C277.99 171.44 285.647 161.063 289.744 161.178C290.149 161.189 290.99 162.272 291.612 163.583C292.641 165.751 293.034 166.042 295.922 166.774C298.873 167.521 299.237 167.5 301.017 166.483C302.173 165.823 303.377 164.437 304.051 162.99C304.665 161.671 305.28 160.591 305.416 160.591C305.552 160.591 306.706 161.211 307.978 161.969ZM286.801 172.079C286.012 172.478 285.386 173.289 285.386 173.91C285.386 175.127 285.628 175.141 288.343 174.084C289.82 173.508 290.561 173.515 292.221 174.115C294.969 175.109 295.922 174.188 293.84 172.551C292.103 171.184 288.983 170.975 286.801 172.079ZM301.908 172.254C301.033 172.729 300.421 173.419 300.55 173.788C300.789 174.475 301.551 174.486 304.774 173.847C306.054 173.593 307.064 173.776 308.09 174.448C309.719 175.515 310.98 174.915 310.381 173.357C309.622 171.377 304.707 170.737 301.908 172.254ZM289.631 178.422C289.631 179.947 291.124 180.382 292.304 179.202C293.261 178.245 292.517 177.007 290.986 177.007C289.918 177.007 289.631 177.307 289.631 178.422ZM302.938 177.565C302.403 178.431 303.694 179.837 305.023 179.837C305.842 179.837 306.079 179.51 305.945 178.563C305.749 177.187 303.611 176.477 302.938 177.565Z" fill="#2B2B2B"/>
<path d="M100.304 125.56L101.746 118.058L103.766 116.039L113.864 113.73H129.733L136.369 120.078L137.523 126.714L139.543 127.58L143.006 129.599L144.16 133.927L143.871 137.678L139.543 139.986L137.235 142.583L136.081 147.777L133.196 152.105L128.868 154.99L124.251 156.144L118.769 156.721H114.441L108.382 154.701L103.189 150.085L100.592 146.911V143.737L98.8609 140.563L95.9756 138.832L94.2445 136.813L93.3789 133.35L94.8215 129.888L98.2839 128.157L100.304 125.56Z" fill="white"/>
<path fill-rule="evenodd" clip-rule="evenodd" d="M113.229 106.983C104.662 108.569 100.554 110.223 99.2691 112.605C98.8992 113.291 98.4802 116.579 98.3383 119.911L98.0803 125.97L95.8379 127.031C89.7696 129.901 90.4546 139.479 96.8501 141.189C98.3019 141.577 98.561 141.98 98.9055 144.389C99.3608 147.575 101.421 150.809 105.003 153.961C107.099 155.807 108.197 156.287 111.669 156.88C116.826 157.759 121.135 157.748 126.511 156.841C130.552 156.159 130.766 156.037 134.331 152.365C138.101 148.482 137.976 148.76 138.801 142.453C138.86 141.997 139.697 141.419 140.661 141.17C143.335 140.477 145.475 137.886 145.893 134.837C146.194 132.638 146.012 131.834 144.765 129.859C143.803 128.335 142.557 127.242 141.237 126.765L139.196 126.027L139.19 121.382C139.177 112.009 138.185 110.478 130.75 108.359C126.896 107.26 116.248 106.424 113.229 106.983ZM129.057 117.084C130.622 117.375 132.409 118.065 133.027 118.618C134.71 120.121 136.311 124.292 136.311 127.172C136.311 129.515 136.192 129.721 134.85 129.721C133.967 129.721 133.262 129.322 133.067 128.711C131.92 125.126 129.81 123.366 126.674 123.382C123.771 123.396 122.631 124.01 120.681 126.613L118.76 129.177L117.996 127.718C117.575 126.916 116.979 126.259 116.672 126.259C116.365 126.259 116.114 125.863 116.114 125.379C116.114 124.895 115.448 124.246 114.634 123.936C110.705 122.442 106.36 124.138 105.086 127.662C104.474 129.355 104.054 129.721 102.726 129.721C101.235 129.721 101.11 129.549 101.11 127.486C101.11 122.642 103.782 117.995 106.968 117.295C113.185 115.93 122.374 115.842 129.057 117.084ZM114.699 127.786C116.253 129.463 116.464 130.864 115.45 132.789C114.552 134.495 113.84 134.896 111.683 134.906C108.417 134.922 106.253 131.456 107.736 128.587C109.192 125.772 112.481 125.393 114.699 127.786ZM129.364 127.522C131.949 130.297 129.918 134.915 126.112 134.915C122.303 134.915 120.607 130.923 123.081 127.779C124.625 125.815 127.658 125.691 129.364 127.522ZM98.2962 130.442C98.6655 137.217 98.5102 138.769 97.49 138.503C96.0866 138.136 94.1858 135.603 94.1858 134.1C94.1858 132.301 96.4605 129.18 97.7924 129.153C98.0301 129.148 98.2569 129.729 98.2962 130.442ZM141.82 130.671C142.598 131.511 143.235 132.834 143.235 133.612C143.235 135.586 141.546 138.234 140.111 138.51C138.958 138.732 138.915 138.542 139.094 133.943C139.197 131.303 139.534 129.144 139.843 129.144C140.152 129.144 141.042 129.831 141.82 130.671ZM110.896 130.616C110.283 131.355 110.321 131.677 111.114 132.47C112.01 133.366 112.139 133.366 113.035 132.47C113.828 131.677 113.866 131.355 113.253 130.616C112.844 130.124 112.314 129.721 112.074 129.721C111.835 129.721 111.305 130.124 110.896 130.616ZM124.168 130.616C123.556 131.355 123.593 131.677 124.386 132.47C125.282 133.366 125.411 133.366 126.307 132.47C127.1 131.677 127.138 131.355 126.525 130.616C126.116 130.124 125.586 129.721 125.347 129.721C125.107 129.721 124.577 130.124 124.168 130.616ZM105.145 133.328C105.995 135.361 107.13 136.549 108.841 137.2C112.676 138.659 116.596 137.112 118.06 133.563L118.811 131.741L120.007 134.049C122.695 139.24 129.853 138.995 132.634 133.617C133.194 132.534 133.908 132.029 134.883 132.029H136.311V138.339C136.311 141.81 136.054 145.323 135.742 146.145C134.831 148.542 130.048 153.261 127.745 154.036C124.896 154.994 113.003 154.957 110.055 153.982C107.902 153.269 104.415 150.163 102.431 147.193C101.835 146.299 101.501 143.803 101.331 138.97L101.087 132.029H102.844C104.121 132.029 104.75 132.384 105.145 133.328ZM114.96 139.82C114.96 140.3 115.473 140.685 116.114 140.685C116.755 140.685 117.268 140.3 117.268 139.82C117.268 139.339 116.755 138.954 116.114 138.954C115.473 138.954 114.96 139.339 114.96 139.82ZM120.153 139.758C120.153 140.628 121.555 141.4 122.116 140.838C122.876 140.078 122.394 138.954 121.307 138.954C120.673 138.954 120.153 139.316 120.153 139.758ZM114.191 144.532C113.174 145.548 113.979 146.936 116.152 147.916C118.306 148.887 118.696 148.903 120.876 148.108C123.531 147.14 124.812 145.691 123.858 144.737C123.447 144.325 122.553 144.487 120.986 145.257C118.738 146.362 118.688 146.362 116.802 145.261C114.634 143.996 114.706 144.016 114.191 144.532Z" fill="#2B2B2B"/>
<path d="M135.622 309.477L128.155 304.236L126.145 297.891V291.546L129.878 281.339L135.622 272.787L141.653 269.201L150.268 267.821L158.022 269.201L166.925 276.097L171.52 284.373L174.105 294.305L171.52 304.236L164.915 309.477L147.683 310.581L135.622 309.477Z" fill="white"/>
<path fill-rule="evenodd" clip-rule="evenodd" d="M144.614 266.975C132.955 269.321 124.031 282.436 124.423 296.649C124.538 300.833 124.782 301.9 126.133 304.11C128.03 307.216 132.495 310.213 136.574 311.117C140.296 311.943 159.32 311.944 163.087 311.118C166.878 310.287 171.736 307.052 173.442 304.221C176.428 299.268 175.644 288.542 171.754 281.138C168.363 274.683 165.41 271.592 160.205 269.054C156.126 267.063 155.08 266.79 151.128 266.683C148.671 266.617 145.74 266.748 144.614 266.975ZM158.71 270.727C166.695 274.811 172.479 285.232 172.459 295.501C172.449 300.521 171.648 302.925 169.23 305.186C166.921 307.344 163.059 309.167 162.531 308.348C162.35 308.067 162.307 306.358 162.436 304.551C162.746 300.203 162.072 296.932 160.544 295.372C158.719 293.508 151.099 292.553 144.948 293.416C141.218 293.939 140.15 294.324 138.868 295.608C137.412 297.067 137.303 297.527 137.153 302.879C137.065 306.022 136.963 308.659 136.928 308.738C136.891 308.818 135.89 308.495 134.701 308.019C131.97 306.927 128.892 304.144 127.859 301.836C126.857 299.595 126.864 293.074 127.873 288.562C129.458 281.473 135.181 273.494 140.573 270.854C144.319 269.019 145.886 268.725 151.087 268.88C154.593 268.985 155.942 269.312 158.71 270.727ZM138.591 281.381C137.788 281.77 137.15 282.563 137.15 283.17C137.15 284.359 137.396 284.372 140.162 283.339C141.666 282.777 142.42 282.784 144.11 283.37C146.908 284.341 147.879 283.442 145.759 281.842C143.99 280.507 140.812 280.302 138.591 281.381ZM153.974 281.552C153.082 282.016 152.46 282.69 152.591 283.051C152.835 283.722 153.61 283.733 156.892 283.108C158.196 282.86 159.224 283.039 160.268 283.695C161.927 284.738 163.211 284.152 162.602 282.629C161.828 280.695 156.824 280.07 153.974 281.552ZM141.473 287.578C141.473 289.068 142.993 289.493 144.195 288.34C145.169 287.405 144.411 286.195 142.852 286.195C141.765 286.195 141.473 286.488 141.473 287.578ZM155.023 286.741C154.478 287.587 155.792 288.96 157.146 288.96C157.98 288.96 158.221 288.641 158.084 287.716C157.885 286.371 155.708 285.678 155.023 286.741Z" fill="#2B2B2B"/>
<path d="M177.422 214.025L183.462 221.712L184.835 223.908L183.462 227.751L181.815 234.889L187.306 232.968L192.247 231.87L196.365 240.929L198.562 242.851L201.033 237.909L202.68 235.988L207.896 237.909L213.387 239.831V236.537L209.543 226.653L216.681 221.986L217.779 219.241L212.563 217.319L213.387 213.201L214.485 207.71H212.014L205.425 210.73L202.131 211.554L201.307 208.534L199.111 202.494L197.189 200.572L194.993 205.788L192.247 211.554H188.678L179.619 210.181H176.324L177.422 214.025Z" fill="#FFF9DB"/>
<path fill-rule="evenodd" clip-rule="evenodd" d="M196.277 197.939C195.303 200.775 191.563 209.935 191.246 210.261C191.043 210.47 189.517 210.299 187.856 209.883C186.195 209.466 182.509 208.744 179.665 208.278C174.419 207.418 173.031 207.64 173.031 209.335C173.031 210.242 178.843 218.028 181.741 221.004C183.544 222.855 183.908 223.54 183.491 224.298C181.942 227.114 180.597 231.078 180.324 233.629C180.044 236.244 180.117 236.512 181.109 236.512C182.753 236.512 185.701 235.391 187.846 233.951C189.985 232.516 191.7 232.281 191.7 233.423C191.7 234.772 196.508 244.579 197.322 244.892C197.758 245.059 198.351 245.033 198.642 244.834C199.576 244.197 201.453 240.685 201.841 238.851C202.048 237.873 202.389 236.967 202.601 236.836C202.811 236.706 205.407 237.815 208.369 239.301C214.124 242.188 214.856 242.387 215.748 241.313C216.335 240.606 214.683 236.075 211.726 230.284C210.98 228.821 210.368 227.447 210.368 227.229C210.368 227.011 212.477 225.737 215.054 224.397C217.631 223.057 220.404 221.435 221.215 220.791C223.295 219.14 222.298 218.198 217.513 217.295C215.396 216.896 213.663 216.304 213.663 215.981C213.663 215.657 214.311 213.484 215.104 211.152C217.451 204.245 216.313 203.707 208.408 207.981C202.565 211.14 202.836 211.239 201.613 205.489C200.733 201.352 199.479 197.927 198.651 197.4C197.575 196.716 196.623 196.932 196.277 197.939ZM198.8 205.795C200.72 214.45 201.306 214.775 208.104 210.952C210.598 209.549 212.78 208.541 212.951 208.711C213.291 209.052 211.031 215.602 210.283 216.443C209.868 216.91 209.613 218.887 209.957 218.978C210.032 218.997 211.573 219.138 213.382 219.291C215.19 219.443 216.781 219.68 216.917 219.817C217.239 220.138 215.135 221.617 212.016 223.263C208.958 224.876 207.623 226.018 207.623 227.022C207.623 227.446 208.611 229.893 209.819 232.46C211.944 236.972 212.34 238.159 211.723 238.159C211.191 238.159 205.731 235.293 204.188 234.206C201.819 232.534 200.94 233.081 199.629 237.036C198.589 240.173 197.191 242.084 197.191 240.367C197.191 240.021 196.59 238.457 195.857 236.889C195.123 235.323 194.356 233.123 194.152 232.002C193.584 228.876 192.773 228.524 189.676 230.058C188.222 230.778 186.246 231.841 185.284 232.419C184.322 232.998 183.402 233.339 183.24 233.177C182.937 232.873 185.273 225.734 185.872 225.135C186.827 224.18 186.005 221.968 183.817 219.604C180.862 216.41 177.424 211.894 177.424 211.206C177.424 210.585 180.347 210.955 187.191 212.442C192.91 213.685 193.256 213.583 194.362 210.328C195.821 206.032 197.33 202.469 197.69 202.469C197.895 202.469 198.394 203.966 198.8 205.795ZM191.35 219.214C191.16 219.709 191.258 220.367 191.569 220.677C192.464 221.572 194.171 220.969 194.171 219.757C194.171 218.361 191.849 217.913 191.35 219.214ZM202.457 219.284C201.991 220.498 203.401 221.95 204.599 221.49C205.157 221.276 205.436 220.667 205.328 219.904C205.109 218.363 202.986 217.904 202.457 219.284ZM197.191 227.452C197.191 227.909 197.679 228.276 198.289 228.276C198.899 228.276 199.387 227.909 199.387 227.452C199.387 226.995 198.899 226.628 198.289 226.628C197.679 226.628 197.191 226.995 197.191 227.452Z" fill="#2B2B2B"/>
<path d="M272.141 321.145L273.588 313.974L275.614 312.043L285.743 309.837H301.661L308.317 315.905L309.475 322.248L311.5 323.076L314.973 325.006L316.131 329.144L315.842 332.729L311.5 334.936L309.185 337.418L308.028 342.383L305.133 346.52L300.792 349.278L296.162 350.381L290.663 350.933H286.322L280.244 349.002L275.035 344.589L272.43 341.555V338.521L270.694 335.487L267.8 333.832L266.064 331.902L265.195 328.592L266.642 325.282L270.115 323.627L272.141 321.145Z" fill="white"/>
<path fill-rule="evenodd" clip-rule="evenodd" d="M285.06 303.063C276.487 304.583 272.377 306.169 271.091 308.452C270.721 309.11 270.301 312.261 270.159 315.455L269.901 321.263L267.657 322.279C261.585 325.03 262.27 334.21 268.67 335.85C270.123 336.222 270.382 336.608 270.727 338.917C271.183 341.971 273.244 345.071 276.828 348.092C278.926 349.861 280.025 350.321 283.499 350.889C288.66 351.732 292.972 351.721 298.352 350.852C302.395 350.199 302.609 350.082 306.177 346.562C309.949 342.841 309.824 343.107 310.65 337.061C310.709 336.624 311.547 336.071 312.511 335.832C315.187 335.167 317.328 332.684 317.746 329.761C318.048 327.654 317.865 326.883 316.618 324.99C315.655 323.529 314.408 322.482 313.088 322.024L311.045 321.317L311.039 316.865C311.026 307.88 310.033 306.413 302.594 304.382C298.737 303.329 288.081 302.528 285.06 303.063ZM300.899 312.746C304.314 313.353 305.643 314.392 307.078 317.575C307.995 319.611 308.158 321.417 308.158 329.569C308.158 334.848 307.901 339.812 307.589 340.601C306.677 342.898 301.891 347.421 299.587 348.164C296.735 349.082 284.834 349.047 281.884 348.112C279.718 347.425 276.237 344.448 274.228 341.565C273.547 340.587 273.284 338.076 273.086 330.657C272.664 314.832 273.817 313.153 285.926 311.946C288.905 311.65 297.243 312.095 300.899 312.746ZM279.43 319.843C277.57 320.96 277.019 322.264 278.129 322.922C278.446 323.109 279.284 322.875 279.99 322.401C281.487 321.397 284.056 321.282 285.737 322.144C287.606 323.101 288.514 321.836 286.999 320.385C285.248 318.707 281.739 318.456 279.43 319.843ZM295.722 319.3C293.957 319.986 293.123 321.166 293.737 322.111C294.17 322.777 294.472 322.799 295.429 322.231C297.019 321.286 299.553 321.362 301.101 322.401C301.808 322.875 302.645 323.109 302.962 322.922C304.075 322.262 303.52 320.959 301.662 319.874C299.695 318.726 297.699 318.533 295.722 319.3ZM270.117 325.549C270.487 332.042 270.331 333.531 269.31 333.275C267.906 332.923 266.004 330.496 266.004 329.055C266.004 327.33 268.28 324.339 269.613 324.313C269.851 324.309 270.078 324.865 270.117 325.549ZM313.671 325.768C314.45 326.573 315.087 327.841 315.087 328.587C315.087 330.48 313.397 333.017 311.96 333.282C310.807 333.495 310.764 333.313 310.943 328.905C311.046 326.375 311.383 324.305 311.692 324.305C312.002 324.305 312.892 324.964 313.671 325.768ZM282.726 325.715C282.113 326.424 282.15 326.733 282.944 327.493C283.84 328.352 283.97 328.352 284.866 327.493C285.66 326.733 285.697 326.424 285.084 325.715C284.675 325.244 284.145 324.858 283.905 324.858C283.665 324.858 283.135 325.244 282.726 325.715ZM296.007 325.715C295.394 326.424 295.431 326.733 296.225 327.493C297.122 328.352 297.251 328.352 298.147 327.493C298.941 326.733 298.979 326.424 298.365 325.715C297.957 325.244 297.426 324.858 297.186 324.858C296.947 324.858 296.416 325.244 296.007 325.715ZM286.792 334.537C286.792 334.998 287.306 335.367 287.947 335.367C288.589 335.367 289.102 334.998 289.102 334.537C289.102 334.077 288.589 333.708 287.947 333.708C287.306 333.708 286.792 334.077 286.792 334.537ZM291.989 334.478C291.989 335.312 293.392 336.052 293.954 335.513C294.714 334.785 294.231 333.708 293.144 333.708C292.509 333.708 291.989 334.055 291.989 334.478ZM286.022 339.055C285.006 340.028 285.811 341.358 287.986 342.297C290.141 343.228 290.531 343.244 292.712 342.482C295.369 341.554 296.652 340.165 295.697 339.25C295.285 338.856 294.391 339.011 292.823 339.749C290.573 340.808 290.523 340.808 288.636 339.753C286.467 338.54 286.539 338.56 286.022 339.055Z" fill="#2B2B2B"/>
<path d="M26.2204 276.255L32.3309 283.78L33.7197 285.93L32.3309 289.693L30.6644 296.681L36.2194 294.799L41.2189 293.724L45.3852 302.593L47.6072 304.474L50.107 299.637L51.7735 297.756L57.0507 299.637L62.6058 301.518V298.293L58.7173 288.618L65.9388 284.049L67.0498 281.361L61.7725 279.48L62.6058 275.449L63.7168 270.074H61.217L54.551 273.03L51.218 273.836L50.3847 270.88L48.1627 264.967L46.2185 263.086L43.9964 268.192L41.2189 273.836H37.6082L28.4424 272.492H25.1094L26.2204 276.255Z" fill="#FFF9DB"/>
<path fill-rule="evenodd" clip-rule="evenodd" d="M45.2608 260.678C44.2783 263.416 40.503 272.263 40.1832 272.578C39.9782 272.779 38.4388 272.615 36.7625 272.212C35.0863 271.81 31.3658 271.113 28.4953 270.662C23.2011 269.832 21.8008 270.046 21.8008 271.683C21.8008 272.56 27.6658 280.079 30.5911 282.953C32.4109 284.74 32.7783 285.402 32.3571 286.134C30.7939 288.854 29.4363 292.682 29.1609 295.146C28.8782 297.672 28.9519 297.93 29.9527 297.93C31.6118 297.93 34.5875 296.848 36.7526 295.457C38.9109 294.071 40.6415 293.844 40.6415 294.947C40.6415 296.25 45.4941 305.722 46.3159 306.023C46.7553 306.184 47.3543 306.16 47.6475 305.968C48.5901 305.352 50.4847 301.96 50.8759 300.19C51.0848 299.245 51.4295 298.37 51.6428 298.243C51.8556 298.117 54.4756 299.188 57.4646 300.624C63.2726 303.412 64.0112 303.605 64.9111 302.567C65.5041 301.884 63.8367 297.508 60.8526 291.916C60.099 290.503 59.4822 289.176 59.4822 288.965C59.4822 288.755 61.6101 287.524 64.2113 286.23C66.8118 284.936 69.6102 283.369 70.4287 282.747C72.5283 281.153 71.522 280.244 66.6933 279.371C64.5559 278.986 62.8071 278.414 62.8071 278.102C62.8071 277.789 63.4615 275.691 64.2611 273.438C66.6301 266.768 65.4819 266.248 57.5034 270.376C51.6068 273.427 51.88 273.523 50.6459 267.969C49.7582 263.974 48.4926 260.666 47.6564 260.157C46.5708 259.496 45.6099 259.705 45.2608 260.678ZM47.8071 268.264C49.7449 276.623 50.3367 276.937 57.197 273.245C59.7144 271.89 61.916 270.916 62.0884 271.081C62.4314 271.41 60.1505 277.736 59.3963 278.548C58.9769 279 58.7197 280.909 59.0666 280.996C59.1426 281.015 60.698 281.151 62.5234 281.298C64.3481 281.446 65.954 281.674 66.0915 281.806C66.4162 282.117 64.2927 283.545 61.1447 285.134C58.0587 286.692 56.7115 287.795 56.7115 288.765C56.7115 289.175 57.709 291.538 58.9281 294.017C61.0721 298.375 61.4716 299.521 60.8493 299.521C60.3129 299.521 54.802 296.753 53.2449 295.703C50.8543 294.089 49.9671 294.616 48.6438 298.437C47.5943 301.466 46.1829 303.311 46.1829 301.653C46.1829 301.32 45.5772 299.808 44.8369 298.295C44.0966 296.782 43.3224 294.658 43.1163 293.574C42.5428 290.555 41.7243 290.216 38.599 291.697C37.1316 292.393 35.1372 293.419 34.1664 293.978C33.1955 294.536 32.2674 294.866 32.1039 294.709C31.7975 294.416 34.1553 287.522 34.7599 286.943C35.7235 286.02 34.8945 283.884 32.6863 281.601C29.7034 278.516 26.2339 274.155 26.2339 273.49C26.2339 272.891 29.1836 273.248 36.0909 274.684C41.8628 275.885 42.2119 275.786 43.328 272.642C44.8003 268.494 46.3237 265.053 46.6872 265.053C46.8939 265.053 47.3976 266.498 47.8071 268.264Z" fill="#2B2B2B"/>
</svg>
