<svg width="344" height="366" viewBox="0 0 344 366" fill="none" xmlns="http://www.w3.org/2000/svg">
<g clip-path="url(#clip0_706_4)">
<rect width="344" height="366" fill="#4B4B4B"/>
<path d="M344 0H0V366H344V0Z" fill="#4B4B4B"/>
<rect width="292.8" height="366" transform="translate(26)" fill="#4B4B4B"/>
<path d="M154.914 211.331L153.559 213.364L158.981 218.109L160.336 212.009L154.914 211.331Z" fill="#5E5E5E"/>
<path d="M126.446 70.3538L133.224 73.7427L134.579 71.0316L137.968 68.3205L144.068 65.6094L150.168 70.3538L152.201 77.8094L147.457 84.5872L150.168 88.6538V97.4649L144.068 102.209L134.579 100.176L126.446 103.565L119.668 102.887L116.957 96.7872L117.635 92.7205L118.99 85.9427L116.957 79.1649L118.313 72.3872L126.446 70.3538Z" fill="white"/>
<path d="M48.5023 178.12L62.0578 180.153L66.1245 163.209L112.891 165.92L116.28 172.698L123.736 180.153L128.48 185.576L123.736 194.387H116.28L112.891 216.753L103.402 222.176L85.78 223.531H70.1911L60.7023 215.398L53.2467 196.42L45.7911 190.998L43.7578 183.542L48.5023 178.12Z" fill="#FFEAE3"/>
<path d="M46.4688 174.054L48.5021 163.209L56.6354 155.076L66.1243 148.976L82.391 146.265H99.3354L114.247 150.331L123.058 159.142V178.12H119.669L114.247 172.02V169.309L112.213 168.631L108.147 167.954L97.9799 165.242L94.591 166.598L82.391 165.242L76.291 166.598L70.8687 165.242L66.8021 163.209L61.3799 176.765L57.991 180.831L49.8576 176.765L46.4688 174.054Z" fill="#BBBDBF"/>
<path d="M52.567 227.597L62.0559 220.82L73.5781 223.531L90.5226 224.886L108.145 220.82L121.7 216.753L141.356 218.108L143.389 227.597V235.731L129.834 239.12L112.211 241.153V245.897L112.889 263.52L95.9448 266.231L87.1337 271.653H78.3226L68.8337 266.231L66.1226 256.742H56.6337L48.5003 260.131L43.0781 249.964V241.153L52.567 227.597Z" fill="#00C389"/>
<path d="M55.2814 270.298L70.8703 266.909L78.3259 272.332L86.4592 270.298L94.5925 264.876H106.793H116.959L123.059 279.787L116.959 292.665L106.793 297.409L91.8814 294.698L94.5925 285.209L80.3592 287.243V294.698H64.0925L55.2814 287.243L52.5703 278.432L55.2814 270.298Z" fill="#5773B8"/>
<path d="M47.8242 264.876L49.8576 258.098L57.9909 256.064H65.4464L66.1242 262.842L62.0576 266.909L51.2131 268.942L47.8242 264.876Z" fill="#FFEAE3"/>
<path d="M144.07 234.375V218.786L152.881 214.042L157.626 220.142L156.27 230.986L151.526 234.375H144.07Z" fill="#FFEAE3"/>
<path d="M70.8672 180.154L74.2561 174.732L76.2894 173.376L81.7116 176.765L89.845 178.12L95.2672 175.409H103.401L102.723 183.543L97.9783 185.576L93.2339 180.154H85.1005L80.3561 184.22H74.2561L70.8672 180.154Z" fill="white"/>
<path d="M177.957 194.387L181.346 190.32L187.446 191.676L188.801 197.776L183.379 201.843L178.635 199.809L177.957 194.387Z" fill="white"/>
<path d="M211.168 173.375L205.068 174.053L203.713 170.664L203.035 161.175L205.068 151.009V142.198L209.135 132.031L215.913 125.931L213.88 116.442L219.302 106.275L228.113 99.4976L238.28 94.0754L247.091 90.6865L256.58 92.0421L269.457 90.6865L276.235 96.7865L285.046 100.175L293.18 108.309L295.213 119.153L297.924 125.931L303.346 138.809V165.92L295.213 178.798L290.468 178.12L289.113 174.731L285.046 172.698L279.624 174.731V163.887L280.302 152.364L282.335 138.809L278.946 131.353L276.235 121.187L270.813 111.698L259.968 108.987L244.38 111.02L236.246 120.509L228.113 134.064L226.757 148.975L223.368 156.431L225.402 173.375H219.302L213.88 169.987L211.168 173.375Z" fill="#FFDFE0"/>
<path d="M237.602 118.475L243.702 112.375L255.902 107.631L268.102 112.375L276.913 119.831L280.302 132.031L283.013 140.842L279.624 151.686V159.82L270.813 167.275L252.513 172.698L242.347 167.953L230.824 157.109L228.113 140.842L229.469 128.642L237.602 118.475Z" fill="#D4ADA0"/>
<path d="M242.493 132.568C239.544 132.228 240.336 128.941 243.909 126.691C247.876 124.192 249.208 125.755 246.527 129.761C245.196 131.751 243.804 132.719 242.493 132.568Z" fill="black"/>
<path d="M261.864 133.112C258.915 132.772 259.708 129.485 263.28 127.235C267.247 124.736 268.579 126.298 265.898 130.305C264.567 132.295 263.175 133.263 261.864 133.112Z" fill="black"/>
<path d="M247.958 129.504C250.365 127.985 248.639 126.459 244.874 126.777C240.693 127.129 240.055 128.621 243.621 129.709C245.392 130.25 246.888 130.179 247.958 129.504Z" fill="black"/>
<path d="M267.333 130.049C269.74 128.53 268.014 127.004 264.249 127.322C260.068 127.674 259.43 129.166 262.996 130.254C264.767 130.795 266.263 130.724 267.333 130.049Z" fill="black"/>
<path d="M83.7461 208.62L88.4905 207.265H93.235V212.687L88.4905 213.365L83.7461 211.331V208.62Z" fill="#FFA4DD"/>
<path d="M247.09 153.72L248.445 147.62H254.545L257.257 148.298L257.934 155.076L254.545 158.465L251.834 159.142L248.445 156.77L247.09 153.72Z" fill="#FF8C90"/>
<path d="M222.014 196.42H228.792L232.181 206.587L227.436 209.298L219.981 207.942L218.625 201.842L222.014 196.42Z" fill="#D4ADA0"/>
<path d="M272.848 200.487V195.065V193.709L277.592 190.998L284.37 195.065L282.337 201.842L277.592 203.876L272.848 200.487Z" fill="#D4ADA0"/>
<path d="M259.967 285.887L251.156 274.364L263.356 272.331H281.656L276.912 281.82L273.523 294.698L267.423 295.375L259.967 285.887Z" fill="#D4ADA0"/>
<path d="M287.758 188.287L282.335 172.02L281.658 169.987L278.946 165.242L268.78 165.92L254.546 173.376L241.669 169.987L235.569 176.764L230.824 191.676L232.858 204.553L238.28 209.298L240.991 220.142L268.102 218.109L285.046 217.431V204.553L280.302 205.909L272.846 199.809L270.813 194.387L280.302 191.676L285.724 196.42L287.758 188.287Z" fill="#95CFFF"/>
<path d="M240.991 232.342L245.735 219.464L266.068 217.431H280.98L284.368 227.597L290.468 250.642L296.568 269.62L290.468 273.686L274.202 272.331L249.124 273.686L233.535 275.042L235.568 255.386L240.991 232.342Z" fill="white"/>
<circle cx="249.126" cy="236.409" r="8.13333" fill="black"/>
<path d="M248.469 226.644L249.009 226.687C249.494 226.725 249.968 226.829 250.418 227.005L250.894 227.195L251.381 227.386C251.552 227.452 251.747 227.492 251.974 227.502L252.536 227.534L253.086 227.555C253.726 227.584 254.322 227.797 254.834 228.191L255.268 228.53L255.691 228.858C256.3 229.328 256.632 229.987 256.708 230.711L256.772 231.304L256.825 231.802L257.322 232.098L257.862 232.427C258.206 232.633 258.552 232.945 258.763 233.401C258.98 233.874 258.982 234.363 258.879 234.788L258.752 235.35L258.614 235.9C258.586 236.019 258.564 236.111 258.551 236.176C258.567 236.295 258.596 236.386 258.593 236.44C258.587 236.552 258.564 236.648 258.551 236.705C258.524 236.819 258.493 236.922 258.466 236.991C258.411 237.137 258.336 237.302 258.254 237.468L258.021 237.923L257.799 238.389C257.755 238.479 257.728 238.585 257.735 238.728L257.767 239.268L257.788 239.808C257.82 240.444 257.663 241.057 257.312 241.598L257.026 242.032L256.74 242.477C256.526 242.807 256.294 243.132 256.041 243.451L255.691 243.885L255.353 244.32C254.769 245.054 253.918 245.287 253.097 245.146L251.868 244.934C251.825 244.926 251.795 244.923 251.784 244.923L251.371 245.22L250.936 245.527C250.314 245.963 249.566 246.096 248.818 245.866L248.321 245.718L247.823 245.559C247.41 245.431 247.017 245.266 246.647 245.061L246.224 244.828L245.8 244.584C245.655 244.504 245.48 244.443 245.271 244.404L244.762 244.309L244.243 244.214C243.716 244.116 243.228 243.908 242.782 243.61L242.327 243.314L241.882 243.017C241.411 242.702 241.032 242.289 240.749 241.799L240.473 241.333L240.209 240.867C239.904 240.341 239.753 239.759 239.764 239.152L239.785 238.071C239.791 237.738 239.779 237.411 239.764 237.108L239.743 236.61L239.721 236.102C239.702 235.711 239.705 235.315 239.732 234.915L239.764 234.397L239.795 233.867C239.836 233.271 240.033 232.714 240.378 232.226L240.685 231.791L240.982 231.368C241.173 231.097 241.361 230.822 241.543 230.542L242.115 229.652C242.495 229.065 243.056 228.672 243.724 228.498L244.243 228.36L244.773 228.233C244.903 228.199 245.023 228.129 245.144 228.021L245.97 227.28C246.511 226.793 247.196 226.544 247.939 226.602L248.469 226.644ZM244.381 231.124L243.82 232.014C243.619 232.324 243.407 232.635 243.195 232.935L242.898 233.359L242.591 233.793C242.536 233.873 242.513 233.949 242.507 234.047L242.464 234.577L242.432 235.096C242.413 235.393 242.408 235.683 242.422 235.964L242.454 236.472L242.475 236.97C242.494 237.339 242.503 237.723 242.496 238.114L242.485 238.654L242.475 239.205C242.473 239.32 242.493 239.415 242.549 239.512L242.824 239.978L243.089 240.444C243.165 240.575 243.263 240.679 243.386 240.761L243.841 241.058L244.286 241.365C244.434 241.464 244.586 241.516 244.741 241.545L245.249 241.64L245.768 241.736C246.244 241.824 246.693 241.989 247.113 242.223L247.961 242.689C248.155 242.797 248.38 242.888 248.628 242.964L249.126 243.123L249.475 243.229L249.814 242.996L250.259 242.689L250.746 242.413C251.252 242.2 251.796 242.164 252.324 242.255L252.938 242.36L253.383 242.435L253.573 242.202L253.912 241.767C254.116 241.511 254.308 241.26 254.474 241.005L254.76 240.56L255.035 240.115C255.065 240.069 255.081 240.03 255.077 239.946L255.056 239.406L255.024 238.866C254.995 238.288 255.106 237.718 255.363 237.192L255.586 236.737L255.819 236.271C255.824 236.261 255.825 236.249 255.829 236.239V236.038C255.837 235.947 255.849 235.854 255.861 235.784C255.887 235.639 255.93 235.459 255.977 235.265L256.115 234.704L256.147 234.555L255.924 234.428L255.384 234.111C254.685 233.692 254.224 233.018 254.135 232.173L254.071 231.58L254.008 230.997V230.976L253.605 230.669L253.182 230.34C253.122 230.295 253.064 230.271 252.97 230.266L252.409 230.235L251.858 230.213C251.351 230.191 250.855 230.09 250.386 229.906L249.909 229.716L249.422 229.536C249.231 229.461 249.026 229.406 248.797 229.387L248.257 229.345L247.759 229.303L247.368 229.663L246.955 230.044C246.523 230.432 246.015 230.702 245.451 230.849L244.413 231.124C244.398 231.128 244.382 231.124 244.381 231.124Z" fill="black"/>
<circle cx="276.235" cy="228.276" r="8.13333" fill="black"/>
<path d="M276.68 218.268C277.355 218.228 278.039 218.284 278.713 218.411L280.27 218.697C281.235 218.881 282.071 219.37 282.716 220.111L283.24 220.699L283.765 221.302C284.152 221.747 284.512 222.219 284.861 222.7L285.337 223.336L285.798 223.987C286.376 224.785 286.746 225.856 286.402 227.021L286.211 227.625L286.179 227.688C286.283 228.015 286.312 228.278 286.306 228.403C286.289 228.796 286.163 229.118 286.132 229.197C286.031 229.449 285.882 229.716 285.75 229.944L285.385 230.595L285.004 231.246C284.893 231.438 284.804 231.665 284.765 231.945L284.67 232.74L284.559 233.534C284.418 234.573 283.911 235.477 283.097 236.139L282.478 236.632L281.858 237.14C281.317 237.58 280.72 237.956 280.079 238.268L279.317 238.633L278.554 239.014C277.975 239.296 277.291 239.439 276.568 239.316C275.862 239.196 275.281 238.855 274.837 238.458L274.138 237.839L273.439 237.204C273.275 237.059 273.19 237.047 273.169 237.045L272.375 236.981L271.58 236.933C270.357 236.845 269.327 236.171 268.769 235.043L268.419 234.36L268.086 233.661C267.765 233.013 267.553 232.328 267.466 231.612L267.371 230.913L267.291 230.214C267.254 229.905 267.176 229.572 267.053 229.213L266.799 228.482L266.561 227.752C266.269 226.897 266.231 226.014 266.418 225.146L266.592 224.352L266.751 223.558C266.95 222.633 267.402 221.806 268.07 221.143L268.658 220.556L269.261 219.984C269.971 219.279 270.853 218.835 271.851 218.713L273.471 218.522C274.052 218.451 274.624 218.396 275.171 218.363L275.933 218.316L276.68 218.268ZM276.171 222.382L275.409 222.414C274.957 222.441 274.481 222.496 273.979 222.557L273.153 222.652L272.343 222.748C272.254 222.759 272.197 222.784 272.121 222.859L270.945 224.035C270.827 224.151 270.769 224.263 270.739 224.4L270.564 225.21L270.389 226.004C270.348 226.195 270.368 226.323 270.405 226.433L270.643 227.164L270.897 227.895C271.105 228.501 271.252 229.119 271.326 229.737L271.406 230.436L271.501 231.119C271.527 231.331 271.589 231.577 271.723 231.85L272.073 232.549L272.232 232.883L272.661 232.93L273.455 232.978C274.506 233.054 275.417 233.512 276.155 234.169L276.854 234.789L277.22 235.123L277.537 234.98L278.3 234.614C278.68 234.429 279.017 234.21 279.301 233.979L279.92 233.486L280.524 232.978L280.635 232.2L280.746 231.405C280.851 230.632 281.086 229.89 281.477 229.213L281.858 228.562L281.97 228.324C281.957 228.128 281.946 227.978 281.954 227.911C281.985 227.615 282.062 227.309 282.128 227.085L282.319 226.481L282.383 226.211L282.049 225.734L281.572 225.083C281.295 224.7 281.006 224.323 280.699 223.971L280.174 223.383L279.65 222.78C279.603 222.725 279.576 222.713 279.507 222.7L278.729 222.541L277.951 222.398C277.587 222.33 277.244 222.316 276.918 222.335L276.171 222.382Z" fill="black"/>
<circle cx="268.102" cy="249.964" r="6.77778" fill="black"/>
<path d="M269.563 241.895L270.538 241.916H271.512C272.977 241.923 274.224 242.55 275.176 243.504L276.744 245.072C277.326 245.656 278.66 247.192 277.993 249.181L277.824 249.731L277.633 250.282C277.378 251.041 276.926 251.747 276.468 252.358L275.325 253.883C275.043 254.258 274.785 254.692 274.541 255.175L274.075 256.085L273.609 257.017C272.863 258.487 271.525 259.332 269.966 259.517L267.805 259.771C266.632 259.909 265.476 259.767 264.374 259.368L263.252 258.945L262.15 258.542C261.344 258.25 260.478 257.708 259.926 256.742C259.383 255.785 259.33 254.763 259.46 253.946L259.672 252.739L259.863 251.51C259.942 251.008 259.901 250.668 259.842 250.451L259.587 249.477L259.312 248.482C259.11 247.736 259.07 246.83 259.418 245.919C259.768 245.012 260.396 244.368 261.049 243.949L261.896 243.398L262.764 242.869C263.701 242.268 264.777 241.889 265.963 241.895H269.563ZM265.899 247.317C265.867 247.327 265.794 247.354 265.687 247.423L264.84 247.973L264.798 247.995L264.819 248.058L265.073 249.032C265.371 250.129 265.4 251.265 265.221 252.379L265.01 253.586L264.967 253.798L265.116 253.862L266.217 254.264C266.6 254.403 266.908 254.422 267.17 254.391L268.25 254.264L268.949 254.179L269.225 253.65L269.691 252.718C270.065 251.977 270.5 251.286 270.983 250.642L271.554 249.88L272.126 249.096C272.267 248.908 272.384 248.777 272.444 248.672C272.479 248.611 272.479 248.561 272.486 248.545V248.482L271.343 247.338H270.517L269.542 247.317H265.899Z" fill="black"/>
<circle cx="240.993" cy="266.231" r="6.77778" fill="black"/>
<path d="M241.951 256.816C243.001 256.824 243.977 257.198 244.763 257.912L245.366 258.468L245.986 259.024C246.454 259.45 246.889 259.896 247.273 260.359L247.749 260.93L248.226 261.518C248.678 262.064 249.039 262.67 249.306 263.329L249.878 264.759C249.98 265.012 250.099 265.325 250.164 265.617C250.188 265.725 250.268 266.07 250.211 266.474C250.181 266.689 250.081 267.137 249.719 267.555C249.518 267.787 249.269 267.932 249.02 268.047L248.702 268.571L248.305 269.191C248.164 269.415 248.051 269.685 247.972 270.001L247.781 270.764L247.574 271.526C247.305 272.602 246.633 273.452 245.668 273.972L244.969 274.354L244.254 274.735C243.586 275.095 242.866 275.355 242.11 275.497L241.268 275.656L240.41 275.815C239.775 275.934 239.061 275.888 238.377 275.545C237.706 275.208 237.258 274.676 236.963 274.147L236.502 273.337L236.058 272.527C235.912 272.266 235.792 272.173 235.74 272.146L235.041 271.796L234.342 271.431C233.84 271.168 233.362 270.761 233.023 270.192C232.684 269.62 232.563 269.003 232.579 268.428L232.595 267.666L232.626 266.887C232.648 266.127 232.802 265.377 233.135 264.679L233.436 264.06L233.722 263.44C233.875 263.121 234.026 262.759 234.151 262.36L234.596 260.93C234.886 260.009 235.454 259.251 236.201 258.691L236.868 258.198L237.519 257.706C238.322 257.102 239.257 256.811 240.251 256.816H241.951ZM239.965 260.962L239.298 261.455L238.647 261.947C238.522 262.041 238.485 262.098 238.472 262.138L238.25 262.868L238.027 263.583C237.851 264.145 237.633 264.682 237.392 265.188L237.106 265.807L236.804 266.427C236.744 266.553 236.701 266.738 236.693 266.999L236.661 267.777L236.645 268.031L236.931 268.19L237.614 268.555C238.49 269.014 239.142 269.718 239.6 270.541L240.061 271.351L240.235 271.701L240.505 271.653L241.363 271.494C241.738 271.423 242.059 271.308 242.332 271.161L243.031 270.779L243.651 270.43L243.826 269.779L244.016 269.016C244.193 268.312 244.473 267.641 244.858 267.03L245.255 266.395L245.652 265.776C245.702 265.697 245.758 265.616 245.811 265.537L245.541 264.854C245.427 264.572 245.278 264.326 245.096 264.108L244.62 263.536L244.143 262.948C243.891 262.644 243.582 262.339 243.238 262.027L242.634 261.471L242.015 260.915L241.999 260.899L241.983 260.883H241.077L240.235 260.867C240.104 260.866 240.038 260.908 239.965 260.962Z" fill="black"/>
<circle cx="287.079" cy="263.52" r="6.77778" fill="black"/>
<path d="M288.005 253.777L289.17 254.253L290.335 254.757C291.362 255.194 292.319 255.864 293.036 256.822L293.671 257.854L294.095 258.807L294.545 259.734C294.566 259.781 294.58 259.833 294.598 259.866L294.862 260.078L295.339 260.422C295.872 260.806 296.414 261.399 296.716 262.223C297.01 263.034 296.982 263.801 296.848 264.394C296.612 265.444 295.991 266.207 295.63 266.618L294.862 267.491L294.121 268.365C293.636 268.916 293.126 269.494 292.612 270.112L291.818 271.092L290.997 272.045C290.356 272.816 289.492 273.452 288.402 273.766C287.335 274.073 286.303 274.002 285.411 273.766L282.763 273.078C281.121 272.642 279.756 271.696 278.712 270.43L277.759 269.239L276.78 268.074C276.117 267.268 275.458 266.061 275.562 264.553C275.665 263.045 276.492 261.951 277.256 261.243L278.368 260.184L279.48 259.151C280.048 258.625 280.448 258.172 280.698 257.775L282.022 255.657L283.054 254.439C283.489 254.069 284.03 253.738 284.669 253.539C285.944 253.146 287.125 253.405 288.005 253.777ZM286.443 261.349C285.814 262.354 285.003 263.28 284.087 264.129L283.054 265.056L283.954 266.115C284.191 266.4 284.361 266.478 284.484 266.512L285.808 266.856L286.364 266.988L286.602 266.75L287.396 265.797C287.946 265.136 288.483 264.492 289.011 263.891L289.064 263.785C288.787 263.375 288.572 262.959 288.402 262.593L287.952 261.667L287.635 260.952L286.867 260.634L286.443 261.349Z" fill="black"/>
<path d="M152.881 127.287L158.981 123.22V115.765V108.309L164.403 101.531L169.826 100.176L175.926 114.409V132.031L169.826 149.654L173.892 166.598V176.765L169.826 184.22L161.692 180.831L155.592 169.987L154.237 161.854L152.881 151.009L149.492 134.742L152.881 127.287Z" fill="white"/>
<path d="M253.337 136.865C253.584 136.865 253.715 136.882 253.797 136.915C253.849 136.937 253.897 136.97 253.942 137.089C253.996 137.228 254.035 137.454 254.058 137.829C254.08 138.199 254.085 138.684 254.085 139.326C254.085 140.016 254.083 140.522 254.062 140.9C254.039 141.287 253.997 141.492 253.941 141.605C253.917 141.654 253.894 141.679 253.872 141.695C253.849 141.713 253.812 141.732 253.747 141.748C253.601 141.783 253.391 141.787 253.041 141.787C252.27 141.787 251.599 141.453 251.19 140.889C250.698 140.21 250.521 139.743 250.557 139.33C250.592 138.914 250.851 138.465 251.457 137.841C251.715 137.575 252.066 137.327 252.422 137.146C252.785 136.961 253.116 136.865 253.337 136.865Z" fill="black" stroke="black" stroke-width="0.636142"/>
<path d="M250.107 146.609C251.042 146.554 252.17 146.568 253.288 146.641C254.406 146.713 255.506 146.843 256.383 147.016C256.822 147.102 257.199 147.199 257.492 147.301C257.797 147.407 257.971 147.506 258.045 147.58C258.109 147.645 258.211 147.809 258.336 148.093C258.456 148.365 258.584 148.717 258.712 149.125C258.967 149.94 259.214 150.963 259.391 151.993V151.994C259.682 153.693 259.757 154.63 259.515 155.389C259.275 156.14 258.708 156.762 257.551 157.777C255.932 159.197 254.377 159.872 252.877 159.865C251.473 159.859 250.065 159.254 248.649 157.999L248.366 157.739C247.287 156.718 246.749 156.067 246.516 155.251C246.278 154.421 246.344 153.379 246.61 151.54C246.773 150.418 247.044 149.328 247.346 148.479C247.497 148.055 247.653 147.698 247.805 147.431C247.923 147.22 248.026 147.089 248.103 147.017L248.171 146.964C248.306 146.885 248.544 146.808 248.889 146.744C249.226 146.682 249.64 146.637 250.107 146.609ZM251.348 154.058C250.798 153.858 250.331 153.807 249.986 153.939C249.805 154.009 249.659 154.129 249.569 154.296C249.482 154.459 249.461 154.642 249.481 154.82C249.522 155.17 249.728 155.549 250.041 155.898C250.359 156.253 250.807 156.601 251.373 156.888C252.044 157.228 252.671 157.383 253.315 157.312C253.956 157.243 254.578 156.954 255.246 156.475C255.675 156.167 256.011 155.924 256.233 155.735C256.344 155.642 256.441 155.55 256.51 155.461C256.568 155.385 256.664 155.238 256.628 155.058C256.587 154.858 256.421 154.77 256.326 154.733C256.221 154.693 256.092 154.672 255.959 154.657C255.688 154.628 255.299 154.62 254.808 154.613C253.838 154.599 252.518 154.403 251.677 154.163L251.348 154.058ZM255.608 148.851C255.279 148.724 254.919 148.75 254.596 148.94C254.279 149.127 254.017 149.459 253.833 149.913C253.631 150.412 253.476 150.812 253.388 151.128C253.303 151.429 253.257 151.724 253.354 151.971C253.465 152.256 253.721 152.376 253.979 152.432C254.234 152.486 254.568 152.496 254.963 152.496C255.885 152.496 256.689 151.805 256.689 150.898C256.689 149.88 256.256 149.099 255.608 148.851ZM250.172 148.69C250.02 148.704 249.88 148.765 249.757 148.855C249.518 149.032 249.322 149.334 249.165 149.721C248.813 150.588 249.207 151.576 250.08 151.893C250.491 152.042 250.908 152.049 251.216 151.821C251.532 151.587 251.624 151.186 251.559 150.764C251.48 150.26 251.359 149.836 251.206 149.507C251.056 149.185 250.859 148.919 250.604 148.782C250.473 148.711 250.326 148.676 250.172 148.69Z" fill="black" stroke="black" stroke-width="0.605869"/>
<path d="M247.023 121.171C250.852 121.028 251.592 119.733 248.728 118.185C246.28 116.86 244.057 117.473 243.736 119.56C243.521 120.953 244.181 121.276 247.023 121.171Z" fill="black"/>
<path d="M268.424 121.82C268.748 121.471 268.095 120.565 266.972 119.806C264.694 118.268 260.304 118.578 259.805 120.312C259.461 121.515 267.416 122.906 268.424 121.82Z" fill="black"/>
<path d="M205.746 199.131L207.779 192.354H208.457L217.268 198.454L215.235 201.842L205.746 199.131Z" fill="#D9D9D9"/>
<path d="M160.334 213.364L154.912 209.976L152.879 215.398L159.657 217.431L160.334 213.364Z" fill="white"/>
<path d="M162.37 199.131L156.27 209.298L161.014 211.331L166.436 204.553L162.37 199.131Z" fill="#D9D9D9"/>
<path fill-rule="evenodd" clip-rule="evenodd" d="M141.153 64.0281C140.439 64.5718 139.148 65.0286 138.286 65.0421C137.422 65.0565 135.927 65.9868 134.961 67.11L133.207 69.1524L129.877 67.5437C126.098 65.7181 122.95 65.9948 119.124 68.4883C115.27 70.9994 114.011 73.3152 113.47 78.8867C113.012 83.5948 113.121 84.1687 114.652 85.1245C116.83 86.4853 116.778 87.7138 114.407 90.83C112.703 93.0692 112.557 93.7946 113.159 97.0009C114.423 103.733 116.6 106.239 121.869 107.025C122.553 107.127 123.831 107.359 124.708 107.542C126.558 107.928 131.986 105.312 132.964 103.563C133.492 102.621 133.994 102.555 135.349 103.249C136.292 103.733 137.777 104.488 138.647 104.926C141.067 106.144 143.329 105.892 147.163 103.977C150.231 102.445 150.799 101.736 151.791 98.1975C153.339 92.6683 153.408 91.3457 152.288 88.6066C151.29 86.1681 151.382 85.8165 154.268 81.0111C156.724 76.9208 153.407 66.1398 148.989 63.8551C146.398 62.5151 143.044 62.5892 141.153 64.0281ZM148.066 71.8651C150.527 76.9304 150.301 78.1174 146.248 81.4392C142.383 84.6056 142.353 85.5024 145.983 89.1328C147.232 90.3819 147.503 91.3999 147.155 93.5412C146.156 99.6977 142.568 101.795 138.504 98.5984C135.51 96.2428 132.585 95.7756 130.283 97.2839C129.19 97.9998 128.295 99.0911 128.295 99.7097C128.295 101.376 125.451 101.975 122.368 100.957C117.753 99.4347 117.12 93.6073 121.366 91.7427C122.328 91.321 123.152 90.2584 123.198 89.3815C123.245 88.5046 123.552 87.159 123.881 86.3921C124.732 84.4087 123.831 82.6055 121.99 82.6055C119.952 82.6055 119.128 81.1969 119.426 78.2218C120.001 72.4805 125.656 70.4677 129.877 74.5022C131.989 76.5199 132.783 76.7375 136.413 76.2943C136.956 76.2281 137.859 73.9976 137.823 72.8114C137.778 71.3055 142.482 68.5441 145.475 68.3193C145.936 68.285 147.102 69.8802 148.066 71.8651ZM262.191 88.8211C260.274 89.6031 258.351 89.7577 255.848 89.3304C253.873 88.9924 249.745 88.7055 246.676 88.6919C240.511 88.664 236.308 90.3102 232.725 94.1558C231.629 95.3316 228.812 97.2042 226.464 98.3162C220.452 101.164 217.093 104.392 214.287 110.02C212.186 114.233 211.899 115.563 212.165 119.865L212.472 124.84L208.274 129.279C205.907 131.782 203.707 135.001 203.227 136.66C201.754 141.771 201.397 146.941 202.335 149.629C203.074 151.751 203.015 152.469 202.014 153.576C199.234 156.648 197.888 166.371 199.657 170.606C201.08 174.011 203.51 176.058 205.755 175.74C208.208 175.393 208.549 172.751 206.453 170.335C203.982 167.485 204.208 161.209 206.926 157.208C208.9 154.303 208.974 153.872 208.122 150.186C206.771 144.329 206.974 142.681 209.743 137.057C211.699 133.084 212.952 131.576 215.291 130.383C219.401 128.287 219.854 128.443 217.326 131.082C214.74 133.779 212.796 140.669 212.796 147.129C212.796 150.066 212.213 153.069 211.219 155.261C209.058 160.023 209.091 166.235 211.292 169.033C212.218 170.21 213.564 171.061 214.281 170.922C215.362 170.713 215.586 169.557 215.586 164.189C215.586 159.364 215.915 157.33 216.874 156.229C218.647 154.193 219.376 150.64 218.396 148.809C217.106 146.399 219.345 137.277 222.088 133.763C224.854 130.221 225.896 128.029 227.173 123.069C228.146 119.286 230.464 116.022 232.817 115.119C233.505 114.855 234.647 113.44 235.352 111.975C237.395 107.737 240.271 105.223 244.212 104.23C247.818 103.322 248.416 102.49 247.388 99.8101C246.772 98.2054 244.803 98.2166 239.797 99.854C237.315 100.666 235.301 101.941 234.466 103.228C232.76 105.861 231.517 107.333 227.438 111.555C223.634 115.494 220.782 121.219 220.736 125.011L220.704 127.646L219.528 125.48C217.545 121.824 217.221 116.708 218.779 113.631C221.433 108.388 224.098 105.675 228.991 103.236C231.703 101.884 235.188 99.563 236.737 98.0779C238.793 96.1049 240.769 95.1323 244.068 94.4699C246.552 93.9708 249.116 93.7668 249.767 94.0163C250.44 94.2754 251.183 96.0323 251.494 98.1042C251.793 100.103 252.357 101.738 252.746 101.738C253.134 101.738 253.452 102.588 253.452 103.628C253.452 105.342 253.016 105.567 248.763 106.048C244.553 106.525 243.661 106.974 240.029 110.457C237.804 112.59 235.735 115.357 235.429 116.607C235.125 117.855 232.786 121.247 230.233 124.143C224.736 130.378 223.032 135.338 223.732 143.065C224.066 146.733 223.831 148.62 222.765 150.867C220.865 154.872 220.348 162.648 221.556 169.051C222.581 174.48 223.712 175.875 227.093 175.875C229.081 175.875 229.222 173.935 227.617 168.645C226.968 166.51 226.689 163.425 226.942 161.185L227.372 157.366L232.448 162.698L237.524 168.029L236.148 170.358C235.392 171.639 234.557 172.686 234.292 172.686C233.012 172.686 227.707 187.212 227.266 191.921C227.191 192.731 225.925 193.528 223.9 194.043C221.158 194.739 220.138 194.613 217.323 193.236C207.059 188.213 207.962 188.48 205.866 189.853C204.807 190.547 203.723 191.721 203.456 192.463C203.189 193.205 202.31 194.766 201.503 195.931C200.696 197.097 200.225 198.532 200.456 199.12C200.964 200.412 209.398 204.569 213 205.304C214.684 205.647 215.931 206.549 216.577 207.89C217.799 210.429 218.847 211.273 222.157 212.386C225.14 213.389 232.444 211.899 233.585 210.053C234.75 208.168 236.11 210.513 236.341 214.807C236.592 219.465 237.323 222.111 238.359 222.111C239.368 222.111 239.308 227.47 238.293 228.098C237.847 228.374 237.686 228.929 237.936 229.332C238.185 229.735 237.874 231.235 237.245 232.665C236.616 234.095 235.661 237.417 235.12 240.048C234.58 242.678 233.912 245.189 233.635 245.628C233.358 246.066 233.086 247.681 233.031 249.215C232.976 250.75 232.522 255.054 232.021 258.781C231.52 262.508 230.892 268.481 230.626 272.055C230.175 278.106 230.258 278.614 231.825 279.452C233.141 280.157 233.912 280.087 235.369 279.132C237.95 277.441 245.217 276.939 247.798 278.275C248.935 278.862 250.982 280.734 252.349 282.434L254.832 285.525L252.178 287.499C249.525 289.472 247.021 294.126 247.362 296.449C247.462 297.127 247.987 298.218 248.531 298.872C249.392 299.91 249.99 299.921 253.192 298.957C255.212 298.349 257.307 297.485 257.847 297.037C258.566 296.441 259.079 296.813 259.766 298.428C260.282 299.64 262.391 301.685 264.452 302.97C267.809 305.064 268.947 305.322 275.374 305.442C283.281 305.59 284.486 305.242 286.45 302.245C287.765 300.238 287.737 300.159 284.769 297.431C283.109 295.906 280.582 294.269 279.154 293.794C277.519 293.252 276.766 292.59 277.122 292.013C277.435 291.508 277.788 290.55 277.907 289.885C278.771 285.054 279.236 283.419 279.85 283.039C280.239 282.799 280.556 281.771 280.556 280.754C280.556 279.737 281.072 278.477 281.705 277.953C282.336 277.429 282.69 276.577 282.491 276.062C282.242 275.413 283.303 275.162 285.927 275.248C288.015 275.318 290.082 275.449 290.521 275.543C293.576 276.188 295.686 275.337 297.231 272.837C299.379 269.362 299.328 266.802 296.975 259.977C293.55 250.04 290.242 239.318 289.721 236.46C289.441 234.926 288.644 231.886 287.95 229.706C286.544 225.293 286.004 219.72 286.982 219.72C287.331 219.72 288.133 219.203 288.765 218.572C289.734 217.602 289.756 216.817 288.905 213.535C288.35 211.396 288.08 208.683 288.305 207.505C288.531 206.326 288.279 204.836 287.745 204.192C286.972 203.26 287.033 202.765 288.05 201.748C288.751 201.047 289.325 199.82 289.325 199.022C289.325 198.223 289.848 197.368 290.486 197.124C292.422 196.381 291.433 186.644 288.878 181.291C287.223 177.823 285.534 176.933 283.835 178.632C282.776 179.691 282.754 180.354 283.666 183.643C285.826 191.423 285.784 190.794 284.047 189.264C281.612 187.121 277.487 187.279 272.669 189.704L268.369 191.867L265.732 190.06C263.414 188.472 263.259 188.157 264.451 187.465C265.198 187.032 265.988 186.651 266.207 186.619C270.357 185.994 272.478 183.125 270.269 181.126C268.92 179.905 268.523 179.898 265.312 181.052C254.691 184.866 255.474 184.724 251.943 183.478C250.13 182.838 248.47 182.307 248.256 182.298C248.041 182.289 246.939 182.048 245.808 181.765C244.429 181.419 243.331 181.668 242.476 182.523C241.309 183.691 241.322 183.93 242.637 185.384C243.427 186.256 245.915 187.562 248.165 188.286C254.787 190.416 263.193 194.689 266.406 197.56C268.051 199.028 269.395 200.446 269.395 200.71C269.395 201.33 265.099 203.118 264.144 202.895C263.744 202.802 262.879 202.942 262.221 203.206C261.563 203.471 259.59 203.911 257.836 204.184C256.083 204.458 252.86 204.962 250.675 205.305C246.725 205.926 240.593 205.666 238.306 204.782C237.648 204.528 236.9 204.357 236.643 204.403C236.388 204.448 235.575 202.576 234.84 200.242C233.279 195.288 233.302 189.539 234.901 185.043C235.525 183.289 236.171 181.206 236.336 180.413C236.911 177.66 240.043 173.478 241.873 173.019C242.893 172.763 244.819 173.128 246.193 173.838C252.841 177.276 262.006 175.59 271.582 169.17C275.603 166.473 277.252 167.176 277.129 171.534C277.041 174.644 278.828 176.979 280.737 176.246C282.333 175.634 284.614 169.482 285.118 164.43C285.387 161.735 285.073 159.601 284.083 157.407C282.853 154.678 282.799 153.875 283.686 151.422C284.249 149.865 284.892 146.136 285.113 143.137C285.469 138.318 285.274 137.251 283.442 133.972C282.301 131.931 281.57 129.933 281.818 129.532C282.065 129.132 281.469 126.391 280.491 123.442C277.472 114.324 275.006 111.264 268.128 108.095C265.457 106.865 262.618 105.918 261.817 105.991C260.694 106.092 260.03 105.03 258.911 101.339C257.099 95.3683 257.099 95.3603 259.043 95.3603C259.926 95.3603 261.302 94.9521 262.101 94.4531C263.041 93.8656 264.935 93.7532 267.471 94.1334C270.72 94.6205 271.937 95.3188 274.609 98.2293C277.059 100.897 278.41 101.738 280.25 101.738C281.8 101.738 283.342 102.454 284.542 103.731C285.572 104.827 286.901 105.724 287.496 105.724C288.091 105.724 288.799 106.352 289.069 107.119C289.339 107.886 290.092 109.769 290.741 111.304C291.979 114.227 292.468 119.654 291.617 121.03C290.143 123.414 285.424 116.661 285.313 112.008C285.23 108.565 270.559 98.4231 267.409 99.6324C264.967 100.569 267.159 105.724 269.998 105.724C270.48 105.724 271.646 106.71 272.59 107.916C273.534 109.122 275.409 110.487 276.759 110.951C278.628 111.594 279.441 112.542 280.18 114.937C281.34 118.706 282.638 121.147 285.456 124.863C288.42 128.771 290.322 134.866 289.709 138.492C289.387 140.398 289.617 142.257 290.356 143.716C292.507 147.964 292.671 151.544 290.945 156.665C290.054 159.31 289.325 162.91 289.325 164.663C289.325 166.415 288.711 169.137 287.961 170.709C286.52 173.731 287.165 176.274 289.373 176.274C291.42 176.274 294.85 170.142 294.879 166.432C294.893 164.528 295.638 160.557 296.533 157.609C297.941 152.974 298.045 151.61 297.301 147.52C296.827 144.92 295.957 139.564 295.366 135.618C294.776 131.672 294.034 127.815 293.716 127.048C292.705 124.599 294.729 125.528 297.057 128.581C299.286 131.504 299.29 131.531 299.48 145.521C299.584 153.227 299.743 160.43 299.832 161.526C300.312 167.43 299.71 169.275 296.059 173.086C292.097 177.221 291.559 180.067 294.657 180.507C298.333 181.031 307.078 169.227 305.662 165.653C305.37 164.918 305.156 157.734 305.185 149.689C305.232 136.988 305.022 134.39 303.592 129.963C302.613 126.935 301.163 124.25 300.019 123.351C298.377 122.058 298.093 121.151 298.088 117.168C298.085 113.851 297.625 111.808 296.499 110.108C295.628 108.793 294.901 107.178 294.884 106.521C294.866 105.863 294.236 104.594 293.484 103.7C291.542 101.395 284.893 96.9546 283.383 96.9546C282.686 96.9546 280.598 95.5987 278.745 93.9421C273.154 88.9454 266.746 86.9621 262.191 88.8211ZM163.714 98.9556C160.678 100.281 155.027 107.565 155.55 109.477C155.645 109.824 155.462 111.409 155.144 112.999C154.827 114.589 154.919 116.817 155.35 117.95C156.064 119.828 155.836 120.209 152.777 122.263C148.271 125.289 145.592 130.257 145.625 135.523C145.661 141.081 147.156 149.544 148.81 153.554C149.262 154.65 149.46 155.839 149.249 156.195C149.038 156.551 149.35 157.448 149.94 158.188C152.29 161.128 153.11 163.232 152.292 164.218C150.925 165.866 151.017 170.656 152.457 172.71C153.198 173.769 153.818 175.362 153.834 176.252C153.884 179.086 161.758 186.836 163.496 185.762C163.873 185.53 164.71 185.868 165.356 186.515C166.897 188.057 169.607 187.351 172.218 184.73C175.443 181.493 176.135 179.598 175.637 175.362C175.224 171.845 175.146 169.718 175.326 166.907C175.653 161.802 174.722 150.237 173.919 149.434C172.357 147.872 172.745 145.751 175.727 139.55C177.491 135.883 178.517 132.571 178.517 130.545C178.517 128.783 178.851 127.136 179.258 126.884C179.674 126.626 179.846 122.75 179.651 118.021C179.37 111.236 178.952 108.955 177.479 106.188C175.4 102.283 171.721 98.5785 169.831 98.4876C169.128 98.4541 167.989 98.3162 167.301 98.1807C166.612 98.046 164.998 98.3944 163.714 98.9556ZM168.491 104.615C169.705 105.08 170.961 107.369 172.819 112.5C174.012 115.793 173.29 131.943 171.888 133.346C170.846 134.388 167.357 142.281 167.357 143.597C167.357 144.313 166.819 145.437 166.161 146.095C164.686 147.57 164.659 148.351 166.035 149.727C169.096 152.787 170.231 160.116 168.611 166.36C167.873 169.207 167.851 170.578 168.525 171.837C169.484 173.629 169.502 176.003 168.577 178.791C166.916 183.797 159.902 178.998 158.204 171.693C157.376 168.134 157.392 167.136 158.295 165.902C159.746 163.917 159.676 161.166 158.143 159.893C156.579 158.595 154.688 154.125 154.267 150.73C154.09 149.3 153.568 147.427 153.108 146.568C151.685 143.909 151.096 133.317 152.25 131.151C154.404 127.11 157.791 126.748 157.791 130.56C157.791 132.526 160.985 133.841 162.428 132.467C163.957 131.012 164.112 128.747 162.852 126.26C162.206 124.985 161.67 121.074 161.562 116.851C161.397 110.34 161.545 109.489 163.056 108.271C163.979 107.528 164.954 106.291 165.224 105.524C165.745 104.038 166.465 103.837 168.491 104.615ZM265.846 112.997C269.556 114.638 270.654 115.771 273.691 121.089C275.382 124.053 275.877 125.995 275.927 129.858C275.979 133.918 276.35 135.25 277.968 137.185C279.683 139.235 279.889 140.099 279.52 143.672C279.287 145.939 278.527 148.893 277.833 150.236C277.138 151.579 276.57 153.703 276.57 154.956C276.57 156.209 276.122 157.782 275.574 158.452C270.219 164.989 254.352 172.308 251.419 169.594C251.003 169.208 249.231 168.435 247.483 167.875C243.974 166.752 236.276 159.884 232.673 154.663C230.955 152.174 230.225 149.876 229.636 145.097C228.45 135.493 229.128 133.483 236.042 126.092C238.086 123.908 240.2 120.781 240.741 119.143C241.281 117.506 242.669 115.259 243.825 114.152C247.658 110.48 258.83 109.894 265.846 112.997ZM73.2903 143.33C70.4404 143.736 67.7674 144.409 67.3513 144.826C66.9352 145.242 65.6453 145.582 64.4854 145.582C63.3256 145.582 61.736 146.291 60.9524 147.156C60.1688 148.022 58.7753 148.97 57.8546 149.261C55.4869 150.013 51.7665 152.887 51.7665 153.964C51.7665 154.462 50.8697 155.713 49.7736 156.743C48.6775 157.773 47.7806 159.19 47.7806 159.893C47.7806 160.596 47.3087 161.879 46.7324 162.743C45.0272 165.3 43.7095 170.862 43.9064 174.667C44.0284 177.018 43.6576 178.692 42.8071 179.635C40.9839 181.656 40.3821 188.144 41.7205 191.349C42.8964 194.163 47.3318 197.399 50.0135 197.399C51.6342 197.399 52.4848 198.87 52.9376 202.461C53.4645 206.631 56.0187 214.666 57.4623 216.694C58.9929 218.843 58.8973 220.517 57.2431 220.517C56.7991 220.517 55.9517 220.966 55.3594 221.513C54.7679 222.062 52.1029 224.463 49.438 226.85C46.7722 229.238 44.5919 231.604 44.5919 232.108C44.5919 232.612 43.8378 233.707 42.9163 234.542C40.1198 237.072 39.0117 240.124 39.0117 245.295C39.0117 248.887 39.4589 250.947 40.6619 252.893C41.5699 254.362 42.1071 255.896 41.856 256.303C41.6041 256.709 42.4149 257.896 43.6561 258.941C45.3277 260.348 45.8387 261.397 45.6251 262.989C45.2687 265.651 47.2601 269.669 49.2474 270.3C50.507 270.7 50.7414 271.644 50.7908 276.534C50.8235 279.705 51.0012 282.836 51.1862 283.494C52.15 286.929 53.5817 289.204 56.8868 292.557C58.8933 294.593 60.5355 296.559 60.5355 296.927C60.5355 297.294 59.8013 298.261 58.9036 299.073C56.3567 301.378 57.1419 304.324 60.7746 306.098C63.422 307.391 64.2758 307.458 67.5506 306.621C69.6113 306.094 72.1941 305.496 73.2903 305.29C75.9807 304.785 78.7716 302.034 79.5194 299.148C79.8574 297.844 80.8355 296.39 81.6941 295.915C84.0163 294.632 84.4954 293.685 84.0051 291.346C83.5922 289.379 83.754 289.233 86.3448 289.233C87.8754 289.233 89.5606 288.966 90.0883 288.639C91.2371 287.93 90.3817 293.658 89.1094 295.199C88.5785 295.841 88.7914 296.603 89.7783 297.59C90.644 298.456 91.1271 299.9 90.9796 301.181C90.7986 302.747 91.265 303.673 92.7127 304.621C95.6439 306.542 103.363 307.424 107.609 306.324C112.638 305.021 113.382 304.388 112.872 301.841C112.522 300.088 112.808 299.485 114.318 298.798C115.352 298.326 116.429 297.219 116.708 296.338C116.987 295.457 117.897 294.519 118.729 294.256C119.562 293.992 120.464 293.077 120.735 292.222C121.006 291.367 121.514 290.668 121.864 290.668C122.864 290.668 125.033 284.218 125.214 280.704C125.537 274.431 123.674 269.461 119.244 264.777C115.234 260.537 115.148 260.345 115.43 256.25C115.588 253.946 115.287 250.137 114.761 247.786C114.235 245.435 113.925 243.393 114.075 243.25C114.223 243.106 117.394 242.76 121.121 242.48C132.525 241.623 139.933 240.19 141.825 238.476C143.28 237.157 144.492 236.943 149.35 237.146L155.142 237.387L158.444 233.445C161.454 229.849 161.719 229.173 161.451 225.774C161.1 221.315 162.853 216.276 166.888 210.149C170.193 205.131 170.371 203.7 168.091 200.499C165.869 197.379 162.566 195.698 160.703 196.74C159.059 197.66 153.858 203.105 153.827 203.94C153.815 204.25 152.908 205.824 151.812 207.439C150.716 209.054 149.819 211 149.819 211.762C149.819 212.724 148.796 213.408 146.479 213.996C144.642 214.462 142.791 214.629 142.366 214.366C141.941 214.103 140.188 213.943 138.473 214.01C136.757 214.077 134.694 213.78 133.888 213.349C131.027 211.818 118.825 212.204 116.059 213.913C115.566 214.218 115.507 213.828 115.902 212.875C117.478 209.081 119.373 200.57 118.979 199.062C118.597 197.604 118.896 197.399 121.399 197.399C129.245 197.399 133.199 186.593 127.565 180.546C126.085 178.958 125.904 177.781 125.904 169.768C125.904 161.695 125.688 160.316 123.795 156.318C121.58 151.639 117.701 147.974 114.965 147.974C114.074 147.974 112.93 147.475 112.424 146.865C111.917 146.255 110.349 145.541 108.938 145.279C104.534 144.458 103.29 144.195 99.5971 143.301C95.3417 142.271 80.6004 142.287 73.2903 143.33ZM98.7999 148.808C104.445 149.599 106.871 150.231 111.555 152.133C115.269 153.64 115.864 154.077 118.295 157.078C120.576 159.894 120.739 160.553 120.996 167.975C121.216 174.327 121.052 175.875 120.16 175.875C119.55 175.875 118.587 174.596 118.022 173.033C117.456 171.47 116.527 170.012 115.957 169.793C115.38 169.572 115.099 168.71 115.322 167.855C115.752 166.211 113.722 164.054 109.657 161.834C107.511 160.663 107.26 160.683 105.782 162.16C104.221 163.723 104.22 163.756 105.746 165.224C109.235 168.577 111.807 170.149 113.046 169.685C114.153 169.271 114.19 169.389 113.297 170.488C112.427 171.559 112.47 172.423 113.552 175.61C114.64 178.813 114.764 181.417 114.309 191.411C114.009 197.993 113.493 203.736 113.163 204.175C112.832 204.613 112.136 206.786 111.616 209.004C109.347 218.692 103.27 221.206 82.7161 220.958C70.5384 220.811 70.135 220.751 66.9089 218.616C64.8601 217.26 63.1518 215.307 62.4248 213.489C61.7798 211.874 60.7666 209.476 60.1743 208.161C59.582 206.845 58.6772 203.437 58.1639 200.587C56.8987 193.568 55.6719 191.819 52.0105 191.819C48.3482 191.819 46.1863 189.916 46.1863 186.691C46.1863 181.401 50.6704 178.84 53.8264 182.327C56.3017 185.062 57.6696 185.458 60.1656 184.163C61.4259 183.51 63.9083 182.777 65.6812 182.536C68.5885 182.141 69.082 182.338 70.6963 184.53C72.5688 187.075 76.5698 188.417 79.5035 187.486C81.4836 186.858 84.4507 184.316 84.4507 183.248C84.4507 182.306 88.2461 181.432 89.7814 182.021C90.357 182.242 90.8281 182.891 90.8281 183.463C90.8281 184.034 91.9768 185.468 93.3799 186.65C96.9831 189.681 101.339 189.074 105.053 185.021C107.383 182.479 107.653 181.753 107.188 179.275C106.656 176.443 104.744 172.809 103.203 171.702C102.754 171.38 100.541 171.111 98.2849 171.104C94.5868 171.094 93.9403 171.368 91.7321 173.882C90.3849 175.417 88.7005 176.672 87.9902 176.672C87.2791 176.672 85.2527 175.436 83.4877 173.925C81.722 172.414 79.2348 170.948 77.9601 170.669C74.9197 170.001 69.8002 172.577 69.4479 174.952C69.2566 176.248 68.638 176.672 66.9416 176.672C64.7964 176.672 64.7206 176.549 65.3488 174.081C67.6877 164.892 67.6048 165.088 68.693 166.176C70.0466 167.529 74.0516 167.329 74.608 165.879C75.2035 164.33 69.585 159.214 67.2357 159.168C64.6553 159.116 63.2395 161.352 61.3247 168.501C60.3561 172.119 59.244 175.078 58.8534 175.078C58.4636 175.078 58.1439 176.03 58.1439 177.194C58.1439 179.144 58.0339 179.214 56.7489 178.09C55.982 177.418 53.9731 176.38 52.2847 175.784C49.3463 174.746 49.2323 174.575 49.6118 171.748C49.8294 170.124 50.5827 167.643 51.2858 166.234C51.9889 164.825 52.5637 163.347 52.5637 162.951C52.5637 161.645 57.4998 156.056 60.4406 154.032C63.599 151.858 75.2848 147.872 76.797 148.452C77.3176 148.651 79.1623 148.518 80.8977 148.155C84.5161 147.398 90.2302 147.606 98.7999 148.808ZM77.6564 159.989C76.7125 162.963 82.7217 167.738 85.4719 166.2C87.4425 165.096 87.2058 164.362 83.8528 161.185C80.4632 157.971 78.4217 157.577 77.6564 159.989ZM91.367 160.253C91.131 160.867 91.3614 161.913 91.8796 162.576C93.5521 164.715 98.9681 167.903 100.929 167.903C103.702 167.903 104.269 165.576 101.922 163.827C100.863 163.037 99.0422 161.659 97.8768 160.763C95.4366 158.887 91.9944 158.618 91.367 160.253ZM78.4065 176.359C80.2066 177.049 80.0408 181.199 78.1738 182.199C76.6894 182.993 75.394 182.125 73.7415 179.228C72.5234 177.093 75.5192 175.251 78.4065 176.359ZM101.032 177.629C102.493 179.09 102.175 181.234 100.303 182.546C98.206 184.014 96.893 183.553 95.6957 180.924C94.9942 179.385 94.9918 178.614 95.6853 177.779C96.8141 176.419 99.7397 176.337 101.032 177.629ZM125.107 187.515C125.107 189.337 124.545 190.408 123.091 191.362C121.983 192.088 120.727 192.467 120.301 192.204C119.444 191.673 119.281 186.838 120.026 184.055C120.493 182.314 120.562 182.303 122.806 183.628C124.573 184.672 125.107 185.574 125.107 187.515ZM86.5792 184.445C85.8203 185.714 86.1862 192.21 87.0463 192.742C88.0221 193.345 90.8584 192.132 91.8126 190.702C92.8777 189.107 92.4464 187.12 90.6775 185.472C88.8886 183.805 87.2122 183.385 86.5792 184.445ZM181.157 186.86C178.531 187.271 173.734 192.976 173.734 195.687C173.734 198.854 177.818 204.25 180.637 204.808C182.113 205.101 184.129 204.652 186.423 203.52C189.203 202.149 190.175 201.112 191.039 198.595C191.641 196.841 191.93 194.588 191.682 193.588C190.828 190.155 184.785 186.292 181.157 186.86ZM185.248 194.388C186.883 196.722 186.835 196.988 184.507 198.514C182.647 199.733 182.429 199.716 180.952 198.239C179.386 196.673 179.386 196.657 181.14 194.655C183.307 192.183 183.686 192.158 185.248 194.388ZM281.379 195.473C281.809 196.606 281.925 197.951 281.636 198.462C279.347 202.511 276.494 202.699 274.545 198.932C273.005 195.953 273.063 195.543 275.175 194.497C278.399 192.9 280.528 193.235 281.379 195.473ZM214.39 198.315C214.39 199.571 213.021 199.625 210.624 198.465C206.998 196.708 207.968 194.82 211.641 196.485C213.153 197.17 214.39 197.993 214.39 198.315ZM76.0326 197.758C73.6482 201.397 76.2366 204.702 79.1726 201.766C80.3628 200.576 80.5669 200.576 81.7531 201.762C83.4327 203.442 84.6277 202.979 85.3236 200.379C86.1272 197.374 84.4826 195.305 82.2441 196.503C81.1385 197.094 80.3923 197.128 80.0679 196.604C79.2053 195.209 77.3567 195.737 76.0326 197.758ZM87.8857 197.109C87.3205 198.582 88.2995 200.474 90.2685 201.716C91.2618 202.343 91.9194 202.23 92.8848 201.264C94.0726 200.076 94.0663 199.81 92.8083 197.89C91.2738 195.548 88.6455 195.131 87.8857 197.109ZM96.1429 197.93C94.3293 199.743 97.4168 204.157 100.136 203.638C101.989 203.285 102.467 200.155 100.905 198.593C99.6712 197.359 97.0756 196.998 96.1429 197.93ZM229.129 201.085C230.221 202.752 230.322 203.567 229.624 205.099C228.868 206.758 228.284 206.99 225.355 206.786C222.197 206.565 221.957 206.385 221.873 204.166C221.755 201.041 222.211 199.957 223.825 199.53C226.727 198.761 227.816 199.08 229.129 201.085ZM162.506 206.019C161.636 208.514 159.962 209.34 158.983 207.756C158.286 206.628 161.801 201.888 162.682 202.769C163.097 203.183 163.024 204.534 162.506 206.019ZM82.9146 205.877C80.7718 208.601 80.8196 211.064 83.0557 213.117C85.4416 215.309 89.4052 216.064 92.7413 214.963C96.9927 213.56 97.2558 209.6 93.3926 205.171C92.5516 204.207 90.9995 203.776 88.3712 203.776C85.2104 203.776 84.2865 204.132 82.9146 205.877ZM275.773 206.997C275.773 208.166 278.854 208.673 280.526 207.778C281.765 207.115 282.174 207.151 282.252 207.933C282.308 208.497 282.443 209.852 282.551 210.946C282.86 214.057 282.181 214.926 279.477 214.88C272.672 214.763 245.054 215.762 243.765 216.171C242.843 216.463 242.288 216.246 242.28 215.588C242.275 215.011 242.04 213.68 241.76 212.633C241.273 210.814 241.383 210.752 244.165 211.274C248.353 212.06 268.338 208.528 272.323 206.298C273.767 205.49 275.773 205.896 275.773 206.997ZM90.6328 209.954C90.8369 210.575 90.2023 210.951 88.9484 210.951C86.8614 210.951 85.6871 209.98 86.6318 209.035C87.4704 208.196 90.2653 208.838 90.6328 209.954ZM158.588 214.195C158.588 214.709 158.019 214.688 156.994 214.139C156.117 213.67 155.399 212.928 155.399 212.489C155.399 211.976 155.969 211.997 156.994 212.545C157.871 213.015 158.588 213.757 158.588 214.195ZM133.735 219.229C134.316 219.591 135.83 219.959 137.101 220.046C140.204 220.262 140.381 220.539 140.602 225.513C140.707 227.882 141.017 230.181 141.289 230.622C141.973 231.728 137.541 234.866 135.298 234.866C134.29 234.866 132.214 235.23 130.681 235.674C127.877 236.487 117.843 237.395 111.978 237.368C110.237 237.36 108.354 237.734 107.793 238.2C106.618 239.175 106.421 242.527 107.499 243.193C108.463 243.789 109.315 249.05 109.535 255.767L109.714 261.206L107.246 261.14C102.593 261.016 92.0239 262.995 90.4295 264.291C86.584 267.415 83.8576 268.931 81.1863 269.431C78.6353 269.909 77.8772 269.608 74.2963 266.695C69.8042 263.041 69.2462 261.567 69.0381 252.802C68.8739 245.863 65.6477 238.055 62.9461 238.055C60.4501 238.055 60.2222 239.856 62.0621 245.038C64.5652 252.09 64.4735 252.339 59.4258 252.158C56.3638 252.049 54.7017 252.389 53.6463 253.338C52.8316 254.072 51.2683 254.885 50.1722 255.148C48.4064 255.569 47.9752 255.188 46.3856 251.798C43.8713 246.435 44.0658 243.115 47.1692 238.39C50.1794 233.81 58.2093 225.782 61.3478 224.216C63.2012 223.291 63.929 223.301 66.2161 224.279C74.8527 227.972 107.377 226.17 111.156 221.79C111.595 221.281 114.823 220.156 118.331 219.288C124.6 217.737 131.299 217.712 133.735 219.229ZM154.157 220.592C153.888 221.027 154.013 221.816 154.436 222.346C157.502 226.183 155.049 231.518 150.218 231.518C148.681 231.518 147.231 231.206 146.996 230.825C146.76 230.444 146.431 227.996 146.264 225.384L145.962 220.636L148.887 219.465C151.889 218.262 155.164 218.963 154.157 220.592ZM278.962 221.601C278.962 222.004 279.504 222.732 280.167 223.219C280.829 223.706 281.522 225.623 281.706 227.479C281.89 229.335 282.297 231.27 282.612 231.779C282.926 232.287 283.35 234.176 283.555 235.977C283.759 237.777 285.319 243.555 287.022 248.817C291.636 263.076 291.59 262.919 292.085 266.401C292.54 269.603 292.52 269.635 290.114 269.468C288.776 269.376 287.245 268.968 286.71 268.561C285.417 267.578 279.759 267.303 279.759 268.223C279.759 268.628 276.961 268.773 273.396 268.553C269.897 268.336 264.068 268.596 260.442 269.129C256.817 269.663 252.595 270.248 251.06 270.43C249.526 270.611 247.373 271.088 246.277 271.488C245.181 271.889 242.394 272.371 240.082 272.558C236.277 272.867 235.924 272.76 236.349 271.422C236.607 270.61 236.841 268.778 236.871 267.352C236.899 265.926 237.219 264.184 237.581 263.479C237.943 262.775 238.369 259.367 238.529 255.906C238.687 252.445 239.194 248.896 239.654 248.019C240.114 247.142 240.363 245.708 240.208 244.831C240.054 243.954 240.668 240.905 241.573 238.055C244.218 229.728 244.683 228.046 244.683 226.797C244.683 226.149 245.132 224.665 245.679 223.499C246.587 221.568 247.134 221.359 251.858 221.148C263.177 220.64 278.962 220.903 278.962 221.601ZM81.3386 245.446C77.721 246.751 76.4726 248.753 78.1985 250.479C79.242 251.523 80.1643 251.637 82.968 251.069C85.2232 250.613 87.7032 250.679 90.0309 251.259C95.7595 252.686 98.3535 252.344 98.6683 250.12C99.0382 247.505 98.2459 246.961 92.794 246.083C90.1776 245.662 87.1412 245.126 86.0451 244.893C84.949 244.659 82.8309 244.908 81.3386 245.446ZM61.976 258.387C63.4754 258.819 63.7696 259.383 63.5703 261.44C63.3415 263.798 63.0649 264.007 59.3397 264.63C57.1475 264.997 54.7838 265.592 54.0871 265.952C52.2337 266.909 50.8833 265.728 51.2922 263.507C51.4875 262.443 51.6748 261.311 51.7075 260.993C51.8064 260.026 57.6624 257.251 58.9411 257.565C59.5988 257.726 60.9643 258.096 61.976 258.387ZM116.723 270.39C118.182 272.88 118.747 275.056 118.825 278.489C118.95 284.057 117.691 286.868 113.293 290.842C110.192 293.643 110.033 293.688 102.877 293.784C95.3912 293.885 94.8315 293.615 96.4147 290.656C97.738 288.184 97.8202 283.997 96.575 282.527C95.5195 281.282 95.211 281.268 93.069 282.376C91.7768 283.044 90.2956 283.438 89.7775 283.251C89.2593 283.065 88.223 283.227 87.4744 283.611C86.5792 284.071 84.7513 283.793 82.1341 282.799C78.4599 281.402 78.0685 281.386 77.0394 282.589C75.0887 284.869 74.9484 286.471 76.4439 289.404C78.1243 292.699 78.6577 292.461 69.5117 292.502C64.8578 292.523 64.3627 292.344 61.8157 289.722C58.1479 285.944 56.0378 281.461 55.8489 277.04C55.6735 272.944 56.4826 271.883 60.2262 271.299C61.5909 271.086 63.3885 270.548 64.2208 270.103C65.7075 269.307 70.1167 269.692 70.8987 270.686C71.118 270.964 72.3321 271.987 73.5972 272.958C76.027 274.825 82.3119 275.453 83.2566 273.924C83.5284 273.484 84.5854 273.334 85.6042 273.59C86.9554 273.928 87.9774 273.493 89.3797 271.981C92.0574 269.094 99.9948 266.98 108.159 266.983L114.727 266.985L116.723 270.39ZM274.723 274.416C276.565 274.91 276.591 274.647 274.129 280.704C273.282 282.787 272.296 286.075 272.217 287.081C272.079 288.812 270.844 291.465 270.177 291.465C268.705 291.465 265.41 289.579 265.429 288.746C265.44 288.269 265.771 286.443 266.166 284.689C266.561 282.936 266.996 280.066 267.132 278.312C267.351 275.484 267.651 275.068 269.783 274.631C271.105 274.36 272.365 274.095 272.584 274.043C272.803 273.991 273.766 274.16 274.723 274.416ZM261.713 275.698C261.382 276.234 261.185 277.646 261.276 278.835C261.535 282.235 259.887 282.402 256.936 279.273C255.458 277.707 254.249 276.246 254.249 276.027C254.249 275.618 257.203 275.056 260.474 274.844C261.739 274.762 262.127 275.03 261.713 275.698Z" fill="black" stroke="black" stroke-width="0.23287"/>
</g>
<defs>
<clipPath id="clip0_706_4">
<rect width="344" height="366" fill="white"/>
</clipPath>
</defs>
</svg>
