<svg width="344" height="366" viewBox="0 0 344 366" fill="none" xmlns="http://www.w3.org/2000/svg">
<g clip-path="url(#clip0_711_2495)">
<rect width="344" height="366" fill="#7F8D99"/>
<path d="M259.339 226.962C298.395 218.793 290.919 165.597 282.853 146.273L276.585 134.648L214.233 141.854L229.291 220.022L232.574 229.552L259.339 226.962Z" fill="#8BB1E6"/>
<path d="M273.583 131.745C275.067 131.612 276.576 131.883 277.939 132.713C279.274 133.53 280.214 134.736 280.851 136.025C281.68 137.698 282.515 139.245 283.331 140.681C284.165 142.15 285.028 143.618 285.92 145.083C287.099 147.018 287.81 149.145 288.054 151.402C288.216 152.904 288.532 154.344 289.008 155.726C289.683 157.684 290.065 159.715 290.139 161.794C290.189 163.219 290.424 164.629 290.862 165.979C291.524 168.022 291.812 170.121 291.717 172.265C291.647 173.825 291.695 175.386 291.864 176.915C292.07 178.783 292.143 180.657 292.082 182.533C292.032 184.051 292.123 185.59 292.333 187.145C292.617 189.256 292.544 191.355 292.13 193.431C291.805 195.059 291.551 196.715 291.33 198.366C291.061 200.365 290.546 202.313 289.806 204.189C289.182 205.77 288.563 207.356 287.985 208.957C287.237 211.028 286.11 212.905 284.618 214.533C283.68 215.558 282.899 216.715 282.288 218.024C281.196 220.365 279.448 222.161 277.128 223.294C275.571 224.052 274.064 224.826 272.645 225.62C271.071 226.501 269.461 227.313 267.819 228.035C266.269 228.718 264.694 229.406 263.092 230.088C262.305 230.423 261.722 230.669 261.35 230.835C261.211 230.896 261.096 230.92 261.036 230.948C260.995 230.972 260.984 231.026 260.964 231.037C260.792 231.129 260.635 231.187 260.575 231.212C260.425 231.274 260.248 231.344 260.105 231.395C259.804 231.502 259.389 231.65 258.874 231.818C257.417 232.294 255.679 232.502 253.798 232.578C251.964 232.652 250.11 232.638 248.262 232.543C246.829 232.471 245.406 232.588 244.013 232.893C241.924 233.349 239.805 233.436 237.667 233.158C235.862 232.921 234.21 232.68 232.763 232.408C229.815 231.849 228.065 229.686 227.295 227.16C226.732 225.309 226.343 223.405 226.121 221.475C225.94 219.892 225.666 218.323 225.292 216.786C224.859 215.008 224.504 213.198 224.229 211.389C223.993 209.833 223.658 208.29 223.218 206.773C222.661 204.851 222.315 202.886 222.213 200.881C222.146 199.552 221.861 198.267 221.332 197.011C220.551 195.161 219.973 193.249 219.613 191.301C219.256 189.363 219.1 187.38 219.148 185.382C219.184 183.846 219.06 182.351 218.8 180.888C218.526 179.343 218.168 177.791 217.682 176.283C217.139 174.596 216.622 172.904 216.136 171.206C215.596 169.317 215.24 167.388 215.088 165.427C214.957 163.716 214.813 161.996 214.648 160.292C214.504 158.796 214.205 157.32 213.767 155.88C213.235 154.134 212.779 152.37 212.389 150.596C211.995 148.8 211.713 147.126 211.582 145.579L211.577 144.468C211.684 143.337 212.134 142.18 213.065 141.225C214.187 140.079 215.643 139.622 216.869 139.428C218.636 139.152 220.417 138.909 222.195 138.725C223.909 138.548 225.635 138.384 227.349 138.202C229.16 138.01 230.989 137.876 232.817 137.837C234.202 137.806 235.57 137.59 236.923 137.148C238.738 136.557 240.569 136.071 242.42 135.723C244.386 135.353 246.387 135.214 248.398 135.306C249.697 135.364 250.963 135.188 252.22 134.755C254.503 133.965 256.88 133.83 259.256 134.339C260.547 134.617 261.762 134.608 262.915 134.32C264.528 133.917 266.135 133.45 267.737 132.935C269.651 132.32 271.604 131.923 273.583 131.745ZM261.718 230.445C261.76 230.404 261.823 230.369 261.868 230.321C261.896 230.291 261.925 230.248 261.964 230.203C261.881 230.301 261.791 230.374 261.718 230.445ZM262.478 229.391C262.398 229.57 262.298 229.708 262.224 229.824C262.263 229.763 262.33 229.716 262.369 229.646C262.404 229.583 262.435 229.488 262.478 229.391ZM262.754 228.436C262.712 228.673 262.649 228.889 262.583 229.082C262.646 228.896 262.711 228.68 262.754 228.436ZM256.567 225.923C256.539 225.96 256.511 226.011 256.473 226.069C256.57 225.922 256.66 225.804 256.736 225.716C256.682 225.779 256.622 225.849 256.567 225.923ZM273.651 138.681C272.374 138.829 271.099 139.098 269.841 139.502C268.1 140.061 266.355 140.572 264.598 141.01C262.376 141.565 260.097 141.587 257.827 141.101C256.642 140.846 255.538 140.913 254.482 141.278C252.404 141.996 250.254 142.3 248.067 142.2C246.589 142.134 245.136 142.239 243.705 142.508C242.153 142.8 240.59 143.211 239.054 143.712C237.066 144.359 235.022 144.694 232.948 144.739C231.314 144.774 229.69 144.899 228.073 145.071C226.357 145.253 224.636 145.417 222.919 145.594C221.492 145.742 220.055 145.926 218.635 146.138C218.754 147.036 218.89 148.036 219.128 149.125C219.479 150.721 219.891 152.308 220.371 153.88C220.942 155.757 221.334 157.67 221.523 159.621C221.692 161.37 221.841 163.136 221.977 164.891C222.092 166.391 222.365 167.869 222.778 169.311C223.243 170.938 223.728 172.562 224.248 174.179C224.828 175.978 225.288 177.803 225.618 179.654C225.961 181.584 226.101 183.559 226.053 185.549C226.017 187.083 226.132 188.583 226.401 190.042C226.668 191.488 227.111 192.904 227.702 194.304C228.543 196.296 229.012 198.384 229.12 200.533C229.195 202.007 229.423 203.448 229.83 204.854C230.356 206.665 230.786 208.51 231.068 210.369C231.312 211.974 231.604 213.58 231.988 215.157C232.43 216.971 232.768 218.807 232.982 220.67C233.156 222.189 233.456 223.684 233.896 225.133C233.97 225.375 234.06 225.521 234.106 225.6C235.386 225.84 236.86 226.095 238.545 226.316C239.912 226.495 241.243 226.437 242.542 226.154C244.54 225.717 246.574 225.541 248.62 225.645C250.259 225.73 251.911 225.754 253.533 225.689C255.089 225.626 256.11 225.453 256.716 225.257C257.22 225.093 257.577 224.953 257.789 224.877L257.787 224.85C257.856 224.814 257.926 224.799 257.969 224.778C258.12 224.704 258.334 224.622 258.541 224.53C258.965 224.341 259.591 224.085 260.387 223.746C261.964 223.074 263.513 222.399 265.036 221.728C266.474 221.095 267.884 220.364 269.267 219.59C270.804 218.729 272.42 217.905 274.085 217.094C274.985 216.656 275.602 216.016 276.025 215.107C276.928 213.172 278.108 211.427 279.534 209.869C280.414 208.909 281.076 207.835 281.511 206.631C282.113 204.962 282.713 203.291 283.364 201.643C283.9 200.285 284.288 198.881 284.482 197.434C284.723 195.642 284.996 193.854 285.35 192.085C285.613 190.765 285.668 189.425 285.483 188.058C285.224 186.134 285.136 184.218 285.198 182.31C285.249 180.76 285.168 179.21 284.998 177.666C284.789 175.779 284.74 173.874 284.825 171.961C284.884 170.645 284.705 169.368 284.299 168.11C283.663 166.151 283.297 164.123 283.224 162.063C283.175 160.658 282.935 159.294 282.485 157.988C281.836 156.107 281.405 154.158 281.187 152.154C281.052 150.9 280.666 149.751 280.022 148.692C279.093 147.168 278.176 145.644 277.306 144.114C276.417 142.548 275.533 140.849 274.652 139.068L274.361 138.609L273.651 138.681ZM262.755 228.427C262.775 228.311 262.793 228.188 262.799 228.059C262.793 228.187 262.776 228.31 262.755 228.427Z" fill="black"/>
<path d="M216.167 175.228L203.216 169.185L205.806 159.687L203.216 142.42L191.129 130.332L177.314 132.059L167.817 126.015L162.637 117.381V103.567L171.271 95.7966L180.768 92.343L185.085 79.3922L199.762 64.7146L229.118 58.6709H253.292L281.784 66.4414L296.462 89.7529L311.139 99.2501L317.183 113.928L311.139 126.015L296.462 132.059L292.145 154.507L277.467 169.185L255.883 177.818L216.167 175.228Z" fill="white"/>
<path fill-rule="evenodd" clip-rule="evenodd" d="M220.649 55.0535C209.926 56.3607 194.048 62.931 187.958 68.5828C183.798 72.4421 178.623 82.1518 178.623 86.0957C178.623 88.1299 176.544 89.6218 172.206 90.7045C162.431 93.141 157.303 101.697 158.489 113.589C159.663 125.356 163.117 130.51 171.51 133.024C177.48 134.813 178.321 135.753 179.091 141.486C181.018 155.861 190.928 169.074 204.77 175.728C220 183.047 247.685 184.249 266.34 178.397C282.356 173.372 299.345 153.418 299.459 139.495C299.489 135.863 300.523 134.658 304.329 133.822C311.36 132.278 317.884 125.442 319.245 118.191C321.709 105.047 315.47 92.326 305.653 90.4835C301.188 89.646 299.642 88.3492 298.886 84.8076C296.327 72.8306 284.616 62.3508 268.633 57.7404C258.283 54.753 234.18 53.4044 220.649 55.0535ZM266.972 64.6647C277.766 67.7816 283.485 71.7687 288.45 79.6324C292.369 85.8402 292.589 87.6464 292.573 113.422C292.558 138.383 292.217 141.382 288.487 149.391C280.47 166.608 265.174 174.325 239.06 174.325C219.523 174.325 211.228 171.898 199.997 162.894C188.12 153.374 185.482 145.326 184.814 116.606C184.035 83.0445 187.001 75.331 203.817 67.191C217.748 60.4462 248.155 59.2306 266.972 64.6647ZM176.896 112.206V127.79L171.935 125.226C164.108 121.177 162.298 108.912 168.388 101.171C175.087 92.654 176.896 95.0025 176.896 112.206ZM307.548 99.1692C312.058 102.327 313.949 111.543 311.517 118.518C309.527 124.23 302.051 129.063 300.81 125.44C299.72 122.267 301.452 96.6204 302.756 96.6204C303.39 96.6204 305.546 97.767 307.548 99.1692Z" fill="black"/>
<path fill-rule="evenodd" clip-rule="evenodd" d="M209.447 94.1841C204.223 98.2921 203.318 104.419 207.934 104.419C209.606 104.419 211.992 102.789 213.235 100.796C215.09 97.8259 216.566 97.3735 221.422 98.2835C226.045 99.1503 227.345 98.8222 227.345 96.7864C227.345 93.7835 222.196 90.6045 217.331 90.6045C215.497 90.6045 211.949 92.2156 209.447 94.1841ZM253.678 91.7476C252.492 92.2277 251.52 94.1444 251.52 96.0076C251.52 98.9206 252.336 99.2418 257.358 98.299C262.153 97.3994 263.676 97.8898 265.881 101.038C267.535 103.402 269.604 104.476 271.267 103.837C274.987 102.409 274.672 100.827 269.582 95.3359C265.41 90.8376 259.332 89.4666 253.678 91.7476ZM217.613 112.177C217.015 113.736 217.354 115.84 218.366 116.851C220.997 119.483 225.981 117.078 225.293 113.51C224.528 109.535 218.996 108.575 217.613 112.177ZM253.246 112.951C253.246 117.304 256.208 119.065 259.262 116.529C262.407 113.919 260.694 109.599 256.515 109.599C254.431 109.599 253.246 110.813 253.246 112.951Z" fill="black"/>
<path d="M109.972 148.477H143.644L165.229 150.203L204.944 161.427L223.939 177.832L247.25 220.138V250.356L236.026 283.165L212.715 308.203L174.726 325.471L114.289 328.061L91.8406 322.881L58.1684 308.203L41.7641 285.755L28.8132 262.444L22.7695 236.542L30.54 207.187L41.7641 183.875L58.1684 166.608L85.7969 154.52L109.972 148.477Z" fill="#F4FFA3"/>
<path d="M157.768 144.532C162.363 144.173 166.939 144.478 171.444 145.43C175.552 146.31 179.696 147.118 183.859 147.836C188.417 148.626 192.777 150.063 196.922 152.11C200.976 154.104 204.778 156.475 208.309 159.222C211.715 161.862 215.012 164.61 218.219 167.412C221.462 170.267 224.543 173.266 227.462 176.445C230.399 179.642 233.102 183.054 235.589 186.61C238.111 190.22 240.309 194.027 242.183 198.032C244.003 201.947 245.607 205.988 246.994 210.083C248.417 214.285 249.444 218.559 250.057 222.959C250.652 227.198 251.12 231.472 251.426 235.764C251.751 240.272 251.517 244.762 250.724 249.216C249.967 253.436 249.12 257.656 248.165 261.823C247.174 266.133 245.805 270.354 244.093 274.466C242.363 278.597 240.237 282.53 237.715 286.229C235.192 289.911 232.363 293.305 229.228 296.448C226.273 299.411 223.354 302.411 220.453 305.428C217.354 308.642 213.931 311.516 210.219 314.03C206.561 316.491 202.705 318.646 198.705 320.513C194.832 322.309 190.868 324.033 186.868 325.65C182.633 327.374 178.255 328.559 173.714 329.17C169.336 329.762 164.921 330.068 160.507 330.068C156.309 330.068 152.129 330.158 147.948 330.337C143.642 330.517 139.318 330.553 135.011 330.427C130.867 330.301 126.741 330.319 122.597 330.481C118.273 330.66 113.93 330.678 109.57 330.535C105.101 330.391 100.687 329.87 96.3085 328.99C91.876 328.11 87.5877 326.799 83.4255 325.075C79.4976 323.459 75.5696 321.842 71.6237 320.226C67.4254 318.502 63.4615 316.347 59.7317 313.743C56.02 311.157 52.5965 308.247 49.4794 304.997C46.3623 301.746 43.5875 298.208 41.2091 294.419C39.0289 290.953 36.6685 287.576 34.128 284.344C31.2451 280.662 29.0469 276.621 27.5694 272.203C26.218 268.181 24.8847 264.158 23.5693 260.117C22.182 255.861 21.227 251.496 20.6864 247.043C20.1459 242.589 20.0378 238.117 20.3621 233.645C20.6864 229.209 21.3531 224.845 22.3802 220.535C23.3892 216.261 24.7225 212.076 26.3441 208.017C27.9297 204.012 29.7315 200.079 31.7135 196.272C33.6054 192.626 35.4253 188.891 37.191 185.066C39.155 180.809 41.8217 177.002 45.083 173.643C48.2181 170.429 51.5695 167.519 55.1911 164.897C58.7948 162.293 62.5966 159.995 66.5606 158.037C70.4345 156.115 74.3804 154.373 78.3624 152.811C82.2543 151.284 86.1643 149.758 90.1102 148.213C94.3625 146.561 98.7589 145.484 103.281 144.963C107.372 144.478 110.543 144.226 112.255 144.406C113.318 144.514 115.894 144.298 120.146 144.478C124.381 144.657 128.741 144.029 132.975 144.226C137.083 144.424 141.174 144.388 145.282 144.173C149.48 143.957 153.57 144.855 157.786 144.514L157.768 144.532ZM111.426 151.823C110.723 151.751 108.453 151.877 104.146 152.38C100.236 152.829 96.4526 153.781 92.813 155.199C88.867 156.726 84.939 158.27 81.0652 159.797C77.2813 161.288 73.5516 162.922 69.8759 164.736C66.2903 166.514 62.8308 168.579 59.5515 170.95C56.2722 173.302 53.2272 175.942 50.3983 178.852C47.7136 181.599 45.5695 184.742 43.9659 188.226C42.146 192.159 40.2541 195.985 38.3082 199.738C36.4523 203.312 34.7586 206.994 33.2631 210.783C31.7856 214.519 30.5604 218.344 29.6234 222.295C28.6865 226.21 28.0919 230.197 27.7856 234.238C27.4973 238.225 27.5874 242.212 28.0739 246.181C28.5604 250.167 29.4252 254.065 30.6685 257.854C31.9838 261.859 33.2811 265.882 34.6325 269.887C35.8397 273.496 37.6415 276.819 40.0019 279.818C42.6866 283.248 45.2091 286.822 47.5154 290.504C49.6416 293.862 52.092 297.005 54.8668 299.878C57.6416 302.77 60.6867 305.356 63.984 307.673C67.2633 309.954 70.7588 311.857 74.4525 313.366C78.3985 314.982 82.3444 316.616 86.2904 318.251C90.0021 319.777 93.822 320.945 97.7679 321.735C101.75 322.525 105.786 322.992 109.84 323.136C114.002 323.279 118.146 323.243 122.291 323.082C126.615 322.902 130.939 322.884 135.264 323.028C139.408 323.153 143.552 323.118 147.678 322.938C151.948 322.758 156.237 322.687 160.525 322.669C164.597 322.669 168.669 322.363 172.741 321.825C176.651 321.304 180.435 320.28 184.075 318.807C187.949 317.227 191.786 315.557 195.552 313.815C199.192 312.127 202.687 310.169 206.021 307.924C209.3 305.715 212.327 303.183 215.048 300.345C217.985 297.31 220.922 294.275 223.913 291.276C226.724 288.456 229.246 285.367 231.516 282.063C233.769 278.776 235.661 275.31 237.192 271.629C238.742 267.929 239.967 264.104 240.868 260.207C241.805 256.148 242.652 252.071 243.372 247.976C244.057 244.115 244.237 240.236 243.949 236.321C243.643 232.19 243.246 228.078 242.67 224.001C242.111 220.086 241.21 216.243 239.931 212.489C238.616 208.646 237.12 204.874 235.408 201.193C233.733 197.583 231.733 194.135 229.462 190.884C227.156 187.58 224.652 184.455 221.949 181.51C219.21 178.528 216.327 175.691 213.3 173.033C210.219 170.321 207.03 167.681 203.732 165.131C200.579 162.688 197.192 160.569 193.588 158.791C190.093 157.067 186.417 155.864 182.579 155.181C178.327 154.445 174.093 153.637 169.894 152.739C166.093 151.931 162.237 151.679 158.345 151.985C154.075 152.326 149.93 151.428 145.678 151.644C141.318 151.877 136.975 151.895 132.615 151.697C128.399 151.5 124.038 152.128 119.822 151.949C115.642 151.787 112.777 151.967 111.426 151.823Z" fill="black"/>
<path fill-rule="evenodd" clip-rule="evenodd" d="M284.38 129.744C272.378 144.525 271.678 144.75 262.103 136.858C257.097 132.731 244.893 131.191 242.889 134.434C242.289 135.405 239.759 135.42 236.457 134.474C230.182 132.673 224.259 133.745 216.908 138.014C210.117 141.956 198.777 140.833 198.777 136.218C198.777 134.486 196.344 131.338 193.369 129.219C185.555 123.656 182.827 126.166 180.294 141.255C178.401 152.526 178.519 154.297 181.598 160.937C187.275 173.181 191.129 178.57 194.6 179.116C198.843 179.783 205.757 182.975 209.354 185.932C210.897 187.199 212.84 188.038 213.671 187.797C214.501 187.555 216.874 188.297 218.943 189.446C221.009 190.594 223.933 191.06 225.439 190.483C226.944 189.905 229.137 190.218 230.313 191.176C233.042 193.405 252.036 190.558 255.719 187.368C257.166 186.115 259.28 185.426 260.415 185.838C261.549 186.251 264.269 185.607 266.458 184.407C268.648 183.205 272.082 182.419 274.092 182.661C276.318 182.927 279.395 181.207 281.97 178.256C284.294 175.593 287.701 172.561 289.54 171.518C294.694 168.6 297.39 157.929 296.836 142.636C296.411 130.879 295.817 128.58 292.667 126.494C289.29 124.258 288.623 124.519 284.38 129.744ZM248.854 150.398C248.854 155.981 243.889 160.463 237.707 160.463C231.272 160.463 228.132 157.803 228.132 152.348C228.132 149.528 229.134 148.376 231.586 148.376C233.485 148.376 235.04 149.153 235.04 150.103C235.04 152.826 240.218 152.115 241.322 149.239C242.91 145.102 248.854 146.017 248.854 150.398Z" fill="black"/>
<path d="M165.321 146.869L172.228 136.509L177.408 130.465H192.949L202.446 141.689L207.627 154.64L200.719 169.317L186.905 174.498L172.228 172.771L167.911 165.864L163.594 154.64L165.321 146.869Z" fill="white"/>
<path d="M186.748 125.296L188.872 125.606L190.962 125.917C192.999 126.211 194.916 126.971 196.626 128.11L198.387 129.284L200.183 130.459C201.823 131.546 203.222 132.928 204.293 134.568L205.398 136.295L206.537 138.022C207.47 139.438 208.23 140.94 208.834 142.511L209.576 144.428L210.284 146.345C210.561 147.07 210.82 147.795 210.992 148.469C211.148 149.073 211.303 149.937 211.234 150.869L211.165 151.681L211.131 152.458C211.079 153.079 210.941 154.081 210.785 155.428L210.578 157.483L210.336 159.503C210.094 161.558 209.369 163.457 208.212 165.167L207.073 166.859L205.933 168.586C204.811 170.244 203.343 171.573 201.616 172.557L199.889 173.576L198.128 174.56C196.867 175.286 195.59 175.942 194.277 176.546L192.464 177.392L190.668 178.204C188.838 179.05 186.887 179.43 184.866 179.344L182.846 179.24L180.86 179.171C179.151 179.102 177.424 178.826 175.766 178.325L171.795 177.116C169.515 176.425 167.633 175.044 166.303 173.075L163.938 169.639C163.074 168.361 162.297 167.032 161.607 165.685L160.691 163.889L159.776 162.128C159.034 160.66 158.464 159.106 158.015 157.465L157.48 155.411L156.944 153.39C156.323 151.059 156.53 148.693 157.549 146.518L158.429 144.601L159.345 142.684C160.122 141.026 161.089 139.524 162.315 138.195L163.661 136.71L165.043 135.225C166.062 134.102 167.15 133.049 168.307 132.047L169.895 130.7L171.449 129.388C173.003 128.058 174.816 127.126 176.82 126.625L178.84 126.124L180.895 125.624C182.811 125.14 184.763 125.037 186.731 125.313L186.748 125.296ZM183.019 133.964L180.998 134.465L178.943 134.965C178.201 135.155 177.614 135.466 177.096 135.915L175.542 137.262L173.988 138.574C173.072 139.351 172.209 140.18 171.432 141.044L168.738 144.014C168.151 144.653 167.633 145.412 167.219 146.31L166.303 148.227L165.423 150.144C165.25 150.506 165.216 150.783 165.319 151.163L165.855 153.183L166.39 155.238C166.683 156.326 167.046 157.31 167.495 158.208L168.41 159.969L169.325 161.765C169.843 162.767 170.43 163.768 171.121 164.77L172.295 166.531L173.435 168.258C173.66 168.586 173.901 168.758 174.281 168.862L176.267 169.466L178.287 170.036C179.289 170.33 180.256 170.503 181.223 170.537L183.243 170.641L185.263 170.71C185.937 170.744 186.524 170.623 187.077 170.364L188.872 169.518L190.668 168.707C191.756 168.206 192.827 167.653 193.88 167.049L195.607 166.03L197.368 165.046C197.938 164.718 198.404 164.269 198.819 163.665L199.958 161.972L201.133 160.28C201.512 159.727 201.702 159.14 201.771 158.484L202.013 156.464L202.255 154.409C202.41 153.062 202.497 152.199 202.531 151.784L202.6 151.007L202.635 150.506C202.583 150.282 202.462 149.902 202.272 149.367L201.53 147.485L200.822 145.568C200.459 144.601 199.958 143.651 199.371 142.771L198.266 141.044L197.126 139.317C196.695 138.661 196.125 138.108 195.4 137.625L191.894 135.259C191.255 134.827 190.547 134.568 189.77 134.447L187.646 134.137L185.557 133.791C184.694 133.67 183.865 133.722 183.053 133.929L183.019 133.964Z" fill="black"/>
<path d="M222.211 190.785V182.151L227.391 175.244L236.889 171.79H250.703L264.517 182.151L267.107 195.965L260.2 208.052L244.659 216.686L229.981 210.642L222.211 202.009V190.785Z" fill="white"/>
<path d="M244.513 166.663H246.775C247.828 166.663 248.864 166.836 249.883 167.129L252.111 167.768L254.304 168.407C255.374 168.718 256.393 169.201 257.308 169.823L261.159 172.448C262.074 173.069 262.903 173.777 263.594 174.641L265.044 176.488L266.529 178.302C266.978 178.854 267.324 179.476 267.6 180.115L268.17 182.17L268.515 184.466L268.86 186.797C268.947 187.436 269.016 187.972 269.102 188.421L269.413 190.147L269.586 191.218C269.845 191.684 269.983 192.081 270.017 192.237C270.121 192.651 270.138 193.031 270.156 193.117C270.156 193.376 270.156 193.618 270.156 193.722C270.156 193.998 270.121 194.326 270.086 194.671L269.689 199.196C269.586 200.404 269.24 201.596 268.67 202.666L266.581 206.707C266.046 207.743 265.338 208.658 264.457 209.435L262.765 210.92L261.073 212.44C260.537 212.923 259.985 213.372 259.415 213.821L255.91 216.584C254.977 217.327 253.907 217.862 252.767 218.207L250.608 218.812L248.415 219.451C247.535 219.71 246.637 219.9 245.722 219.986L243.39 220.193L241.094 220.4C239.626 220.539 238.193 220.262 236.881 219.589L232.771 217.499C232.08 217.137 231.407 216.757 230.75 216.36L228.868 215.186L226.952 214.011C226.209 213.545 225.518 213.01 224.862 212.423L223.101 210.903L221.34 209.349C220.217 208.365 219.388 207.104 218.974 205.671L217.696 201.216C217.42 200.249 217.264 199.247 217.23 198.246L217.126 196.018L217.057 193.756C217.023 192.979 217.023 192.202 217.057 191.425L217.161 189.128L217.264 186.866C217.316 185.675 217.627 184.518 218.11 183.43L219.993 179.182C220.442 178.163 221.063 177.214 221.806 176.385L223.36 174.624L224.949 172.897C225.743 172.016 226.675 171.291 227.711 170.738L229.801 169.668L231.856 168.597C232.857 168.079 233.91 167.699 235.033 167.527L237.295 167.181L239.592 166.819C240.472 166.68 241.37 166.611 242.251 166.611L244.547 166.646L244.513 166.663ZM240.904 175.366L238.642 175.711L236.38 176.074C236.19 176.109 236 176.178 235.81 176.281L231.7 178.44C231.562 178.509 231.441 178.595 231.338 178.716L229.749 180.477L228.195 182.204C228.039 182.36 227.936 182.549 227.85 182.739L225.967 186.987C225.916 187.108 225.864 187.212 225.864 187.333L225.76 189.595L225.656 191.891C225.639 192.427 225.639 192.962 225.656 193.48L225.726 195.708L225.829 197.97C225.829 198.263 225.881 198.557 225.967 198.885L226.606 201.112L227.142 203.064L228.73 204.445L230.491 205.965C230.82 206.258 231.165 206.534 231.51 206.742L233.392 207.916L235.309 209.09C235.741 209.349 236.19 209.625 236.656 209.867L238.711 210.92L240.507 211.836L242.596 211.663L244.893 211.456C245.29 211.421 245.653 211.318 245.998 211.214L248.156 210.61L250.315 209.971C250.401 209.936 250.488 209.919 250.557 209.867L252.318 208.486L254.045 207.104C254.476 206.759 254.908 206.396 255.323 206.034L258.69 203.064C258.69 203.064 258.828 202.908 258.897 202.787L260.986 198.747C260.986 198.747 261.038 198.591 261.055 198.505L261.263 196.243L261.401 194.516C261.349 194.361 261.314 194.222 261.297 194.153C261.245 193.894 261.211 193.601 261.159 193.342L260.848 191.615L260.572 189.888C260.486 189.353 260.399 188.749 260.296 188.075L259.95 185.744L259.605 183.586L258.293 181.928L256.808 180.115C256.652 179.925 256.497 179.769 256.307 179.648L254.39 178.336L252.439 177.024C252.249 176.903 252.059 176.817 251.869 176.748L249.676 176.109L247.448 175.435C247.189 175.366 246.948 175.332 246.706 175.332H244.409L242.147 175.297C241.733 175.297 241.318 175.332 240.904 175.401V175.366ZM264.319 197.348C264.474 197.4 264.647 197.434 264.82 197.486C264.63 197.452 264.474 197.4 264.319 197.348Z" fill="black"/>
<path fill-rule="evenodd" clip-rule="evenodd" d="M217.567 40.6762C189.36 45.784 178.281 58.1978 175.981 87.2802C175.175 97.4612 175.503 99.8062 178.029 101.902C180.705 104.123 181.394 103.956 184.292 100.378C186.083 98.1657 187.547 94.916 187.547 93.1546C187.547 86.0524 201.283 74.6764 213.065 72.0224C216.776 71.1866 216.702 71.4732 211.77 77.0904C205.856 83.8249 205.53 85.1165 209.009 88.0037C210.929 89.5975 213.243 89.4524 219.43 87.3527C223.804 85.8677 228.242 84.652 229.29 84.652C230.34 84.652 234.95 82.3433 239.538 79.52L247.879 74.388L246.851 79.52C245.971 83.9268 246.345 84.652 249.504 84.652C251.526 84.652 257.169 82.7284 262.044 80.3765L270.905 76.1027L277.992 81.6716C281.891 84.7349 286.788 89.1848 288.876 91.5591C297.299 101.141 302.574 86.5048 298.071 66.0425C294.056 47.7974 278.581 39.521 247.2 38.832C237.66 38.6231 224.324 39.4536 217.567 40.6762Z" fill="black"/>
<path d="M66.6004 227.041C66.6004 223.381 67.4166 220.24 69.0488 217.618C70.6811 214.997 72.9564 213.018 75.8747 211.683C78.793 210.298 82.1565 209.605 85.9652 209.605C89.5265 209.605 92.6921 210.298 95.4621 211.683C98.2815 213.018 100.507 214.997 102.14 217.618C103.772 220.24 104.588 223.381 104.588 227.041C104.588 230.652 103.772 233.768 102.14 236.389C100.507 238.961 98.2815 240.94 95.4621 242.325C92.6427 243.66 89.477 244.328 85.9652 244.328C82.4038 244.328 79.1393 243.66 76.1715 242.325C73.2532 240.94 70.9284 238.961 69.1972 236.389C67.466 233.768 66.6004 230.652 66.6004 227.041ZM75.8747 227.041C75.8747 229.712 76.7898 231.938 78.6199 233.718C80.4501 235.449 82.8985 236.315 85.9652 236.315C88.6856 236.315 90.9115 235.425 92.6427 233.644C94.4233 231.863 95.3137 229.662 95.3137 227.041C95.3137 224.37 94.4233 222.144 92.6427 220.363C90.862 218.533 88.6362 217.618 85.9652 217.618C82.8985 217.618 80.4501 218.508 78.6199 220.289C76.7898 222.07 75.8747 224.32 75.8747 227.041ZM77.7296 250.412H87.0039V264.583H122.766V272.596H77.7296V250.412ZM111.34 205.302H120.614V222.886H129.517V230.899H120.614V251.822H111.34V205.302ZM151.176 208.715V234.534C155.677 234.584 160.253 234.435 164.902 234.089C169.552 233.743 173.608 233.273 177.07 232.68L178.554 239.802C169.898 241.781 160.624 242.77 150.731 242.77H141.902V208.715H151.176ZM151.028 259.835C151.028 257.015 151.894 254.542 153.625 252.415C155.405 250.288 158.027 248.656 161.489 247.518C164.952 246.331 169.131 245.738 174.028 245.738C181.448 245.738 187.111 247.024 191.019 249.596C194.976 252.119 196.954 255.531 196.954 259.835C196.954 264.187 194.976 267.625 191.019 270.148C187.111 272.67 181.448 273.932 174.028 273.932C166.658 273.932 160.97 272.646 156.963 270.074C153.006 267.551 151.028 264.138 151.028 259.835ZM160.599 259.835C160.599 261.615 161.737 263.124 164.012 264.361C166.287 265.597 169.626 266.215 174.028 266.215C178.43 266.215 181.744 265.622 183.97 264.435C186.246 263.198 187.383 261.665 187.383 259.835C187.383 257.955 186.246 256.422 183.97 255.235C181.744 254.048 178.43 253.454 174.028 253.454C169.577 253.454 166.213 254.048 163.938 255.235C161.712 256.422 160.599 257.955 160.599 259.835ZM171.506 223.776H187.012V218.879H171.506V211.757H187.012V205.376H196.287V242.993H187.012V230.825H171.506V223.776Z" fill="black"/>
</g>
<defs>
<clipPath id="clip0_711_2495">
<rect width="344" height="366" fill="white"/>
</clipPath>
</defs>
</svg>
