<svg width="344" height="366" viewBox="0 0 344 366" fill="none" xmlns="http://www.w3.org/2000/svg">
<rect width="344" height="366" fill="#5DF678"/>
<path d="M132.259 85.8186L148.399 79.5417L156.47 76.8516H183.968L206.087 81.9329L224.619 93.59L234.782 119.893H247.036L258.694 131.251V149.484L253.313 157.555L265.269 160.544L273.041 171.304V185.352L266.465 196.113L249.727 201.792L226.711 218.53L211.766 228.992L206.087 266.056H215.054L249.727 255.295L261.982 252.904L274.834 259.779L279.617 274.425L269.155 289.071L249.727 295.049L215.054 307.005L147.503 310.592L105.059 299.831L91.0104 291.462L70.3863 288.772L64.1094 275.023L65.9028 263.963L75.1687 255.594L85.6302 253.203L100.276 261.273L134.949 266.056V257.985L132.259 235.867L126.58 225.405L112.83 218.53L92.8038 200.297L79.3533 197.308L68.8918 185.95V171.603L77.261 161.44L88.0214 156.658L83.8368 144.702L85.6302 130.953L95.7928 121.986H105.059L112.83 103.753L132.259 85.8186Z" fill="#E4F9FF"/>
<path fill-rule="evenodd" clip-rule="evenodd" d="M136.29 101.435C133.636 102.778 131.465 105.154 131.465 106.715C131.465 108.974 134.586 109.553 146.746 109.553C162.764 109.553 166.053 107.742 160.365 102.056C156.603 98.2942 143.183 97.9487 136.29 101.435ZM181.705 101.552C179.736 102.992 178.591 105.38 179.159 106.86C180.697 110.867 210.601 110.728 210.601 106.715C210.601 99.9676 189.118 96.1305 181.705 101.552ZM144.08 121.049C141.187 124.536 143.046 127.889 147.871 127.889C149.869 127.889 152.063 126.982 152.749 125.874C154.028 123.803 150.473 118.238 147.871 118.238C147.07 118.238 145.364 119.503 144.08 121.049ZM190.535 120.004C186.769 122.388 189.373 127.889 194.268 127.889C197.333 127.889 198.173 126.866 197.708 123.697C196.999 118.883 194.413 117.553 190.535 120.004Z" fill="#8454F9"/>
<path d="M150.885 223.812C152.078 223.418 153.292 223.5 154.353 223.963L155.378 224.566L156.253 225.26C156.326 225.325 156.655 225.633 156.946 226.044C157.038 226.174 157.224 226.405 157.369 226.738C157.491 227.02 157.758 227.778 157.64 228.759C157.49 229.997 156.762 231.057 155.71 231.654C155.324 231.871 154.943 232.007 154.624 232.076C154.582 232.089 154.523 232.11 154.443 232.136C154.146 232.234 153.676 232.399 153.056 232.619C152.655 232.761 152.125 232.93 151.578 233.011C151.306 233.051 150.875 233.095 150.372 233.041C149.896 232.989 148.944 232.784 148.08 232.016C147.084 231.127 146.747 229.955 146.753 229C146.759 228.185 147.002 227.563 147.145 227.251C147.435 226.615 147.829 226.098 148.08 225.803L149.196 224.717C149.661 224.355 150.226 224.031 150.885 223.812ZM151.397 225.411C150.662 226.025 150.102 226.833 149.98 227.824C149.863 228.798 150.164 229.543 150.281 229.814C150.424 230.144 150.562 230.393 150.643 230.508C150.72 230.616 150.794 230.709 150.854 230.779C151.116 230.955 151.48 231.151 151.94 231.232C152.462 231.32 152.932 231.26 153.297 231.141C153.628 231.032 153.858 230.891 153.961 230.809C154.006 230.742 154.096 230.614 154.172 230.447C154.255 230.264 154.467 229.76 154.473 229.06C154.478 228.2 154.144 227.089 153.207 226.255C152.529 225.654 151.813 225.481 151.397 225.411ZM154.564 232.076H154.624L154.685 232.046C154.663 232.052 154.622 232.057 154.564 232.076ZM153.81 224.446C153.648 224.446 153.327 224.475 152.935 224.566C152.987 224.555 153.045 224.518 153.116 224.506C153.197 224.492 153.481 224.446 153.81 224.446Z" fill="#8454F9"/>
<path d="M148.834 227.339L151.729 224.443L154.624 225.408L155.59 228.304V231.199L150.764 232.164L149.799 230.234L148.834 227.339Z" fill="#8454F9"/>
<path d="M187.554 223.812C188.748 223.418 189.962 223.5 191.023 223.963L192.048 224.566L192.923 225.26C192.996 225.325 193.325 225.633 193.616 226.044C193.708 226.174 193.894 226.405 194.039 226.738C194.161 227.02 194.428 227.778 194.31 228.759C194.16 229.997 193.432 231.057 192.38 231.654C191.994 231.871 191.613 232.007 191.294 232.076C191.252 232.089 191.193 232.11 191.113 232.136C190.816 232.234 190.346 232.399 189.726 232.619C189.325 232.761 188.795 232.93 188.248 233.011C187.976 233.051 187.545 233.095 187.042 233.041C186.565 232.989 185.614 232.784 184.75 232.016C183.754 231.127 183.417 229.955 183.423 229C183.429 228.185 183.672 227.563 183.815 227.251C184.105 226.615 184.499 226.098 184.75 225.803L185.866 224.717C186.331 224.355 186.896 224.031 187.554 223.812ZM188.067 225.411C187.332 226.025 186.772 226.833 186.65 227.824C186.533 228.798 186.834 229.543 186.951 229.814C187.094 230.144 187.232 230.393 187.313 230.508C187.39 230.616 187.464 230.709 187.524 230.779C187.786 230.955 188.15 231.151 188.61 231.232C189.132 231.32 189.601 231.26 189.967 231.141C190.298 231.032 190.528 230.891 190.631 230.809C190.676 230.742 190.766 230.614 190.842 230.447C190.925 230.264 191.137 229.76 191.143 229.06C191.148 228.2 190.814 227.089 189.877 226.255C189.199 225.654 188.482 225.481 188.067 225.411ZM191.234 232.076H191.294L191.354 232.046C191.333 232.052 191.292 232.057 191.234 232.076ZM190.48 224.446C190.318 224.446 189.997 224.475 189.605 224.566C189.657 224.555 189.715 224.518 189.786 224.506C189.867 224.492 190.151 224.446 190.48 224.446Z" fill="#8454F9"/>
<path d="M185.504 227.339L188.399 224.443L191.294 225.408L192.259 228.304V231.199L187.434 232.164L186.469 230.234L185.504 227.339Z" fill="#8454F9"/>
<path fill-rule="evenodd" clip-rule="evenodd" d="M151.514 74.5038C128.18 79.5801 112.776 90.7209 107.041 106.668C104.665 113.279 102.627 116.025 100.103 116.025C89.2551 116.025 79.3477 127.359 79.3477 139.768C79.3477 155.018 86.7942 164.277 99.0641 164.281C105.005 164.285 105.769 165.088 111.195 177.018C121.63 199.964 140.485 212.521 166.847 214.083C200.291 216.063 227.131 198.163 236.466 167.657C237.215 165.205 239.533 164.279 244.92 164.279C254.808 164.279 261.789 156.971 263.523 144.808C265.632 130.003 259.006 119.455 245.972 116.867C240.782 115.836 239.216 114.097 235.711 105.461C228.944 88.7869 215.817 79.555 191.574 74.417C176.011 71.1183 166.99 71.1376 151.514 74.5038ZM185.894 81.408C201.127 84.4692 215.286 90.5318 220.835 96.3686C241.71 118.326 236.533 168.516 210.938 192.318C197.509 204.806 171.537 209.273 151.261 202.581C141.668 199.413 123.741 186.651 123.741 182.988C123.741 182.048 122.085 178.956 120.062 176.115C115.611 169.865 110.925 153.613 109.412 139.187C108.535 130.818 109.3 125.761 113.027 115.288C120.228 95.0561 129.564 87.4204 153.444 82.2244C168.351 78.9818 173.215 78.8602 185.894 81.408ZM100.579 134.12C100.579 139.826 101.122 147.209 101.786 150.527C102.805 155.618 102.411 156.558 99.2591 156.558C92.5383 156.558 88.6529 151.903 87.6029 142.594C86.7324 134.873 87.2593 133.03 91.5713 128.718C98.8634 121.426 100.579 122.456 100.579 134.12ZM252.345 128.645C256.518 132.818 257.08 134.725 256.13 141.507C254.831 150.797 250.34 156.558 244.397 156.558C240.343 156.558 240.251 156.114 241.862 144.495C242.783 137.861 243.057 130.476 242.472 128.089C241 122.084 246.07 122.37 252.345 128.645Z" fill="#8454F9"/>
<path fill-rule="evenodd" clip-rule="evenodd" d="M139.348 57.3215C138.213 61.84 143.292 75.822 146.065 75.822C146.793 75.822 151.093 79.3831 155.623 83.7356C161.827 89.6978 164.898 91.3693 168.075 90.5162C170.395 89.8947 173.811 89.3735 175.67 89.36C177.752 89.3427 179.048 87.8526 179.048 85.4727C179.048 82.2551 177.76 81.6124 171.327 81.6124C167.081 81.6124 163.606 80.7438 163.606 79.6823C163.606 78.6207 165.079 77.7521 166.878 77.7521C171.696 77.7521 180.978 68.057 180.978 63.0251C180.978 58.2248 174.431 52.6602 168.783 52.6602C163.008 52.6602 154.162 58.8231 152.278 64.1581C150.437 69.3733 149.593 68.3195 147.324 57.9681C145.889 51.4152 140.931 51.0137 139.348 57.3215ZM172.132 62.0523C173.307 63.9554 168.171 68.8522 163.124 70.6434C157.853 72.5118 158.787 64.5016 164.089 62.3707C169.764 60.0893 170.893 60.0449 172.132 62.0523Z" fill="#8454F9"/>
<path fill-rule="evenodd" clip-rule="evenodd" d="M143.1 157.747C136.669 163.159 132.056 172.671 133.737 177.052C135.598 181.902 138.873 180.38 141.838 173.282C143.378 169.598 147.242 164.657 150.425 162.304C153.61 159.951 156.214 156.886 156.214 155.492C156.214 151.387 149.232 152.587 143.1 157.747ZM187.096 155.633C187.096 157.104 189.256 159.721 191.896 161.452C194.537 163.182 198.463 168.059 200.62 172.29C204.809 180.499 207.208 181.825 209.073 176.965C210.509 173.221 205.454 163.085 199.266 157.303C194.091 152.468 187.096 151.508 187.096 155.633ZM160.67 184.441C158.97 187.189 165.714 191.563 171.655 191.563C177.546 191.563 184.919 186.813 182.61 184.504C180.325 182.219 162.075 182.165 160.67 184.441Z" fill="#8454F9"/>
<path fill-rule="evenodd" clip-rule="evenodd" d="M163.348 133.063C159.787 137.591 159.628 138.666 161.995 142.231C165.398 147.358 169.997 147.46 169.997 142.411C169.997 141.208 169.687 139.819 169.889 138.561C170.218 136.507 172.419 135.114 172.441 133.034C172.467 130.502 171.142 127.935 169.233 127.935C168.216 127.935 165.567 130.243 163.348 133.063Z" fill="#8454F9"/>
<path fill-rule="evenodd" clip-rule="evenodd" d="M73.7979 158.286C63.4253 164.609 60.4452 180.234 67.3725 191.973C71.0243 198.163 79.0499 202.853 85.9926 202.853C87.4788 202.853 91.7117 205.783 95.3982 209.362C99.0829 212.942 107.263 218.623 113.573 221.987C119.882 225.349 125.526 228.879 126.115 229.831C127.427 231.956 132.644 261.474 131.865 262.36C131.554 262.711 125.945 261.624 119.398 259.947C112.851 258.27 105.827 256.898 103.789 256.898C101.752 256.898 100.085 256.098 100.085 255.122C100.085 254.147 95.7322 251.902 90.4127 250.134C81.0997 247.042 80.4377 247.069 72.5453 250.891C61.9024 256.042 56.6157 265.334 58.4918 275.593C61.1516 290.148 68.3607 296.033 85.9598 298.019C91.4588 298.639 99.3628 300.884 103.52 303.005C116.672 309.714 136.287 313.262 163.78 313.906C195.409 314.646 221.263 310.928 239.38 303.036C246.458 299.953 255.666 297.431 259.843 297.431C271.654 297.431 279.978 290.743 283.213 278.656C285.645 269.569 285.562 268.187 282.248 262.526C274.14 248.677 262.057 245.265 246.705 252.487C238.131 256.519 212.292 263.589 210.968 262.267C210.288 261.586 215.475 229.582 216.392 228.804C216.648 228.588 221.497 226.079 227.166 223.232C232.835 220.383 241.086 214.753 245.502 210.721C250.227 206.407 256.384 202.869 260.461 202.126C270.081 200.375 279.589 189.304 279.589 179.858C279.589 172.15 273.383 160.274 267.865 157.421C256.213 151.396 239.922 155.779 233.946 166.547C232.586 168.999 231.441 174.542 231.402 178.862C231.348 185.131 232.723 188.339 238.21 194.751L245.085 202.782L233.56 210.232C227.222 214.328 219.389 218.777 216.152 220.117C209.42 222.906 207.55 227.505 204.342 249.171C203.164 257.131 201.329 264.514 200.265 265.577C197.544 268.299 145.277 268.119 142.538 265.381C141.365 264.207 139.558 257.258 138.524 249.939C135.157 226.139 133.897 223.338 124.723 219.292C120.195 217.295 112.36 212.695 107.311 209.068L98.1313 202.473L103.943 195.135C111.573 185.503 113.055 177.611 108.948 168.502C103.067 155.464 86.3806 150.614 73.7979 158.286ZM98.5096 167.468C103.003 171.533 103.049 183.143 98.5946 188.611C93.665 194.664 84.1378 195.843 78.1601 191.141C75.483 189.035 72.7422 185.584 72.0724 183.471C70.2831 177.833 74.4658 167.041 79.3973 164.575C84.74 161.901 93.8908 163.287 98.5096 167.468ZM261.941 164.443C266.124 165.903 268.382 168.167 269.152 171.681C269.77 174.494 270.515 177.665 270.806 178.726C271.646 181.778 266.375 190.983 262.68 192.915C256.386 196.206 246.707 193.179 242.746 186.684C237.704 178.418 238.108 174.552 244.697 167.962C250.92 161.739 252.98 161.32 261.941 164.443ZM94.5335 261.939C101.586 268.322 98.1429 283.786 88.8087 287.654C81.866 290.528 77.0946 289.301 71.3158 283.149C61.1574 272.337 69.8122 255.238 84.2555 257.583C87.917 258.177 92.5416 260.136 94.5335 261.939ZM270.621 261.63C278.008 268.476 277.662 278.089 269.789 284.713C262.966 290.455 260.276 290.801 252.742 286.906C246.689 283.775 242.458 275.5 243.481 268.791C244.3 263.429 253.607 256.928 260.488 256.911C263.252 256.903 267.813 259.028 270.621 261.63ZM133.256 271.372C160.114 277.878 182.886 277.878 209.744 271.372C234.825 265.296 235.195 265.303 235.195 271.931C235.195 274.89 236.925 280.706 239.04 284.854C243.566 293.732 243.479 293.827 225.61 299.436C208.187 304.904 191.807 306.665 163.78 306.076C135.445 305.483 109.569 300.009 100.596 292.711C100.347 292.509 101.866 288.961 103.974 284.827C106.082 280.694 107.805 274.89 107.805 271.931C107.805 265.303 108.176 265.296 133.256 271.372Z" fill="#8454F9"/>
<path d="M129.061 266.997C131.141 267.059 132.724 268.761 132.74 270.827L132.801 270.797C132.945 274.192 132.888 277.051 132.499 279.181C132.265 280.46 132.221 281.731 132.409 283.011C132.676 284.826 132.855 286.651 132.951 288.47C133.055 290.438 132.981 292.429 132.68 294.381C132.436 295.963 132.252 297.54 132.137 299.116C132.018 300.748 131.906 302.009 131.805 302.645V302.675L131.775 302.735L131.685 303.278L131.624 303.248C131.348 305.167 129.747 306.627 127.764 306.565C125.635 306.497 123.959 304.713 124.024 302.584V302.192L124.085 301.921L124.175 301.348C124.218 301.012 124.302 300.142 124.417 298.573C124.547 296.779 124.773 294.968 125.05 293.175C125.269 291.75 125.336 290.323 125.261 288.892C125.178 287.316 125.011 285.736 124.778 284.157C124.466 282.038 124.514 279.903 124.899 277.794C125.129 276.534 125.217 274.373 125.08 271.129V270.767C125.138 268.636 126.93 266.939 129.061 266.997Z" fill="#8454F9"/>
<path d="M212.739 263.226C214.847 262.944 216.793 264.436 217.082 266.544V266.634L217.112 266.695V266.785C217.447 270.175 217.542 273.046 217.263 275.199C217.098 276.477 217.149 277.743 217.414 278.999C217.758 280.631 218.132 282.245 218.53 283.825C218.986 285.639 219.303 287.494 219.495 289.374C219.646 290.858 219.915 292.32 220.309 293.747C220.685 295.104 221.212 296.397 221.877 297.637C222.304 298.431 222.672 299.181 222.933 299.809C223.059 300.113 223.194 300.465 223.295 300.834C223.369 301.108 223.556 301.843 223.446 302.704L223.385 303.006L223.325 303.428C223.041 304.917 221.915 306.178 220.339 306.504C218.253 306.929 216.215 305.572 215.785 303.488L215.755 303.398L215.604 302.583L215.634 302.403C215.504 302.126 215.34 301.749 215.092 301.287C214.152 299.537 213.389 297.712 212.86 295.798C212.35 293.952 212 292.07 211.804 290.158C211.65 288.642 211.385 287.144 211.02 285.695C210.598 284.015 210.208 282.295 209.844 280.568C209.403 278.464 209.327 276.337 209.603 274.204C209.766 272.944 209.742 270.784 209.422 267.539L209.452 267.509C209.203 265.423 210.65 263.513 212.739 263.226Z" fill="#8454F9"/>
<path d="M179.186 242.961C180.986 243.428 182.749 243.97 184.464 244.62L187.329 245.706L187.691 245.887V245.917C187.772 245.947 187.853 245.972 187.932 246.007L188.022 246.037L187.992 246.068C189.27 246.678 190.197 247.903 190.224 249.415C190.26 251.547 188.556 253.3 186.424 253.336H186.333L185.368 253.366L184.494 252.914L184.403 252.853C184.041 252.713 183.162 252.394 181.749 251.858C180.298 251.308 178.793 250.809 177.256 250.41C176.059 250.1 174.86 250.046 173.637 250.199C172.212 250.379 170.82 250.705 169.475 251.195C167.499 251.914 165.454 252.327 163.353 252.431C162.089 252.493 159.963 252.893 156.838 253.788L156.356 253.939H155.783C153.653 254.001 151.866 252.328 151.802 250.199C151.749 248.36 153.015 246.866 154.727 246.43L154.697 246.369C157.974 245.43 160.784 244.817 162.96 244.71C164.296 244.645 165.598 244.383 166.851 243.926C168.734 243.241 170.681 242.79 172.672 242.539C174.866 242.263 177.044 242.406 179.186 242.961Z" fill="#8454F9"/>
</svg>
