<svg width="344" height="366" viewBox="0 0 344 366" fill="none" xmlns="http://www.w3.org/2000/svg">
<g clip-path="url(#clip0_708_1750)">
<rect width="344" height="366" fill="white"/>
<path d="M344 0H0V366H344V0Z" fill="white"/>
<rect x="32.0312" y="76.9502" width="278.745" height="221.887" fill="white"/>
<path fill-rule="evenodd" clip-rule="evenodd" d="M-1 -30.8999V122.999L0.517361 123.162C1.35175 123.252 2.89722 123.34 3.95139 123.358C7.95371 123.427 23.3544 125.748 27.75 126.946C29.0677 127.304 32.2302 128.092 34.7778 128.696C37.3253 129.3 40.5597 130.095 41.9653 130.462C44.2765 131.065 46.5729 131.614 51.2292 132.676C53.0174 133.083 56.163 133.857 61.6111 135.23C63.6316 135.739 65.7434 136.158 66.3041 136.161C66.8647 136.164 67.402 136.294 67.4981 136.45C67.594 136.605 68.3571 136.83 69.1941 136.95C70.0307 137.069 71.1465 137.293 71.6736 137.448C72.2007 137.602 73.5663 137.943 74.7083 138.205C75.8503 138.467 78.366 139.044 80.2986 139.487C82.2312 139.93 85.3938 140.578 87.3264 140.928C89.259 141.277 91.2715 141.651 91.7986 141.757C92.7039 141.941 95.9514 142.505 102.784 143.666C104.433 143.947 105.896 144.246 106.035 144.331C106.173 144.417 107.626 144.703 109.265 144.966C110.903 145.229 113.034 145.586 114 145.758C114.966 145.93 117.482 146.285 119.59 146.548C121.699 146.811 124.43 147.167 125.66 147.339C136.039 148.795 135.381 148.726 156.326 150.569C158.61 150.77 162.132 150.991 164.153 151.06C166.173 151.129 169.623 151.326 171.819 151.499C174.016 151.671 179.694 151.893 184.438 151.992C189.181 152.092 195.794 152.241 199.132 152.323C203.927 152.441 216.457 152.478 226.125 152.402C226.74 152.397 229.543 152.252 232.354 152.08C235.165 151.907 238.328 151.728 239.382 151.682C242.909 151.525 247.019 151.158 250.403 150.697C252.248 150.446 255.913 150.008 258.549 149.725C269.706 148.525 268.646 148.68 279.312 146.705C280.191 146.542 283.535 145.977 286.743 145.448C289.951 144.92 294.048 144.12 295.847 143.671C297.646 143.222 300.556 142.495 302.312 142.056C305.809 141.182 307.622 140.681 310.778 139.716C311.92 139.366 313.86 138.853 315.09 138.575C317.936 137.933 317.732 137.994 330.743 133.955C331.797 133.628 333.666 133.07 334.896 132.714C336.126 132.359 338.138 131.764 339.368 131.391C340.598 131.019 342.143 130.628 342.802 130.523L344 130.33V-27.2344V-75H171.5H-1V-30.8999ZM-0.786931 247.951C-0.904167 248.068 -1 288.852 -1 338.582V429H171.5H344V342.045C344 257.823 343.981 255.09 343.412 255.09C342.593 255.09 337.583 256.416 333.299 257.767C332.42 258.043 330.192 258.716 328.347 259.262C326.502 259.808 324.634 260.376 324.194 260.525C323.465 260.773 319.74 261.884 315.222 263.201C314.24 263.487 313.16 263.722 312.822 263.722C312.483 263.722 311.455 263.997 310.536 264.333C309.618 264.669 308.304 265.039 307.616 265.155C306.927 265.271 306.1 265.567 305.776 265.813C305.452 266.058 304.87 266.264 304.481 266.269C304.092 266.275 302.367 266.634 300.648 267.069C293.432 268.89 292.002 269.202 286.588 270.137C283.465 270.676 279.328 271.403 277.396 271.753C269.673 273.149 267.13 273.501 255.035 274.852C246.29 275.829 239.29 276.47 235.229 276.666C233.999 276.726 229.615 276.94 225.486 277.143C221.357 277.346 215.967 277.426 213.507 277.321C211.047 277.215 204.147 277.063 198.174 276.981C180.184 276.737 173.263 276.496 166.888 275.889C165.141 275.723 163.609 275.651 163.483 275.729C163.357 275.807 161.91 275.733 160.269 275.565C158.628 275.396 155.56 275.176 153.451 275.075C149.498 274.886 142.724 274.287 142.416 274.1C142.319 274.042 139.948 273.769 137.145 273.492C134.342 273.216 131.258 272.839 130.292 272.654C129.325 272.469 127.169 272.19 125.5 272.033C122.069 271.712 116.547 270.942 114.16 270.452C111.024 269.808 93.9526 266.775 90.8403 266.309C89.9618 266.177 88.6681 265.914 87.9653 265.724C87.2625 265.534 85.6094 265.159 84.2917 264.89C82.974 264.621 80.4583 264.088 78.7014 263.706C76.9444 263.324 74.9319 262.893 74.2292 262.748C73.5264 262.603 72.017 262.25 70.875 261.964C69.733 261.679 68.0799 261.307 67.2014 261.137C66.3229 260.968 64.9573 260.674 64.1667 260.484C63.376 260.294 61.9385 259.955 60.9722 259.732C60.0059 259.509 57.7778 258.957 56.0208 258.505C54.2639 258.054 51.4608 257.383 49.7917 257.015C48.1226 256.647 45.8944 256.075 44.8403 255.744C43.7861 255.412 42.3486 255.048 41.6458 254.934C39.625 254.607 33.6236 253.165 30.3056 252.21C24.5715 250.559 16.0334 249.159 6.82639 248.359C-1.30219 247.653 -0.530736 247.694 -0.786931 247.951Z" fill="#FFF167"/>
<path d="M154.765 324.145C156.739 323.439 159.711 323.502 160.658 324.491C161.714 325.594 161.379 328.033 161.153 328.897C160.969 329.604 161.061 329.646 163.664 330.066C165.267 330.325 166.69 331.652 167.053 333.228C167.556 335.409 167.424 336.751 166.617 337.69C165.997 338.412 165.563 338.576 163.956 338.692L162.035 338.832L161.822 340.096C161.398 342.612 160.069 344.878 159.096 344.746C157.802 344.571 157.733 344.703 157.654 347.468C157.569 350.482 157.442 350.421 159.858 348.52C161.784 347.005 164.588 345.632 165.487 345.766C165.874 345.823 167.053 345.293 166.531 346.415C166.808 346.857 166.663 347.185 165.767 348.153C163.956 350.108 163.256 351.309 163.05 352.814C162.942 353.598 161.414 354.091 161.153 354.308C160.637 354.735 155.143 354.704 153.031 354.308C151.994 354.113 151.762 354.33 150.943 352.568C150.443 351.492 149.383 349.899 148.588 349.03C147.091 347.394 146.171 345.899 147.138 345.293C148.112 344.683 151.129 346.419 153.942 348.865L155.205 349.963L155.418 348.549C155.83 345.817 155.769 345.604 154.404 344.974C152.789 344.228 151.483 342.138 151.762 340.744C151.948 339.813 151.914 339.783 150.511 339.572C149.391 339.404 148.751 339.045 147.639 337.963C146.432 336.789 146.208 336.382 146.214 335.373C146.224 333.702 147.24 331.623 148.313 331.077C148.805 330.828 149.885 330.524 150.715 330.403C151.59 330.276 152.204 330.027 152.177 329.81C151.884 327.453 152.579 324.925 154.765 324.145ZM232.98 274.306C233.85 274.261 237.418 275.782 239.013 277.34C240.383 278.679 240.584 279.796 240.771 281.044C241.016 282.682 240.758 285.795 240.227 287.608C239.743 289.257 240.064 290.107 241.943 292.168L243.601 293.986L243.595 297.855C243.588 302.077 243.6 302.094 245.329 300.463C245.759 300.057 246.628 299.371 247.262 298.937C247.895 298.502 249.575 297.06 250.993 295.732L253.572 293.32L252.578 291.633C252.031 290.705 251.173 289.346 250.671 288.615C250.168 287.884 249.757 287.117 249.757 286.911C249.758 286.362 251.813 283.651 253.058 282.557C253.649 282.037 254.486 281.066 254.919 280.397C255.351 279.729 256.036 278.802 256.44 278.337C256.845 277.872 257.418 277.054 257.714 276.52C258.01 275.985 258.486 274.913 258.774 274.913C259.387 274.914 264.668 277.679 264.668 278.034C264.669 278.888 268.365 282.214 271.304 283.237C272.013 283.484 272.01 284.422 271.296 285.382C270.504 286.446 270.042 287.497 269.644 289.139C269.454 289.921 269.092 291.097 268.841 291.752C268.589 292.407 268.384 293.202 268.384 293.519C268.384 294.175 272.059 297.95 274.207 299.499C276.104 300.867 276.118 301.717 274.283 303.84C273.535 304.706 272.251 306.502 271.431 307.831L269.938 310.247L271.292 311.771C272.037 312.608 273.71 314.41 275.013 315.772C276.315 317.135 277.722 318.822 278.138 319.521C278.88 320.768 278.882 320.803 278.295 321.382C277.795 321.874 276.837 322.032 272.487 322.333C269.622 322.531 266.142 322.646 264.753 322.588L262.228 322.482L262.298 324.631C262.364 326.663 262.799 327.945 263.881 329.302C264.658 330.277 265.807 332.835 265.65 333.243C265.355 334.015 263.82 334.208 259.702 333.992C257.445 333.874 254.834 333.898 253.9 334.046C252.077 334.334 251.02 334.025 251.02 333.202C251.02 332.939 251.53 331.635 252.152 330.304C252.775 328.973 253.405 327.166 253.554 326.289C253.702 325.412 253.919 324.244 254.035 323.692C254.243 322.707 254.221 322.686 252.869 322.485C252.112 322.373 249.646 322.327 247.39 322.382L243.285 322.482L243.186 323.526C243.111 324.304 242.562 325.125 241.032 326.748L238.979 328.927L239.712 329.96C240.115 330.528 240.716 331.226 241.049 331.509C241.388 331.797 241.573 332.235 241.47 332.504C241.318 332.899 240.226 333.025 235.34 333.212C225.113 333.603 225.934 333.63 225.827 332.884C225.776 332.521 226.082 331.535 226.508 330.694C227.21 329.308 227.24 329.098 226.82 328.457C226.566 328.068 226.152 327.672 225.901 327.575C225.133 327.279 223.593 324.533 223.373 323.068C223.215 322.013 223.326 321.308 223.838 320.116C224.422 318.757 224.458 318.426 224.111 317.607C223.892 317.088 223.227 316.337 222.636 315.938C222.044 315.54 221.272 314.824 220.921 314.35C220.333 313.555 220.311 313.309 220.631 311.236C220.864 309.732 221.202 308.748 221.65 308.271C222.471 307.396 222.664 304.976 222.127 302.285C221.721 300.25 220.826 299.615 221.678 296.756C222.45 294.163 224.043 293.019 224.791 292.781C225.648 292.509 225.87 291.134 225.612 287.687C225.371 284.458 225.872 279.407 226.569 278.049C227.157 276.905 229.078 275.515 230.959 274.872C231.834 274.573 232.744 274.318 232.98 274.306ZM125.035 307.256C125.746 307.345 127.213 310.027 127.24 311.288C127.259 312.152 127.449 312.518 128.04 312.835C128.935 313.314 129.895 315.145 129.896 316.373C129.896 317.591 129.057 318.696 127.619 319.368C126.489 319.897 126.345 320.097 126.159 321.42C126.017 322.426 125.688 323.131 125.109 323.67C122.899 325.727 121.048 324.618 119.686 320.419C118.736 317.492 118.819 317.556 115.472 317.146C113.699 316.929 112.643 315.829 112.858 314.423C112.967 313.714 112.863 313.096 112.569 312.703C112.001 311.942 111.994 311.544 112.535 310.803C112.864 310.352 113.73 310.133 116.403 309.827C120.649 309.341 122.128 308.954 123.508 307.968C124.098 307.546 124.786 307.225 125.035 307.256ZM82.1201 291.065C83.7698 290.945 89.0973 290.908 93.959 290.983C98.8207 291.059 103.249 291.127 103.8 291.134C104.869 291.148 105.491 291.971 105.64 293.563C105.68 293.998 105.87 295.42 106.062 296.724C106.253 298.027 106.416 300.658 106.425 302.57C106.434 304.482 106.641 307.47 106.887 309.208C107.594 314.224 107.858 320.633 107.382 321.211C106.582 322.175 105.373 321.787 103.785 320.056C101.859 317.956 100.961 317.492 99.1465 317.661C97.294 317.833 95.7815 318.939 95.0352 320.665C94.4967 321.911 93.898 322.316 93.373 321.791C93.2534 321.671 91.7741 321.608 90.085 321.65C87.5066 321.716 78.3533 321.391 69.3789 320.916C66.9591 320.788 66.307 320.432 66.9883 319.61C67.3734 319.145 67.3011 318.978 66.3809 318.209C65.2265 317.244 64.1481 316.942 61.9551 316.969C59.7951 316.995 58.4089 317.588 57.5635 318.848C56.6455 320.215 55.8628 320.523 53.9688 320.262C51.4744 319.918 51.3988 319.78 51.4619 315.666C51.5285 311.341 51.8389 310.63 53.665 310.63C55.9119 310.63 56.0402 310.241 57.2188 299.884C58.1102 292.05 58.0666 292.211 59.4102 291.948C60.0087 291.832 64.6867 291.635 69.8076 291.511C74.9299 291.387 80.4706 291.186 82.1201 291.065ZM181.797 284.714C182.341 284.715 184.723 286.23 184.723 286.576C184.723 286.684 185.348 286.723 186.112 286.662C187.45 286.556 187.55 286.611 188.74 288.118C189.421 288.98 190.154 290.11 190.368 290.629C190.678 291.378 190.911 291.543 191.501 291.43C192.572 291.225 193.16 292.334 193.422 295.049C193.641 297.319 193.643 297.324 194.502 297.152C195.748 296.903 196.72 298.223 196.72 300.168C196.72 301.378 196.841 301.684 197.425 301.942C199.563 302.888 198.437 306.86 195.614 308.327C195.267 308.508 193.989 308.749 192.773 308.863C191.558 308.978 189.863 309.229 189.008 309.422C187.586 309.742 187.407 309.716 186.924 309.118C186.453 308.536 186.244 308.498 185.007 308.778C184.243 308.951 183 309.002 182.245 308.89C179.232 308.442 178.154 308.422 175.883 308.77C173.849 309.08 173.343 309.059 172.293 308.616C170.765 307.973 169.746 307.972 165.981 308.608C163.027 309.108 162.967 309.106 161.772 308.434C160.08 307.481 159.034 305.879 159.303 304.653C159.418 304.129 159.841 303.382 160.243 302.994C160.845 302.415 160.917 302.162 160.65 301.575C160.011 300.171 161.557 297.53 163.306 297.039C164.418 296.727 164.46 296.663 164.439 295.311C164.414 293.627 164.855 293.015 166.286 292.746C167.049 292.603 167.359 292.375 167.359 291.958C167.359 291.568 167.517 291.431 167.83 291.552C168.462 291.794 168.798 290.839 168.295 290.231C167.967 289.835 168.029 289.611 168.654 288.943C169.333 288.218 171.134 287.242 171.793 287.242C171.932 287.242 172.483 287.61 173.018 288.061L173.989 288.879V287.767C173.99 285.742 176.755 284.511 178.009 285.978C178.721 286.81 178.919 286.782 180.193 285.662C180.787 285.141 181.508 284.714 181.797 284.714ZM278.985 241.511C279.934 240.266 281.077 240.151 283.149 241.093C284.293 241.612 284.625 241.993 285.335 243.594C286.218 245.585 286.564 245.858 289.662 247.005C291.37 247.637 293.941 250.02 294.882 251.844C295.278 252.612 295.469 253.756 295.51 255.584C295.563 257.998 295.497 258.311 294.725 259.325C293.49 260.946 292.241 261.608 290.741 261.436C289.178 261.256 287.958 260.805 287.957 260.406C287.957 260.221 286.859 260.173 285.149 260.284C282.424 260.461 282.304 260.44 281.066 259.553C279.699 258.573 277.855 255.853 277.854 254.815C277.854 253.853 277.228 253.424 275.818 253.422C272.325 253.417 271.058 252.252 271.964 249.878C272.637 248.116 273.817 246.872 275.501 246.149C276.602 245.677 276.985 245.281 277.524 244.061C277.89 243.233 278.548 242.085 278.985 241.511ZM249.936 231.867C250.669 231.574 251.617 231.491 252.774 231.618C254.348 231.792 254.646 231.955 255.924 233.348C256.699 234.194 257.334 235.042 257.334 235.232C257.334 235.423 257.694 236.109 258.135 236.758C258.796 237.732 259.122 237.937 260.01 237.938C260.925 237.938 261.327 237.662 262.717 236.082C264.252 234.336 264.449 234.216 266.059 234.05C267.973 233.852 270.351 234.475 271.367 235.441C271.863 235.914 271.975 236.423 271.943 238.064C271.914 239.562 272.023 240.146 272.354 240.273C272.606 240.37 272.804 240.867 272.804 241.404C272.804 242.278 272.712 242.362 271.756 242.362C271.179 242.362 269.977 242.58 269.084 242.846C267.722 243.251 267.234 243.62 266.061 245.137C263.25 248.768 261.482 249.945 258.83 249.946C254.662 249.949 251.509 246.69 250.882 241.732C250.739 240.607 250.375 239.62 249.847 238.927C249.183 238.056 249.086 237.703 249.32 237.028C249.479 236.573 249.926 236.059 250.314 235.888C251.284 235.459 251.201 235.177 249.953 234.655C249.367 234.41 248.79 234.052 248.671 233.858C248.265 233.201 248.832 232.308 249.936 231.867ZM232.552 141.663C235.386 141.817 238.104 142.382 238.652 142.931C238.957 143.236 239.129 144.685 239.247 147.937C239.392 151.94 239.343 152.618 238.86 153.356C238.35 154.137 238.347 154.242 238.824 154.77C239.486 155.504 239.889 160.005 239.247 161.543C238.989 162.161 238.408 162.458 237.972 162.93C237.448 163.495 236.804 163.197 236.786 163.948C236.771 164.575 236.735 166.232 236.707 167.632C236.662 169.846 236.515 170.454 235.576 172.306L234.497 174.434L235.734 175.758C236.414 176.486 237.053 177.155 237.152 177.247C237.53 177.593 240.08 183.21 240.959 185.631C243.174 191.731 243.78 193.795 243.454 194.121C243.034 194.542 243.036 195.672 243.458 196.599C244.107 198.024 247.351 199.003 248.968 198.262C251.836 196.946 255.168 196.094 256.333 196.379C257.764 196.729 259.439 198.13 260.163 199.581C260.843 200.944 260.865 201.169 260.518 203.287C259.998 206.453 259.357 207.61 257.649 208.47C255.819 209.391 254.226 209.23 252.44 207.946C251.114 206.993 251.095 206.989 250.538 207.605C250.229 207.948 249.856 208.228 249.709 208.229C249.563 208.229 248.768 208.713 247.942 209.306C245.771 210.865 243.054 211.694 241.075 211.399C240.207 211.27 239.138 211.018 238.699 210.838C237.801 210.47 234.061 206.555 233.563 205.463C233.385 205.072 233.115 204.752 232.963 204.752C231.392 204.752 229.065 209.005 228.611 212.707C228.455 213.981 228.228 215.806 228.106 216.762C227.814 219.061 227.328 219.949 225.571 221.391C224.251 222.473 223.892 222.605 221.96 222.714C220.173 222.815 219.524 222.703 218.076 222.039C215.357 220.793 215.154 220.173 215.665 214.71C216.01 211.024 216.221 210.008 216.929 208.643C217.396 207.741 217.967 206.319 218.198 205.482C218.429 204.646 219.389 202.716 220.33 201.194L222.041 198.428L221.274 196.454C220.853 195.369 220.328 193.905 220.107 193.201C219.887 192.497 219.45 191.58 219.137 191.164C218.591 190.44 218.509 190.426 217.267 190.837C216.262 191.169 215.558 191.191 214.157 190.935C212.263 190.588 212.188 190.609 209.226 192.342C207.112 193.578 202.973 192.026 202.284 189.739C202.107 189.15 202.003 190.342 198.102 190.319C195.799 190.306 193.726 190.439 193.248 190.319L192.427 189.739L192.555 192.053C192.487 197.148 191.859 196.858 192.518 215.738L192.708 221.194L191.861 223.092C190.822 223.529 190.095 222.456 190.093 223.092C190.087 224.47 188.629 227.23 186.661 228.109C185.413 228.667 182.402 228.826 181.808 228.109C181.604 227.864 180.418 227.007 180.204 227.006C179.654 227.006 179.617 225.448 178.882 223.921C178.302 222.716 178.148 222.607 176.988 222.585C176.294 222.572 173.95 222.43 171.779 222.271C167.883 221.986 165.95 221.995 163.986 222.311C163.198 222.437 162.774 222.808 162.021 224.032C160.201 226.994 157.262 227.936 153.552 226.746C152.798 226.504 150.627 222.968 150.627 221.98C150.627 221.467 150.385 221.429 148.082 221.587C145.602 221.757 145.527 221.742 145.179 220.976C144.622 219.753 145.198 219.146 146.995 219.062C148.753 218.979 148.968 218.848 148.422 218.189C148.138 217.847 148.077 217.082 148.215 215.574C148.322 214.402 148.493 210.457 148.595 206.807C148.722 202.245 148.9 200.045 149.164 199.772C149.376 199.554 150.111 199.341 150.798 199.298C151.485 199.255 152.13 199.109 152.23 198.974C152.464 198.645 152.319 183.586 152.063 181.617C151.829 179.808 152.222 179.504 154.628 179.636L156.262 179.725L156.457 177.305C156.996 170.657 157.512 167.89 158.303 167.394C158.509 167.264 160.524 167.243 162.781 167.346C165.039 167.449 168.662 167.386 170.832 167.207C176.151 166.768 179.936 167.236 180.526 168.405C180.995 169.335 181.064 174.896 180.629 176.772C180.469 177.463 180.391 178.081 180.456 178.146C180.523 178.21 181.826 178.25 183.354 178.233C184.883 178.217 186.598 178.357 187.165 178.544C188.312 178.923 188.351 179.093 188.208 183.02C188.106 185.823 188.692 188.317 189.453 188.317C189.763 188.317 190.26 187.947 190.556 187.494C191.061 186.722 191.2 186.684 192.811 186.886C193.754 187.004 195.339 187.141 196.333 187.19L198.14 187.279L198.221 185.22C198.334 182.297 198.827 180.771 200.055 179.542C201.087 178.509 201.202 178.473 203.42 178.523C204.683 178.552 206.57 178.352 207.611 178.077C208.653 177.803 210.144 177.427 210.926 177.244C211.838 177.03 212.686 176.545 213.294 175.89C213.815 175.328 214.576 174.635 214.985 174.349C215.947 173.677 216.277 172.058 215.76 170.552C215.247 169.057 215.206 168.257 215.463 164.771C215.578 163.206 215.75 160.859 215.845 159.556C215.939 158.253 216.077 156.972 216.151 156.709C216.252 156.354 216.026 156.232 215.264 156.234C214.305 156.237 214.244 156.171 214.29 155.189C214.317 154.613 214.579 153.875 214.873 153.55C215.609 152.735 214.762 153.619 213.01 153.356C210.013 152.906 209.091 151.801 210.583 150.449C211.154 149.932 215.194 147.768 215.733 148.076C216.252 148.373 217.287 147.432 218.008 146.009C219.349 143.359 221.947 142.841 226.185 142.475C227.574 142.355 229.217 142.419 229.651 142.475C230.085 142.53 231.336 141.597 232.552 141.663ZM99.7227 142.806C100.891 142.806 101.814 142.988 102.275 143.312C103.207 143.965 106.018 148.291 106.276 149.469C106.386 149.967 106.903 150.734 107.425 151.174C108.754 152.294 109.097 153.742 108.469 155.594C107.495 158.466 106.497 159.903 104.303 161.598C103.128 162.504 101.48 163.902 100.641 164.704C98.8513 166.413 97.4394 166.962 95.4209 166.734C94.1957 166.596 93.7764 166.357 92.834 165.262C91.6328 163.866 91.3052 163.833 89.6943 164.947C88.1143 166.04 86.4338 166.262 83.8203 165.722C82.4997 165.449 80.9906 164.981 80.4668 164.682C79.9434 164.383 79.1841 163.956 78.7803 163.733C77.7283 163.153 76.8005 161.867 76.5781 160.681C76.4351 159.917 76.6389 159.1 77.3779 157.473C77.9887 156.127 78.4071 154.641 78.4688 153.601C78.5789 151.733 79.2465 150.583 80.7246 149.714C81.8867 149.031 82.9723 149.005 85.751 149.595C86.9665 149.852 89.0351 150.066 90.3477 150.069C93.192 150.076 93.9092 149.602 94.2451 147.499C94.4216 146.394 94.7957 145.807 96.1777 144.467C97.8449 142.85 97.9418 142.806 99.7227 142.806ZM110.734 134.501C111.909 133.779 113.198 132.722 115.876 133.812C117.358 134.414 117.747 134.749 118.333 135.923C118.779 136.816 119.364 138.937 120.095 139.328L121.481 139.008L122.521 137.968C122.937 137.446 123.175 136.206 123.604 135.672C124.978 133.967 130.088 134.704 131.189 135.923C132.214 137.056 133.131 138.248 131.189 139.008C130.897 139.122 131.051 140.587 131.536 140.741C132.857 141.161 131.252 142.11 129.803 142.475C128.808 142.725 129.202 143.011 128.763 144.555C128.176 146.619 126.279 149.189 124.602 150.103C123.357 150.78 122.065 150.408 120.095 150.449C117.777 150.498 116.964 150.89 115.241 149.756C113.189 148.405 112.656 145.904 111.928 143.604C110.738 139.847 111.689 141.088 109.348 141.088C107.757 141.088 106.94 140.042 107.268 139.008C107.444 138.45 107.762 138.21 108.654 138.314C109.682 138.434 109.52 137.712 109.348 136.928C109.135 135.957 109.225 135.429 110.734 134.501ZM158.481 92.4287C159.982 91.8045 161.992 91.7978 162.871 92.4141C163.258 92.6853 163.791 93.3274 164.057 93.8408C164.479 94.6589 164.622 94.731 165.205 94.4189C165.581 94.2176 166.631 94.1255 167.615 94.207C169.083 94.329 169.502 94.5113 170.256 95.3564L171.153 96.3613L172.251 95.2617C173.625 93.8857 175.206 93.5274 176.718 94.249C178.137 94.9266 178.182 94.9183 178.817 93.8418C179.606 92.5049 181.699 91.7615 183.392 92.2178C184.967 92.6422 187.139 94.9642 187.434 96.5391C187.622 97.5425 187.713 97.6094 188.893 97.6094C191.596 97.6096 193.371 100.219 193.747 104.743C194.19 110.067 192.188 114.637 186.716 120.798C184.986 122.745 183.19 124.059 180.301 125.492C178.816 126.229 177.977 126.39 174.463 126.615C167.819 127.041 164.261 126.26 160.654 123.583C152.93 117.85 148.343 106.751 150.899 99.9795C151.542 98.279 153.009 96.9775 154.283 96.9775C154.755 96.9774 155.081 96.7314 155.226 96.2666C155.654 94.8925 157.342 92.9027 158.481 92.4287ZM222.371 94.2842C223.023 94.2839 223.554 93.582 223.554 95.0605C223.554 96.4859 222.639 98.6036 223.554 97.751C223.894 97.4333 224.458 97.8587 224.686 97.9346C224.916 98.0083 226.899 96.3777 227.361 95.8545C228.255 94.8441 231.274 94.2842 232.771 94.2842C234.601 94.2842 232.889 96.0072 230.691 98.4443C229.856 99.3709 228.833 100.665 228.611 101.218C227.893 103.005 227.436 103.45 222.371 103.645L217.863 103.298H216.823C215.542 101.198 214.313 99.1716 213.01 97.751C210.963 95.5197 209.841 94.2842 212.316 94.2842C213.361 94.2842 217.011 95.2167 217.863 96.3643C218.099 96.6813 219.207 97.6179 219.944 98.0977L221.344 97.9346V95.8545C221.344 94.7109 221.498 94.6204 221.678 94.2842C221.858 93.9479 222.123 94.2842 222.371 94.2842ZM101.726 33.2676L103.806 34.6543L105.886 34.3076L109.006 36.041L109.7 38.1211L111.087 39.8545L113.167 42.6289L112.474 45.4023L111.087 48.1758L111.78 50.6025L111.087 53.376L107.619 54.416L107.966 59.2695L110.047 57.8828L115.247 53.376L116.287 51.6426V48.5225L117.674 46.4424V37.0811L118.367 34.3076H139.862V39.5078L139.169 48.1758L126.688 49.5625L126.341 50.6025L126.688 53.376L123.914 56.8428L115.94 66.2041L109.006 71.0576L107.619 76.6045L105.886 84.5791L116.98 85.9658L120.794 86.6592L123.567 85.2725L125.647 85.9658L127.381 87.3525L128.074 90.8193L126.688 94.9795L123.567 97.7529H120.794L118.714 94.9795H115.94L101.726 95.6729L88.5508 97.0596L72.9502 98.4473L70.5225 99.1406L67.749 100.181L64.9756 98.7939L62.2021 94.2861V91.5127L63.5889 88.3926L67.749 87.3525L70.5225 88.3926L85.4307 85.9658L83.3506 73.1377L79.1904 70.0176L68.0957 57.8828L66.3623 56.1494L64.6289 54.0693L64.9756 51.6426L66.3623 49.2158L69.1357 48.1758H71.9102L74.6836 50.6025L77.8037 54.416L84.0439 60.6572H86.124V57.8828L85.4307 55.4561L84.0439 54.416L82.3105 53.376L81.6172 51.6426L81.9639 49.5625L83.3506 48.1758L80.5771 45.4023V40.8945L83.3506 39.5078L84.7373 37.0811L86.8174 34.3076L90.9785 33.6143L93.752 34.3076L96.1787 32.5742H99.2988L101.726 33.2676ZM221.331 72.4424C221.352 72.4258 222.137 72.9596 223.064 73.1357C225.645 73.6256 227.198 73.8043 227.4 76.6348C227.468 77.5739 228.17 79.5469 229.651 79.7227C233.452 80.1733 234.616 83.6414 231.731 86.6562C230.554 87.8863 229.55 88.0576 228.265 88.0576L226.878 88.043L226.807 88.0576C226.835 89.9267 226.157 93.0187 224.798 93.5908C223.349 94.2005 219.702 94.2928 218.903 93.2441C218.298 92.4495 217.62 89.3169 217.863 88.3896C217.99 87.9075 217.872 88.2314 216.379 88.3271C214.952 88.4185 214.151 88.0535 213.088 87.3496C211.671 86.4104 211.215 83.3486 211.462 82.0566C211.72 80.707 214.22 79.973 215.783 79.7227L217.17 79.0293L217.616 75.8037C217.772 73.6495 218.499 73.3659 220.291 72.7891C220.844 72.6112 221.311 72.4601 221.331 72.4424ZM256 31.5303C257.208 31.2638 260.855 31.779 261.895 32.2266C262.976 32.6918 265.152 33.8846 265.708 34.999C265.882 35.347 266.633 36.4434 266.748 37.0791L267.095 38.1191L268.086 39.8525C268.899 39.4467 270.5 38.8325 272.295 39.1592C275.451 39.7344 276.179 40.2699 276.803 41.5859C277.558 43.1786 278.839 43.085 277.843 45.0527C277.11 46.501 277.814 47.2029 276.803 47.4795L276.456 47.8262L274.92 48.5195C276.698 49.1636 276.109 50.5994 277.223 50.7031C277.223 53.2414 277.509 55.8601 274.375 57.1875L271.602 58.2275L268.481 57.5342C266.445 56.8995 266.821 55.3691 266.81 56.5605C266.807 56.8425 266.362 58.8769 265.708 59.6143C264.538 60.9344 264.125 62.0258 261.201 62.3877C256.827 62.9291 253.359 62.5494 250.768 61.2451C249.395 60.5549 248.938 57.7343 248.877 57.3125C248.575 55.2218 248.63 57.3745 246.986 57.8809C245.367 58.3796 243.878 58.2693 241.539 57.4785C237.846 56.23 236.779 51.1694 239.01 48.2988C239.319 47.9842 239.686 47.5508 239.346 47.9053C239.226 48.0304 239.115 48.1632 239.01 48.2988C238.691 48.6226 238.434 48.8204 239.071 47.9053C239.071 47.7796 238.827 47.2467 238.319 47.1348C235.902 46.6032 235.969 45.4243 237.278 42.6279C237.859 41.3875 239.033 39.7386 240.602 39.5068C241.259 39.4098 242.512 39.2518 242.826 39.1602C243.488 38.9671 246.656 39.7388 247.238 40.2002C247.531 40.4325 247.233 38.3913 247.238 37.835C247.251 36.4285 248.698 35.2609 250.453 33.6133C252.102 32.0653 253.084 32.1727 256 31.5303ZM193.942 39.8535L194.636 41.5869L193.942 44.3604L192.209 44.707L190.476 44.3604L189.436 42.627L189.782 40.8936L191.169 39.5068H192.556L193.942 39.8535ZM195.337 22.8643L198.11 24.5986L199.497 28.7588V32.5723L196.724 33.2656H184.936L185.282 28.0654L185.976 25.292L187.709 22.8643L189.442 22.1709L192.91 21.1309L195.337 22.8643Z" fill="#FFFAD0"/>
<path fill-rule="evenodd" clip-rule="evenodd" d="M200.084 16.6946C199.413 17.0687 199.372 18.2168 200.031 18.2168C201.783 18.2168 204.577 20.7998 205.952 23.6912C206.795 25.464 207.229 25.6965 207.854 24.7098C208.289 24.023 206.897 21.1586 205.282 19.4155C203.796 17.8126 200.848 16.2691 200.084 16.6946ZM178.662 19.1806C177.51 20.0823 176.136 22.1938 175.683 23.7589C175.06 25.9086 175.837 28.7342 176.876 28.095C177.056 27.9838 177.204 27.118 177.204 26.1709C177.204 24.154 178.019 22.1534 179.401 20.7773C180.383 19.8003 180.676 18.5301 179.922 18.5301C179.685 18.5301 179.118 18.8227 178.662 19.1806ZM181.232 20.9584C180.007 22.2621 179.36 23.762 179.468 25.0479C179.613 26.7856 180.517 26.7875 181.02 25.051C181.235 24.3078 181.828 23.1087 182.338 22.3862C183.774 20.3496 182.884 19.2006 181.232 20.9584ZM199.625 20.3073C198.959 20.5698 199.189 21.5437 200.005 21.914C200.431 22.107 201.158 22.8346 201.62 23.5308C202.935 25.5094 204.227 24.9445 203.22 22.8311C202.393 21.0972 200.678 19.8927 199.625 20.3073ZM191.05 20.7086C188.758 20.9825 187.307 21.6511 185.921 23.0718C184.462 24.5685 183.814 26.7555 183.648 30.7536C183.483 34.7084 183.431 34.6626 187.751 34.3747L191.05 34.1544V36.3627C191.05 38.4818 191.017 38.5792 190.229 38.7763C189.341 38.9981 188.237 40.9423 188.225 42.3059C188.216 43.2064 189.274 44.9858 190.202 45.6331C191.191 46.3231 192.675 46.2065 193.845 45.3467C195.451 44.1668 195.749 43.5915 195.76 41.6501C195.771 39.652 195.107 38.6917 193.489 38.3655C192.655 38.1976 192.623 38.1193 192.623 36.2214V34.2516L193.803 34.0827C194.452 33.9896 196.037 33.9201 197.326 33.9279C200.773 33.9489 200.861 33.7336 199.848 27.7732C199.235 24.1618 198.232 22.8493 194.912 21.3152C193.834 20.8174 192.913 20.4307 192.866 20.4561C192.819 20.4815 192.002 20.5952 191.05 20.7086ZM193.725 22.6669C196.204 23.6169 197.973 25.8018 197.973 27.9155C197.973 28.4353 198.142 29.4927 198.35 30.2654C198.557 31.0378 198.644 31.7528 198.542 31.8543C198.44 31.9561 197.102 32.094 195.568 32.1607C194.035 32.2275 191.435 32.3697 189.791 32.4766C185.932 32.7272 185.383 32.7313 185.162 32.512C185.062 32.412 185.2 30.9074 185.47 29.1688C186.085 25.1952 186.912 23.8385 189.247 22.9712C191.142 22.2674 192.45 22.1785 193.725 22.6669ZM132.957 23.9942C132.691 24.6835 134.297 26.8918 135.535 27.5404C136.571 28.0828 138.625 28.2886 139.979 27.9856L141.277 27.6955L141.486 28.8088C141.741 30.1614 143.49 32.0015 144.526 32.0075C144.932 32.0097 145.583 32.0965 145.971 32.2002C146.593 32.366 146.654 32.5308 146.487 33.5757C146.108 35.9332 147.715 38.9765 149.066 38.4601C149.594 38.2587 149.657 37.2852 149.174 36.8039C148.988 36.6184 148.712 35.9235 148.562 35.2602C148.348 34.3145 148.421 33.7556 148.901 32.6752C149.638 31.0155 149.658 30.6254 149.037 30.0066C148.623 29.5949 148.423 29.5896 147.521 29.9643C146.356 30.4493 144.262 30.1545 143.808 29.4407C143.533 29.009 143.288 27.8114 143.146 26.2066C143.043 25.051 142.086 24.8088 140.838 25.6232C140.304 25.9719 139.362 26.1809 138.28 26.1909C136.663 26.2056 136.499 26.1326 135.32 24.8749C134.031 23.4998 133.258 23.2118 132.957 23.9942ZM253.904 31.2085C250.448 31.9618 247.939 34.2374 246.714 37.7295C246.411 38.5961 246.17 38.8593 245.815 38.713C245.549 38.6033 244.404 38.4417 243.272 38.3542C240.527 38.1415 238.733 38.9333 236.993 41.1247C235.85 42.566 235.733 42.8809 235.733 44.538C235.733 46.235 235.822 46.4584 236.992 47.7077C237.684 48.4468 238.251 49.1007 238.251 49.1605C238.251 49.2204 237.897 49.7881 237.464 50.422C236.034 52.5178 236.608 55.6411 238.718 57.2437C239.949 58.1787 243.011 59.2625 244.421 59.2625C244.992 59.2625 245.841 59.0889 246.308 58.8771C247.049 58.5406 247.202 58.5669 247.503 59.082C248.251 60.3614 249.731 61.8333 250.808 62.3666C253.619 63.7594 259.142 64.0063 262.684 62.8977C264.401 62.3604 267.2 59.9781 267.2 59.0548C267.2 58.6904 267.384 58.618 267.908 58.7759C269.704 59.3164 271.348 59.327 272.79 58.8075C275.799 57.7228 276.629 57.1375 277.498 55.4863C278.413 53.7477 278.304 51.9134 277.187 50.2321L276.399 49.0465L277.779 47.593C278.999 46.3071 279.158 45.9718 279.158 44.6903C279.158 43.0899 278.885 42.4432 277.47 40.6848C276.03 38.8954 274.154 38.1747 271.448 38.3718C270.237 38.4598 268.998 38.629 268.695 38.7478C268.291 38.906 268.143 38.8086 268.141 38.3815C268.136 37.4425 266.737 34.7406 265.753 33.7715C263.189 31.2446 258.446 30.2187 253.904 31.2085ZM96.9633 31.7593C96.0114 31.8988 94.8257 32.3099 94.3282 32.6727C93.5352 33.2511 93.2791 33.2893 92.2464 32.981C90.3741 32.4223 88.7249 32.5633 86.9759 33.431C85.1077 34.3581 83.1744 36.343 82.9236 37.5916C82.7987 38.2132 82.3547 38.6641 81.3405 39.1999C79.7039 40.0644 79.027 41.1673 79.027 42.9695C79.027 44.4146 79.6564 45.8481 80.8474 47.1158C81.579 47.8944 81.6083 48.0219 81.1706 48.5257C80.2011 49.6415 80.0053 50.8998 80.5576 52.468C81.1199 54.0654 81.792 54.6782 83.4504 55.1062C84.6351 55.4117 84.8978 56.0124 84.9686 58.5773L85.0058 59.9286L84.036 59.0472C82.2996 57.469 77.6308 52.8487 76.8243 51.9106C76.3916 51.4071 75.604 50.2823 75.0741 49.4106C73.0464 46.0762 68.8181 45.4671 65.6645 48.0551C64.0943 49.3442 63.5795 50.5107 63.5106 52.9386C63.4571 54.8117 63.5465 55.157 64.3567 56.2117C64.8549 56.8602 65.5903 57.4728 65.9908 57.5727C66.4008 57.6752 67.9484 59.2136 69.5324 61.0936C72.6877 64.8382 75.5131 67.7844 78.083 70.0102C79.0349 70.8346 80.2055 71.8557 80.6844 72.279C81.1633 72.7023 81.7502 73.0489 81.9881 73.0489C82.5457 73.0489 82.8031 73.7397 82.8031 75.2365C82.8031 76.3729 83.8273 82.7532 84.2496 84.2465C84.4894 85.0944 85.0618 84.9164 77.4175 86.3731L71.2452 87.5493L69.5425 86.7199C67.9534 85.9457 67.7171 85.9131 65.993 86.2305C62.9461 86.7914 61.3145 88.4517 60.923 91.3897C60.7997 92.3166 60.8686 93.536 61.0908 94.3629C61.5835 96.1943 63.9559 99.4974 65.0868 99.9273C68.2835 101.142 69.607 101.116 71.3321 99.806C72.1021 99.221 72.8022 99.0443 74.7966 98.9309C82.3575 98.501 84.2248 98.3362 87.5231 97.8082C92.7269 96.9751 95.1527 96.7254 98.5366 96.673C100.181 96.648 105.208 96.5242 109.707 96.3986L117.889 96.1698L118.517 97.1361C118.862 97.6675 119.57 98.2816 120.09 98.5004C121.515 99.1001 124.006 98.9597 125.219 98.2115C126.274 97.561 127.799 95.7566 127.803 95.1559C127.804 94.9739 128.034 94.4021 128.314 93.8851C128.594 93.3681 128.891 91.9581 128.973 90.7518C129.105 88.8333 129.02 88.3549 128.298 86.9333C127 84.3766 124.37 83.5823 121.696 84.9393C120.688 85.4513 120.258 85.5011 119.034 85.2479C116.484 84.7203 113.617 84.3227 110.43 84.0541C108.727 83.911 107.255 83.7145 107.158 83.618C107.061 83.5215 107.129 83.1684 107.309 82.8337C107.489 82.4991 108.076 80.074 108.615 77.4445C109.153 74.8151 109.717 72.3408 109.867 71.9456C110.018 71.5505 110.964 70.6902 111.97 70.0337C114.022 68.694 116.39 66.8008 117.855 65.3301C120.873 62.2986 124.236 58.5281 124.599 57.7692C124.828 57.2895 125.397 56.6794 125.862 56.4134C126.877 55.8338 127.665 53.2617 127.347 51.5725C127.149 50.5204 127.173 50.4881 128.18 50.4489C128.75 50.4267 129.571 50.3772 130.004 50.339C130.436 50.3008 132.631 50.1601 134.881 50.0263C137.131 49.8925 139.215 49.6575 139.512 49.5043C140.507 48.9901 140.808 46.8554 140.758 40.6428C140.731 37.3814 140.625 34.4477 140.522 34.1234C140.419 33.7991 139.983 33.4009 139.554 33.2386C138.692 32.9121 126.028 32.8936 120.967 33.2113C118.699 33.3539 117.609 33.556 117.266 33.8984C116.863 34.3004 116.772 35.4441 116.739 40.566C116.711 44.7019 116.583 46.8228 116.35 46.9739C115.762 47.3539 115.301 48.4083 114.918 50.2428C114.585 51.8389 114.304 52.2496 111.766 54.8456C110.233 56.4131 108.824 57.6959 108.635 57.6959C108.222 57.6959 108.186 56.1537 108.584 55.527C108.74 55.282 109.326 54.9295 109.887 54.7437C111.939 54.0641 113.132 51.1066 112.167 49.0913C111.659 48.0301 111.663 47.9602 112.286 47.2803C113.179 46.3036 113.532 45.5363 113.784 44.0192C114.061 42.3542 113.206 40.5861 111.44 39.1736C110.561 38.4699 110.178 37.92 110.175 37.3557C110.163 35.2764 108.014 33.5838 105.374 33.5748C104.307 33.5713 103.53 33.3438 102.689 32.7896C101.185 31.7988 99.1691 31.436 96.9633 31.7593ZM260.199 32.6821C264.204 33.6863 266.258 36.1951 266.313 40.1483C266.336 41.7939 266.949 42.0734 268.109 40.9667C269.363 39.7702 272.508 39.4828 274.313 40.4C275.873 41.192 277.27 43.1196 277.27 44.4791C277.27 45.8161 275.612 47.6378 274.118 47.9417C272.594 48.2522 272.628 49.2032 274.189 49.9351C276.185 50.871 276.776 52.8957 275.641 54.9076C275.076 55.9077 274.602 56.2514 272.882 56.9057C271.74 57.3403 270.618 57.6959 270.388 57.6959C269.68 57.6959 267.7 56.6512 267.158 55.9917C266.417 55.0909 265.75 55.7623 265.54 57.6222C265.402 58.8436 265.163 59.2844 264.189 60.1232C263.538 60.6834 262.498 61.2878 261.878 61.4664C258.539 62.4277 253.397 62.0552 251.387 60.7063C250.012 59.7839 248.949 58.1242 248.949 56.8997C248.949 55.5991 248.278 55.3359 247.289 56.2486C245.799 57.6238 244.704 57.8604 242.718 57.2372C239.624 56.2662 238.555 55.1156 238.575 52.7767C238.588 51.3106 239.012 50.7272 240.615 49.9758C241.867 49.3887 242.433 48.4061 241.657 48.1645C241.427 48.0934 240.861 47.953 240.399 47.8524C239.352 47.6249 237.702 46.0198 237.552 45.082C237.272 43.3377 238.75 41.1184 240.768 40.2524C241.554 39.9152 242.455 39.8306 243.915 39.9566C245.627 40.1048 246.068 40.2671 246.626 40.9558C247.472 42.0004 248.521 41.8854 248.382 40.7634C248.073 38.279 249.578 35.142 251.709 33.8311C253.987 32.4289 257.365 31.9718 260.199 32.6821ZM101.054 33.9175C101.66 34.2797 102.463 34.949 102.84 35.4046C103.389 36.0698 103.603 36.1559 103.925 35.8414C104.348 35.4284 105.779 35.3335 106.933 35.6418C107.778 35.8674 108.607 37.5246 108.404 38.583C108.28 39.2344 108.473 39.4982 109.55 40.1496C110.999 41.0254 112.068 42.5058 112.066 43.6332C112.065 44.5876 111.038 46.272 110.178 46.7304C109.812 46.925 109.099 46.9939 108.592 46.883C107.392 46.6207 105.459 44.3877 105.459 43.2647C105.459 42.8 105.241 42.2389 104.974 42.018C104.571 41.6858 104.28 41.7325 103.285 42.2893L102.083 42.962L100.703 42.1865C99.9441 41.7601 99.1565 41.3274 98.9523 41.2252C98.7484 41.1231 97.8506 41.615 96.9576 42.3178C95.0004 43.8581 93.7118 43.9954 92.3005 42.8129C90.8476 41.5956 90.2435 41.7776 89.2507 43.7319C88.5225 45.165 88.1468 45.5363 86.8733 46.0818C84.7773 46.9795 83.4799 46.9193 82.2121 45.8656C81.4752 45.2531 81.1026 44.6176 80.9305 43.6802C80.6262 42.0233 81.0733 41.3189 82.9787 40.4548C84.0221 39.9813 84.3767 39.6439 84.3777 39.1235C84.3793 38.065 85.4611 36.5197 86.9621 35.4312C88.3907 34.395 88.9329 34.3593 93.3958 35.007C94.5101 35.1686 94.7581 35.1 95.0551 34.547C95.7628 33.2301 99.2865 32.8604 101.054 33.9175ZM129.725 35.0581C129.745 35.1875 129.803 36.0331 129.854 36.938L129.946 38.583H128.401H126.857V36.703V34.8231H128.273C129.052 34.8231 129.705 34.9286 129.725 35.0581ZM138.837 38.2195C138.874 43.813 138.785 46.4424 138.534 47.1164C138.27 47.8273 138.247 47.8314 132.993 48.1134C131.089 48.2156 128.729 48.386 127.748 48.4919C126.138 48.6658 125.925 48.6176 125.546 47.9937C124.892 46.9171 122.236 45.7143 120.415 45.6707C119.34 45.645 118.766 45.4821 118.623 45.1628C118.394 44.6518 118.616 35.7179 118.863 35.4716C118.947 35.3886 120.354 35.2627 121.992 35.1912L124.969 35.0615V36.4699C124.969 38.5122 125.294 39.8215 125.876 40.1189C126.156 40.2618 127.271 40.4551 128.354 40.5481C129.957 40.6857 130.453 40.6118 131.027 40.1487C131.721 39.5891 131.781 39.2519 131.878 35.367C131.89 34.871 132.248 34.8174 135.353 34.8469L138.815 34.8795L138.837 38.2195ZM193.824 41.517C194.005 43.7109 191.975 45.0184 190.718 43.5179C189.336 41.8691 190.274 40.0553 192.426 40.2119C193.687 40.3034 193.727 40.3411 193.824 41.517ZM100.254 43.9427C101.135 44.4127 101.835 44.5565 102.688 44.4425C103.577 44.3237 103.886 44.3945 103.886 44.7173C103.886 44.9563 104.536 45.8239 105.331 46.6455L106.777 48.1394L106.743 51.8993C106.687 58.1828 106.509 59.1099 105.012 60.9391C102.9 63.519 102.389 63.7024 96.7943 63.8894C91.2526 64.0749 89.9631 63.786 88.1858 61.9599C87.1924 60.9394 87.1392 60.7483 86.5483 56.0888C86.2125 53.44 85.8831 50.6382 85.8161 49.8627L85.6946 48.4528L87.4209 47.6979C88.4719 47.2383 89.5276 46.4719 90.1185 45.7397C91.1699 44.4372 91.6349 44.2764 92.2432 45.0062C93.1085 46.0445 96.568 45.3019 98.2106 43.725C98.7984 43.161 98.7877 43.1601 100.254 43.9427ZM122.609 48.2322C124.737 49.2994 125.849 51.9833 125.115 54.2837C125.011 54.6112 124.398 55.0213 123.702 55.2287C121.28 55.9513 118.223 54.0055 117.265 51.1307C116.755 49.6023 116.759 49.53 117.4 48.6332C118.34 47.3185 120.461 47.1553 122.609 48.2322ZM71.9029 48.768C73.1077 49.2693 73.4762 50.0285 73.4844 52.0269C73.4882 52.9067 73.2232 53.3341 71.9793 54.4551C70.5375 55.7551 70.3821 55.8159 68.5038 55.8159C66.314 55.8159 65.6412 55.3807 65.3237 53.7586C65.1104 52.6692 65.9005 50.2697 66.6784 49.6447C68.3443 48.3055 70.0882 48.0128 71.9029 48.768ZM100.176 48.9287C99.0646 49.6017 98.9463 49.9179 99.6027 50.4602C99.9297 50.7303 100.236 50.7319 100.822 50.4665C101.343 50.2296 101.8 50.2124 102.194 50.4148C102.969 50.8127 103.571 50.5765 103.571 49.8749C103.571 48.5963 101.622 48.0529 100.176 48.9287ZM89.9694 49.1559C88.5216 50.0498 88.4747 51.116 89.8832 51.116C90.2954 51.116 90.729 50.9609 90.8467 50.771C90.9663 50.5787 91.449 50.5035 91.9392 50.6012C92.5258 50.7181 92.954 50.6122 93.2281 50.2835C93.5752 49.8671 93.5255 49.6995 92.9062 49.2C92.0063 48.4744 91.095 48.4606 89.9694 49.1559ZM109.739 48.8491C110.889 49.6136 110.996 51.6045 109.949 52.761C108.952 53.8626 108.568 53.4506 108.637 51.351C108.725 48.6787 108.897 48.2892 109.739 48.8491ZM83.8918 49.3144C83.9604 49.53 84.0737 50.5166 84.1436 51.5077C84.254 53.0721 84.1974 53.3093 83.7122 53.3093C82.9592 53.3093 82.1737 52.1265 82.1737 50.9926C82.1737 49.6349 83.5617 48.2792 83.8918 49.3144ZM95.0982 51.9416C94.0331 53.2896 94.3861 54.7023 95.7401 54.5115C96.3018 54.4326 96.4991 54.2004 96.5224 53.591C96.5394 53.1429 96.6577 52.6078 96.7855 52.4022C97.0205 52.0237 96.4686 51.116 96.0035 51.116C95.8641 51.116 95.4566 51.4876 95.0982 51.9416ZM118.276 55.5847C119.101 56.1813 120.369 56.8653 121.093 57.1043L122.409 57.5392L119.205 61.0472C116.021 64.5326 112.828 67.3329 109.983 69.1323C108.581 70.0196 108.457 70.2126 107.773 72.5789C107.374 73.9575 107.044 75.401 107.04 75.7864C107.032 76.5399 105.717 81.76 105.194 83.1126C104.83 84.0535 103.971 84.3048 101.757 84.1171C100.938 84.0476 99.3469 84.1306 98.222 84.3017C97.097 84.4724 94.0189 84.703 91.3813 84.8136L86.5864 85.0145L86.2374 84.1234C85.7556 82.8914 84.7968 77.4477 84.5677 74.6424C84.3566 72.0544 84.4397 72.2273 82.9831 71.3434C80.0233 69.5474 75.7784 65.5569 71.0841 60.1577L69.2747 58.0766L70.1281 57.8632C71.2956 57.5715 73.8334 55.6715 74.6723 54.4611C75.0515 53.9137 75.3945 53.4202 75.4344 53.3645C75.4744 53.309 76.6884 54.4906 78.1324 55.9904C81.7376 59.7356 86.137 63.3326 88.6808 64.6144L90.8064 65.6857L96.4809 65.6663C100.627 65.6522 102.367 65.5328 102.942 65.2226C104.005 64.6492 108.657 60.4591 112.694 56.4404C115.858 53.2902 116.018 53.1774 116.388 53.8241C116.601 54.1957 117.45 54.9878 118.276 55.5847ZM95.3333 57.4039C91.291 57.6887 90.2356 58.1007 90.1034 59.4455C89.8936 61.5808 92.9758 62.9275 97.3673 62.6189C98.8129 62.5173 100.379 62.2604 100.847 62.048C102.445 61.3229 103.546 58.5603 102.549 57.777C101.936 57.2954 99.014 57.1444 95.3333 57.4039ZM99.5351 59.1463C100.315 59.2747 100.639 59.4712 100.532 59.7504C100.085 60.9078 93.4484 60.9971 92.1287 59.8635C91.9792 59.735 92.6872 59.5395 93.702 59.4289C94.7168 59.3186 95.8305 59.1845 96.1766 59.1312C97.3497 58.9507 98.3755 58.9555 99.5351 59.1463ZM218.702 72.8731C217.339 73.7952 216.538 75.3559 216.538 77.0911C216.538 78.2576 216.465 78.3754 215.739 78.3754C214.434 78.3754 212.507 79.5532 211.614 80.8971C210.429 82.6802 210.41 85.3222 211.569 87.0671C212.51 88.4824 214.078 89.3418 215.72 89.3418C216.843 89.3418 216.853 89.3537 216.854 90.6735C216.855 92.3322 217.726 93.8067 219.019 94.3397C219.855 94.6847 220 94.9074 220 95.8515V96.9588L219.292 96.3619C218.902 96.0335 218.508 95.6657 218.417 95.5441C218.324 95.4226 217.468 94.967 216.513 94.5318C214.246 93.4981 210.373 93.2631 209.816 94.1251C209.517 94.5872 209.651 94.8717 210.63 95.8484C212.561 97.7763 213.701 99.1618 214.106 100.073C214.317 100.547 214.59 100.935 214.714 100.935C214.838 100.935 215.109 101.497 215.315 102.183C215.964 104.34 216.245 104.447 221.482 104.528C227.088 104.614 228.315 104.386 228.966 103.132C229.226 102.63 229.44 102.079 229.44 101.906C229.44 101.574 231.102 98.9782 231.934 98.0094C232.207 97.6929 233.047 96.8332 233.803 96.099C235.048 94.8896 235.141 94.6969 234.795 94.0521C234.433 93.3787 234.29 93.3521 232.162 93.5602C229.492 93.8212 227.152 94.7229 225.742 96.0335L224.72 96.9845V95.8979C224.72 94.993 224.891 94.7188 225.742 94.2617C227.046 93.562 227.866 92.1358 227.866 90.5698C227.866 89.3998 227.915 89.3403 228.889 89.3105C230.515 89.261 231.277 88.9433 232.404 87.8445C234.215 86.0801 234.421 83.0267 232.884 80.7366C232.03 79.4645 230.117 78.3754 228.737 78.3754C227.882 78.3754 227.848 78.3228 228.043 77.2891C228.316 75.8359 227.282 73.746 225.828 72.8139C224.928 72.237 224.284 72.1089 222.28 72.1089C220.203 72.1089 219.66 72.2248 218.702 72.8731ZM225.303 74.7405C225.972 75.4066 226.067 75.7736 226.037 77.5626C225.997 79.9204 226.299 80.2554 228.47 80.2554C231.124 80.2554 233.025 83.5105 231.658 85.7132C230.781 87.1266 229.752 87.5343 228.03 87.1501C226.066 86.7115 224.975 87.308 225.688 88.4304C225.842 88.6732 225.971 89.5314 225.974 90.3373C225.98 92.3573 225.042 93.1017 222.489 93.1017C219.143 93.1017 218.493 92.3717 218.873 89.0357C219.059 87.397 219.016 87.1783 218.476 87.0075C218.143 86.9023 217.2 86.9659 216.381 87.1486C215.004 87.4559 214.813 87.4208 213.84 86.682C212.363 85.5603 212.109 84.0435 213.09 82.2017C213.89 80.7015 214.674 80.2554 216.51 80.2554C218.179 80.2554 218.825 79.478 218.554 77.7945C218.22 75.7121 218.887 74.6142 220.944 73.8619C222.024 73.4668 224.531 73.9719 225.303 74.7405ZM221.324 81.5231C220.527 81.8417 219.689 83.4939 219.906 84.3186C220.073 84.9546 221.587 85.8952 222.444 85.8952C222.784 85.8952 223.435 85.6029 223.891 85.2457C225.056 84.3333 225.001 83.0534 223.751 82.0066C222.71 81.1339 222.435 81.0791 221.324 81.5231ZM112.077 86.0601C114.235 86.3229 116.748 86.7083 117.662 86.9167C119.289 87.2877 119.318 87.314 119.119 88.2402C119.006 88.76 118.737 89.5377 118.52 89.9685C118.304 90.3993 118.027 91.5624 117.906 92.5534L117.686 94.3551L113.225 94.3573C105.29 94.361 94.9421 94.7107 94.0057 95.0068C93.5038 95.1653 92.4864 95.295 91.7448 95.295C91.0031 95.295 89.4187 95.5 88.2239 95.75C87.0291 96.0003 84.9312 96.2836 83.5617 96.3798C82.1926 96.4756 80.2936 96.6276 79.3417 96.7175C78.3898 96.8071 76.6789 96.9347 75.5395 97.0008L73.4677 97.1211L73.4558 94.8764C73.4476 93.3383 73.233 92.111 72.7745 90.9768C72.2773 89.7467 72.2062 89.292 72.4982 89.2065C72.7141 89.1429 75.5106 88.5886 78.7123 87.9745C83.7603 87.0066 85.3906 86.8327 90.9845 86.6667C94.5324 86.5614 97.9715 86.3587 98.6266 86.2161C99.2821 86.0735 100.627 86.0209 101.616 86.0995C102.605 86.1782 104.051 86.1092 104.83 85.9466C106.888 85.5164 107.722 85.5293 112.077 86.0601ZM125.269 86.5137C126.134 86.975 127.172 88.9326 127.172 90.1035C127.172 91.2256 126.533 93.2938 125.7 94.8661C124.775 96.6135 122.29 97.4679 120.659 96.5991C119.316 95.8831 119.35 93.0256 120.745 89.3171C121.364 87.6728 121.727 87.1539 122.537 86.7522C123.732 86.1597 124.481 86.0942 125.269 86.5137ZM69.2527 89.0457C70.7279 90.6528 71.5954 93.0165 71.5404 95.2787C71.5035 96.7943 71.3742 97.1292 70.5375 97.88C68.7911 99.4466 66.2293 98.8785 64.4662 96.5336C61.245 92.2498 62.6978 88.0697 67.4994 87.8072C67.8222 87.7896 68.6111 88.347 69.2527 89.0457ZM222.836 97.4435C222.839 98.5884 222.965 99.7201 223.117 99.9589C223.51 100.576 224.931 100.153 225.378 99.2862C225.984 98.1143 227.333 96.8369 228.496 96.335C229.976 95.6958 231.328 95.3007 231.328 95.5072C231.328 95.5996 230.761 96.3845 230.068 97.2511C229.375 98.1178 228.372 99.7073 227.84 100.783L226.873 102.74L222.414 102.749C217.901 102.759 217.168 102.595 217.168 101.577C217.168 100.965 215.64 98.538 214.116 96.7291C213.547 96.0533 213.133 95.4479 213.197 95.384C213.261 95.3204 214.023 95.5363 214.89 95.8644C216.716 96.5552 218.928 98.2224 219.153 99.0766C219.361 99.869 220.834 100.543 221.313 100.066C221.507 99.8727 221.733 98.6611 221.816 97.3733C221.933 95.5573 222.064 95.0688 222.399 95.197C222.705 95.3138 222.833 95.9709 222.836 97.4435ZM158.953 97.3332C158.788 97.765 158.493 99.3573 158.299 100.871C157.801 104.735 158.442 108.609 160.15 112.067C161.557 114.914 164.025 117.626 165.073 117.476C166.183 117.317 165.956 116.425 164.384 114.776C162.829 113.143 160.951 109.808 160.478 107.834C159.926 105.533 159.855 101.451 160.333 99.4175C160.589 98.3246 160.723 97.2317 160.629 96.9892C160.348 96.2588 159.279 96.4785 158.953 97.3332ZM183.652 96.866C183.544 97.0409 183.601 97.9223 183.779 98.8243C184.261 101.268 184.312 102.691 184.023 105.598C183.694 108.905 182.171 112.279 179.95 114.623C178.368 116.291 178.113 117.279 179.207 117.489C180.116 117.663 182.861 114.569 184.172 111.892C185.877 108.41 186.651 102.233 185.751 99.2843C185.581 98.7272 185.356 97.884 185.251 97.41C185.057 96.5367 184.066 96.1996 183.652 96.866ZM166.819 99.2125C166.603 99.4717 166.279 100.894 166.099 102.373C165.683 105.791 166.126 108.849 167.451 111.698C168.261 113.441 168.546 113.781 169.193 113.781C170.19 113.781 170.182 113.267 169.147 111.02C167.929 108.375 167.598 105.849 168.02 102.429C168.277 100.358 168.279 99.4522 168.031 99.1539C167.586 98.6197 167.302 98.6335 166.819 99.2125ZM176.268 99.0502C175.949 99.2467 175.921 99.9341 176.14 102.233C176.499 106.004 176.165 108.589 174.988 111.147C173.981 113.337 174.002 113.781 175.114 113.781C175.674 113.781 176.002 113.378 176.709 111.823C177.885 109.237 178.199 107.615 178.173 104.264C178.141 100.104 177.483 98.3026 176.268 99.0502ZM153.063 103.193C152.68 103.671 153.022 108.855 153.57 110.852C154.587 114.565 157.18 118.788 159.897 121.161C160.676 121.841 161.39 122.499 161.483 122.623C161.921 123.203 166.587 125.078 167.15 124.9C168.471 124.482 167.815 123.631 165.231 122.41C161.065 120.44 157.823 116.727 155.82 111.633C155.457 110.711 154.987 108.386 154.774 106.468C154.471 103.734 154.28 102.959 153.888 102.884C153.614 102.831 153.242 102.97 153.063 103.193ZM189.885 103.193C189.709 103.416 189.537 104.507 189.502 105.617C189.282 112.696 184.923 119.634 178.978 122.368C176.882 123.332 176.545 123.594 176.632 124.196C176.783 125.252 177.551 125.21 180.181 124C183.657 122.401 186.944 119.024 188.931 115.01C190.657 111.524 191.041 109.947 191.136 105.957C191.196 103.458 191.128 102.974 190.706 102.889C190.431 102.833 190.061 102.97 189.885 103.193ZM110.439 133.004C109.315 133.501 108.428 134.687 108.178 136.027C108.036 136.79 107.694 137.282 107.058 137.642C105.722 138.399 105.015 139.587 105.436 140.37C105.683 140.831 106.241 141.054 107.554 141.217C109.427 141.45 111.119 142.54 111.128 143.521C111.131 143.794 111.32 144.511 111.549 145.114C112.986 148.899 114.503 151.067 115.713 151.067C116.388 151.067 116.473 151.205 116.473 152.301C116.473 153.314 116.268 153.727 115.324 154.614C114.562 155.329 114.24 155.864 114.37 156.2C114.691 157.033 115.659 156.781 117.05 155.502C118.128 154.511 118.361 154.093 118.361 153.152V152.007H120.058C121.315 152.007 121.804 152.136 121.946 152.503C122.268 153.337 122.16 154.104 121.665 154.514C121.045 155.026 121.061 156.05 121.692 156.291C121.999 156.408 122.515 156.16 123.03 155.647C123.717 154.962 123.864 154.538 123.845 153.287C123.825 151.903 123.912 151.712 124.789 151.214C126.982 149.969 128.469 148.101 129.521 145.271C130.178 143.503 130.444 143.246 131.617 143.239C132.072 143.236 132.63 143.011 132.857 142.739C133.265 142.249 133.235 142.08 132.385 140.065C132.222 139.679 132.408 139.512 133.168 139.361C134.128 139.17 134.156 139.119 133.944 137.987C133.678 136.571 133.429 136.248 131.669 135.042C130.596 134.308 129.859 134.076 128.189 133.948C125.292 133.726 123.635 134.558 122.306 136.902C121.074 139.071 120.37 139.024 119.476 136.711C118.329 133.741 116.553 132.565 113.279 132.606C112.18 132.62 110.902 132.799 110.439 133.004ZM115.632 134.888C116.779 135.365 117.655 136.507 117.932 137.887C118.281 139.627 119.742 140.584 121.706 140.36C122.418 140.279 122.782 139.937 123.427 138.746C123.878 137.915 124.534 136.948 124.887 136.597C126.158 135.331 129.822 135.556 131.116 136.979C131.658 137.576 131.649 137.594 130.818 137.594C128.704 137.594 128.093 138.975 129.689 140.15C130.862 141.013 130.864 141.183 129.712 141.658C128.739 142.059 128.706 142.111 127.77 144.769C127.089 146.699 125.355 149.158 124.654 149.187C124.395 149.198 123.907 149.414 123.572 149.667C122.334 150.599 116.858 149.909 115.442 148.643C114.624 147.912 113.29 144.98 113.086 143.464C112.985 142.713 112.591 141.924 112.048 141.383C110 139.344 109.393 136.472 110.704 135.03C111.341 134.329 114.097 134.25 115.632 134.888ZM111.225 136.529C111.026 137.046 111.667 137.66 112.225 137.486C112.398 137.432 112.585 137.082 112.64 136.708C112.716 136.194 112.579 136.027 112.079 136.027C111.716 136.027 111.331 136.253 111.225 136.529ZM223.876 141.655C221.398 142.243 216.908 145.24 216.006 146.908C215.523 147.802 215.288 147.935 214.185 147.944C213.255 147.95 212.461 148.262 211.189 149.119C209.576 150.204 209.458 150.369 209.458 151.533C209.458 152.599 209.59 152.845 210.361 153.212C210.857 153.449 211.809 153.716 212.476 153.805L213.689 153.967L213.068 154.753C211.836 156.312 212.49 157.96 214.34 157.96C214.938 157.96 214.989 158.076 214.787 158.979C214.321 161.068 213.825 166.968 213.929 169.193C213.994 170.594 214.265 171.966 214.619 172.697L215.202 173.897L213.906 174.937C213.193 175.509 212.184 176.141 211.663 176.341C208.711 177.479 207.748 177.763 206.469 177.875C203.555 178.131 201.257 178.521 200.647 178.863C198.787 179.905 197.029 182.679 197.029 184.572C197.029 185.831 196.447 186.086 192.987 186.346C190.298 186.548 190.105 186.523 190.085 185.969C189.933 181.749 189.764 180.079 189.416 179.352C188.974 178.429 188.65 178.332 184.127 177.781C182.562 177.59 182.107 177.423 182.189 177.068C182.248 176.812 182.361 174.933 182.44 172.892C182.593 168.915 182.285 167.261 181.291 166.731C180.97 166.56 178.546 166.42 175.904 166.42C170.771 166.42 170.646 166.357 173.142 165.032C174.618 164.248 175.147 163.13 174.212 162.772C173.681 162.569 171.191 163.628 170.203 164.477C169.697 164.913 169.648 164.878 169.603 164.04C169.575 163.54 169.575 162.874 169.602 162.561C169.688 161.587 169.039 160.734 168.294 160.839C167.655 160.93 167.61 161.097 167.65 163.208C167.674 164.458 167.626 165.48 167.546 165.48C167.464 165.48 166.779 164.975 166.023 164.358C165.266 163.74 164.394 163.284 164.085 163.343C163.135 163.525 163.253 164.48 164.35 165.477L165.387 166.42L163.508 166.452C159.706 166.516 157.446 166.656 157.139 166.845C156.965 166.952 156.709 167.71 156.57 168.531C156.43 169.352 156.273 170.235 156.221 170.493C156.169 170.752 155.948 172.726 155.73 174.88L155.335 178.796L153.522 178.891C152.004 178.969 151.628 179.109 151.206 179.75C150.929 180.171 150.78 180.715 150.875 180.96C150.969 181.205 151.145 185.276 151.266 190.005L151.486 198.605L149.881 198.758C147.215 199.014 147.343 198.517 147.331 208.609C147.326 213.519 147.24 217.667 147.14 217.827C147.04 217.988 146.411 218.119 145.741 218.119C144.273 218.119 143.552 218.752 143.485 220.099C143.342 222.946 143.692 223.249 147.099 223.223L149.744 223.204L150.114 224.849C150.32 225.764 150.793 226.784 151.183 227.148C152.819 228.679 156.634 229.463 159.101 228.775C160.578 228.363 162.692 226.439 163.424 224.839C163.756 224.112 163.917 224.055 165.226 224.203C166.016 224.292 168.964 224.462 171.776 224.58L176.89 224.795L177.663 226.423C178.67 228.542 179.985 229.488 182.633 229.998C184.629 230.382 184.884 230.363 186.83 229.678C189.065 228.893 190.493 227.529 190.915 225.777C191.231 224.465 191.63 224.072 192.651 224.072C193.229 224.072 193.667 223.846 193.889 223.433C194.128 222.988 194.203 218.03 194.136 207.14L194.039 191.486L196.911 191.486C198.49 191.486 200.21 191.401 200.734 191.297C201.51 191.142 201.723 191.225 201.89 191.749C202.003 192.102 202.831 192.849 203.731 193.407C205.778 194.677 207.979 194.783 209.743 193.698C210.365 193.315 210.874 192.907 210.874 192.792C210.874 192.677 212.113 192.583 213.628 192.583C215.142 192.583 216.763 192.476 217.231 192.346C218.166 192.085 218.243 192.197 219.638 195.873C220.859 199.09 220.853 199.222 219.447 200.676C218.1 202.07 217.537 203.151 216.725 205.899C215.815 208.979 215.634 209.779 215.271 212.322C215.075 213.701 214.703 215.464 214.444 216.239C213.764 218.279 214.11 220.005 215.535 221.673C217.324 223.768 218.686 224.421 221.357 224.463C224.026 224.504 225.563 223.856 227.279 221.964C228.404 220.725 229.233 218.217 229.585 214.986C229.898 212.127 230.368 210.227 231.045 209.096C232.32 206.965 232.442 206.965 234.754 209.084C237.859 211.93 238.891 212.49 241.411 212.701C244.567 212.964 248.026 211.859 250.478 209.805L251.467 208.977L252.804 209.613C255.061 210.687 255.705 210.727 257.96 209.934C260.165 209.159 260.977 208.312 261.798 205.931C262.718 203.264 261.864 200.045 259.67 197.899C257.63 195.905 257.431 195.818 254.92 195.818C252.963 195.818 252.567 195.932 250.827 197.001C249.244 197.974 248.621 198.181 247.332 198.161C245.497 198.134 244.228 197.207 244.231 195.897C244.232 195.453 244.025 194.455 243.773 193.679C243.52 192.904 242.878 190.46 242.347 188.249C241.001 182.65 239.409 179.356 236.44 176.024L235.365 174.819L236.021 174.211C237.502 172.837 237.936 171.363 237.936 167.707C237.936 164.275 237.937 164.269 238.844 163.626C240.304 162.59 240.749 161.024 240.617 157.382C240.554 155.643 240.412 154.075 240.302 153.897C240.192 153.72 240.323 153.261 240.592 152.878C241.623 151.412 240.857 144.192 239.52 142.775C239.149 142.382 238.138 141.953 237.057 141.731C235.061 141.321 225.519 141.266 223.876 141.655ZM233.059 143.659C235.308 143.728 237.388 143.883 237.679 144.005C238.359 144.287 238.88 146.679 238.88 149.516V151.694L234.239 151.738C229.663 151.781 214.053 151.767 212.369 151.719C210.275 151.658 212.528 150.109 215.119 149.828C216.43 149.685 216.756 149.518 217.093 148.816C217.316 148.353 218.167 147.386 218.985 146.668C221.702 144.283 224.226 143.298 227.235 143.448C228.188 143.496 230.809 143.591 233.059 143.659ZM98.3182 145.003C98.1965 145.319 98.3469 145.683 98.7072 145.945C99.2056 146.309 99.363 146.305 99.7453 145.924C99.9932 145.678 100.11 145.253 100.006 144.982C99.7547 144.331 98.5716 144.346 98.3182 145.003ZM104.201 150.735C104.201 151.579 104.796 151.862 105.369 151.291C105.943 150.72 105.659 150.127 104.811 150.127C104.417 150.127 104.201 150.342 104.201 150.735ZM95.2851 150.649C94.6164 151.315 95.3503 152.406 96.2553 152.091C96.901 151.867 96.7424 150.44 96.0718 150.44C95.7543 150.44 95.4003 150.534 95.2851 150.649ZM81.9736 151.848C81.8647 152.131 81.9264 152.513 82.1108 152.696C82.5904 153.174 83.4985 152.737 83.3733 152.09C83.2339 151.369 82.2257 151.195 81.9736 151.848ZM88.2758 153.079C88.0477 153.671 88.6893 154.827 89.2463 154.827C89.8788 154.827 90.1299 154.284 89.9068 153.399C89.6925 152.549 88.5653 152.328 88.2758 153.079ZM99.8079 153.715C99.2538 154.38 99.5382 155.282 100.338 155.396C100.857 155.47 101.082 155.296 101.23 154.709C101.565 153.378 100.632 152.726 99.8079 153.715ZM106.407 153.726C105.884 154.354 106.232 155.14 107.033 155.14C107.39 155.14 107.764 154.927 107.864 154.666C108.045 154.197 107.491 153.26 107.033 153.26C106.902 153.26 106.62 153.47 106.407 153.726ZM238.486 154.435C238.575 154.699 238.26 154.827 237.526 154.827C236.926 154.827 236.042 155.03 235.562 155.278C234.774 155.685 234.566 155.667 233.436 155.092C232.502 154.618 231.855 154.505 230.89 154.649C229.354 154.877 223.473 155.112 219.59 155.099C217.538 155.092 216.616 155.223 216.031 155.605C215.196 156.149 214.516 156.146 214.896 155.6C215.021 155.421 215.504 154.984 215.971 154.627C216.793 154 217.159 153.98 227.587 154.011C235.898 154.036 238.385 154.133 238.486 154.435ZM225.485 158.256C226.017 158.696 226.819 158.388 227.007 157.673C227.121 157.238 227.386 157.148 228.218 157.263C228.803 157.344 229.52 157.617 229.81 157.869C230.556 158.519 231.491 158.255 231.46 157.402C231.429 156.547 231.764 156.527 232.877 157.316C233.639 157.857 233.883 157.883 235.029 157.546C235.74 157.337 236.425 157.063 236.551 156.937C236.918 156.572 237.828 156.67 238.198 157.113C238.734 157.758 238.854 159.906 238.412 160.968C238.19 161.501 237.477 162.264 236.829 162.664L235.65 163.389L235.865 166.766C236.06 169.829 236.018 170.264 235.416 171.439C234.312 173.592 233.514 173.788 225.978 173.753C219.952 173.725 219.441 173.677 218.212 173.028C216.086 171.905 216.066 171.846 216.067 166.763C216.068 160.577 217.067 155.515 217.863 157.66C218.132 158.382 219.31 158.481 219.571 157.804C219.671 157.545 219.96 157.334 220.213 157.334C220.467 157.334 220.886 157.545 221.146 157.804C221.765 158.42 222.062 158.397 222.741 157.677C223.501 156.87 224.846 156.697 224.975 157.389C225.028 157.678 225.258 158.068 225.485 158.256ZM92.3716 157.765C92.117 158.426 92.4745 158.9 93.2278 158.9C93.703 158.9 93.8354 158.726 93.7599 158.198C93.6425 157.379 92.6409 157.067 92.3716 157.765ZM219.49 159.355C219.248 159.983 219.607 160.467 220.314 160.467C221.038 160.467 221.324 160.062 221.068 159.398C220.828 158.775 219.725 158.745 219.49 159.355ZM228.304 159.347C228.017 160.09 228.422 160.84 229.046 160.721C229.394 160.654 229.597 160.329 229.597 159.84C229.597 158.947 228.604 158.568 228.304 159.347ZM87.6289 160.331C87.5247 160.601 87.5905 160.973 87.7749 161.156C88.2642 161.643 89.0965 161.216 89.0965 160.477C89.0965 159.704 87.9155 159.587 87.6289 160.331ZM97.6713 160.383C97.4551 160.457 97.2779 160.774 97.2779 161.086C97.2779 161.695 97.8207 162.026 98.458 161.805C98.6744 161.73 98.8513 161.413 98.8513 161.101C98.8513 160.492 98.3085 160.161 97.6713 160.383ZM102.894 160.917C102.479 161.823 102.728 162.66 103.411 162.66C104.006 162.66 104.67 161.319 104.409 160.644C104.125 159.904 103.288 160.056 102.894 160.917ZM78.8253 160.939C78.7142 161.227 78.8432 161.671 79.117 161.944C79.7854 162.609 80.6718 162.228 80.5437 161.33C80.4198 160.46 79.1236 160.165 78.8253 160.939ZM222.469 162.797C222.021 163.775 222.318 164.54 223.144 164.54C223.835 164.54 224.559 163.197 224.27 162.45C224.001 161.75 222.846 161.973 222.469 162.797ZM85.4432 164.987C85.1568 165.73 85.5618 166.48 86.1848 166.361C86.5332 166.294 86.7365 165.969 86.7365 165.48C86.7365 164.587 85.7434 164.208 85.4432 164.987ZM225.992 165.934C225.528 166.49 225.737 166.884 227.479 168.731C228.912 170.251 229.754 170.366 229.754 169.043C229.754 168.232 227.444 165.48 226.764 165.48C226.547 165.48 226.2 165.684 225.992 165.934ZM97.6461 166.787C97.7153 167.273 97.9598 167.517 98.3793 167.517C99.3164 167.517 99.2229 166.294 98.2755 166.16C97.6653 166.074 97.5596 166.179 97.6461 166.787ZM219.859 166.908C219.224 167.873 219.327 169.353 220.037 169.488C220.626 169.599 222.221 167.147 221.976 166.51C221.707 165.813 220.42 166.056 219.859 166.908ZM180.302 172.997C180.236 175.389 180.114 177.41 180.03 177.487C179.701 177.794 170.962 178.198 170.719 177.918C170.64 177.827 170.26 173.489 170.104 170.905L169.969 168.653L170.991 168.555C171.553 168.501 173.904 168.5 176.217 168.553L180.422 168.648L180.302 172.997ZM168.197 171.982C168.313 173.834 168.492 176.005 168.594 176.805L168.781 178.261L164.575 178.312C162.262 178.34 159.7 178.415 158.882 178.478L157.394 178.594L157.585 175.405C157.689 173.652 157.899 171.979 158.05 171.689C158.201 171.399 158.324 170.811 158.324 170.383C158.324 168.616 158.331 168.613 163.346 168.613H167.986L168.197 171.982ZM223.618 170.459C221.969 170.709 221.683 171.77 223.107 172.357C224.234 172.822 225.743 172.263 225.927 171.312C226.027 170.795 225.47 170.12 225.034 170.229C224.948 170.251 224.311 170.355 223.618 170.459ZM217.779 175.328C218.083 175.694 217.79 176.129 216.195 177.678C215.118 178.724 214.066 179.58 213.857 179.58C213.648 179.58 213.117 179.862 212.676 180.206C212.236 180.551 211.403 180.832 210.824 180.831C209.602 180.829 207.275 180.239 207.522 179.993C207.615 179.901 208.935 179.409 210.457 178.9C213.637 177.836 214.805 177.183 215.909 175.854C216.789 174.794 217.23 174.67 217.779 175.328ZM234.07 176.212C237.163 179.57 239.214 183.579 240.283 188.353C240.572 189.645 241.012 191.389 241.26 192.227C241.509 193.065 241.712 194.002 241.712 194.308C241.712 194.947 240.113 195.674 237.936 196.027C237.157 196.154 236.378 196.357 236.205 196.478C235.339 197.088 232.934 197.487 228.721 197.719C223.551 198.003 222.63 197.922 222.21 197.141C221.762 196.307 220.23 191.777 220.358 191.664C220.42 191.607 221.247 191.174 222.195 190.699C224.214 189.689 226.895 187.525 227.238 186.63C227.498 185.949 227.098 184.906 226.576 184.906C226.397 184.906 225.419 185.635 224.403 186.526C221.751 188.85 217.341 190.546 213.949 190.546C212.547 190.546 212.446 190.495 212.579 189.841C213.054 187.507 213.035 186.443 212.487 184.789L211.902 183.025L213.57 182.074C215.824 180.79 217.836 179.094 219.172 177.349L220.281 175.901L225.254 176.037C227.989 176.112 230.864 176.038 231.642 175.874C232.421 175.71 233.14 175.56 233.24 175.541C233.339 175.522 233.713 175.824 234.07 176.212ZM187.252 180.212C187.56 180.376 187.739 181.175 187.821 182.757C187.887 184.025 188.157 186.473 188.421 188.196C188.911 191.386 188.995 192.852 188.9 196.532L188.847 198.601L186.723 198.573C185.555 198.557 183.396 198.597 181.924 198.661C180.453 198.725 178.294 198.759 177.126 198.735L175.002 198.693V195.574V192.455L176.182 192.264C177.817 191.999 178.763 191.577 178.98 191.013C179.268 190.265 178.782 186.598 178.309 185.955C177.988 185.518 177.474 185.376 176.207 185.376H174.53L174.474 182.647L174.418 179.917L177.148 179.807C180.677 179.665 186.673 179.906 187.252 180.212ZM163.925 181.833L164.019 183.255L162.692 183.466C161.145 183.712 160.853 183.435 160.846 181.714C160.842 180.607 160.892 180.552 162.022 180.437C163.775 180.259 163.823 180.294 163.925 181.833ZM172.268 181.381C172.353 182.028 172.44 184.389 172.461 186.63C172.483 188.87 172.606 191.841 172.735 193.232C172.864 194.623 172.916 196.43 172.851 197.249L172.732 198.735L170.642 198.492C168.348 198.226 162.348 198.242 156.829 198.529L153.289 198.712L153.251 193.141C153.231 190.077 153.199 186.089 153.181 184.28L153.148 180.99L156.009 180.9L158.87 180.811L159.085 182.988C159.236 184.507 159.446 185.221 159.782 185.349C160.407 185.588 162.88 185.579 164.378 185.332C165.401 185.164 165.596 184.991 165.871 184.004C166.045 183.38 166.188 182.271 166.189 181.538L166.191 180.206H169.153H172.114L172.268 181.381ZM204.442 180.617C203.229 181.359 202.06 182.876 201.569 184.346C201.102 185.748 200.998 185.846 199.993 185.846C199.07 185.846 198.917 185.74 198.917 185.101C198.917 183.861 199.767 182.233 200.958 181.192C201.892 180.375 202.339 180.21 203.569 180.225C204.853 180.241 204.97 180.294 204.442 180.617ZM208.539 182.677C211.619 184.547 211.262 190.949 208.015 192.075C206.569 192.578 206.125 192.52 204.867 191.669C203.943 191.044 203.68 190.609 203.356 189.164C202.287 184.408 205.261 180.686 208.539 182.677ZM176.945 188.683C177.012 189.381 177.003 190.015 176.926 190.093C176.848 190.17 176.319 190.233 175.75 190.233C174.82 190.233 174.695 190.124 174.513 189.157C174.249 187.756 174.497 187.413 175.774 187.413C176.771 187.413 176.83 187.477 176.945 188.683ZM201.063 188.6C201.122 189.009 200.993 189.301 200.748 189.313C200.52 189.323 198.092 189.393 195.354 189.466C190.753 189.589 190.384 189.558 190.481 189.054C190.557 188.662 190.936 188.489 191.841 188.435C192.531 188.394 194.157 188.235 195.455 188.081C196.753 187.928 198.523 187.826 199.389 187.855C200.753 187.9 200.976 187.999 201.063 188.6ZM192.004 193.601C192.078 206.629 192.014 221.963 191.885 222.092C191.298 222.676 191.164 220.637 191.092 210.07C191.048 203.554 190.969 196.883 190.916 195.246C190.812 192.032 190.854 191.8 191.54 191.8C191.882 191.8 191.996 192.246 192.004 193.601ZM243.319 198.374C244.667 199.949 245.694 200.372 247.771 200.202L249.421 200.068L249.473 202.954C249.502 204.542 249.683 206.135 249.876 206.493C250.177 207.053 250.08 207.277 249.195 208.077C247.586 209.531 244.517 210.631 242.003 210.654C240.04 210.673 239.767 210.591 238.546 209.618C235.279 207.014 234.171 205.812 233.575 204.22C233.082 202.906 232.834 202.609 232.228 202.609C231.553 202.609 231.485 202.743 231.485 204.075C231.485 205.277 231.311 205.729 230.519 206.582C228.811 208.421 228.592 208.946 227.684 213.344L227.538 214.052L225.713 213.106C224.194 212.319 223.495 212.154 221.55 212.124C220.265 212.104 218.804 212.25 218.304 212.449C217.804 212.648 217.356 212.771 217.309 212.723C217.152 212.564 218.357 207.343 219.028 205.273C219.721 203.137 221.159 201.278 222.752 200.457C223.349 200.15 225.236 199.943 228.658 199.809C233.381 199.624 235.787 199.282 236.52 198.691C236.693 198.551 237.613 198.293 238.565 198.117C239.517 197.941 240.65 197.655 241.083 197.481C242.208 197.03 242.151 197.007 243.319 198.374ZM258.293 199.488C259.282 200.552 259.666 201.263 259.826 202.324C260.275 205.305 259.306 207.407 257.191 208.038C255.558 208.525 255.073 208.504 253.772 207.889C252.288 207.188 251.796 206.329 251.432 203.808C250.946 200.441 251.748 198.348 253.669 197.967C255.604 197.585 256.928 198.02 258.293 199.488ZM161.091 203.064C161.142 204.52 161.337 205.895 161.524 206.12C161.99 206.678 167.729 206.36 168.364 205.74C168.639 205.472 168.862 204.382 168.952 202.862C169.032 201.517 169.116 200.393 169.139 200.365C169.162 200.337 169.817 200.436 170.596 200.586C171.375 200.736 174.286 200.865 177.064 200.872L182.116 200.886L182.205 204.254C182.253 206.107 182.345 208.327 182.41 209.189C182.474 210.051 182.446 212.052 182.347 213.636C182.174 216.401 182.134 216.528 181.334 216.805C180.875 216.965 180.048 217.473 179.495 217.937C178.553 218.726 178.287 218.781 175.251 218.807C169.52 218.858 163.102 218.191 161.313 217.36C158.584 216.091 158.019 215.926 156.417 215.926C155.273 215.926 154.411 216.172 153.206 216.843C152.3 217.348 151.063 217.85 150.457 217.96L149.356 218.159V209.373V200.587L154.391 200.487C157.16 200.432 159.779 200.393 160.212 200.401C160.981 200.416 161.001 200.477 161.091 203.064ZM166.756 202.365L166.849 204.273L165.077 204.381C164.102 204.441 163.246 204.431 163.175 204.359C162.948 204.132 163.034 200.687 163.272 200.45C163.398 200.325 164.212 200.276 165.082 200.34L166.663 200.458L166.756 202.365ZM187.943 200.573H189.162V209.376V218.178L187.769 217.365C187.002 216.918 185.962 216.552 185.457 216.552H184.538L184.314 208.671C184.07 200.078 184.068 200.088 185.818 200.408C186.316 200.498 187.272 200.573 187.943 200.573ZM224.67 215.01C226.042 215.693 226.664 216.197 226.8 216.736C227.345 218.897 225.577 221.54 223.153 222.19C221.047 222.755 219.442 222.376 217.715 220.907C216.33 219.728 216.224 219.532 216.225 218.173C216.229 214.456 220.41 212.89 224.67 215.01ZM158.243 218.376C158.522 218.553 158.289 218.958 157.427 219.796L156.22 220.97L155.367 219.856C154.897 219.243 154.6 218.602 154.707 218.43C154.935 218.062 157.68 218.02 158.243 218.376ZM185.144 218.691C185.628 218.883 185.576 219.069 184.672 220.382C184.113 221.194 183.542 221.863 183.404 221.869C183.05 221.883 181.666 220.272 181.427 219.568C181.31 219.223 181.404 218.869 181.655 218.711C182.156 218.395 184.361 218.382 185.144 218.691ZM162.099 221.331C162.1 221.46 161.294 221.566 160.308 221.566H158.515L159.6 220.452L160.684 219.337L161.391 220.217C161.779 220.7 162.098 221.201 162.099 221.331ZM154.028 221.644C153.947 221.773 153.465 221.879 152.956 221.879C151.948 221.879 151.771 221.381 152.379 220.25C152.72 219.616 152.742 219.621 153.45 220.505C153.848 221.002 154.108 221.514 154.028 221.644ZM150.234 220.626C150.063 221.277 149.086 221.459 146.684 221.285C145.377 221.191 145.352 221.173 145.606 220.514C145.765 220.101 146.261 219.999 148.101 219.999C150.243 219.999 150.387 220.041 150.234 220.626ZM169.083 220.646C170.241 220.807 172.613 220.939 174.354 220.939C177.16 220.939 177.518 221.001 177.514 221.487C177.502 222.822 177.152 222.921 173.224 222.69C171.173 222.57 169.141 222.421 168.708 222.358C168.276 222.295 167.037 222.232 165.955 222.218L163.988 222.192V221.102V220.011L165.483 220.182C166.305 220.276 167.925 220.486 169.083 220.646ZM188.41 220.792C188.698 221.228 188.873 221.645 188.799 221.717C188.726 221.79 188.07 221.945 187.341 222.061C185.801 222.307 185.6 221.889 186.699 220.724C187.564 219.807 187.768 219.815 188.41 220.792ZM181.089 222.897C181.009 223.026 180.598 223.132 180.175 223.132C179.382 223.132 179.18 222.519 179.609 221.407C179.78 220.962 179.918 221.018 180.523 221.772C180.915 222.262 181.17 222.768 181.089 222.897ZM161.471 224.051C161.471 224.175 161.143 224.583 160.743 224.957L160.015 225.638L159.144 224.733C158.635 224.204 158.423 223.778 158.633 223.709C159.192 223.523 161.471 223.798 161.471 224.051ZM153.289 223.936C153.289 224.428 152.59 225.319 152.33 225.159C151.755 224.806 152.002 223.759 152.66 223.759C153.006 223.759 153.289 223.839 153.289 223.936ZM156.719 226.83C154.393 226.973 154.062 226.655 155.069 225.246L155.895 224.09L157.076 225.413L158.257 226.735L156.719 226.83ZM189.162 224.371C189.162 224.817 188.46 226.266 188.246 226.261C188.144 226.258 187.494 225.77 186.802 225.176L185.543 224.096L187.353 224.084C188.348 224.077 189.162 224.207 189.162 224.371ZM180.98 225.189C180.98 225.682 180.281 226.573 180.021 226.412C179.446 226.059 179.693 225.012 180.351 225.012C180.697 225.012 180.98 225.092 180.98 225.189ZM185.186 226.468C186.136 227.347 186.308 227.657 185.973 227.882C185.567 228.154 182.579 227.962 182.259 227.643C182.018 227.403 183.249 225.325 183.626 225.334C183.815 225.339 184.517 225.849 185.186 226.468ZM249.635 231.362C247.203 232.137 245.982 234.411 247.576 235.198L248.247 235.53L247.48 236.418C246.526 237.523 246.578 238.909 247.579 239.051C248.713 239.212 249.254 240.151 249.546 242.461C249.698 243.67 250.1 245.279 250.44 246.037C251.091 247.49 253.95 250.392 254.731 250.392C255.226 250.392 255.872 252.762 255.872 254.577C255.872 255.857 256.543 256.829 257.243 256.562C257.865 256.324 257.965 253.577 257.409 251.989C256.991 250.794 257.114 250.61 258.162 250.872C258.784 251.028 259.105 251.483 259.661 253.001C260.724 255.904 263.343 258.005 263.686 256.23C263.751 255.895 263.378 255.221 262.801 254.628C262.252 254.064 261.615 253.057 261.383 252.389C260.978 251.22 260.99 251.167 261.699 250.973C262.963 250.626 264.63 249.141 266.261 246.909C267.124 245.728 267.83 244.615 267.83 244.436C267.83 243.85 269.518 243.385 271.726 243.363C274.632 243.334 274.984 242.845 273.553 240.824C272.89 239.887 272.514 238.971 272.488 238.226C272.39 235.479 270.81 233.973 267.445 233.418C264.7 232.965 263.013 233.672 261.356 235.968C260.642 236.958 260 237.54 259.686 237.482C259.368 237.424 258.93 236.63 258.521 235.365C258.033 233.86 257.58 233.112 256.749 232.443C255.022 231.051 252.036 230.597 249.635 231.362ZM255.406 233.791C255.878 234.232 256.474 235.412 256.853 236.654C257.439 238.574 257.597 238.799 258.589 239.126C259.704 239.492 261.058 239.324 261.776 238.73C261.997 238.548 262.399 237.933 262.671 237.364C263.322 235.997 264.314 235.391 265.987 235.339C269.08 235.243 270.941 236.503 270.521 238.408C270.223 239.761 268.58 241.846 267.354 242.424C266.758 242.706 266.17 243.286 266.001 243.759C265.553 245.012 263.435 247.713 262.342 248.425C261.572 248.927 260.958 249.035 259.286 248.96C256.439 248.832 254.979 248.371 253.635 247.173C252.241 245.932 251.505 244.104 251.158 241.031C250.947 239.156 250.754 238.582 250.191 238.159C249.477 237.623 249.574 236.919 250.362 236.919C250.997 236.919 251.781 236.026 251.781 235.304C251.781 234.857 251.403 234.527 250.473 234.163L249.165 233.651L250.08 233.245C251.546 232.595 254.445 232.892 255.406 233.791ZM267.883 237.912C267.952 238.398 268.197 238.642 268.616 238.642C269.553 238.642 269.46 237.419 268.512 237.285C267.902 237.199 267.797 237.304 267.883 237.912ZM279.997 241.827C279.882 241.942 279.787 242.295 279.787 242.611C279.787 243.008 280.02 243.185 280.54 243.185C281.288 243.185 281.839 242.449 281.5 241.904C281.295 241.572 280.304 241.522 279.997 241.827ZM274.225 247.76C274.026 248.277 274.667 248.89 275.224 248.717C275.397 248.663 275.584 248.313 275.64 247.939C275.716 247.424 275.579 247.258 275.079 247.258C274.716 247.258 274.331 247.484 274.225 247.76ZM283.16 247.975C282.911 248.623 283.398 249.216 284.073 249.087C284.909 248.926 284.847 247.754 283.997 247.633C283.629 247.581 283.253 247.735 283.16 247.975ZM289.977 250.217C289.696 250.947 289.981 251.786 290.547 251.895C291.151 252.011 291.877 250.873 291.621 250.21C291.398 249.63 290.202 249.634 289.977 250.217ZM272.13 250.601C271.745 250.984 271.914 251.975 272.396 252.16C273.159 252.451 273.856 251.692 273.476 250.985C273.156 250.39 272.523 250.209 272.13 250.601ZM278.445 250.783C278.222 251.426 278.902 252.585 279.502 252.585C280.207 252.585 280.591 251.448 280.089 250.847C279.624 250.288 278.63 250.25 278.445 250.783ZM286.003 254.856C285.765 255.503 286.095 256.031 286.736 256.031C287.17 256.031 287.339 255.811 287.339 255.248C287.339 254.688 287.169 254.465 286.744 254.465C286.416 254.465 286.083 254.641 286.003 254.856ZM290.625 257.315C290.347 257.762 291.266 258.676 291.714 258.4C291.904 258.283 292.059 257.914 292.059 257.58C292.059 256.914 290.995 256.718 290.625 257.315ZM281.266 257.483C281.145 257.604 281.046 257.971 281.046 258.299C281.046 258.738 281.232 258.869 281.754 258.795C282.217 258.729 282.462 258.479 282.462 258.072C282.462 257.451 281.684 257.067 281.266 257.483ZM257.533 274.126C255.897 276.662 250.731 283.092 248.871 284.909C247.526 286.222 247.483 286.386 248.241 287.319C248.544 287.692 249.037 288.312 249.337 288.699C249.637 289.085 250.477 290.159 251.205 291.085C252.477 292.705 252.505 292.787 251.919 293.197C251.024 293.824 248.615 295.861 247.699 296.766C247.262 297.197 246.495 297.902 245.995 298.332L245.086 299.114L245.288 297.797C245.546 296.121 244.823 293.928 243.454 292.229C242.894 291.535 242.179 290.521 241.864 289.975C241.326 289.041 241.323 288.901 241.805 287.625C242.564 285.615 242.717 282.238 242.126 280.506C241.474 278.593 239.739 275.935 238.7 275.257C237.708 274.61 233.82 273.591 232.316 273.583C230.64 273.575 227.75 275.297 226.343 277.142C224.2 279.953 223.637 282.782 224.537 286.22C225.276 289.045 224.93 290.38 222.964 292.28C220.369 294.79 219.56 297.586 220.486 300.843C221.407 304.084 221.421 305.296 220.548 306.334C219.39 307.713 218.304 310.931 218.53 312.315C218.778 313.841 220.059 315.708 221.573 316.75C222.683 317.514 223.275 318.697 222.548 318.697C222.085 318.697 221.573 320.555 221.573 322.234C221.573 324.264 222.596 326.303 224.205 327.481C224.887 327.981 225.566 328.43 225.713 328.478C225.86 328.527 225.52 329.445 224.957 330.518C223.632 333.041 223.846 333.441 226.797 333.965C228.946 334.347 237.371 334.279 240.239 333.856C241.692 333.642 242.971 332.974 242.971 332.43C242.971 332.236 242.475 331.334 241.869 330.426C241.264 329.517 240.768 328.694 240.768 328.597C240.768 328.5 241.282 327.894 241.91 327.25C242.538 326.606 243.321 325.454 243.65 324.69L244.248 323.302L247.792 323.491C249.742 323.595 251.578 323.772 251.874 323.885C252.594 324.16 252.55 324.897 251.676 327.231C250.76 329.675 249.579 333.196 249.579 333.479C249.579 333.596 249.806 333.918 250.084 334.195C250.523 334.632 251.562 334.692 257.918 334.648C261.948 334.621 265.377 334.51 265.538 334.402C266.195 333.962 266.222 332.96 265.627 331.127C265.281 330.064 264.86 328.911 264.692 328.566C264.117 327.389 263.11 324.627 263.11 324.226C263.11 323.937 263.79 323.818 265.548 323.801C266.89 323.788 269.191 323.554 270.662 323.283C272.133 323.011 274.257 322.798 275.382 322.81C280.034 322.857 280.102 322.845 280.102 321.996C280.102 320.904 278.976 318.886 277.533 317.39C276.857 316.689 276.105 315.734 275.863 315.268C275.621 314.801 274.882 313.93 274.222 313.331C273.562 312.733 272.551 311.705 271.976 311.046L270.93 309.849L271.726 309.022C272.163 308.568 272.921 307.468 273.409 306.578C273.898 305.689 275.033 304.175 275.931 303.213C276.894 302.183 277.495 301.282 277.393 301.019C277.21 300.544 271.272 295.109 269.904 294.164C269.455 293.855 269.088 293.312 269.088 292.958C269.088 292.336 270.613 289.038 272.544 285.484C273.059 284.536 273.483 283.66 273.487 283.538C273.498 283.172 272.146 282.028 271.134 281.547C270.615 281.301 269.623 280.593 268.931 279.975C268.239 279.357 266.752 278.313 265.627 277.656C264.502 276.998 263.182 276.091 262.693 275.639C261.802 274.815 259.003 273.264 258.407 273.264C258.233 273.264 257.839 273.652 257.533 274.126ZM235.261 275.97C236.473 276.253 237.696 276.711 237.98 276.989C238.264 277.267 239.02 278.481 239.66 279.688C240.713 281.673 240.807 282.046 240.649 283.626C240.553 284.586 240.258 286.202 239.992 287.217C239.726 288.232 239.509 289.239 239.509 289.454C239.509 289.67 240.315 291.015 241.299 292.443C242.913 294.786 243.102 295.232 243.223 296.991C243.389 299.403 243.183 300.263 242.181 301.34C240.848 302.773 241.107 303.411 244.258 306.455L247.119 309.218L246.64 310.119C246.377 310.615 245.083 312.072 243.766 313.358C242.448 314.644 240.896 316.406 240.317 317.275C239.738 318.143 238.975 319.113 238.622 319.43C237.99 319.998 237.976 319.989 237.645 318.803C236.901 316.135 237.376 313.194 238.887 311.118C239.815 309.842 239.831 308.981 238.925 308.987C236.964 309 235.926 309.455 234.447 310.952C233.597 311.812 232.901 312.699 232.901 312.924C232.901 313.819 232.21 313.66 230.935 312.474C229.097 310.763 227.99 309.924 227.571 309.924C227.081 309.924 226.63 311.232 226.923 311.803C228.219 314.338 227.941 326.843 226.587 326.843C226.416 326.843 225.643 326.212 224.869 325.441C223.557 324.135 223.461 323.927 223.462 322.386C223.463 321.288 223.674 320.389 224.092 319.707C224.437 319.143 224.72 318.198 224.72 317.608C224.72 316.69 224.517 316.395 223.324 315.578C220.195 313.434 219.839 311.248 222.041 307.695C223.196 305.832 223.226 305.711 223.048 303.592C222.947 302.392 222.681 301.191 222.458 300.923C221.868 300.216 221.993 297.13 222.663 295.844C222.971 295.251 223.9 294.123 224.727 293.337C226.944 291.23 227.168 290.317 226.53 285.995C226.039 282.668 226.039 282.341 226.54 280.783C227.136 278.927 228.925 276.873 230.698 276.009C232.076 275.337 232.533 275.333 235.261 275.97ZM261.176 276.773C261.757 277.277 263.386 278.456 264.795 279.393C266.204 280.33 267.928 281.554 268.625 282.115C269.321 282.675 270.233 283.357 270.65 283.63L271.41 284.125L270.77 285.039C269.317 287.114 266.886 292.508 266.886 293.654C266.886 294.015 269.506 296.443 269.901 296.447C270.088 296.449 270.995 297.237 271.916 298.199C272.838 299.16 273.924 300.163 274.329 300.428C275.306 301.065 275.26 301.478 274.089 302.58C273.552 303.086 272.709 304.205 272.216 305.067C271.722 305.929 270.676 307.262 269.889 308.03C269.103 308.799 268.459 309.526 268.459 309.646C268.459 309.913 269.946 311.641 272.125 313.91C273.016 314.837 274.149 316.188 274.643 316.912C275.136 317.635 275.999 318.666 276.562 319.204C278.067 320.642 277.902 320.89 275.437 320.89C274.255 320.89 271.742 321.116 269.851 321.392C267.917 321.674 265.106 321.849 263.424 321.792C260.096 321.678 257.126 321.686 253.827 321.817C252.615 321.865 249.783 321.759 247.533 321.581C245.283 321.403 242.557 321.281 241.476 321.309C240.394 321.337 239.509 321.254 239.509 321.125C239.509 320.996 239.63 320.89 239.779 320.89C239.927 320.89 240.67 320.021 241.431 318.959C242.191 317.897 243.946 315.844 245.331 314.396C247.819 311.795 249.385 309.558 249.201 308.869C249.149 308.673 247.974 307.459 246.589 306.171C242.965 302.797 243.035 302.954 244.624 301.792C245.359 301.253 246.951 299.917 248.163 298.822C251.401 295.896 253.754 293.944 254.044 293.944C254.665 293.944 254.23 292.064 253.355 290.967C252.836 290.317 252.411 289.62 252.411 289.419C252.411 289.218 251.921 288.52 251.322 287.869L250.233 286.685L251.715 284.813C254.656 281.099 256.053 279.276 257.416 277.378C258.977 275.203 259.308 275.15 261.176 276.773ZM181.138 283.831C180.792 283.912 180.137 284.327 179.682 284.753L178.856 285.526L177.984 284.722C177.464 284.242 176.744 283.917 176.199 283.917C175.042 283.917 173.547 284.678 173.112 285.487C172.909 285.864 172.453 286.111 171.959 286.111C171.509 286.111 170.6 286.272 169.939 286.469C168.605 286.867 167.764 288.157 167.764 289.805C167.764 290.635 167.634 290.765 166.607 290.957C165.919 291.085 165.024 291.596 164.404 292.214C163.417 293.197 163.217 293.708 163.338 294.936C163.366 295.224 163.099 295.551 162.743 295.663C160.713 296.305 159.244 298.792 159.858 300.547C160.122 301.301 160.098 301.527 159.736 301.665C159.157 301.886 158.324 303.54 158.324 304.468C158.324 305.791 158.879 306.653 160.688 308.135C162.722 309.803 163.458 309.918 167.893 309.261C170.093 308.935 170.348 308.959 171.727 309.624C173.195 310.332 173.213 310.333 174.881 309.768C176.911 309.081 177.856 309.086 180.034 309.796C181.442 310.254 181.855 310.277 182.679 309.943C184.457 309.221 185.032 309.212 186.183 309.888C187.539 310.685 188.456 310.725 189.45 310.032C190.016 309.637 190.324 309.595 190.74 309.854C191.919 310.587 193.387 310.625 194.255 309.945C194.71 309.589 195.498 309.297 196.007 309.297C196.91 309.297 197.973 308.492 197.973 307.808C197.973 307.619 198.397 307.042 198.917 306.525C199.693 305.753 199.861 305.328 199.861 304.14C199.861 302.722 199.262 301.374 198.305 300.637C197.987 300.392 197.87 299.821 197.932 298.818C198.047 296.958 197.413 295.964 195.806 295.484C194.583 295.119 194.581 295.116 194.444 293.231C194.329 291.643 194.167 291.223 193.428 290.59C192.775 290.031 192.327 289.886 191.685 290.026C190.873 290.204 190.808 290.137 190.613 288.922C190.248 286.648 187.886 285.173 185.639 285.815C184.942 286.014 184.746 285.946 184.588 285.45C184.252 284.396 182.413 283.533 181.138 283.831ZM177.319 286.522C178.116 287.36 178.475 287.526 179.183 287.383C179.693 287.281 180.224 286.879 180.449 286.424C180.888 285.54 182.252 285.215 182.795 285.866C182.985 286.094 183.185 286.91 183.24 287.681C183.366 289.44 184.001 289.635 185.322 288.319C187.145 286.504 188.667 287.338 189.114 290.399L189.334 291.907H190.867C192.779 291.907 193.215 292.572 192.72 294.729C192.277 296.656 192.84 297.496 194.382 297.208C195.648 296.972 196.399 297.448 196.399 298.487C196.399 298.876 196.18 299.375 195.911 299.597C195.614 299.843 195.46 300.379 195.518 300.967C195.598 301.787 195.735 301.926 196.419 301.883C196.928 301.851 197.373 302.066 197.624 302.467C198.549 303.941 198.231 305.335 196.852 305.857C196.334 306.054 196.085 306.391 196.085 306.896C196.085 307.521 195.958 307.619 195.312 307.496C194.827 307.404 194.231 307.591 193.708 308.001C192.933 308.608 192.799 308.621 191.767 308.192C190.484 307.658 189.284 307.593 189.005 308.044C188.713 308.513 187.501 308.422 186.337 307.843C185.448 307.402 185.1 307.385 183.85 307.722C182.104 308.193 180.387 308.205 179.93 307.749C179.452 307.274 176.327 307.364 174.844 307.896C173.214 308.481 172.656 308.471 172.137 307.847C171.703 307.327 170.569 307.338 164.932 307.914C163.237 308.087 163.17 308.062 161.659 306.723C160.2 305.43 160.129 305.294 160.335 304.199C160.515 303.247 160.676 303.055 161.248 303.115C161.812 303.173 161.96 303.007 162.037 302.234C162.088 301.709 161.916 300.869 161.654 300.366C161.207 299.509 161.224 299.392 161.915 298.499C162.484 297.764 162.994 297.498 164.15 297.332C166.117 297.049 166.574 296.589 165.64 295.83C165.251 295.513 164.932 294.983 164.932 294.653C164.932 294.003 165.988 292.911 166.945 292.573C167.318 292.441 167.77 292.569 168.154 292.915C168.744 293.447 168.792 293.44 169.367 292.732C170.027 291.92 170.135 291.264 169.656 290.97C169.237 290.712 169.537 288.573 170.038 288.245C170.259 288.101 170.929 288.02 171.528 288.066C172.398 288.131 172.654 288.304 172.801 288.931C172.919 289.437 173.202 289.714 173.6 289.714C174.12 289.714 174.23 289.46 174.31 288.076C174.383 286.815 174.563 286.327 175.088 285.961C176.033 285.301 176.198 285.342 177.319 286.522ZM74.6216 289.904C65.4527 290.303 59.4746 291.04 58.0907 291.943C57.5998 292.263 57.2741 293.043 56.894 294.808C55.9129 299.363 55.3609 302.872 55.158 305.848L54.9547 308.823L53.3008 309.084C52.0912 309.275 51.5477 309.528 51.2787 310.026C51.066 310.419 50.8624 312.569 50.7966 315.113C50.6607 320.361 50.7217 320.475 53.7438 320.632L55.6797 320.733L55.8691 322.151C56.1621 324.339 57.2272 325.639 59.3025 326.34C63.4385 327.739 67.0198 325.94 67.8468 322.051C68.0563 321.064 67.298 321.084 75.0936 321.856C77.9269 322.137 84.2738 322.416 91.1346 322.56L93.6444 322.613L93.8269 323.71C94.2316 326.14 95.8154 327.327 99.1106 327.67C100.676 327.833 101.241 327.749 102.428 327.177C104.219 326.314 105.68 324.684 105.95 323.249C106.129 322.3 106.324 322.104 107.368 321.824C108.035 321.646 108.671 321.353 108.782 321.173C109.307 320.327 108.624 304.595 107.803 298.644C106.694 290.609 106.794 290.719 100.11 290.169C94.3314 289.693 82.3282 289.569 74.6216 289.904ZM98.8513 292.089C100.842 292.297 102.822 292.46 103.252 292.451C103.682 292.442 104.32 292.592 104.668 292.785C105.265 293.114 105.249 293.145 104.391 293.304C103.889 293.397 100.208 293.37 96.2093 293.243C92.2108 293.115 87.1034 293.01 84.8601 293.008C82.6165 293.005 80.5277 292.924 80.2187 292.826C79.2054 292.506 79.5868 291.795 80.8364 291.675C83.2383 291.444 95.35 291.722 98.8513 292.089ZM77.6041 294.962C77.5229 296.729 77.4543 300.571 77.4521 303.5C77.4486 308.008 77.5248 308.883 77.948 309.193C78.2825 309.438 80.495 309.578 84.6376 309.616C88.0417 309.647 94.4006 309.703 98.7682 309.741C103.136 309.779 106.801 309.902 106.914 310.014C107.027 310.127 107.135 312.406 107.155 315.081C107.183 318.972 107.103 319.977 106.752 320.11C106.511 320.203 106.291 320.24 106.263 320.193C105.013 318.058 103.507 317.184 100.647 316.932C98.1471 316.712 96.0602 317.561 94.8194 319.305C93.9767 320.49 93.9648 320.495 91.3168 320.661C89.8555 320.753 88.3092 320.695 87.8806 320.533C87.452 320.371 85.1077 320.247 82.6709 320.257C80.2341 320.267 76.8951 320.136 75.251 319.965C73.6068 319.794 71.3173 319.65 70.1634 319.645C68.1202 319.637 68.0475 319.608 67.4043 318.572C66.1759 316.593 63.4077 315.423 60.7761 315.771C58.9576 316.011 57.8676 316.572 56.9491 317.739C56.2168 318.67 55.4704 318.886 53.443 318.754L52.5607 318.697L52.6274 315.091C52.667 312.936 52.8319 311.376 53.0374 311.215C53.5091 310.845 54.9811 310.611 59.0492 310.26C60.9548 310.096 62.7463 309.872 63.0301 309.764C63.4593 309.6 63.5792 308.846 63.7428 305.28C63.9404 300.978 64.4861 294.026 64.7192 292.838C64.8287 292.28 65.1226 292.191 67.1347 292.109C68.3946 292.058 69.4852 291.956 69.5586 291.883C69.6319 291.81 71.5054 291.751 73.722 291.751H77.7523L77.6041 294.962ZM62.549 295.276C62.4498 296.697 62.2346 299.623 62.07 301.777C61.9058 303.931 61.7598 306.282 61.7456 307.001L61.7201 308.307L59.3173 308.41L56.9145 308.514L57.1212 305.537C57.3544 302.183 58.7197 293.982 59.1068 293.61C59.4085 293.32 61.3224 292.759 62.1459 292.719C62.6821 292.693 62.7145 292.897 62.549 295.276ZM90.9845 295.047C92.8017 295.148 96.8022 295.251 99.874 295.276C104.692 295.315 105.459 295.389 105.459 295.808C105.459 296.236 104.144 296.306 94.4613 296.399C88.4127 296.456 82.5362 296.405 81.4028 296.284C79.521 296.083 79.3417 296.001 79.3417 295.339V294.613L83.5111 294.738C85.8044 294.807 89.1673 294.946 90.9845 295.047ZM66.1255 297.077C65.5172 297.683 65.3942 298.387 65.4493 300.949C65.4889 302.795 65.8527 303.03 68.6703 303.03C71.6216 303.03 71.7896 302.853 71.7896 299.74C71.7896 296.685 71.5866 296.451 68.9465 296.451C67.1743 296.451 66.6343 296.571 66.1255 297.077ZM105.223 298.506C105.904 298.654 106.089 298.872 106.089 299.53L106.089 300.367L93.1085 300.276C85.9696 300.225 79.9515 300.124 79.735 300.05C79.5189 299.977 79.3417 299.525 79.3417 299.045L79.3414 298.174L91.8499 298.246C98.7292 298.286 104.748 298.403 105.223 298.506ZM69.9016 299.722C69.9016 301.344 69.7395 301.5 68.2986 301.267C67.3524 301.114 67.2316 300.987 67.2662 300.182C67.3471 298.306 67.3288 298.33 68.6429 298.33H69.9016V299.722ZM103.729 302.342L106.246 302.56L106.344 303.735L106.441 304.91L105.085 304.906C103.918 304.902 98.9608 304.669 88.6245 304.132C87.2399 304.061 84.5851 303.994 82.7244 303.986L79.3417 303.97L79.3414 302.952V301.934L90.2762 302.029C96.2905 302.081 102.344 302.222 103.729 302.342ZM88.7818 306.05C90.2529 306.132 94.8531 306.367 99.0049 306.573C105.986 306.919 106.561 306.991 106.667 307.537C106.774 308.092 106.613 308.115 103.996 307.916C102.464 307.8 96.2908 307.675 90.2765 307.639L79.3417 307.574V306.508V305.443L82.7244 305.671C84.5851 305.797 87.3107 305.967 88.7818 306.05ZM124.025 306.883C122.006 307.854 121.181 308.529 121.265 309.14C121.378 309.965 122.779 309.892 123.915 309.002C124.985 308.164 125.792 308.184 126.294 309.062C126.857 310.047 126.813 310.638 126.141 311.129C125.197 311.818 125.569 312.873 126.821 313.057C127.639 313.177 128.024 313.468 128.473 314.305C128.796 314.906 129.06 315.794 129.06 316.279C129.06 316.998 128.847 317.25 127.914 317.639C126.63 318.173 126.077 318.224 125.051 317.905C124.073 317.6 123.76 318.53 124.443 319.715C125.373 321.328 124.959 323.71 123.748 323.71C122.949 323.71 122.255 322.834 121.848 321.314C121.317 319.327 119.934 319.16 119.934 321.083C119.934 323.634 121.675 325.59 123.946 325.59C125.798 325.59 126.915 324.064 126.954 321.48C126.976 320.061 127.033 319.962 127.939 319.766C129.106 319.515 130.514 318.563 130.968 317.72C131.47 316.785 130.772 313.968 129.659 312.439C129.143 311.73 128.601 310.51 128.455 309.729C127.966 307.125 126.064 305.903 124.025 306.883ZM113.011 311.021C112.386 311.77 113.029 312.197 115.031 312.363C117.452 312.563 118.428 312.276 118.303 311.401C118.212 310.764 118.008 310.699 115.814 310.616C113.939 310.545 113.335 310.632 113.011 311.021ZM235.458 314.951C235.319 316.235 235.318 317.71 235.455 318.227C235.592 318.744 235.872 319.801 236.077 320.577C236.282 321.352 236.641 322.41 236.874 322.927C237.108 323.444 237.443 324.711 237.621 325.744C237.819 326.903 238.41 328.424 239.163 329.721L240.384 331.82L238.609 332.041C235.687 332.404 227.291 332.348 226.903 331.963C226.654 331.714 226.83 331.141 227.541 329.886C229.364 326.671 229.775 324.516 229.659 318.785C229.546 313.179 229.676 312.94 231.2 315.935C232.354 318.202 233.379 317.949 233.974 315.25C234.167 314.377 235.381 312.288 235.581 312.487C235.651 312.557 235.596 313.666 235.458 314.951ZM113.759 314.456C113.439 315.285 114.248 315.877 115.702 315.877C117.077 315.877 118.187 315.204 117.957 314.509C117.89 314.309 116.985 314.112 115.893 314.06C114.36 313.986 113.907 314.07 113.759 314.456ZM153.721 323.238C152.227 324.129 151.401 325.604 151.401 327.38C151.401 328.589 151.381 328.61 149.813 329.01C147.787 329.527 146.552 330.568 145.877 332.33C144.484 335.96 146.636 339.698 150.146 339.746C151.199 339.761 151.408 339.871 151.442 340.432C151.531 341.919 151.645 342.403 152.117 343.313C152.389 343.836 153.096 344.525 153.69 344.843C154.548 345.303 154.761 345.603 154.737 346.315C154.72 346.806 154.653 347.208 154.59 347.209C154.526 347.209 154.007 346.801 153.435 346.302C152.16 345.187 149.644 344.23 147.215 343.935C144.253 343.576 143.633 344.646 145.659 346.626C147.875 348.793 149.52 351.128 150.133 352.977C150.758 354.861 151.233 355 157.065 355C162.898 355 163.373 354.861 163.998 352.977C164.611 351.128 166.255 348.793 168.472 346.626C170.453 344.689 169.864 343.554 167.066 343.917C164.169 344.292 161.49 345.35 160.399 346.551C159.591 347.439 159.268 347.38 159.268 346.341C159.268 345.676 159.517 345.339 160.326 344.905C161.283 344.391 162.811 342.31 162.7 341.67C162.675 341.529 162.672 341.042 162.692 340.588C162.726 339.845 162.853 339.762 163.985 339.746C166.418 339.713 168.395 337.817 168.639 335.283C168.932 332.244 167.217 329.75 164.328 329.013L162.73 328.605L162.727 327.176C162.723 324.313 160.497 322.459 157.065 322.461C155.451 322.462 154.747 322.626 153.721 323.238ZM241.999 323.945C241.666 324.823 240.208 326.53 239.791 326.53C239.611 326.53 238.88 323.877 238.88 323.225C238.88 323.147 239.655 323.083 240.603 323.083H242.326L241.999 323.945ZM261.536 324.652C261.536 325.17 262.023 326.827 262.618 328.334C263.212 329.84 263.794 331.461 263.91 331.935L264.122 332.796H257.951C254.558 332.796 251.781 332.753 251.781 332.701C251.781 332.649 252.348 330.876 253.04 328.762C253.732 326.647 254.299 324.728 254.299 324.496C254.299 323.858 254.808 323.762 258.311 323.735L261.536 323.71V324.652ZM159.368 324.701C160.538 325.322 160.821 325.986 160.831 328.141C160.842 330.342 161.16 330.8 162.555 330.621C163.594 330.488 165.374 331.245 166.006 332.089C166.337 332.53 166.67 333.549 166.748 334.352C166.876 335.675 166.791 335.911 165.852 336.846C164.825 337.868 164.792 337.877 162.668 337.668C160.82 337.487 160.493 337.532 160.317 337.989C160.205 338.281 160.277 338.781 160.477 339.1C161.145 340.164 160.924 342.01 160.029 342.847C159.334 343.498 158.91 343.606 157.065 343.606C155.203 343.606 154.801 343.501 154.076 342.823C153.205 342.008 153.206 342.016 153.662 338.436C153.761 337.657 153.749 337.654 151.535 337.752C149.421 337.846 149.257 337.802 148.27 336.884C147.314 335.994 147.243 335.798 147.378 334.405C147.613 331.967 149.11 330.611 151.581 330.598C153.181 330.59 153.441 330.216 153.361 328.034C153.287 325.998 153.535 325.383 154.705 324.715C155.529 324.245 158.491 324.236 159.368 324.701ZM155.347 332.715C154.354 333.781 154.332 334.678 155.276 335.562C156.908 337.088 159.845 335.941 159.456 333.93C159.053 331.851 156.779 331.178 155.347 332.715ZM157.643 348.069C157.701 349.404 157.894 350.585 158.071 350.694C158.707 351.086 159.642 350.55 160.395 349.363C160.816 348.698 161.691 347.822 162.339 347.416C163.578 346.64 165.824 345.8 166.053 346.028C166.127 346.101 165.722 346.714 165.153 347.39C163.724 349.088 162.1 351.705 162.1 352.31C162.1 352.586 161.941 352.91 161.747 353.03C161.271 353.322 152.593 353.23 152.335 352.93C152.223 352.799 151.94 352.199 151.705 351.596C151.228 350.367 150.471 349.206 148.965 347.391C148.403 346.715 148.004 346.101 148.078 346.028C148.341 345.766 150.635 346.687 151.952 347.583C152.687 348.083 153.509 348.916 153.777 349.434C154.277 350.395 155.337 351.005 156.043 350.738C156.282 350.647 156.436 350.002 156.436 349.095C156.436 345.178 157.479 344.292 157.643 348.069Z" fill="black"/>
</g>
<defs>
<clipPath id="clip0_708_1750">
<rect width="344" height="366" fill="white"/>
</clipPath>
</defs>
</svg>
